G04 #@! TF.GenerationSoftware,KiCad,Pcbnew,(5.1.5)-3*
G04 #@! TF.CreationDate,2020-01-07T01:01:47+09:00*
G04 #@! TF.ProjectId,irController,6972436f-6e74-4726-9f6c-6c65722e6b69,rev?*
G04 #@! TF.SameCoordinates,Original*
G04 #@! TF.FileFunction,Legend,Top*
G04 #@! TF.FilePolarity,Positive*
%FSLAX46Y46*%
G04 Gerber Fmt 4.6, Leading zero omitted, Abs format (unit mm)*
G04 Created by KiCad (PCBNEW (5.1.5)-3) date 2020-01-07 01:01:47*
%MOMM*%
%LPD*%
G04 APERTURE LIST*
%ADD10C,0.200000*%
%ADD11C,0.150000*%
%ADD12C,0.120000*%
%ADD13C,0.152400*%
%ADD14C,0.124460*%
%ADD15C,0.254000*%
G04 APERTURE END LIST*
D10*
X148928571Y-79178571D02*
X149261904Y-79178571D01*
X149404761Y-79702380D02*
X148928571Y-79702380D01*
X148928571Y-78702380D01*
X149404761Y-78702380D01*
X149785714Y-79654761D02*
X149928571Y-79702380D01*
X150166666Y-79702380D01*
X150261904Y-79654761D01*
X150309523Y-79607142D01*
X150357142Y-79511904D01*
X150357142Y-79416666D01*
X150309523Y-79321428D01*
X150261904Y-79273809D01*
X150166666Y-79226190D01*
X149976190Y-79178571D01*
X149880952Y-79130952D01*
X149833333Y-79083333D01*
X149785714Y-78988095D01*
X149785714Y-78892857D01*
X149833333Y-78797619D01*
X149880952Y-78750000D01*
X149976190Y-78702380D01*
X150214285Y-78702380D01*
X150357142Y-78750000D01*
X150785714Y-79702380D02*
X150785714Y-78702380D01*
X151166666Y-78702380D01*
X151261904Y-78750000D01*
X151309523Y-78797619D01*
X151357142Y-78892857D01*
X151357142Y-79035714D01*
X151309523Y-79130952D01*
X151261904Y-79178571D01*
X151166666Y-79226190D01*
X150785714Y-79226190D01*
X151785714Y-79321428D02*
X152547619Y-79321428D01*
X152928571Y-78702380D02*
X153166666Y-79702380D01*
X153357142Y-78988095D01*
X153547619Y-79702380D01*
X153785714Y-78702380D01*
X154738095Y-79702380D02*
X154404761Y-79226190D01*
X154166666Y-79702380D02*
X154166666Y-78702380D01*
X154547619Y-78702380D01*
X154642857Y-78750000D01*
X154690476Y-78797619D01*
X154738095Y-78892857D01*
X154738095Y-79035714D01*
X154690476Y-79130952D01*
X154642857Y-79178571D01*
X154547619Y-79226190D01*
X154166666Y-79226190D01*
X155357142Y-78702380D02*
X155547619Y-78702380D01*
X155642857Y-78750000D01*
X155738095Y-78845238D01*
X155785714Y-79035714D01*
X155785714Y-79369047D01*
X155738095Y-79559523D01*
X155642857Y-79654761D01*
X155547619Y-79702380D01*
X155357142Y-79702380D01*
X155261904Y-79654761D01*
X155166666Y-79559523D01*
X155119047Y-79369047D01*
X155119047Y-79035714D01*
X155166666Y-78845238D01*
X155261904Y-78750000D01*
X155357142Y-78702380D01*
X156404761Y-78702380D02*
X156595238Y-78702380D01*
X156690476Y-78750000D01*
X156785714Y-78845238D01*
X156833333Y-79035714D01*
X156833333Y-79369047D01*
X156785714Y-79559523D01*
X156690476Y-79654761D01*
X156595238Y-79702380D01*
X156404761Y-79702380D01*
X156309523Y-79654761D01*
X156214285Y-79559523D01*
X156166666Y-79369047D01*
X156166666Y-79035714D01*
X156214285Y-78845238D01*
X156309523Y-78750000D01*
X156404761Y-78702380D01*
X157261904Y-79702380D02*
X157261904Y-78702380D01*
X157595238Y-79416666D01*
X157928571Y-78702380D01*
X157928571Y-79702380D01*
X158404761Y-79321428D02*
X159166666Y-79321428D01*
X159833333Y-78702380D02*
X159928571Y-78702380D01*
X160023809Y-78750000D01*
X160071428Y-78797619D01*
X160119047Y-78892857D01*
X160166666Y-79083333D01*
X160166666Y-79321428D01*
X160119047Y-79511904D01*
X160071428Y-79607142D01*
X160023809Y-79654761D01*
X159928571Y-79702380D01*
X159833333Y-79702380D01*
X159738095Y-79654761D01*
X159690476Y-79607142D01*
X159642857Y-79511904D01*
X159595238Y-79321428D01*
X159595238Y-79083333D01*
X159642857Y-78892857D01*
X159690476Y-78797619D01*
X159738095Y-78750000D01*
X159833333Y-78702380D01*
X160547619Y-78797619D02*
X160595238Y-78750000D01*
X160690476Y-78702380D01*
X160928571Y-78702380D01*
X161023809Y-78750000D01*
X161071428Y-78797619D01*
X161119047Y-78892857D01*
X161119047Y-78988095D01*
X161071428Y-79130952D01*
X160500000Y-79702380D01*
X161119047Y-79702380D01*
D11*
X160211238Y-96374000D02*
X160135047Y-96335904D01*
X160020761Y-96335904D01*
X159906476Y-96374000D01*
X159830285Y-96450190D01*
X159792190Y-96526380D01*
X159754095Y-96678761D01*
X159754095Y-96793047D01*
X159792190Y-96945428D01*
X159830285Y-97021619D01*
X159906476Y-97097809D01*
X160020761Y-97135904D01*
X160096952Y-97135904D01*
X160211238Y-97097809D01*
X160249333Y-97059714D01*
X160249333Y-96793047D01*
X160096952Y-96793047D01*
X160592190Y-97135904D02*
X160592190Y-96335904D01*
X161049333Y-97135904D01*
X161049333Y-96335904D01*
X161430285Y-97135904D02*
X161430285Y-96335904D01*
X161620761Y-96335904D01*
X161735047Y-96374000D01*
X161811238Y-96450190D01*
X161849333Y-96526380D01*
X161887428Y-96678761D01*
X161887428Y-96793047D01*
X161849333Y-96945428D01*
X161811238Y-97021619D01*
X161735047Y-97097809D01*
X161620761Y-97135904D01*
X161430285Y-97135904D01*
X162801714Y-96297809D02*
X162116000Y-97326380D01*
X163068380Y-97135904D02*
X163068380Y-96335904D01*
X163335047Y-96907333D01*
X163601714Y-96335904D01*
X163601714Y-97135904D01*
X163982666Y-97135904D02*
X163982666Y-96335904D01*
X164325523Y-97097809D02*
X164439809Y-97135904D01*
X164630285Y-97135904D01*
X164706476Y-97097809D01*
X164744571Y-97059714D01*
X164782666Y-96983523D01*
X164782666Y-96907333D01*
X164744571Y-96831142D01*
X164706476Y-96793047D01*
X164630285Y-96754952D01*
X164477904Y-96716857D01*
X164401714Y-96678761D01*
X164363619Y-96640666D01*
X164325523Y-96564476D01*
X164325523Y-96488285D01*
X164363619Y-96412095D01*
X164401714Y-96374000D01*
X164477904Y-96335904D01*
X164668380Y-96335904D01*
X164782666Y-96374000D01*
X165277904Y-96335904D02*
X165430285Y-96335904D01*
X165506476Y-96374000D01*
X165582666Y-96450190D01*
X165620761Y-96602571D01*
X165620761Y-96869238D01*
X165582666Y-97021619D01*
X165506476Y-97097809D01*
X165430285Y-97135904D01*
X165277904Y-97135904D01*
X165201714Y-97097809D01*
X165125523Y-97021619D01*
X165087428Y-96869238D01*
X165087428Y-96602571D01*
X165125523Y-96450190D01*
X165201714Y-96374000D01*
X165277904Y-96335904D01*
X166535047Y-96297809D02*
X165849333Y-97326380D01*
X166801714Y-97135904D02*
X166801714Y-96335904D01*
X167068380Y-96907333D01*
X167335047Y-96335904D01*
X167335047Y-97135904D01*
X167868380Y-96335904D02*
X168020761Y-96335904D01*
X168096952Y-96374000D01*
X168173142Y-96450190D01*
X168211238Y-96602571D01*
X168211238Y-96869238D01*
X168173142Y-97021619D01*
X168096952Y-97097809D01*
X168020761Y-97135904D01*
X167868380Y-97135904D01*
X167792190Y-97097809D01*
X167716000Y-97021619D01*
X167677904Y-96869238D01*
X167677904Y-96602571D01*
X167716000Y-96450190D01*
X167792190Y-96374000D01*
X167868380Y-96335904D01*
X168516000Y-97097809D02*
X168630285Y-97135904D01*
X168820761Y-97135904D01*
X168896952Y-97097809D01*
X168935047Y-97059714D01*
X168973142Y-96983523D01*
X168973142Y-96907333D01*
X168935047Y-96831142D01*
X168896952Y-96793047D01*
X168820761Y-96754952D01*
X168668380Y-96716857D01*
X168592190Y-96678761D01*
X168554095Y-96640666D01*
X168516000Y-96564476D01*
X168516000Y-96488285D01*
X168554095Y-96412095D01*
X168592190Y-96374000D01*
X168668380Y-96335904D01*
X168858857Y-96335904D01*
X168973142Y-96374000D01*
X169316000Y-97135904D02*
X169316000Y-96335904D01*
X170268380Y-96297809D02*
X169582666Y-97326380D01*
X170420761Y-96335904D02*
X170687428Y-97135904D01*
X170954095Y-96335904D01*
X171677904Y-97059714D02*
X171639809Y-97097809D01*
X171525523Y-97135904D01*
X171449333Y-97135904D01*
X171335047Y-97097809D01*
X171258857Y-97021619D01*
X171220761Y-96945428D01*
X171182666Y-96793047D01*
X171182666Y-96678761D01*
X171220761Y-96526380D01*
X171258857Y-96450190D01*
X171335047Y-96374000D01*
X171449333Y-96335904D01*
X171525523Y-96335904D01*
X171639809Y-96374000D01*
X171677904Y-96412095D01*
X172477904Y-97059714D02*
X172439809Y-97097809D01*
X172325523Y-97135904D01*
X172249333Y-97135904D01*
X172135047Y-97097809D01*
X172058857Y-97021619D01*
X172020761Y-96945428D01*
X171982666Y-96793047D01*
X171982666Y-96678761D01*
X172020761Y-96526380D01*
X172058857Y-96450190D01*
X172135047Y-96374000D01*
X172249333Y-96335904D01*
X172325523Y-96335904D01*
X172439809Y-96374000D01*
X172477904Y-96412095D01*
D10*
X143850000Y-86047619D02*
X143811904Y-86123809D01*
X143811904Y-86238095D01*
X143850000Y-86352380D01*
X143926190Y-86428571D01*
X144002380Y-86466666D01*
X144154761Y-86504761D01*
X144269047Y-86504761D01*
X144421428Y-86466666D01*
X144497619Y-86428571D01*
X144573809Y-86352380D01*
X144611904Y-86238095D01*
X144611904Y-86161904D01*
X144573809Y-86047619D01*
X144535714Y-86009523D01*
X144269047Y-86009523D01*
X144269047Y-86161904D01*
X144611904Y-85666666D02*
X143811904Y-85666666D01*
X143811904Y-85361904D01*
X143850000Y-85285714D01*
X143888095Y-85247619D01*
X143964285Y-85209523D01*
X144078571Y-85209523D01*
X144154761Y-85247619D01*
X144192857Y-85285714D01*
X144230952Y-85361904D01*
X144230952Y-85666666D01*
X144611904Y-84866666D02*
X143811904Y-84866666D01*
X143811904Y-84333333D02*
X143811904Y-84180952D01*
X143850000Y-84104761D01*
X143926190Y-84028571D01*
X144078571Y-83990476D01*
X144345238Y-83990476D01*
X144497619Y-84028571D01*
X144573809Y-84104761D01*
X144611904Y-84180952D01*
X144611904Y-84333333D01*
X144573809Y-84409523D01*
X144497619Y-84485714D01*
X144345238Y-84523809D01*
X144078571Y-84523809D01*
X143926190Y-84485714D01*
X143850000Y-84409523D01*
X143811904Y-84333333D01*
X144611904Y-82619047D02*
X144611904Y-83076190D01*
X144611904Y-82847619D02*
X143811904Y-82847619D01*
X143926190Y-82923809D01*
X144002380Y-83000000D01*
X144040476Y-83076190D01*
X143811904Y-82352380D02*
X143811904Y-81857142D01*
X144116666Y-82123809D01*
X144116666Y-82009523D01*
X144154761Y-81933333D01*
X144192857Y-81895238D01*
X144269047Y-81857142D01*
X144459523Y-81857142D01*
X144535714Y-81895238D01*
X144573809Y-81933333D01*
X144611904Y-82009523D01*
X144611904Y-82238095D01*
X144573809Y-82314285D01*
X144535714Y-82352380D01*
X143773809Y-80942857D02*
X144802380Y-81628571D01*
X144611904Y-80257142D02*
X144611904Y-80714285D01*
X144611904Y-80485714D02*
X143811904Y-80485714D01*
X143926190Y-80561904D01*
X144002380Y-80638095D01*
X144040476Y-80714285D01*
X143888095Y-79952380D02*
X143850000Y-79914285D01*
X143811904Y-79838095D01*
X143811904Y-79647619D01*
X143850000Y-79571428D01*
X143888095Y-79533333D01*
X143964285Y-79495238D01*
X144040476Y-79495238D01*
X144154761Y-79533333D01*
X144611904Y-79990476D01*
X144611904Y-79495238D01*
D12*
X166118000Y-94676279D02*
X166118000Y-94350721D01*
X165098000Y-94676279D02*
X165098000Y-94350721D01*
X178837221Y-78230000D02*
X179162779Y-78230000D01*
X178837221Y-79250000D02*
X179162779Y-79250000D01*
D11*
X176247936Y-93472000D02*
G75*
G03X176247936Y-93472000I-2517936J0D01*
G01*
X176230000Y-91972000D02*
X176230000Y-94972000D01*
X176214888Y-91947096D02*
G75*
G03X176230000Y-94972000I-2484888J-1524904D01*
G01*
X176247936Y-78681580D02*
G75*
G03X176247936Y-78681580I-2517936J0D01*
G01*
X176230000Y-77181580D02*
X176230000Y-80181580D01*
X176214888Y-77156676D02*
G75*
G03X176230000Y-80181580I-2484888J-1524904D01*
G01*
X137144000Y-94479000D02*
X135144000Y-94479000D01*
X135144000Y-96529000D02*
X137144000Y-96529000D01*
X145250000Y-90475000D02*
X143250000Y-90475000D01*
X143250000Y-92525000D02*
X145250000Y-92525000D01*
X142100000Y-77400000D02*
X142100000Y-78100000D01*
X140900000Y-78100000D02*
X140900000Y-77400000D01*
X162779000Y-94281000D02*
X162779000Y-94981000D01*
X161579000Y-94981000D02*
X161579000Y-94281000D01*
X176247936Y-86000000D02*
G75*
G03X176247936Y-86000000I-2517936J0D01*
G01*
X176230000Y-84500000D02*
X176230000Y-87500000D01*
X176214888Y-84475096D02*
G75*
G03X176230000Y-87500000I-2484888J-1524904D01*
G01*
D12*
X173760000Y-73580000D02*
X173760000Y-72650000D01*
X173760000Y-70420000D02*
X173760000Y-71350000D01*
X173760000Y-70420000D02*
X171600000Y-70420000D01*
X173760000Y-73580000D02*
X172300000Y-73580000D01*
D11*
X140250000Y-83000000D02*
X133750000Y-83000000D01*
X133750000Y-83000000D02*
X133750000Y-89500000D01*
X133750000Y-89500000D02*
X140250000Y-89500000D01*
X140250000Y-89500000D02*
X140250000Y-83000000D01*
X143800000Y-85550000D02*
X143800000Y-84000000D01*
X143520000Y-80190000D02*
X143520000Y-82730000D01*
X143520000Y-82730000D02*
X140980000Y-82730000D01*
X140700000Y-84000000D02*
X140700000Y-85550000D01*
X140700000Y-85550000D02*
X143800000Y-85550000D01*
X140980000Y-82730000D02*
X140980000Y-80190000D01*
X140980000Y-80190000D02*
X143520000Y-80190000D01*
X132950000Y-81000000D02*
X132950000Y-82550000D01*
X132950000Y-82550000D02*
X136050000Y-82550000D01*
X136050000Y-82550000D02*
X136050000Y-81000000D01*
X133230000Y-79730000D02*
X133230000Y-74650000D01*
X133230000Y-74650000D02*
X135770000Y-74650000D01*
X135770000Y-74650000D02*
X135770000Y-79730000D01*
X135770000Y-79730000D02*
X133230000Y-79730000D01*
D10*
X169545000Y-102030000D02*
X161595000Y-102030000D01*
X161595000Y-102030000D02*
X161595000Y-97530000D01*
X161595000Y-97530000D02*
X171495000Y-97530000D01*
X171495000Y-97530000D02*
X171495000Y-100330000D01*
D12*
X143337221Y-95010000D02*
X143662779Y-95010000D01*
X143337221Y-93990000D02*
X143662779Y-93990000D01*
X150490000Y-92162779D02*
X150490000Y-91837221D01*
X151510000Y-92162779D02*
X151510000Y-91837221D01*
X153490000Y-91837221D02*
X153490000Y-92162779D01*
X154510000Y-91837221D02*
X154510000Y-92162779D01*
X156335000Y-92085279D02*
X156335000Y-91759721D01*
X157355000Y-92085279D02*
X157355000Y-91759721D01*
X151703721Y-95252000D02*
X152029279Y-95252000D01*
X151703721Y-94232000D02*
X152029279Y-94232000D01*
X167269279Y-78488000D02*
X166943721Y-78488000D01*
X167269279Y-77468000D02*
X166943721Y-77468000D01*
X167134000Y-83149221D02*
X167134000Y-83474779D01*
X166114000Y-83149221D02*
X166114000Y-83474779D01*
X178837221Y-85490000D02*
X179162779Y-85490000D01*
X178837221Y-86510000D02*
X179162779Y-86510000D01*
X178837221Y-92962000D02*
X179162779Y-92962000D01*
X178837221Y-93982000D02*
X179162779Y-93982000D01*
X167130000Y-94625279D02*
X167130000Y-94299721D01*
X168150000Y-94625279D02*
X168150000Y-94299721D01*
D13*
X146080000Y-69535000D02*
X146080000Y-75720000D01*
X164063200Y-89120000D02*
X164063200Y-89499400D01*
X146080000Y-89120000D02*
X146080000Y-89499400D01*
X164063200Y-69535000D02*
X164063200Y-75720000D01*
X146080000Y-89537500D02*
X164063200Y-89537500D01*
X164050500Y-69535000D02*
X146080000Y-69535000D01*
D11*
X139350000Y-98600000D02*
X139350000Y-100000000D01*
X139350000Y-102400000D02*
X139350000Y-102550000D01*
X139350000Y-102550000D02*
X139650000Y-102550000D01*
X139650000Y-102550000D02*
X139650000Y-103000000D01*
X147350000Y-103000000D02*
X147350000Y-102550000D01*
X147350000Y-102550000D02*
X147650000Y-102550000D01*
X147650000Y-102550000D02*
X147650000Y-102400000D01*
X147650000Y-100000000D02*
X147650000Y-98600000D01*
X142425000Y-96425000D02*
X141700000Y-96425000D01*
X141700000Y-96425000D02*
X141700000Y-96850000D01*
X141700000Y-96850000D02*
X140700000Y-96850000D01*
X145300000Y-96850000D02*
X146300000Y-96850000D01*
D12*
X147200279Y-95010000D02*
X146874721Y-95010000D01*
X147200279Y-93990000D02*
X146874721Y-93990000D01*
D11*
X164630380Y-95156357D02*
X164154190Y-95489690D01*
X164630380Y-95727785D02*
X163630380Y-95727785D01*
X163630380Y-95346833D01*
X163678000Y-95251595D01*
X163725619Y-95203976D01*
X163820857Y-95156357D01*
X163963714Y-95156357D01*
X164058952Y-95203976D01*
X164106571Y-95251595D01*
X164154190Y-95346833D01*
X164154190Y-95727785D01*
X164630380Y-94203976D02*
X164630380Y-94775404D01*
X164630380Y-94489690D02*
X163630380Y-94489690D01*
X163773238Y-94584928D01*
X163868476Y-94680166D01*
X163916095Y-94775404D01*
X163725619Y-93823023D02*
X163678000Y-93775404D01*
X163630380Y-93680166D01*
X163630380Y-93442071D01*
X163678000Y-93346833D01*
X163725619Y-93299214D01*
X163820857Y-93251595D01*
X163916095Y-93251595D01*
X164058952Y-93299214D01*
X164630380Y-93870642D01*
X164630380Y-93251595D01*
X178833333Y-77762380D02*
X178500000Y-77286190D01*
X178261904Y-77762380D02*
X178261904Y-76762380D01*
X178642857Y-76762380D01*
X178738095Y-76810000D01*
X178785714Y-76857619D01*
X178833333Y-76952857D01*
X178833333Y-77095714D01*
X178785714Y-77190952D01*
X178738095Y-77238571D01*
X178642857Y-77286190D01*
X178261904Y-77286190D01*
X179404761Y-77190952D02*
X179309523Y-77143333D01*
X179261904Y-77095714D01*
X179214285Y-77000476D01*
X179214285Y-76952857D01*
X179261904Y-76857619D01*
X179309523Y-76810000D01*
X179404761Y-76762380D01*
X179595238Y-76762380D01*
X179690476Y-76810000D01*
X179738095Y-76857619D01*
X179785714Y-76952857D01*
X179785714Y-77000476D01*
X179738095Y-77095714D01*
X179690476Y-77143333D01*
X179595238Y-77190952D01*
X179404761Y-77190952D01*
X179309523Y-77238571D01*
X179261904Y-77286190D01*
X179214285Y-77381428D01*
X179214285Y-77571904D01*
X179261904Y-77667142D01*
X179309523Y-77714761D01*
X179404761Y-77762380D01*
X179595238Y-77762380D01*
X179690476Y-77714761D01*
X179738095Y-77667142D01*
X179785714Y-77571904D01*
X179785714Y-77381428D01*
X179738095Y-77286190D01*
X179690476Y-77238571D01*
X179595238Y-77190952D01*
X154452380Y-100785714D02*
X153452380Y-100785714D01*
X153452380Y-100404761D01*
X153500000Y-100309523D01*
X153547619Y-100261904D01*
X153642857Y-100214285D01*
X153785714Y-100214285D01*
X153880952Y-100261904D01*
X153928571Y-100309523D01*
X153976190Y-100404761D01*
X153976190Y-100785714D01*
X154452380Y-99214285D02*
X153976190Y-99547619D01*
X154452380Y-99785714D02*
X153452380Y-99785714D01*
X153452380Y-99404761D01*
X153500000Y-99309523D01*
X153547619Y-99261904D01*
X153642857Y-99214285D01*
X153785714Y-99214285D01*
X153880952Y-99261904D01*
X153928571Y-99309523D01*
X153976190Y-99404761D01*
X153976190Y-99785714D01*
X153452380Y-98595238D02*
X153452380Y-98404761D01*
X153500000Y-98309523D01*
X153595238Y-98214285D01*
X153785714Y-98166666D01*
X154119047Y-98166666D01*
X154309523Y-98214285D01*
X154404761Y-98309523D01*
X154452380Y-98404761D01*
X154452380Y-98595238D01*
X154404761Y-98690476D01*
X154309523Y-98785714D01*
X154119047Y-98833333D01*
X153785714Y-98833333D01*
X153595238Y-98785714D01*
X153500000Y-98690476D01*
X153452380Y-98595238D01*
X153500000Y-97214285D02*
X153452380Y-97309523D01*
X153452380Y-97452380D01*
X153500000Y-97595238D01*
X153595238Y-97690476D01*
X153690476Y-97738095D01*
X153880952Y-97785714D01*
X154023809Y-97785714D01*
X154214285Y-97738095D01*
X154309523Y-97690476D01*
X154404761Y-97595238D01*
X154452380Y-97452380D01*
X154452380Y-97357142D01*
X154404761Y-97214285D01*
X154357142Y-97166666D01*
X154023809Y-97166666D01*
X154023809Y-97357142D01*
X171261904Y-89924380D02*
X171261904Y-88924380D01*
X171500000Y-88924380D01*
X171642857Y-88972000D01*
X171738095Y-89067238D01*
X171785714Y-89162476D01*
X171833333Y-89352952D01*
X171833333Y-89495809D01*
X171785714Y-89686285D01*
X171738095Y-89781523D01*
X171642857Y-89876761D01*
X171500000Y-89924380D01*
X171261904Y-89924380D01*
X172166666Y-88924380D02*
X172785714Y-88924380D01*
X172452380Y-89305333D01*
X172595238Y-89305333D01*
X172690476Y-89352952D01*
X172738095Y-89400571D01*
X172785714Y-89495809D01*
X172785714Y-89733904D01*
X172738095Y-89829142D01*
X172690476Y-89876761D01*
X172595238Y-89924380D01*
X172309523Y-89924380D01*
X172214285Y-89876761D01*
X172166666Y-89829142D01*
X176546095Y-91682380D02*
X176546095Y-90682380D01*
X177117523Y-91682380D02*
X176688952Y-91110952D01*
X177117523Y-90682380D02*
X176546095Y-91253809D01*
X159404761Y-100583333D02*
X159452380Y-100440476D01*
X159452380Y-100202380D01*
X159404761Y-100107142D01*
X159357142Y-100059523D01*
X159261904Y-100011904D01*
X159166666Y-100011904D01*
X159071428Y-100059523D01*
X159023809Y-100107142D01*
X158976190Y-100202380D01*
X158928571Y-100392857D01*
X158880952Y-100488095D01*
X158833333Y-100535714D01*
X158738095Y-100583333D01*
X158642857Y-100583333D01*
X158547619Y-100535714D01*
X158500000Y-100488095D01*
X158452380Y-100392857D01*
X158452380Y-100154761D01*
X158500000Y-100011904D01*
X158452380Y-99678571D02*
X159452380Y-99440476D01*
X158738095Y-99250000D01*
X159452380Y-99059523D01*
X158452380Y-98821428D01*
X158547619Y-98488095D02*
X158500000Y-98440476D01*
X158452380Y-98345238D01*
X158452380Y-98107142D01*
X158500000Y-98011904D01*
X158547619Y-97964285D01*
X158642857Y-97916666D01*
X158738095Y-97916666D01*
X158880952Y-97964285D01*
X159452380Y-98535714D01*
X159452380Y-97916666D01*
X171069904Y-75401960D02*
X171069904Y-74401960D01*
X171308000Y-74401960D01*
X171450857Y-74449580D01*
X171546095Y-74544818D01*
X171593714Y-74640056D01*
X171641333Y-74830532D01*
X171641333Y-74973389D01*
X171593714Y-75163865D01*
X171546095Y-75259103D01*
X171450857Y-75354341D01*
X171308000Y-75401960D01*
X171069904Y-75401960D01*
X172593714Y-75401960D02*
X172022285Y-75401960D01*
X172308000Y-75401960D02*
X172308000Y-74401960D01*
X172212761Y-74544818D01*
X172117523Y-74640056D01*
X172022285Y-74687675D01*
X174738095Y-75633960D02*
X174738095Y-74633960D01*
X175309523Y-75633960D02*
X174880952Y-75062532D01*
X175309523Y-74633960D02*
X174738095Y-75205389D01*
X136833333Y-93357142D02*
X136785714Y-93404761D01*
X136642857Y-93452380D01*
X136547619Y-93452380D01*
X136404761Y-93404761D01*
X136309523Y-93309523D01*
X136261904Y-93214285D01*
X136214285Y-93023809D01*
X136214285Y-92880952D01*
X136261904Y-92690476D01*
X136309523Y-92595238D01*
X136404761Y-92500000D01*
X136547619Y-92452380D01*
X136642857Y-92452380D01*
X136785714Y-92500000D01*
X136833333Y-92547619D01*
X137785714Y-93452380D02*
X137214285Y-93452380D01*
X137500000Y-93452380D02*
X137500000Y-92452380D01*
X137404761Y-92595238D01*
X137309523Y-92690476D01*
X137214285Y-92738095D01*
X141083333Y-90107142D02*
X141035714Y-90154761D01*
X140892857Y-90202380D01*
X140797619Y-90202380D01*
X140654761Y-90154761D01*
X140559523Y-90059523D01*
X140511904Y-89964285D01*
X140464285Y-89773809D01*
X140464285Y-89630952D01*
X140511904Y-89440476D01*
X140559523Y-89345238D01*
X140654761Y-89250000D01*
X140797619Y-89202380D01*
X140892857Y-89202380D01*
X141035714Y-89250000D01*
X141083333Y-89297619D01*
X141464285Y-89297619D02*
X141511904Y-89250000D01*
X141607142Y-89202380D01*
X141845238Y-89202380D01*
X141940476Y-89250000D01*
X141988095Y-89297619D01*
X142035714Y-89392857D01*
X142035714Y-89488095D01*
X141988095Y-89630952D01*
X141416666Y-90202380D01*
X142035714Y-90202380D01*
X141944742Y-75059266D02*
X141992361Y-75106885D01*
X142039980Y-75249742D01*
X142039980Y-75344980D01*
X141992361Y-75487838D01*
X141897123Y-75583076D01*
X141801885Y-75630695D01*
X141611409Y-75678314D01*
X141468552Y-75678314D01*
X141278076Y-75630695D01*
X141182838Y-75583076D01*
X141087600Y-75487838D01*
X141039980Y-75344980D01*
X141039980Y-75249742D01*
X141087600Y-75106885D01*
X141135219Y-75059266D01*
X141039980Y-74725933D02*
X141039980Y-74106885D01*
X141420933Y-74440219D01*
X141420933Y-74297361D01*
X141468552Y-74202123D01*
X141516171Y-74154504D01*
X141611409Y-74106885D01*
X141849504Y-74106885D01*
X141944742Y-74154504D01*
X141992361Y-74202123D01*
X142039980Y-74297361D01*
X142039980Y-74583076D01*
X141992361Y-74678314D01*
X141944742Y-74725933D01*
X162492142Y-92221666D02*
X162539761Y-92269285D01*
X162587380Y-92412142D01*
X162587380Y-92507380D01*
X162539761Y-92650238D01*
X162444523Y-92745476D01*
X162349285Y-92793095D01*
X162158809Y-92840714D01*
X162015952Y-92840714D01*
X161825476Y-92793095D01*
X161730238Y-92745476D01*
X161635000Y-92650238D01*
X161587380Y-92507380D01*
X161587380Y-92412142D01*
X161635000Y-92269285D01*
X161682619Y-92221666D01*
X161920714Y-91364523D02*
X162587380Y-91364523D01*
X161539761Y-91602619D02*
X162254047Y-91840714D01*
X162254047Y-91221666D01*
X171069904Y-82464380D02*
X171069904Y-81464380D01*
X171308000Y-81464380D01*
X171450857Y-81512000D01*
X171546095Y-81607238D01*
X171593714Y-81702476D01*
X171641333Y-81892952D01*
X171641333Y-82035809D01*
X171593714Y-82226285D01*
X171546095Y-82321523D01*
X171450857Y-82416761D01*
X171308000Y-82464380D01*
X171069904Y-82464380D01*
X172022285Y-81559619D02*
X172069904Y-81512000D01*
X172165142Y-81464380D01*
X172403238Y-81464380D01*
X172498476Y-81512000D01*
X172546095Y-81559619D01*
X172593714Y-81654857D01*
X172593714Y-81750095D01*
X172546095Y-81892952D01*
X171974666Y-82464380D01*
X172593714Y-82464380D01*
X176546095Y-83464380D02*
X176546095Y-82464380D01*
X177117523Y-83464380D02*
X176688952Y-82892952D01*
X177117523Y-82464380D02*
X176546095Y-83035809D01*
X170140380Y-72040761D02*
X170188000Y-71945523D01*
X170283238Y-71850285D01*
X170426095Y-71707428D01*
X170473714Y-71612190D01*
X170473714Y-71516952D01*
X170235619Y-71564571D02*
X170283238Y-71469333D01*
X170378476Y-71374095D01*
X170568952Y-71326476D01*
X170902285Y-71326476D01*
X171092761Y-71374095D01*
X171188000Y-71469333D01*
X171235619Y-71564571D01*
X171235619Y-71755047D01*
X171188000Y-71850285D01*
X171092761Y-71945523D01*
X170902285Y-71993142D01*
X170568952Y-71993142D01*
X170378476Y-71945523D01*
X170283238Y-71850285D01*
X170235619Y-71755047D01*
X170235619Y-71564571D01*
X170235619Y-72945523D02*
X170235619Y-72374095D01*
X170235619Y-72659809D02*
X171235619Y-72659809D01*
X171092761Y-72564571D01*
X170997523Y-72469333D01*
X170949904Y-72374095D01*
D14*
X139043283Y-89921735D02*
X139043283Y-90406996D01*
X139071828Y-90464085D01*
X139100373Y-90492630D01*
X139157462Y-90521175D01*
X139271641Y-90521175D01*
X139328731Y-90492630D01*
X139357276Y-90464085D01*
X139385820Y-90406996D01*
X139385820Y-89921735D01*
X139985260Y-90521175D02*
X139642723Y-90521175D01*
X139813992Y-90521175D02*
X139813992Y-89921735D01*
X139756902Y-90007369D01*
X139699813Y-90064459D01*
X139642723Y-90093003D01*
D11*
X142452380Y-87738095D02*
X141452380Y-87738095D01*
X141452380Y-87357142D01*
X141500000Y-87261904D01*
X141547619Y-87214285D01*
X141642857Y-87166666D01*
X141785714Y-87166666D01*
X141880952Y-87214285D01*
X141928571Y-87261904D01*
X141976190Y-87357142D01*
X141976190Y-87738095D01*
X141547619Y-86785714D02*
X141500000Y-86738095D01*
X141452380Y-86642857D01*
X141452380Y-86404761D01*
X141500000Y-86309523D01*
X141547619Y-86261904D01*
X141642857Y-86214285D01*
X141738095Y-86214285D01*
X141880952Y-86261904D01*
X142452380Y-86833333D01*
X142452380Y-86214285D01*
X136702380Y-74761904D02*
X137511904Y-74761904D01*
X137607142Y-74714285D01*
X137654761Y-74666666D01*
X137702380Y-74571428D01*
X137702380Y-74380952D01*
X137654761Y-74285714D01*
X137607142Y-74238095D01*
X137511904Y-74190476D01*
X136702380Y-74190476D01*
X136702380Y-73809523D02*
X136702380Y-73190476D01*
X137083333Y-73523809D01*
X137083333Y-73380952D01*
X137130952Y-73285714D01*
X137178571Y-73238095D01*
X137273809Y-73190476D01*
X137511904Y-73190476D01*
X137607142Y-73238095D01*
X137654761Y-73285714D01*
X137702380Y-73380952D01*
X137702380Y-73666666D01*
X137654761Y-73761904D01*
X137607142Y-73809523D01*
D15*
X172550666Y-100650523D02*
X172550666Y-101557666D01*
X172490190Y-101739095D01*
X172369238Y-101860047D01*
X172187809Y-101920523D01*
X172066857Y-101920523D01*
X173820666Y-101920523D02*
X173094952Y-101920523D01*
X173457809Y-101920523D02*
X173457809Y-100650523D01*
X173336857Y-100831952D01*
X173215904Y-100952904D01*
X173094952Y-101013380D01*
D11*
X140833333Y-95202380D02*
X140500000Y-94726190D01*
X140261904Y-95202380D02*
X140261904Y-94202380D01*
X140642857Y-94202380D01*
X140738095Y-94250000D01*
X140785714Y-94297619D01*
X140833333Y-94392857D01*
X140833333Y-94535714D01*
X140785714Y-94630952D01*
X140738095Y-94678571D01*
X140642857Y-94726190D01*
X140261904Y-94726190D01*
X141785714Y-95202380D02*
X141214285Y-95202380D01*
X141500000Y-95202380D02*
X141500000Y-94202380D01*
X141404761Y-94345238D01*
X141309523Y-94440476D01*
X141214285Y-94488095D01*
X150022380Y-92166666D02*
X149546190Y-92500000D01*
X150022380Y-92738095D02*
X149022380Y-92738095D01*
X149022380Y-92357142D01*
X149070000Y-92261904D01*
X149117619Y-92214285D01*
X149212857Y-92166666D01*
X149355714Y-92166666D01*
X149450952Y-92214285D01*
X149498571Y-92261904D01*
X149546190Y-92357142D01*
X149546190Y-92738095D01*
X149117619Y-91785714D02*
X149070000Y-91738095D01*
X149022380Y-91642857D01*
X149022380Y-91404761D01*
X149070000Y-91309523D01*
X149117619Y-91261904D01*
X149212857Y-91214285D01*
X149308095Y-91214285D01*
X149450952Y-91261904D01*
X150022380Y-91833333D01*
X150022380Y-91214285D01*
X155882380Y-92166666D02*
X155406190Y-92500000D01*
X155882380Y-92738095D02*
X154882380Y-92738095D01*
X154882380Y-92357142D01*
X154930000Y-92261904D01*
X154977619Y-92214285D01*
X155072857Y-92166666D01*
X155215714Y-92166666D01*
X155310952Y-92214285D01*
X155358571Y-92261904D01*
X155406190Y-92357142D01*
X155406190Y-92738095D01*
X154882380Y-91833333D02*
X154882380Y-91214285D01*
X155263333Y-91547619D01*
X155263333Y-91404761D01*
X155310952Y-91309523D01*
X155358571Y-91261904D01*
X155453809Y-91214285D01*
X155691904Y-91214285D01*
X155787142Y-91261904D01*
X155834761Y-91309523D01*
X155882380Y-91404761D01*
X155882380Y-91690476D01*
X155834761Y-91785714D01*
X155787142Y-91833333D01*
X158702380Y-92166666D02*
X158226190Y-92500000D01*
X158702380Y-92738095D02*
X157702380Y-92738095D01*
X157702380Y-92357142D01*
X157750000Y-92261904D01*
X157797619Y-92214285D01*
X157892857Y-92166666D01*
X158035714Y-92166666D01*
X158130952Y-92214285D01*
X158178571Y-92261904D01*
X158226190Y-92357142D01*
X158226190Y-92738095D01*
X158035714Y-91309523D02*
X158702380Y-91309523D01*
X157654761Y-91547619D02*
X158369047Y-91785714D01*
X158369047Y-91166666D01*
X154833333Y-95202380D02*
X154500000Y-94726190D01*
X154261904Y-95202380D02*
X154261904Y-94202380D01*
X154642857Y-94202380D01*
X154738095Y-94250000D01*
X154785714Y-94297619D01*
X154833333Y-94392857D01*
X154833333Y-94535714D01*
X154785714Y-94630952D01*
X154738095Y-94678571D01*
X154642857Y-94726190D01*
X154261904Y-94726190D01*
X155738095Y-94202380D02*
X155261904Y-94202380D01*
X155214285Y-94678571D01*
X155261904Y-94630952D01*
X155357142Y-94583333D01*
X155595238Y-94583333D01*
X155690476Y-94630952D01*
X155738095Y-94678571D01*
X155785714Y-94773809D01*
X155785714Y-95011904D01*
X155738095Y-95107142D01*
X155690476Y-95154761D01*
X155595238Y-95202380D01*
X155357142Y-95202380D01*
X155261904Y-95154761D01*
X155214285Y-95107142D01*
X166939833Y-79860380D02*
X166606500Y-79384190D01*
X166368404Y-79860380D02*
X166368404Y-78860380D01*
X166749357Y-78860380D01*
X166844595Y-78908000D01*
X166892214Y-78955619D01*
X166939833Y-79050857D01*
X166939833Y-79193714D01*
X166892214Y-79288952D01*
X166844595Y-79336571D01*
X166749357Y-79384190D01*
X166368404Y-79384190D01*
X167796976Y-78860380D02*
X167606500Y-78860380D01*
X167511261Y-78908000D01*
X167463642Y-78955619D01*
X167368404Y-79098476D01*
X167320785Y-79288952D01*
X167320785Y-79669904D01*
X167368404Y-79765142D01*
X167416023Y-79812761D01*
X167511261Y-79860380D01*
X167701738Y-79860380D01*
X167796976Y-79812761D01*
X167844595Y-79765142D01*
X167892214Y-79669904D01*
X167892214Y-79431809D01*
X167844595Y-79336571D01*
X167796976Y-79288952D01*
X167701738Y-79241333D01*
X167511261Y-79241333D01*
X167416023Y-79288952D01*
X167368404Y-79336571D01*
X167320785Y-79431809D01*
X168506380Y-83478666D02*
X168030190Y-83812000D01*
X168506380Y-84050095D02*
X167506380Y-84050095D01*
X167506380Y-83669142D01*
X167554000Y-83573904D01*
X167601619Y-83526285D01*
X167696857Y-83478666D01*
X167839714Y-83478666D01*
X167934952Y-83526285D01*
X167982571Y-83573904D01*
X168030190Y-83669142D01*
X168030190Y-84050095D01*
X167506380Y-83145333D02*
X167506380Y-82478666D01*
X168506380Y-82907238D01*
X178833333Y-85022380D02*
X178500000Y-84546190D01*
X178261904Y-85022380D02*
X178261904Y-84022380D01*
X178642857Y-84022380D01*
X178738095Y-84070000D01*
X178785714Y-84117619D01*
X178833333Y-84212857D01*
X178833333Y-84355714D01*
X178785714Y-84450952D01*
X178738095Y-84498571D01*
X178642857Y-84546190D01*
X178261904Y-84546190D01*
X179309523Y-85022380D02*
X179500000Y-85022380D01*
X179595238Y-84974761D01*
X179642857Y-84927142D01*
X179738095Y-84784285D01*
X179785714Y-84593809D01*
X179785714Y-84212857D01*
X179738095Y-84117619D01*
X179690476Y-84070000D01*
X179595238Y-84022380D01*
X179404761Y-84022380D01*
X179309523Y-84070000D01*
X179261904Y-84117619D01*
X179214285Y-84212857D01*
X179214285Y-84450952D01*
X179261904Y-84546190D01*
X179309523Y-84593809D01*
X179404761Y-84641428D01*
X179595238Y-84641428D01*
X179690476Y-84593809D01*
X179738095Y-84546190D01*
X179785714Y-84450952D01*
X178357142Y-92494380D02*
X178023809Y-92018190D01*
X177785714Y-92494380D02*
X177785714Y-91494380D01*
X178166666Y-91494380D01*
X178261904Y-91542000D01*
X178309523Y-91589619D01*
X178357142Y-91684857D01*
X178357142Y-91827714D01*
X178309523Y-91922952D01*
X178261904Y-91970571D01*
X178166666Y-92018190D01*
X177785714Y-92018190D01*
X179309523Y-92494380D02*
X178738095Y-92494380D01*
X179023809Y-92494380D02*
X179023809Y-91494380D01*
X178928571Y-91637238D01*
X178833333Y-91732476D01*
X178738095Y-91780095D01*
X179928571Y-91494380D02*
X180023809Y-91494380D01*
X180119047Y-91542000D01*
X180166666Y-91589619D01*
X180214285Y-91684857D01*
X180261904Y-91875333D01*
X180261904Y-92113428D01*
X180214285Y-92303904D01*
X180166666Y-92399142D01*
X180119047Y-92446761D01*
X180023809Y-92494380D01*
X179928571Y-92494380D01*
X179833333Y-92446761D01*
X179785714Y-92399142D01*
X179738095Y-92303904D01*
X179690476Y-92113428D01*
X179690476Y-91875333D01*
X179738095Y-91684857D01*
X179785714Y-91589619D01*
X179833333Y-91542000D01*
X179928571Y-91494380D01*
X169616380Y-95130857D02*
X169140190Y-95464190D01*
X169616380Y-95702285D02*
X168616380Y-95702285D01*
X168616380Y-95321333D01*
X168664000Y-95226095D01*
X168711619Y-95178476D01*
X168806857Y-95130857D01*
X168949714Y-95130857D01*
X169044952Y-95178476D01*
X169092571Y-95226095D01*
X169140190Y-95321333D01*
X169140190Y-95702285D01*
X169616380Y-94178476D02*
X169616380Y-94749904D01*
X169616380Y-94464190D02*
X168616380Y-94464190D01*
X168759238Y-94559428D01*
X168854476Y-94654666D01*
X168902095Y-94749904D01*
X169616380Y-93226095D02*
X169616380Y-93797523D01*
X169616380Y-93511809D02*
X168616380Y-93511809D01*
X168759238Y-93607047D01*
X168854476Y-93702285D01*
X168902095Y-93797523D01*
X142318095Y-70972380D02*
X142318095Y-71781904D01*
X142365714Y-71877142D01*
X142413333Y-71924761D01*
X142508571Y-71972380D01*
X142699047Y-71972380D01*
X142794285Y-71924761D01*
X142841904Y-71877142D01*
X142889523Y-71781904D01*
X142889523Y-70972380D01*
X143318095Y-71067619D02*
X143365714Y-71020000D01*
X143460952Y-70972380D01*
X143699047Y-70972380D01*
X143794285Y-71020000D01*
X143841904Y-71067619D01*
X143889523Y-71162857D01*
X143889523Y-71258095D01*
X143841904Y-71400952D01*
X143270476Y-71972380D01*
X143889523Y-71972380D01*
X142761904Y-96202380D02*
X142761904Y-95202380D01*
X143142857Y-95202380D01*
X143238095Y-95250000D01*
X143285714Y-95297619D01*
X143333333Y-95392857D01*
X143333333Y-95535714D01*
X143285714Y-95630952D01*
X143238095Y-95678571D01*
X143142857Y-95726190D01*
X142761904Y-95726190D01*
X144285714Y-96202380D02*
X143714285Y-96202380D01*
X144000000Y-96202380D02*
X144000000Y-95202380D01*
X143904761Y-95345238D01*
X143809523Y-95440476D01*
X143714285Y-95488095D01*
X146357142Y-93702380D02*
X146023809Y-93226190D01*
X145785714Y-93702380D02*
X145785714Y-92702380D01*
X146166666Y-92702380D01*
X146261904Y-92750000D01*
X146309523Y-92797619D01*
X146357142Y-92892857D01*
X146357142Y-93035714D01*
X146309523Y-93130952D01*
X146261904Y-93178571D01*
X146166666Y-93226190D01*
X145785714Y-93226190D01*
X147309523Y-93702380D02*
X146738095Y-93702380D01*
X147023809Y-93702380D02*
X147023809Y-92702380D01*
X146928571Y-92845238D01*
X146833333Y-92940476D01*
X146738095Y-92988095D01*
X147642857Y-92702380D02*
X148261904Y-92702380D01*
X147928571Y-93083333D01*
X148071428Y-93083333D01*
X148166666Y-93130952D01*
X148214285Y-93178571D01*
X148261904Y-93273809D01*
X148261904Y-93511904D01*
X148214285Y-93607142D01*
X148166666Y-93654761D01*
X148071428Y-93702380D01*
X147785714Y-93702380D01*
X147690476Y-93654761D01*
X147642857Y-93607142D01*
M02*
