M48
;DRILL file {KiCad 4.0.1-stable} date 2017/01/05 22:22:02
;FORMAT={-:-/ absolute / metric / decimal}
FMAT,2
METRIC,TZ
T1C0.400
T2C1.001
T3C1.016
T4C2.200
%
G90
G05
M71
T1
X133.5Y-97.5
X137.Y-91.5
X139.25Y-78.25
X140.Y-72.
X143.Y-79.5
X143.25Y-90.25
X144.Y-78.75
X146.5Y-94.25
X149.5Y-91.5
X151.5Y-83.
X151.5Y-97.
X152.5Y-99.5
X156.Y-78.
X156.5Y-101.
X156.75Y-98.75
X159.Y-90.75
X159.Y-96.5
X162.75Y-100.
X165.25Y-90.5
X165.25Y-96.5
X166.Y-85.5
X166.Y-87.
X166.Y-88.5
X166.5Y-79.5
X167.25Y-92.5
X168.Y-86.
X170.Y-74.
X170.Y-80.5
X177.5Y-80.5
X177.5Y-90.5
T2
X172.46Y-76.
X172.46Y-86.
X172.46Y-96.
X175.Y-76.
X175.Y-86.
X175.Y-96.
T3
X134.5Y-75.92
X134.5Y-78.46
X134.5Y-81.
X142.25Y-81.46
X142.25Y-84.
X168.92Y-101.
X171.46Y-101.
X174.Y-101.
T4
X134.5Y-71.5
X134.5Y-100.5
X178.5Y-71.5
X178.5Y-100.5
T0
M30
