M48
; DRILL file {KiCad (5.1.5)-3} date 2020/01/07 1:02:05
; FORMAT={-:-/ absolute / metric / decimal}
; #@! TF.CreationDate,2020-01-07T01:02:05+09:00
; #@! TF.GenerationSoftware,Kicad,Pcbnew,(5.1.5)-3
FMAT,2
METRIC
T1C0.400
T2C0.550
T3C0.800
T4C0.850
T5C1.001
T6C1.016
T7C0.800
T8C2.200
%
G90
G05
T1
X133.5Y-97.5
X137.0Y-91.5
X142.748Y-89.408
X143.0Y-79.5
X150.622Y-84.836
X151.5Y-97.0
X152.4Y-83.058
X152.45Y-91.73
X152.5Y-99.5
X154.05Y-101.05
X156.5Y-101.0
X156.75Y-98.75
X159.0Y-90.75
X159.0Y-96.5
X166.624Y-90.424
X166.7Y-98.2
X169.418Y-89.916
X169.672Y-72.644
X169.672Y-81.788
X175.26Y-70.358
X177.8Y-75.438
X177.8Y-89.916
T3
X163.545Y-100.33
X165.545Y-100.33
X167.545Y-100.33
X169.545Y-100.33
T5
X172.46Y-86.0
X175.0Y-86.0
X172.46Y-93.472
X175.0Y-93.472
X172.46Y-78.682
X175.0Y-78.682
T6
X134.5Y-75.92
X134.5Y-78.46
X134.5Y-81.0
X142.25Y-81.46
X142.25Y-84.0
T7
X141.0Y-98.45
X146.0Y-98.45
T8
X134.5Y-100.5
X134.5Y-71.5
X178.5Y-100.5
X178.5Y-71.5
T2
G00X139.625Y-100.875
M15
G01X139.625Y-101.525
M16
G05
G00X147.375Y-100.875
M15
G01X147.375Y-101.525
M16
G05
T4
G00X139.775Y-97.125
M15
G01X139.775Y-97.675
M16
G05
G00X147.225Y-97.125
M15
G01X147.225Y-97.675
M16
G05
T0
M30
