G04 #@! TF.GenerationSoftware,KiCad,Pcbnew,(5.1.5)-3*
G04 #@! TF.CreationDate,2020-01-07T01:01:47+09:00*
G04 #@! TF.ProjectId,irController,6972436f-6e74-4726-9f6c-6c65722e6b69,rev?*
G04 #@! TF.SameCoordinates,Original*
G04 #@! TF.FileFunction,Paste,Top*
G04 #@! TF.FilePolarity,Positive*
%FSLAX46Y46*%
G04 Gerber Fmt 4.6, Leading zero omitted, Abs format (unit mm)*
G04 Created by KiCad (PCBNEW (5.1.5)-3) date 2020-01-07 01:01:47*
%MOMM*%
%LPD*%
G04 APERTURE LIST*
%ADD10C,0.100000*%
%ADD11R,0.650000X1.050000*%
%ADD12R,1.000000X1.600000*%
%ADD13R,0.750000X0.800000*%
%ADD14R,0.900000X0.800000*%
%ADD15R,2.000000X2.500000*%
%ADD16R,6.000000X6.000000*%
%ADD17O,2.000000X0.900000*%
%ADD18R,2.000000X0.900000*%
%ADD19R,4.300000X4.300000*%
%ADD20R,0.450000X1.300000*%
G04 APERTURE END LIST*
D10*
G36*
X165885691Y-93289553D02*
G01*
X165906926Y-93292703D01*
X165927750Y-93297919D01*
X165947962Y-93305151D01*
X165967368Y-93314330D01*
X165985781Y-93325366D01*
X166003024Y-93338154D01*
X166018930Y-93352570D01*
X166033346Y-93368476D01*
X166046134Y-93385719D01*
X166057170Y-93404132D01*
X166066349Y-93423538D01*
X166073581Y-93443750D01*
X166078797Y-93464574D01*
X166081947Y-93485809D01*
X166083000Y-93507250D01*
X166083000Y-93944750D01*
X166081947Y-93966191D01*
X166078797Y-93987426D01*
X166073581Y-94008250D01*
X166066349Y-94028462D01*
X166057170Y-94047868D01*
X166046134Y-94066281D01*
X166033346Y-94083524D01*
X166018930Y-94099430D01*
X166003024Y-94113846D01*
X165985781Y-94126634D01*
X165967368Y-94137670D01*
X165947962Y-94146849D01*
X165927750Y-94154081D01*
X165906926Y-94159297D01*
X165885691Y-94162447D01*
X165864250Y-94163500D01*
X165351750Y-94163500D01*
X165330309Y-94162447D01*
X165309074Y-94159297D01*
X165288250Y-94154081D01*
X165268038Y-94146849D01*
X165248632Y-94137670D01*
X165230219Y-94126634D01*
X165212976Y-94113846D01*
X165197070Y-94099430D01*
X165182654Y-94083524D01*
X165169866Y-94066281D01*
X165158830Y-94047868D01*
X165149651Y-94028462D01*
X165142419Y-94008250D01*
X165137203Y-93987426D01*
X165134053Y-93966191D01*
X165133000Y-93944750D01*
X165133000Y-93507250D01*
X165134053Y-93485809D01*
X165137203Y-93464574D01*
X165142419Y-93443750D01*
X165149651Y-93423538D01*
X165158830Y-93404132D01*
X165169866Y-93385719D01*
X165182654Y-93368476D01*
X165197070Y-93352570D01*
X165212976Y-93338154D01*
X165230219Y-93325366D01*
X165248632Y-93314330D01*
X165268038Y-93305151D01*
X165288250Y-93297919D01*
X165309074Y-93292703D01*
X165330309Y-93289553D01*
X165351750Y-93288500D01*
X165864250Y-93288500D01*
X165885691Y-93289553D01*
G37*
G36*
X165885691Y-94864553D02*
G01*
X165906926Y-94867703D01*
X165927750Y-94872919D01*
X165947962Y-94880151D01*
X165967368Y-94889330D01*
X165985781Y-94900366D01*
X166003024Y-94913154D01*
X166018930Y-94927570D01*
X166033346Y-94943476D01*
X166046134Y-94960719D01*
X166057170Y-94979132D01*
X166066349Y-94998538D01*
X166073581Y-95018750D01*
X166078797Y-95039574D01*
X166081947Y-95060809D01*
X166083000Y-95082250D01*
X166083000Y-95519750D01*
X166081947Y-95541191D01*
X166078797Y-95562426D01*
X166073581Y-95583250D01*
X166066349Y-95603462D01*
X166057170Y-95622868D01*
X166046134Y-95641281D01*
X166033346Y-95658524D01*
X166018930Y-95674430D01*
X166003024Y-95688846D01*
X165985781Y-95701634D01*
X165967368Y-95712670D01*
X165947962Y-95721849D01*
X165927750Y-95729081D01*
X165906926Y-95734297D01*
X165885691Y-95737447D01*
X165864250Y-95738500D01*
X165351750Y-95738500D01*
X165330309Y-95737447D01*
X165309074Y-95734297D01*
X165288250Y-95729081D01*
X165268038Y-95721849D01*
X165248632Y-95712670D01*
X165230219Y-95701634D01*
X165212976Y-95688846D01*
X165197070Y-95674430D01*
X165182654Y-95658524D01*
X165169866Y-95641281D01*
X165158830Y-95622868D01*
X165149651Y-95603462D01*
X165142419Y-95583250D01*
X165137203Y-95562426D01*
X165134053Y-95541191D01*
X165133000Y-95519750D01*
X165133000Y-95082250D01*
X165134053Y-95060809D01*
X165137203Y-95039574D01*
X165142419Y-95018750D01*
X165149651Y-94998538D01*
X165158830Y-94979132D01*
X165169866Y-94960719D01*
X165182654Y-94943476D01*
X165197070Y-94927570D01*
X165212976Y-94913154D01*
X165230219Y-94900366D01*
X165248632Y-94889330D01*
X165268038Y-94880151D01*
X165288250Y-94872919D01*
X165309074Y-94867703D01*
X165330309Y-94864553D01*
X165351750Y-94863500D01*
X165864250Y-94863500D01*
X165885691Y-94864553D01*
G37*
G36*
X178452691Y-78266053D02*
G01*
X178473926Y-78269203D01*
X178494750Y-78274419D01*
X178514962Y-78281651D01*
X178534368Y-78290830D01*
X178552781Y-78301866D01*
X178570024Y-78314654D01*
X178585930Y-78329070D01*
X178600346Y-78344976D01*
X178613134Y-78362219D01*
X178624170Y-78380632D01*
X178633349Y-78400038D01*
X178640581Y-78420250D01*
X178645797Y-78441074D01*
X178648947Y-78462309D01*
X178650000Y-78483750D01*
X178650000Y-78996250D01*
X178648947Y-79017691D01*
X178645797Y-79038926D01*
X178640581Y-79059750D01*
X178633349Y-79079962D01*
X178624170Y-79099368D01*
X178613134Y-79117781D01*
X178600346Y-79135024D01*
X178585930Y-79150930D01*
X178570024Y-79165346D01*
X178552781Y-79178134D01*
X178534368Y-79189170D01*
X178514962Y-79198349D01*
X178494750Y-79205581D01*
X178473926Y-79210797D01*
X178452691Y-79213947D01*
X178431250Y-79215000D01*
X177993750Y-79215000D01*
X177972309Y-79213947D01*
X177951074Y-79210797D01*
X177930250Y-79205581D01*
X177910038Y-79198349D01*
X177890632Y-79189170D01*
X177872219Y-79178134D01*
X177854976Y-79165346D01*
X177839070Y-79150930D01*
X177824654Y-79135024D01*
X177811866Y-79117781D01*
X177800830Y-79099368D01*
X177791651Y-79079962D01*
X177784419Y-79059750D01*
X177779203Y-79038926D01*
X177776053Y-79017691D01*
X177775000Y-78996250D01*
X177775000Y-78483750D01*
X177776053Y-78462309D01*
X177779203Y-78441074D01*
X177784419Y-78420250D01*
X177791651Y-78400038D01*
X177800830Y-78380632D01*
X177811866Y-78362219D01*
X177824654Y-78344976D01*
X177839070Y-78329070D01*
X177854976Y-78314654D01*
X177872219Y-78301866D01*
X177890632Y-78290830D01*
X177910038Y-78281651D01*
X177930250Y-78274419D01*
X177951074Y-78269203D01*
X177972309Y-78266053D01*
X177993750Y-78265000D01*
X178431250Y-78265000D01*
X178452691Y-78266053D01*
G37*
G36*
X180027691Y-78266053D02*
G01*
X180048926Y-78269203D01*
X180069750Y-78274419D01*
X180089962Y-78281651D01*
X180109368Y-78290830D01*
X180127781Y-78301866D01*
X180145024Y-78314654D01*
X180160930Y-78329070D01*
X180175346Y-78344976D01*
X180188134Y-78362219D01*
X180199170Y-78380632D01*
X180208349Y-78400038D01*
X180215581Y-78420250D01*
X180220797Y-78441074D01*
X180223947Y-78462309D01*
X180225000Y-78483750D01*
X180225000Y-78996250D01*
X180223947Y-79017691D01*
X180220797Y-79038926D01*
X180215581Y-79059750D01*
X180208349Y-79079962D01*
X180199170Y-79099368D01*
X180188134Y-79117781D01*
X180175346Y-79135024D01*
X180160930Y-79150930D01*
X180145024Y-79165346D01*
X180127781Y-79178134D01*
X180109368Y-79189170D01*
X180089962Y-79198349D01*
X180069750Y-79205581D01*
X180048926Y-79210797D01*
X180027691Y-79213947D01*
X180006250Y-79215000D01*
X179568750Y-79215000D01*
X179547309Y-79213947D01*
X179526074Y-79210797D01*
X179505250Y-79205581D01*
X179485038Y-79198349D01*
X179465632Y-79189170D01*
X179447219Y-79178134D01*
X179429976Y-79165346D01*
X179414070Y-79150930D01*
X179399654Y-79135024D01*
X179386866Y-79117781D01*
X179375830Y-79099368D01*
X179366651Y-79079962D01*
X179359419Y-79059750D01*
X179354203Y-79038926D01*
X179351053Y-79017691D01*
X179350000Y-78996250D01*
X179350000Y-78483750D01*
X179351053Y-78462309D01*
X179354203Y-78441074D01*
X179359419Y-78420250D01*
X179366651Y-78400038D01*
X179375830Y-78380632D01*
X179386866Y-78362219D01*
X179399654Y-78344976D01*
X179414070Y-78329070D01*
X179429976Y-78314654D01*
X179447219Y-78301866D01*
X179465632Y-78290830D01*
X179485038Y-78281651D01*
X179505250Y-78274419D01*
X179526074Y-78269203D01*
X179547309Y-78266053D01*
X179568750Y-78265000D01*
X180006250Y-78265000D01*
X180027691Y-78266053D01*
G37*
D11*
X150425000Y-101075000D03*
X152575000Y-101075000D03*
X150425000Y-96925000D03*
X152575000Y-96925000D03*
X155425000Y-101075000D03*
X157575000Y-101075000D03*
X155425000Y-96925000D03*
X157575000Y-96925000D03*
D12*
X134644000Y-95504000D03*
X137644000Y-95504000D03*
X142750000Y-91500000D03*
X145750000Y-91500000D03*
D13*
X141500000Y-77000000D03*
X141500000Y-78500000D03*
X162179000Y-93881000D03*
X162179000Y-95381000D03*
D14*
X172000000Y-71050000D03*
X172000000Y-72950000D03*
X174000000Y-72000000D03*
D15*
X134700000Y-92500000D03*
X139300000Y-92500000D03*
D16*
X137000000Y-86250000D03*
D10*
G36*
X144527691Y-94026053D02*
G01*
X144548926Y-94029203D01*
X144569750Y-94034419D01*
X144589962Y-94041651D01*
X144609368Y-94050830D01*
X144627781Y-94061866D01*
X144645024Y-94074654D01*
X144660930Y-94089070D01*
X144675346Y-94104976D01*
X144688134Y-94122219D01*
X144699170Y-94140632D01*
X144708349Y-94160038D01*
X144715581Y-94180250D01*
X144720797Y-94201074D01*
X144723947Y-94222309D01*
X144725000Y-94243750D01*
X144725000Y-94756250D01*
X144723947Y-94777691D01*
X144720797Y-94798926D01*
X144715581Y-94819750D01*
X144708349Y-94839962D01*
X144699170Y-94859368D01*
X144688134Y-94877781D01*
X144675346Y-94895024D01*
X144660930Y-94910930D01*
X144645024Y-94925346D01*
X144627781Y-94938134D01*
X144609368Y-94949170D01*
X144589962Y-94958349D01*
X144569750Y-94965581D01*
X144548926Y-94970797D01*
X144527691Y-94973947D01*
X144506250Y-94975000D01*
X144068750Y-94975000D01*
X144047309Y-94973947D01*
X144026074Y-94970797D01*
X144005250Y-94965581D01*
X143985038Y-94958349D01*
X143965632Y-94949170D01*
X143947219Y-94938134D01*
X143929976Y-94925346D01*
X143914070Y-94910930D01*
X143899654Y-94895024D01*
X143886866Y-94877781D01*
X143875830Y-94859368D01*
X143866651Y-94839962D01*
X143859419Y-94819750D01*
X143854203Y-94798926D01*
X143851053Y-94777691D01*
X143850000Y-94756250D01*
X143850000Y-94243750D01*
X143851053Y-94222309D01*
X143854203Y-94201074D01*
X143859419Y-94180250D01*
X143866651Y-94160038D01*
X143875830Y-94140632D01*
X143886866Y-94122219D01*
X143899654Y-94104976D01*
X143914070Y-94089070D01*
X143929976Y-94074654D01*
X143947219Y-94061866D01*
X143965632Y-94050830D01*
X143985038Y-94041651D01*
X144005250Y-94034419D01*
X144026074Y-94029203D01*
X144047309Y-94026053D01*
X144068750Y-94025000D01*
X144506250Y-94025000D01*
X144527691Y-94026053D01*
G37*
G36*
X142952691Y-94026053D02*
G01*
X142973926Y-94029203D01*
X142994750Y-94034419D01*
X143014962Y-94041651D01*
X143034368Y-94050830D01*
X143052781Y-94061866D01*
X143070024Y-94074654D01*
X143085930Y-94089070D01*
X143100346Y-94104976D01*
X143113134Y-94122219D01*
X143124170Y-94140632D01*
X143133349Y-94160038D01*
X143140581Y-94180250D01*
X143145797Y-94201074D01*
X143148947Y-94222309D01*
X143150000Y-94243750D01*
X143150000Y-94756250D01*
X143148947Y-94777691D01*
X143145797Y-94798926D01*
X143140581Y-94819750D01*
X143133349Y-94839962D01*
X143124170Y-94859368D01*
X143113134Y-94877781D01*
X143100346Y-94895024D01*
X143085930Y-94910930D01*
X143070024Y-94925346D01*
X143052781Y-94938134D01*
X143034368Y-94949170D01*
X143014962Y-94958349D01*
X142994750Y-94965581D01*
X142973926Y-94970797D01*
X142952691Y-94973947D01*
X142931250Y-94975000D01*
X142493750Y-94975000D01*
X142472309Y-94973947D01*
X142451074Y-94970797D01*
X142430250Y-94965581D01*
X142410038Y-94958349D01*
X142390632Y-94949170D01*
X142372219Y-94938134D01*
X142354976Y-94925346D01*
X142339070Y-94910930D01*
X142324654Y-94895024D01*
X142311866Y-94877781D01*
X142300830Y-94859368D01*
X142291651Y-94839962D01*
X142284419Y-94819750D01*
X142279203Y-94798926D01*
X142276053Y-94777691D01*
X142275000Y-94756250D01*
X142275000Y-94243750D01*
X142276053Y-94222309D01*
X142279203Y-94201074D01*
X142284419Y-94180250D01*
X142291651Y-94160038D01*
X142300830Y-94140632D01*
X142311866Y-94122219D01*
X142324654Y-94104976D01*
X142339070Y-94089070D01*
X142354976Y-94074654D01*
X142372219Y-94061866D01*
X142390632Y-94050830D01*
X142410038Y-94041651D01*
X142430250Y-94034419D01*
X142451074Y-94029203D01*
X142472309Y-94026053D01*
X142493750Y-94025000D01*
X142931250Y-94025000D01*
X142952691Y-94026053D01*
G37*
G36*
X151277691Y-92351053D02*
G01*
X151298926Y-92354203D01*
X151319750Y-92359419D01*
X151339962Y-92366651D01*
X151359368Y-92375830D01*
X151377781Y-92386866D01*
X151395024Y-92399654D01*
X151410930Y-92414070D01*
X151425346Y-92429976D01*
X151438134Y-92447219D01*
X151449170Y-92465632D01*
X151458349Y-92485038D01*
X151465581Y-92505250D01*
X151470797Y-92526074D01*
X151473947Y-92547309D01*
X151475000Y-92568750D01*
X151475000Y-93006250D01*
X151473947Y-93027691D01*
X151470797Y-93048926D01*
X151465581Y-93069750D01*
X151458349Y-93089962D01*
X151449170Y-93109368D01*
X151438134Y-93127781D01*
X151425346Y-93145024D01*
X151410930Y-93160930D01*
X151395024Y-93175346D01*
X151377781Y-93188134D01*
X151359368Y-93199170D01*
X151339962Y-93208349D01*
X151319750Y-93215581D01*
X151298926Y-93220797D01*
X151277691Y-93223947D01*
X151256250Y-93225000D01*
X150743750Y-93225000D01*
X150722309Y-93223947D01*
X150701074Y-93220797D01*
X150680250Y-93215581D01*
X150660038Y-93208349D01*
X150640632Y-93199170D01*
X150622219Y-93188134D01*
X150604976Y-93175346D01*
X150589070Y-93160930D01*
X150574654Y-93145024D01*
X150561866Y-93127781D01*
X150550830Y-93109368D01*
X150541651Y-93089962D01*
X150534419Y-93069750D01*
X150529203Y-93048926D01*
X150526053Y-93027691D01*
X150525000Y-93006250D01*
X150525000Y-92568750D01*
X150526053Y-92547309D01*
X150529203Y-92526074D01*
X150534419Y-92505250D01*
X150541651Y-92485038D01*
X150550830Y-92465632D01*
X150561866Y-92447219D01*
X150574654Y-92429976D01*
X150589070Y-92414070D01*
X150604976Y-92399654D01*
X150622219Y-92386866D01*
X150640632Y-92375830D01*
X150660038Y-92366651D01*
X150680250Y-92359419D01*
X150701074Y-92354203D01*
X150722309Y-92351053D01*
X150743750Y-92350000D01*
X151256250Y-92350000D01*
X151277691Y-92351053D01*
G37*
G36*
X151277691Y-90776053D02*
G01*
X151298926Y-90779203D01*
X151319750Y-90784419D01*
X151339962Y-90791651D01*
X151359368Y-90800830D01*
X151377781Y-90811866D01*
X151395024Y-90824654D01*
X151410930Y-90839070D01*
X151425346Y-90854976D01*
X151438134Y-90872219D01*
X151449170Y-90890632D01*
X151458349Y-90910038D01*
X151465581Y-90930250D01*
X151470797Y-90951074D01*
X151473947Y-90972309D01*
X151475000Y-90993750D01*
X151475000Y-91431250D01*
X151473947Y-91452691D01*
X151470797Y-91473926D01*
X151465581Y-91494750D01*
X151458349Y-91514962D01*
X151449170Y-91534368D01*
X151438134Y-91552781D01*
X151425346Y-91570024D01*
X151410930Y-91585930D01*
X151395024Y-91600346D01*
X151377781Y-91613134D01*
X151359368Y-91624170D01*
X151339962Y-91633349D01*
X151319750Y-91640581D01*
X151298926Y-91645797D01*
X151277691Y-91648947D01*
X151256250Y-91650000D01*
X150743750Y-91650000D01*
X150722309Y-91648947D01*
X150701074Y-91645797D01*
X150680250Y-91640581D01*
X150660038Y-91633349D01*
X150640632Y-91624170D01*
X150622219Y-91613134D01*
X150604976Y-91600346D01*
X150589070Y-91585930D01*
X150574654Y-91570024D01*
X150561866Y-91552781D01*
X150550830Y-91534368D01*
X150541651Y-91514962D01*
X150534419Y-91494750D01*
X150529203Y-91473926D01*
X150526053Y-91452691D01*
X150525000Y-91431250D01*
X150525000Y-90993750D01*
X150526053Y-90972309D01*
X150529203Y-90951074D01*
X150534419Y-90930250D01*
X150541651Y-90910038D01*
X150550830Y-90890632D01*
X150561866Y-90872219D01*
X150574654Y-90854976D01*
X150589070Y-90839070D01*
X150604976Y-90824654D01*
X150622219Y-90811866D01*
X150640632Y-90800830D01*
X150660038Y-90791651D01*
X150680250Y-90784419D01*
X150701074Y-90779203D01*
X150722309Y-90776053D01*
X150743750Y-90775000D01*
X151256250Y-90775000D01*
X151277691Y-90776053D01*
G37*
G36*
X154277691Y-92351053D02*
G01*
X154298926Y-92354203D01*
X154319750Y-92359419D01*
X154339962Y-92366651D01*
X154359368Y-92375830D01*
X154377781Y-92386866D01*
X154395024Y-92399654D01*
X154410930Y-92414070D01*
X154425346Y-92429976D01*
X154438134Y-92447219D01*
X154449170Y-92465632D01*
X154458349Y-92485038D01*
X154465581Y-92505250D01*
X154470797Y-92526074D01*
X154473947Y-92547309D01*
X154475000Y-92568750D01*
X154475000Y-93006250D01*
X154473947Y-93027691D01*
X154470797Y-93048926D01*
X154465581Y-93069750D01*
X154458349Y-93089962D01*
X154449170Y-93109368D01*
X154438134Y-93127781D01*
X154425346Y-93145024D01*
X154410930Y-93160930D01*
X154395024Y-93175346D01*
X154377781Y-93188134D01*
X154359368Y-93199170D01*
X154339962Y-93208349D01*
X154319750Y-93215581D01*
X154298926Y-93220797D01*
X154277691Y-93223947D01*
X154256250Y-93225000D01*
X153743750Y-93225000D01*
X153722309Y-93223947D01*
X153701074Y-93220797D01*
X153680250Y-93215581D01*
X153660038Y-93208349D01*
X153640632Y-93199170D01*
X153622219Y-93188134D01*
X153604976Y-93175346D01*
X153589070Y-93160930D01*
X153574654Y-93145024D01*
X153561866Y-93127781D01*
X153550830Y-93109368D01*
X153541651Y-93089962D01*
X153534419Y-93069750D01*
X153529203Y-93048926D01*
X153526053Y-93027691D01*
X153525000Y-93006250D01*
X153525000Y-92568750D01*
X153526053Y-92547309D01*
X153529203Y-92526074D01*
X153534419Y-92505250D01*
X153541651Y-92485038D01*
X153550830Y-92465632D01*
X153561866Y-92447219D01*
X153574654Y-92429976D01*
X153589070Y-92414070D01*
X153604976Y-92399654D01*
X153622219Y-92386866D01*
X153640632Y-92375830D01*
X153660038Y-92366651D01*
X153680250Y-92359419D01*
X153701074Y-92354203D01*
X153722309Y-92351053D01*
X153743750Y-92350000D01*
X154256250Y-92350000D01*
X154277691Y-92351053D01*
G37*
G36*
X154277691Y-90776053D02*
G01*
X154298926Y-90779203D01*
X154319750Y-90784419D01*
X154339962Y-90791651D01*
X154359368Y-90800830D01*
X154377781Y-90811866D01*
X154395024Y-90824654D01*
X154410930Y-90839070D01*
X154425346Y-90854976D01*
X154438134Y-90872219D01*
X154449170Y-90890632D01*
X154458349Y-90910038D01*
X154465581Y-90930250D01*
X154470797Y-90951074D01*
X154473947Y-90972309D01*
X154475000Y-90993750D01*
X154475000Y-91431250D01*
X154473947Y-91452691D01*
X154470797Y-91473926D01*
X154465581Y-91494750D01*
X154458349Y-91514962D01*
X154449170Y-91534368D01*
X154438134Y-91552781D01*
X154425346Y-91570024D01*
X154410930Y-91585930D01*
X154395024Y-91600346D01*
X154377781Y-91613134D01*
X154359368Y-91624170D01*
X154339962Y-91633349D01*
X154319750Y-91640581D01*
X154298926Y-91645797D01*
X154277691Y-91648947D01*
X154256250Y-91650000D01*
X153743750Y-91650000D01*
X153722309Y-91648947D01*
X153701074Y-91645797D01*
X153680250Y-91640581D01*
X153660038Y-91633349D01*
X153640632Y-91624170D01*
X153622219Y-91613134D01*
X153604976Y-91600346D01*
X153589070Y-91585930D01*
X153574654Y-91570024D01*
X153561866Y-91552781D01*
X153550830Y-91534368D01*
X153541651Y-91514962D01*
X153534419Y-91494750D01*
X153529203Y-91473926D01*
X153526053Y-91452691D01*
X153525000Y-91431250D01*
X153525000Y-90993750D01*
X153526053Y-90972309D01*
X153529203Y-90951074D01*
X153534419Y-90930250D01*
X153541651Y-90910038D01*
X153550830Y-90890632D01*
X153561866Y-90872219D01*
X153574654Y-90854976D01*
X153589070Y-90839070D01*
X153604976Y-90824654D01*
X153622219Y-90811866D01*
X153640632Y-90800830D01*
X153660038Y-90791651D01*
X153680250Y-90784419D01*
X153701074Y-90779203D01*
X153722309Y-90776053D01*
X153743750Y-90775000D01*
X154256250Y-90775000D01*
X154277691Y-90776053D01*
G37*
G36*
X157122691Y-92273553D02*
G01*
X157143926Y-92276703D01*
X157164750Y-92281919D01*
X157184962Y-92289151D01*
X157204368Y-92298330D01*
X157222781Y-92309366D01*
X157240024Y-92322154D01*
X157255930Y-92336570D01*
X157270346Y-92352476D01*
X157283134Y-92369719D01*
X157294170Y-92388132D01*
X157303349Y-92407538D01*
X157310581Y-92427750D01*
X157315797Y-92448574D01*
X157318947Y-92469809D01*
X157320000Y-92491250D01*
X157320000Y-92928750D01*
X157318947Y-92950191D01*
X157315797Y-92971426D01*
X157310581Y-92992250D01*
X157303349Y-93012462D01*
X157294170Y-93031868D01*
X157283134Y-93050281D01*
X157270346Y-93067524D01*
X157255930Y-93083430D01*
X157240024Y-93097846D01*
X157222781Y-93110634D01*
X157204368Y-93121670D01*
X157184962Y-93130849D01*
X157164750Y-93138081D01*
X157143926Y-93143297D01*
X157122691Y-93146447D01*
X157101250Y-93147500D01*
X156588750Y-93147500D01*
X156567309Y-93146447D01*
X156546074Y-93143297D01*
X156525250Y-93138081D01*
X156505038Y-93130849D01*
X156485632Y-93121670D01*
X156467219Y-93110634D01*
X156449976Y-93097846D01*
X156434070Y-93083430D01*
X156419654Y-93067524D01*
X156406866Y-93050281D01*
X156395830Y-93031868D01*
X156386651Y-93012462D01*
X156379419Y-92992250D01*
X156374203Y-92971426D01*
X156371053Y-92950191D01*
X156370000Y-92928750D01*
X156370000Y-92491250D01*
X156371053Y-92469809D01*
X156374203Y-92448574D01*
X156379419Y-92427750D01*
X156386651Y-92407538D01*
X156395830Y-92388132D01*
X156406866Y-92369719D01*
X156419654Y-92352476D01*
X156434070Y-92336570D01*
X156449976Y-92322154D01*
X156467219Y-92309366D01*
X156485632Y-92298330D01*
X156505038Y-92289151D01*
X156525250Y-92281919D01*
X156546074Y-92276703D01*
X156567309Y-92273553D01*
X156588750Y-92272500D01*
X157101250Y-92272500D01*
X157122691Y-92273553D01*
G37*
G36*
X157122691Y-90698553D02*
G01*
X157143926Y-90701703D01*
X157164750Y-90706919D01*
X157184962Y-90714151D01*
X157204368Y-90723330D01*
X157222781Y-90734366D01*
X157240024Y-90747154D01*
X157255930Y-90761570D01*
X157270346Y-90777476D01*
X157283134Y-90794719D01*
X157294170Y-90813132D01*
X157303349Y-90832538D01*
X157310581Y-90852750D01*
X157315797Y-90873574D01*
X157318947Y-90894809D01*
X157320000Y-90916250D01*
X157320000Y-91353750D01*
X157318947Y-91375191D01*
X157315797Y-91396426D01*
X157310581Y-91417250D01*
X157303349Y-91437462D01*
X157294170Y-91456868D01*
X157283134Y-91475281D01*
X157270346Y-91492524D01*
X157255930Y-91508430D01*
X157240024Y-91522846D01*
X157222781Y-91535634D01*
X157204368Y-91546670D01*
X157184962Y-91555849D01*
X157164750Y-91563081D01*
X157143926Y-91568297D01*
X157122691Y-91571447D01*
X157101250Y-91572500D01*
X156588750Y-91572500D01*
X156567309Y-91571447D01*
X156546074Y-91568297D01*
X156525250Y-91563081D01*
X156505038Y-91555849D01*
X156485632Y-91546670D01*
X156467219Y-91535634D01*
X156449976Y-91522846D01*
X156434070Y-91508430D01*
X156419654Y-91492524D01*
X156406866Y-91475281D01*
X156395830Y-91456868D01*
X156386651Y-91437462D01*
X156379419Y-91417250D01*
X156374203Y-91396426D01*
X156371053Y-91375191D01*
X156370000Y-91353750D01*
X156370000Y-90916250D01*
X156371053Y-90894809D01*
X156374203Y-90873574D01*
X156379419Y-90852750D01*
X156386651Y-90832538D01*
X156395830Y-90813132D01*
X156406866Y-90794719D01*
X156419654Y-90777476D01*
X156434070Y-90761570D01*
X156449976Y-90747154D01*
X156467219Y-90734366D01*
X156485632Y-90723330D01*
X156505038Y-90714151D01*
X156525250Y-90706919D01*
X156546074Y-90701703D01*
X156567309Y-90698553D01*
X156588750Y-90697500D01*
X157101250Y-90697500D01*
X157122691Y-90698553D01*
G37*
G36*
X152894191Y-94268053D02*
G01*
X152915426Y-94271203D01*
X152936250Y-94276419D01*
X152956462Y-94283651D01*
X152975868Y-94292830D01*
X152994281Y-94303866D01*
X153011524Y-94316654D01*
X153027430Y-94331070D01*
X153041846Y-94346976D01*
X153054634Y-94364219D01*
X153065670Y-94382632D01*
X153074849Y-94402038D01*
X153082081Y-94422250D01*
X153087297Y-94443074D01*
X153090447Y-94464309D01*
X153091500Y-94485750D01*
X153091500Y-94998250D01*
X153090447Y-95019691D01*
X153087297Y-95040926D01*
X153082081Y-95061750D01*
X153074849Y-95081962D01*
X153065670Y-95101368D01*
X153054634Y-95119781D01*
X153041846Y-95137024D01*
X153027430Y-95152930D01*
X153011524Y-95167346D01*
X152994281Y-95180134D01*
X152975868Y-95191170D01*
X152956462Y-95200349D01*
X152936250Y-95207581D01*
X152915426Y-95212797D01*
X152894191Y-95215947D01*
X152872750Y-95217000D01*
X152435250Y-95217000D01*
X152413809Y-95215947D01*
X152392574Y-95212797D01*
X152371750Y-95207581D01*
X152351538Y-95200349D01*
X152332132Y-95191170D01*
X152313719Y-95180134D01*
X152296476Y-95167346D01*
X152280570Y-95152930D01*
X152266154Y-95137024D01*
X152253366Y-95119781D01*
X152242330Y-95101368D01*
X152233151Y-95081962D01*
X152225919Y-95061750D01*
X152220703Y-95040926D01*
X152217553Y-95019691D01*
X152216500Y-94998250D01*
X152216500Y-94485750D01*
X152217553Y-94464309D01*
X152220703Y-94443074D01*
X152225919Y-94422250D01*
X152233151Y-94402038D01*
X152242330Y-94382632D01*
X152253366Y-94364219D01*
X152266154Y-94346976D01*
X152280570Y-94331070D01*
X152296476Y-94316654D01*
X152313719Y-94303866D01*
X152332132Y-94292830D01*
X152351538Y-94283651D01*
X152371750Y-94276419D01*
X152392574Y-94271203D01*
X152413809Y-94268053D01*
X152435250Y-94267000D01*
X152872750Y-94267000D01*
X152894191Y-94268053D01*
G37*
G36*
X151319191Y-94268053D02*
G01*
X151340426Y-94271203D01*
X151361250Y-94276419D01*
X151381462Y-94283651D01*
X151400868Y-94292830D01*
X151419281Y-94303866D01*
X151436524Y-94316654D01*
X151452430Y-94331070D01*
X151466846Y-94346976D01*
X151479634Y-94364219D01*
X151490670Y-94382632D01*
X151499849Y-94402038D01*
X151507081Y-94422250D01*
X151512297Y-94443074D01*
X151515447Y-94464309D01*
X151516500Y-94485750D01*
X151516500Y-94998250D01*
X151515447Y-95019691D01*
X151512297Y-95040926D01*
X151507081Y-95061750D01*
X151499849Y-95081962D01*
X151490670Y-95101368D01*
X151479634Y-95119781D01*
X151466846Y-95137024D01*
X151452430Y-95152930D01*
X151436524Y-95167346D01*
X151419281Y-95180134D01*
X151400868Y-95191170D01*
X151381462Y-95200349D01*
X151361250Y-95207581D01*
X151340426Y-95212797D01*
X151319191Y-95215947D01*
X151297750Y-95217000D01*
X150860250Y-95217000D01*
X150838809Y-95215947D01*
X150817574Y-95212797D01*
X150796750Y-95207581D01*
X150776538Y-95200349D01*
X150757132Y-95191170D01*
X150738719Y-95180134D01*
X150721476Y-95167346D01*
X150705570Y-95152930D01*
X150691154Y-95137024D01*
X150678366Y-95119781D01*
X150667330Y-95101368D01*
X150658151Y-95081962D01*
X150650919Y-95061750D01*
X150645703Y-95040926D01*
X150642553Y-95019691D01*
X150641500Y-94998250D01*
X150641500Y-94485750D01*
X150642553Y-94464309D01*
X150645703Y-94443074D01*
X150650919Y-94422250D01*
X150658151Y-94402038D01*
X150667330Y-94382632D01*
X150678366Y-94364219D01*
X150691154Y-94346976D01*
X150705570Y-94331070D01*
X150721476Y-94316654D01*
X150738719Y-94303866D01*
X150757132Y-94292830D01*
X150776538Y-94283651D01*
X150796750Y-94276419D01*
X150817574Y-94271203D01*
X150838809Y-94268053D01*
X150860250Y-94267000D01*
X151297750Y-94267000D01*
X151319191Y-94268053D01*
G37*
G36*
X168134191Y-77504053D02*
G01*
X168155426Y-77507203D01*
X168176250Y-77512419D01*
X168196462Y-77519651D01*
X168215868Y-77528830D01*
X168234281Y-77539866D01*
X168251524Y-77552654D01*
X168267430Y-77567070D01*
X168281846Y-77582976D01*
X168294634Y-77600219D01*
X168305670Y-77618632D01*
X168314849Y-77638038D01*
X168322081Y-77658250D01*
X168327297Y-77679074D01*
X168330447Y-77700309D01*
X168331500Y-77721750D01*
X168331500Y-78234250D01*
X168330447Y-78255691D01*
X168327297Y-78276926D01*
X168322081Y-78297750D01*
X168314849Y-78317962D01*
X168305670Y-78337368D01*
X168294634Y-78355781D01*
X168281846Y-78373024D01*
X168267430Y-78388930D01*
X168251524Y-78403346D01*
X168234281Y-78416134D01*
X168215868Y-78427170D01*
X168196462Y-78436349D01*
X168176250Y-78443581D01*
X168155426Y-78448797D01*
X168134191Y-78451947D01*
X168112750Y-78453000D01*
X167675250Y-78453000D01*
X167653809Y-78451947D01*
X167632574Y-78448797D01*
X167611750Y-78443581D01*
X167591538Y-78436349D01*
X167572132Y-78427170D01*
X167553719Y-78416134D01*
X167536476Y-78403346D01*
X167520570Y-78388930D01*
X167506154Y-78373024D01*
X167493366Y-78355781D01*
X167482330Y-78337368D01*
X167473151Y-78317962D01*
X167465919Y-78297750D01*
X167460703Y-78276926D01*
X167457553Y-78255691D01*
X167456500Y-78234250D01*
X167456500Y-77721750D01*
X167457553Y-77700309D01*
X167460703Y-77679074D01*
X167465919Y-77658250D01*
X167473151Y-77638038D01*
X167482330Y-77618632D01*
X167493366Y-77600219D01*
X167506154Y-77582976D01*
X167520570Y-77567070D01*
X167536476Y-77552654D01*
X167553719Y-77539866D01*
X167572132Y-77528830D01*
X167591538Y-77519651D01*
X167611750Y-77512419D01*
X167632574Y-77507203D01*
X167653809Y-77504053D01*
X167675250Y-77503000D01*
X168112750Y-77503000D01*
X168134191Y-77504053D01*
G37*
G36*
X166559191Y-77504053D02*
G01*
X166580426Y-77507203D01*
X166601250Y-77512419D01*
X166621462Y-77519651D01*
X166640868Y-77528830D01*
X166659281Y-77539866D01*
X166676524Y-77552654D01*
X166692430Y-77567070D01*
X166706846Y-77582976D01*
X166719634Y-77600219D01*
X166730670Y-77618632D01*
X166739849Y-77638038D01*
X166747081Y-77658250D01*
X166752297Y-77679074D01*
X166755447Y-77700309D01*
X166756500Y-77721750D01*
X166756500Y-78234250D01*
X166755447Y-78255691D01*
X166752297Y-78276926D01*
X166747081Y-78297750D01*
X166739849Y-78317962D01*
X166730670Y-78337368D01*
X166719634Y-78355781D01*
X166706846Y-78373024D01*
X166692430Y-78388930D01*
X166676524Y-78403346D01*
X166659281Y-78416134D01*
X166640868Y-78427170D01*
X166621462Y-78436349D01*
X166601250Y-78443581D01*
X166580426Y-78448797D01*
X166559191Y-78451947D01*
X166537750Y-78453000D01*
X166100250Y-78453000D01*
X166078809Y-78451947D01*
X166057574Y-78448797D01*
X166036750Y-78443581D01*
X166016538Y-78436349D01*
X165997132Y-78427170D01*
X165978719Y-78416134D01*
X165961476Y-78403346D01*
X165945570Y-78388930D01*
X165931154Y-78373024D01*
X165918366Y-78355781D01*
X165907330Y-78337368D01*
X165898151Y-78317962D01*
X165890919Y-78297750D01*
X165885703Y-78276926D01*
X165882553Y-78255691D01*
X165881500Y-78234250D01*
X165881500Y-77721750D01*
X165882553Y-77700309D01*
X165885703Y-77679074D01*
X165890919Y-77658250D01*
X165898151Y-77638038D01*
X165907330Y-77618632D01*
X165918366Y-77600219D01*
X165931154Y-77582976D01*
X165945570Y-77567070D01*
X165961476Y-77552654D01*
X165978719Y-77539866D01*
X165997132Y-77528830D01*
X166016538Y-77519651D01*
X166036750Y-77512419D01*
X166057574Y-77507203D01*
X166078809Y-77504053D01*
X166100250Y-77503000D01*
X166537750Y-77503000D01*
X166559191Y-77504053D01*
G37*
G36*
X166901691Y-82088053D02*
G01*
X166922926Y-82091203D01*
X166943750Y-82096419D01*
X166963962Y-82103651D01*
X166983368Y-82112830D01*
X167001781Y-82123866D01*
X167019024Y-82136654D01*
X167034930Y-82151070D01*
X167049346Y-82166976D01*
X167062134Y-82184219D01*
X167073170Y-82202632D01*
X167082349Y-82222038D01*
X167089581Y-82242250D01*
X167094797Y-82263074D01*
X167097947Y-82284309D01*
X167099000Y-82305750D01*
X167099000Y-82743250D01*
X167097947Y-82764691D01*
X167094797Y-82785926D01*
X167089581Y-82806750D01*
X167082349Y-82826962D01*
X167073170Y-82846368D01*
X167062134Y-82864781D01*
X167049346Y-82882024D01*
X167034930Y-82897930D01*
X167019024Y-82912346D01*
X167001781Y-82925134D01*
X166983368Y-82936170D01*
X166963962Y-82945349D01*
X166943750Y-82952581D01*
X166922926Y-82957797D01*
X166901691Y-82960947D01*
X166880250Y-82962000D01*
X166367750Y-82962000D01*
X166346309Y-82960947D01*
X166325074Y-82957797D01*
X166304250Y-82952581D01*
X166284038Y-82945349D01*
X166264632Y-82936170D01*
X166246219Y-82925134D01*
X166228976Y-82912346D01*
X166213070Y-82897930D01*
X166198654Y-82882024D01*
X166185866Y-82864781D01*
X166174830Y-82846368D01*
X166165651Y-82826962D01*
X166158419Y-82806750D01*
X166153203Y-82785926D01*
X166150053Y-82764691D01*
X166149000Y-82743250D01*
X166149000Y-82305750D01*
X166150053Y-82284309D01*
X166153203Y-82263074D01*
X166158419Y-82242250D01*
X166165651Y-82222038D01*
X166174830Y-82202632D01*
X166185866Y-82184219D01*
X166198654Y-82166976D01*
X166213070Y-82151070D01*
X166228976Y-82136654D01*
X166246219Y-82123866D01*
X166264632Y-82112830D01*
X166284038Y-82103651D01*
X166304250Y-82096419D01*
X166325074Y-82091203D01*
X166346309Y-82088053D01*
X166367750Y-82087000D01*
X166880250Y-82087000D01*
X166901691Y-82088053D01*
G37*
G36*
X166901691Y-83663053D02*
G01*
X166922926Y-83666203D01*
X166943750Y-83671419D01*
X166963962Y-83678651D01*
X166983368Y-83687830D01*
X167001781Y-83698866D01*
X167019024Y-83711654D01*
X167034930Y-83726070D01*
X167049346Y-83741976D01*
X167062134Y-83759219D01*
X167073170Y-83777632D01*
X167082349Y-83797038D01*
X167089581Y-83817250D01*
X167094797Y-83838074D01*
X167097947Y-83859309D01*
X167099000Y-83880750D01*
X167099000Y-84318250D01*
X167097947Y-84339691D01*
X167094797Y-84360926D01*
X167089581Y-84381750D01*
X167082349Y-84401962D01*
X167073170Y-84421368D01*
X167062134Y-84439781D01*
X167049346Y-84457024D01*
X167034930Y-84472930D01*
X167019024Y-84487346D01*
X167001781Y-84500134D01*
X166983368Y-84511170D01*
X166963962Y-84520349D01*
X166943750Y-84527581D01*
X166922926Y-84532797D01*
X166901691Y-84535947D01*
X166880250Y-84537000D01*
X166367750Y-84537000D01*
X166346309Y-84535947D01*
X166325074Y-84532797D01*
X166304250Y-84527581D01*
X166284038Y-84520349D01*
X166264632Y-84511170D01*
X166246219Y-84500134D01*
X166228976Y-84487346D01*
X166213070Y-84472930D01*
X166198654Y-84457024D01*
X166185866Y-84439781D01*
X166174830Y-84421368D01*
X166165651Y-84401962D01*
X166158419Y-84381750D01*
X166153203Y-84360926D01*
X166150053Y-84339691D01*
X166149000Y-84318250D01*
X166149000Y-83880750D01*
X166150053Y-83859309D01*
X166153203Y-83838074D01*
X166158419Y-83817250D01*
X166165651Y-83797038D01*
X166174830Y-83777632D01*
X166185866Y-83759219D01*
X166198654Y-83741976D01*
X166213070Y-83726070D01*
X166228976Y-83711654D01*
X166246219Y-83698866D01*
X166264632Y-83687830D01*
X166284038Y-83678651D01*
X166304250Y-83671419D01*
X166325074Y-83666203D01*
X166346309Y-83663053D01*
X166367750Y-83662000D01*
X166880250Y-83662000D01*
X166901691Y-83663053D01*
G37*
G36*
X178452691Y-85526053D02*
G01*
X178473926Y-85529203D01*
X178494750Y-85534419D01*
X178514962Y-85541651D01*
X178534368Y-85550830D01*
X178552781Y-85561866D01*
X178570024Y-85574654D01*
X178585930Y-85589070D01*
X178600346Y-85604976D01*
X178613134Y-85622219D01*
X178624170Y-85640632D01*
X178633349Y-85660038D01*
X178640581Y-85680250D01*
X178645797Y-85701074D01*
X178648947Y-85722309D01*
X178650000Y-85743750D01*
X178650000Y-86256250D01*
X178648947Y-86277691D01*
X178645797Y-86298926D01*
X178640581Y-86319750D01*
X178633349Y-86339962D01*
X178624170Y-86359368D01*
X178613134Y-86377781D01*
X178600346Y-86395024D01*
X178585930Y-86410930D01*
X178570024Y-86425346D01*
X178552781Y-86438134D01*
X178534368Y-86449170D01*
X178514962Y-86458349D01*
X178494750Y-86465581D01*
X178473926Y-86470797D01*
X178452691Y-86473947D01*
X178431250Y-86475000D01*
X177993750Y-86475000D01*
X177972309Y-86473947D01*
X177951074Y-86470797D01*
X177930250Y-86465581D01*
X177910038Y-86458349D01*
X177890632Y-86449170D01*
X177872219Y-86438134D01*
X177854976Y-86425346D01*
X177839070Y-86410930D01*
X177824654Y-86395024D01*
X177811866Y-86377781D01*
X177800830Y-86359368D01*
X177791651Y-86339962D01*
X177784419Y-86319750D01*
X177779203Y-86298926D01*
X177776053Y-86277691D01*
X177775000Y-86256250D01*
X177775000Y-85743750D01*
X177776053Y-85722309D01*
X177779203Y-85701074D01*
X177784419Y-85680250D01*
X177791651Y-85660038D01*
X177800830Y-85640632D01*
X177811866Y-85622219D01*
X177824654Y-85604976D01*
X177839070Y-85589070D01*
X177854976Y-85574654D01*
X177872219Y-85561866D01*
X177890632Y-85550830D01*
X177910038Y-85541651D01*
X177930250Y-85534419D01*
X177951074Y-85529203D01*
X177972309Y-85526053D01*
X177993750Y-85525000D01*
X178431250Y-85525000D01*
X178452691Y-85526053D01*
G37*
G36*
X180027691Y-85526053D02*
G01*
X180048926Y-85529203D01*
X180069750Y-85534419D01*
X180089962Y-85541651D01*
X180109368Y-85550830D01*
X180127781Y-85561866D01*
X180145024Y-85574654D01*
X180160930Y-85589070D01*
X180175346Y-85604976D01*
X180188134Y-85622219D01*
X180199170Y-85640632D01*
X180208349Y-85660038D01*
X180215581Y-85680250D01*
X180220797Y-85701074D01*
X180223947Y-85722309D01*
X180225000Y-85743750D01*
X180225000Y-86256250D01*
X180223947Y-86277691D01*
X180220797Y-86298926D01*
X180215581Y-86319750D01*
X180208349Y-86339962D01*
X180199170Y-86359368D01*
X180188134Y-86377781D01*
X180175346Y-86395024D01*
X180160930Y-86410930D01*
X180145024Y-86425346D01*
X180127781Y-86438134D01*
X180109368Y-86449170D01*
X180089962Y-86458349D01*
X180069750Y-86465581D01*
X180048926Y-86470797D01*
X180027691Y-86473947D01*
X180006250Y-86475000D01*
X179568750Y-86475000D01*
X179547309Y-86473947D01*
X179526074Y-86470797D01*
X179505250Y-86465581D01*
X179485038Y-86458349D01*
X179465632Y-86449170D01*
X179447219Y-86438134D01*
X179429976Y-86425346D01*
X179414070Y-86410930D01*
X179399654Y-86395024D01*
X179386866Y-86377781D01*
X179375830Y-86359368D01*
X179366651Y-86339962D01*
X179359419Y-86319750D01*
X179354203Y-86298926D01*
X179351053Y-86277691D01*
X179350000Y-86256250D01*
X179350000Y-85743750D01*
X179351053Y-85722309D01*
X179354203Y-85701074D01*
X179359419Y-85680250D01*
X179366651Y-85660038D01*
X179375830Y-85640632D01*
X179386866Y-85622219D01*
X179399654Y-85604976D01*
X179414070Y-85589070D01*
X179429976Y-85574654D01*
X179447219Y-85561866D01*
X179465632Y-85550830D01*
X179485038Y-85541651D01*
X179505250Y-85534419D01*
X179526074Y-85529203D01*
X179547309Y-85526053D01*
X179568750Y-85525000D01*
X180006250Y-85525000D01*
X180027691Y-85526053D01*
G37*
G36*
X178452691Y-92998053D02*
G01*
X178473926Y-93001203D01*
X178494750Y-93006419D01*
X178514962Y-93013651D01*
X178534368Y-93022830D01*
X178552781Y-93033866D01*
X178570024Y-93046654D01*
X178585930Y-93061070D01*
X178600346Y-93076976D01*
X178613134Y-93094219D01*
X178624170Y-93112632D01*
X178633349Y-93132038D01*
X178640581Y-93152250D01*
X178645797Y-93173074D01*
X178648947Y-93194309D01*
X178650000Y-93215750D01*
X178650000Y-93728250D01*
X178648947Y-93749691D01*
X178645797Y-93770926D01*
X178640581Y-93791750D01*
X178633349Y-93811962D01*
X178624170Y-93831368D01*
X178613134Y-93849781D01*
X178600346Y-93867024D01*
X178585930Y-93882930D01*
X178570024Y-93897346D01*
X178552781Y-93910134D01*
X178534368Y-93921170D01*
X178514962Y-93930349D01*
X178494750Y-93937581D01*
X178473926Y-93942797D01*
X178452691Y-93945947D01*
X178431250Y-93947000D01*
X177993750Y-93947000D01*
X177972309Y-93945947D01*
X177951074Y-93942797D01*
X177930250Y-93937581D01*
X177910038Y-93930349D01*
X177890632Y-93921170D01*
X177872219Y-93910134D01*
X177854976Y-93897346D01*
X177839070Y-93882930D01*
X177824654Y-93867024D01*
X177811866Y-93849781D01*
X177800830Y-93831368D01*
X177791651Y-93811962D01*
X177784419Y-93791750D01*
X177779203Y-93770926D01*
X177776053Y-93749691D01*
X177775000Y-93728250D01*
X177775000Y-93215750D01*
X177776053Y-93194309D01*
X177779203Y-93173074D01*
X177784419Y-93152250D01*
X177791651Y-93132038D01*
X177800830Y-93112632D01*
X177811866Y-93094219D01*
X177824654Y-93076976D01*
X177839070Y-93061070D01*
X177854976Y-93046654D01*
X177872219Y-93033866D01*
X177890632Y-93022830D01*
X177910038Y-93013651D01*
X177930250Y-93006419D01*
X177951074Y-93001203D01*
X177972309Y-92998053D01*
X177993750Y-92997000D01*
X178431250Y-92997000D01*
X178452691Y-92998053D01*
G37*
G36*
X180027691Y-92998053D02*
G01*
X180048926Y-93001203D01*
X180069750Y-93006419D01*
X180089962Y-93013651D01*
X180109368Y-93022830D01*
X180127781Y-93033866D01*
X180145024Y-93046654D01*
X180160930Y-93061070D01*
X180175346Y-93076976D01*
X180188134Y-93094219D01*
X180199170Y-93112632D01*
X180208349Y-93132038D01*
X180215581Y-93152250D01*
X180220797Y-93173074D01*
X180223947Y-93194309D01*
X180225000Y-93215750D01*
X180225000Y-93728250D01*
X180223947Y-93749691D01*
X180220797Y-93770926D01*
X180215581Y-93791750D01*
X180208349Y-93811962D01*
X180199170Y-93831368D01*
X180188134Y-93849781D01*
X180175346Y-93867024D01*
X180160930Y-93882930D01*
X180145024Y-93897346D01*
X180127781Y-93910134D01*
X180109368Y-93921170D01*
X180089962Y-93930349D01*
X180069750Y-93937581D01*
X180048926Y-93942797D01*
X180027691Y-93945947D01*
X180006250Y-93947000D01*
X179568750Y-93947000D01*
X179547309Y-93945947D01*
X179526074Y-93942797D01*
X179505250Y-93937581D01*
X179485038Y-93930349D01*
X179465632Y-93921170D01*
X179447219Y-93910134D01*
X179429976Y-93897346D01*
X179414070Y-93882930D01*
X179399654Y-93867024D01*
X179386866Y-93849781D01*
X179375830Y-93831368D01*
X179366651Y-93811962D01*
X179359419Y-93791750D01*
X179354203Y-93770926D01*
X179351053Y-93749691D01*
X179350000Y-93728250D01*
X179350000Y-93215750D01*
X179351053Y-93194309D01*
X179354203Y-93173074D01*
X179359419Y-93152250D01*
X179366651Y-93132038D01*
X179375830Y-93112632D01*
X179386866Y-93094219D01*
X179399654Y-93076976D01*
X179414070Y-93061070D01*
X179429976Y-93046654D01*
X179447219Y-93033866D01*
X179465632Y-93022830D01*
X179485038Y-93013651D01*
X179505250Y-93006419D01*
X179526074Y-93001203D01*
X179547309Y-92998053D01*
X179568750Y-92997000D01*
X180006250Y-92997000D01*
X180027691Y-92998053D01*
G37*
G36*
X167917691Y-94813553D02*
G01*
X167938926Y-94816703D01*
X167959750Y-94821919D01*
X167979962Y-94829151D01*
X167999368Y-94838330D01*
X168017781Y-94849366D01*
X168035024Y-94862154D01*
X168050930Y-94876570D01*
X168065346Y-94892476D01*
X168078134Y-94909719D01*
X168089170Y-94928132D01*
X168098349Y-94947538D01*
X168105581Y-94967750D01*
X168110797Y-94988574D01*
X168113947Y-95009809D01*
X168115000Y-95031250D01*
X168115000Y-95468750D01*
X168113947Y-95490191D01*
X168110797Y-95511426D01*
X168105581Y-95532250D01*
X168098349Y-95552462D01*
X168089170Y-95571868D01*
X168078134Y-95590281D01*
X168065346Y-95607524D01*
X168050930Y-95623430D01*
X168035024Y-95637846D01*
X168017781Y-95650634D01*
X167999368Y-95661670D01*
X167979962Y-95670849D01*
X167959750Y-95678081D01*
X167938926Y-95683297D01*
X167917691Y-95686447D01*
X167896250Y-95687500D01*
X167383750Y-95687500D01*
X167362309Y-95686447D01*
X167341074Y-95683297D01*
X167320250Y-95678081D01*
X167300038Y-95670849D01*
X167280632Y-95661670D01*
X167262219Y-95650634D01*
X167244976Y-95637846D01*
X167229070Y-95623430D01*
X167214654Y-95607524D01*
X167201866Y-95590281D01*
X167190830Y-95571868D01*
X167181651Y-95552462D01*
X167174419Y-95532250D01*
X167169203Y-95511426D01*
X167166053Y-95490191D01*
X167165000Y-95468750D01*
X167165000Y-95031250D01*
X167166053Y-95009809D01*
X167169203Y-94988574D01*
X167174419Y-94967750D01*
X167181651Y-94947538D01*
X167190830Y-94928132D01*
X167201866Y-94909719D01*
X167214654Y-94892476D01*
X167229070Y-94876570D01*
X167244976Y-94862154D01*
X167262219Y-94849366D01*
X167280632Y-94838330D01*
X167300038Y-94829151D01*
X167320250Y-94821919D01*
X167341074Y-94816703D01*
X167362309Y-94813553D01*
X167383750Y-94812500D01*
X167896250Y-94812500D01*
X167917691Y-94813553D01*
G37*
G36*
X167917691Y-93238553D02*
G01*
X167938926Y-93241703D01*
X167959750Y-93246919D01*
X167979962Y-93254151D01*
X167999368Y-93263330D01*
X168017781Y-93274366D01*
X168035024Y-93287154D01*
X168050930Y-93301570D01*
X168065346Y-93317476D01*
X168078134Y-93334719D01*
X168089170Y-93353132D01*
X168098349Y-93372538D01*
X168105581Y-93392750D01*
X168110797Y-93413574D01*
X168113947Y-93434809D01*
X168115000Y-93456250D01*
X168115000Y-93893750D01*
X168113947Y-93915191D01*
X168110797Y-93936426D01*
X168105581Y-93957250D01*
X168098349Y-93977462D01*
X168089170Y-93996868D01*
X168078134Y-94015281D01*
X168065346Y-94032524D01*
X168050930Y-94048430D01*
X168035024Y-94062846D01*
X168017781Y-94075634D01*
X167999368Y-94086670D01*
X167979962Y-94095849D01*
X167959750Y-94103081D01*
X167938926Y-94108297D01*
X167917691Y-94111447D01*
X167896250Y-94112500D01*
X167383750Y-94112500D01*
X167362309Y-94111447D01*
X167341074Y-94108297D01*
X167320250Y-94103081D01*
X167300038Y-94095849D01*
X167280632Y-94086670D01*
X167262219Y-94075634D01*
X167244976Y-94062846D01*
X167229070Y-94048430D01*
X167214654Y-94032524D01*
X167201866Y-94015281D01*
X167190830Y-93996868D01*
X167181651Y-93977462D01*
X167174419Y-93957250D01*
X167169203Y-93936426D01*
X167166053Y-93915191D01*
X167165000Y-93893750D01*
X167165000Y-93456250D01*
X167166053Y-93434809D01*
X167169203Y-93413574D01*
X167174419Y-93392750D01*
X167181651Y-93372538D01*
X167190830Y-93353132D01*
X167201866Y-93334719D01*
X167214654Y-93317476D01*
X167229070Y-93301570D01*
X167244976Y-93287154D01*
X167262219Y-93274366D01*
X167280632Y-93263330D01*
X167300038Y-93254151D01*
X167320250Y-93246919D01*
X167341074Y-93241703D01*
X167362309Y-93238553D01*
X167383750Y-93237500D01*
X167896250Y-93237500D01*
X167917691Y-93238553D01*
G37*
D17*
X164080000Y-88520000D03*
X146080000Y-88520000D03*
D18*
X146080000Y-76520000D03*
D17*
X146080000Y-78020000D03*
X146080000Y-79520000D03*
X146080000Y-81020000D03*
X146080000Y-82520000D03*
X146080000Y-84020000D03*
X146080000Y-85520000D03*
X146080000Y-87020000D03*
X164080000Y-87020000D03*
X164080000Y-85520000D03*
X164080000Y-84020000D03*
X164080000Y-82520000D03*
X164080000Y-81020000D03*
X164080000Y-79520000D03*
X164080000Y-78020000D03*
X164080000Y-76520000D03*
D19*
X156200000Y-83100000D03*
D20*
X142200000Y-97350000D03*
X142850000Y-97350000D03*
X143500000Y-97350000D03*
X144150000Y-97350000D03*
X144800000Y-97350000D03*
D10*
G36*
X148065191Y-94026053D02*
G01*
X148086426Y-94029203D01*
X148107250Y-94034419D01*
X148127462Y-94041651D01*
X148146868Y-94050830D01*
X148165281Y-94061866D01*
X148182524Y-94074654D01*
X148198430Y-94089070D01*
X148212846Y-94104976D01*
X148225634Y-94122219D01*
X148236670Y-94140632D01*
X148245849Y-94160038D01*
X148253081Y-94180250D01*
X148258297Y-94201074D01*
X148261447Y-94222309D01*
X148262500Y-94243750D01*
X148262500Y-94756250D01*
X148261447Y-94777691D01*
X148258297Y-94798926D01*
X148253081Y-94819750D01*
X148245849Y-94839962D01*
X148236670Y-94859368D01*
X148225634Y-94877781D01*
X148212846Y-94895024D01*
X148198430Y-94910930D01*
X148182524Y-94925346D01*
X148165281Y-94938134D01*
X148146868Y-94949170D01*
X148127462Y-94958349D01*
X148107250Y-94965581D01*
X148086426Y-94970797D01*
X148065191Y-94973947D01*
X148043750Y-94975000D01*
X147606250Y-94975000D01*
X147584809Y-94973947D01*
X147563574Y-94970797D01*
X147542750Y-94965581D01*
X147522538Y-94958349D01*
X147503132Y-94949170D01*
X147484719Y-94938134D01*
X147467476Y-94925346D01*
X147451570Y-94910930D01*
X147437154Y-94895024D01*
X147424366Y-94877781D01*
X147413330Y-94859368D01*
X147404151Y-94839962D01*
X147396919Y-94819750D01*
X147391703Y-94798926D01*
X147388553Y-94777691D01*
X147387500Y-94756250D01*
X147387500Y-94243750D01*
X147388553Y-94222309D01*
X147391703Y-94201074D01*
X147396919Y-94180250D01*
X147404151Y-94160038D01*
X147413330Y-94140632D01*
X147424366Y-94122219D01*
X147437154Y-94104976D01*
X147451570Y-94089070D01*
X147467476Y-94074654D01*
X147484719Y-94061866D01*
X147503132Y-94050830D01*
X147522538Y-94041651D01*
X147542750Y-94034419D01*
X147563574Y-94029203D01*
X147584809Y-94026053D01*
X147606250Y-94025000D01*
X148043750Y-94025000D01*
X148065191Y-94026053D01*
G37*
G36*
X146490191Y-94026053D02*
G01*
X146511426Y-94029203D01*
X146532250Y-94034419D01*
X146552462Y-94041651D01*
X146571868Y-94050830D01*
X146590281Y-94061866D01*
X146607524Y-94074654D01*
X146623430Y-94089070D01*
X146637846Y-94104976D01*
X146650634Y-94122219D01*
X146661670Y-94140632D01*
X146670849Y-94160038D01*
X146678081Y-94180250D01*
X146683297Y-94201074D01*
X146686447Y-94222309D01*
X146687500Y-94243750D01*
X146687500Y-94756250D01*
X146686447Y-94777691D01*
X146683297Y-94798926D01*
X146678081Y-94819750D01*
X146670849Y-94839962D01*
X146661670Y-94859368D01*
X146650634Y-94877781D01*
X146637846Y-94895024D01*
X146623430Y-94910930D01*
X146607524Y-94925346D01*
X146590281Y-94938134D01*
X146571868Y-94949170D01*
X146552462Y-94958349D01*
X146532250Y-94965581D01*
X146511426Y-94970797D01*
X146490191Y-94973947D01*
X146468750Y-94975000D01*
X146031250Y-94975000D01*
X146009809Y-94973947D01*
X145988574Y-94970797D01*
X145967750Y-94965581D01*
X145947538Y-94958349D01*
X145928132Y-94949170D01*
X145909719Y-94938134D01*
X145892476Y-94925346D01*
X145876570Y-94910930D01*
X145862154Y-94895024D01*
X145849366Y-94877781D01*
X145838330Y-94859368D01*
X145829151Y-94839962D01*
X145821919Y-94819750D01*
X145816703Y-94798926D01*
X145813553Y-94777691D01*
X145812500Y-94756250D01*
X145812500Y-94243750D01*
X145813553Y-94222309D01*
X145816703Y-94201074D01*
X145821919Y-94180250D01*
X145829151Y-94160038D01*
X145838330Y-94140632D01*
X145849366Y-94122219D01*
X145862154Y-94104976D01*
X145876570Y-94089070D01*
X145892476Y-94074654D01*
X145909719Y-94061866D01*
X145928132Y-94050830D01*
X145947538Y-94041651D01*
X145967750Y-94034419D01*
X145988574Y-94029203D01*
X146009809Y-94026053D01*
X146031250Y-94025000D01*
X146468750Y-94025000D01*
X146490191Y-94026053D01*
G37*
M02*
