G04 #@! TF.GenerationSoftware,KiCad,Pcbnew,(5.1.5)-3*
G04 #@! TF.CreationDate,2020-01-07T01:01:47+09:00*
G04 #@! TF.ProjectId,irController,6972436f-6e74-4726-9f6c-6c65722e6b69,rev?*
G04 #@! TF.SameCoordinates,Original*
G04 #@! TF.FileFunction,Soldermask,Top*
G04 #@! TF.FilePolarity,Negative*
%FSLAX46Y46*%
G04 Gerber Fmt 4.6, Leading zero omitted, Abs format (unit mm)*
G04 Created by KiCad (PCBNEW (5.1.5)-3) date 2020-01-07 01:01:47*
%MOMM*%
%LPD*%
G04 APERTURE LIST*
%ADD10C,0.100000*%
%ADD11R,1.050000X1.450000*%
%ADD12C,2.300000*%
%ADD13R,2.300000X2.400000*%
%ADD14R,1.400000X2.000000*%
%ADD15R,1.150000X1.200000*%
%ADD16R,1.300000X1.200000*%
%ADD17R,2.400000X2.900000*%
%ADD18R,6.400000X6.400000*%
%ADD19C,2.600000*%
%ADD20R,2.432000X2.432000*%
%ADD21O,2.432000X2.432000*%
%ADD22R,2.432000X2.127200*%
%ADD23O,2.432000X2.127200*%
%ADD24R,1.600000X1.600000*%
%ADD25C,1.600000*%
%ADD26O,2.400000X1.300000*%
%ADD27R,2.400000X1.300000*%
%ADD28R,4.700000X4.700000*%
%ADD29R,0.850000X1.700000*%
%ADD30O,1.850000X2.400000*%
%ADD31O,1.550000X2.200000*%
%ADD32O,1.200000X1.200000*%
G04 APERTURE END LIST*
D10*
G36*
X165995493Y-93090035D02*
G01*
X166026435Y-93094625D01*
X166056778Y-93102225D01*
X166086230Y-93112763D01*
X166114508Y-93126138D01*
X166141338Y-93142219D01*
X166166463Y-93160853D01*
X166189640Y-93181860D01*
X166210647Y-93205037D01*
X166229281Y-93230162D01*
X166245362Y-93256992D01*
X166258737Y-93285270D01*
X166269275Y-93314722D01*
X166276875Y-93345065D01*
X166281465Y-93376007D01*
X166283000Y-93407250D01*
X166283000Y-94044750D01*
X166281465Y-94075993D01*
X166276875Y-94106935D01*
X166269275Y-94137278D01*
X166258737Y-94166730D01*
X166245362Y-94195008D01*
X166229281Y-94221838D01*
X166210647Y-94246963D01*
X166189640Y-94270140D01*
X166166463Y-94291147D01*
X166141338Y-94309781D01*
X166114508Y-94325862D01*
X166086230Y-94339237D01*
X166056778Y-94349775D01*
X166026435Y-94357375D01*
X165995493Y-94361965D01*
X165964250Y-94363500D01*
X165251750Y-94363500D01*
X165220507Y-94361965D01*
X165189565Y-94357375D01*
X165159222Y-94349775D01*
X165129770Y-94339237D01*
X165101492Y-94325862D01*
X165074662Y-94309781D01*
X165049537Y-94291147D01*
X165026360Y-94270140D01*
X165005353Y-94246963D01*
X164986719Y-94221838D01*
X164970638Y-94195008D01*
X164957263Y-94166730D01*
X164946725Y-94137278D01*
X164939125Y-94106935D01*
X164934535Y-94075993D01*
X164933000Y-94044750D01*
X164933000Y-93407250D01*
X164934535Y-93376007D01*
X164939125Y-93345065D01*
X164946725Y-93314722D01*
X164957263Y-93285270D01*
X164970638Y-93256992D01*
X164986719Y-93230162D01*
X165005353Y-93205037D01*
X165026360Y-93181860D01*
X165049537Y-93160853D01*
X165074662Y-93142219D01*
X165101492Y-93126138D01*
X165129770Y-93112763D01*
X165159222Y-93102225D01*
X165189565Y-93094625D01*
X165220507Y-93090035D01*
X165251750Y-93088500D01*
X165964250Y-93088500D01*
X165995493Y-93090035D01*
G37*
G36*
X165995493Y-94665035D02*
G01*
X166026435Y-94669625D01*
X166056778Y-94677225D01*
X166086230Y-94687763D01*
X166114508Y-94701138D01*
X166141338Y-94717219D01*
X166166463Y-94735853D01*
X166189640Y-94756860D01*
X166210647Y-94780037D01*
X166229281Y-94805162D01*
X166245362Y-94831992D01*
X166258737Y-94860270D01*
X166269275Y-94889722D01*
X166276875Y-94920065D01*
X166281465Y-94951007D01*
X166283000Y-94982250D01*
X166283000Y-95619750D01*
X166281465Y-95650993D01*
X166276875Y-95681935D01*
X166269275Y-95712278D01*
X166258737Y-95741730D01*
X166245362Y-95770008D01*
X166229281Y-95796838D01*
X166210647Y-95821963D01*
X166189640Y-95845140D01*
X166166463Y-95866147D01*
X166141338Y-95884781D01*
X166114508Y-95900862D01*
X166086230Y-95914237D01*
X166056778Y-95924775D01*
X166026435Y-95932375D01*
X165995493Y-95936965D01*
X165964250Y-95938500D01*
X165251750Y-95938500D01*
X165220507Y-95936965D01*
X165189565Y-95932375D01*
X165159222Y-95924775D01*
X165129770Y-95914237D01*
X165101492Y-95900862D01*
X165074662Y-95884781D01*
X165049537Y-95866147D01*
X165026360Y-95845140D01*
X165005353Y-95821963D01*
X164986719Y-95796838D01*
X164970638Y-95770008D01*
X164957263Y-95741730D01*
X164946725Y-95712278D01*
X164939125Y-95681935D01*
X164934535Y-95650993D01*
X164933000Y-95619750D01*
X164933000Y-94982250D01*
X164934535Y-94951007D01*
X164939125Y-94920065D01*
X164946725Y-94889722D01*
X164957263Y-94860270D01*
X164970638Y-94831992D01*
X164986719Y-94805162D01*
X165005353Y-94780037D01*
X165026360Y-94756860D01*
X165049537Y-94735853D01*
X165074662Y-94717219D01*
X165101492Y-94701138D01*
X165129770Y-94687763D01*
X165159222Y-94677225D01*
X165189565Y-94669625D01*
X165220507Y-94665035D01*
X165251750Y-94663500D01*
X165964250Y-94663500D01*
X165995493Y-94665035D01*
G37*
G36*
X178562493Y-78066535D02*
G01*
X178593435Y-78071125D01*
X178623778Y-78078725D01*
X178653230Y-78089263D01*
X178681508Y-78102638D01*
X178708338Y-78118719D01*
X178733463Y-78137353D01*
X178756640Y-78158360D01*
X178777647Y-78181537D01*
X178796281Y-78206662D01*
X178812362Y-78233492D01*
X178825737Y-78261770D01*
X178836275Y-78291222D01*
X178843875Y-78321565D01*
X178848465Y-78352507D01*
X178850000Y-78383750D01*
X178850000Y-79096250D01*
X178848465Y-79127493D01*
X178843875Y-79158435D01*
X178836275Y-79188778D01*
X178825737Y-79218230D01*
X178812362Y-79246508D01*
X178796281Y-79273338D01*
X178777647Y-79298463D01*
X178756640Y-79321640D01*
X178733463Y-79342647D01*
X178708338Y-79361281D01*
X178681508Y-79377362D01*
X178653230Y-79390737D01*
X178623778Y-79401275D01*
X178593435Y-79408875D01*
X178562493Y-79413465D01*
X178531250Y-79415000D01*
X177893750Y-79415000D01*
X177862507Y-79413465D01*
X177831565Y-79408875D01*
X177801222Y-79401275D01*
X177771770Y-79390737D01*
X177743492Y-79377362D01*
X177716662Y-79361281D01*
X177691537Y-79342647D01*
X177668360Y-79321640D01*
X177647353Y-79298463D01*
X177628719Y-79273338D01*
X177612638Y-79246508D01*
X177599263Y-79218230D01*
X177588725Y-79188778D01*
X177581125Y-79158435D01*
X177576535Y-79127493D01*
X177575000Y-79096250D01*
X177575000Y-78383750D01*
X177576535Y-78352507D01*
X177581125Y-78321565D01*
X177588725Y-78291222D01*
X177599263Y-78261770D01*
X177612638Y-78233492D01*
X177628719Y-78206662D01*
X177647353Y-78181537D01*
X177668360Y-78158360D01*
X177691537Y-78137353D01*
X177716662Y-78118719D01*
X177743492Y-78102638D01*
X177771770Y-78089263D01*
X177801222Y-78078725D01*
X177831565Y-78071125D01*
X177862507Y-78066535D01*
X177893750Y-78065000D01*
X178531250Y-78065000D01*
X178562493Y-78066535D01*
G37*
G36*
X180137493Y-78066535D02*
G01*
X180168435Y-78071125D01*
X180198778Y-78078725D01*
X180228230Y-78089263D01*
X180256508Y-78102638D01*
X180283338Y-78118719D01*
X180308463Y-78137353D01*
X180331640Y-78158360D01*
X180352647Y-78181537D01*
X180371281Y-78206662D01*
X180387362Y-78233492D01*
X180400737Y-78261770D01*
X180411275Y-78291222D01*
X180418875Y-78321565D01*
X180423465Y-78352507D01*
X180425000Y-78383750D01*
X180425000Y-79096250D01*
X180423465Y-79127493D01*
X180418875Y-79158435D01*
X180411275Y-79188778D01*
X180400737Y-79218230D01*
X180387362Y-79246508D01*
X180371281Y-79273338D01*
X180352647Y-79298463D01*
X180331640Y-79321640D01*
X180308463Y-79342647D01*
X180283338Y-79361281D01*
X180256508Y-79377362D01*
X180228230Y-79390737D01*
X180198778Y-79401275D01*
X180168435Y-79408875D01*
X180137493Y-79413465D01*
X180106250Y-79415000D01*
X179468750Y-79415000D01*
X179437507Y-79413465D01*
X179406565Y-79408875D01*
X179376222Y-79401275D01*
X179346770Y-79390737D01*
X179318492Y-79377362D01*
X179291662Y-79361281D01*
X179266537Y-79342647D01*
X179243360Y-79321640D01*
X179222353Y-79298463D01*
X179203719Y-79273338D01*
X179187638Y-79246508D01*
X179174263Y-79218230D01*
X179163725Y-79188778D01*
X179156125Y-79158435D01*
X179151535Y-79127493D01*
X179150000Y-79096250D01*
X179150000Y-78383750D01*
X179151535Y-78352507D01*
X179156125Y-78321565D01*
X179163725Y-78291222D01*
X179174263Y-78261770D01*
X179187638Y-78233492D01*
X179203719Y-78206662D01*
X179222353Y-78181537D01*
X179243360Y-78158360D01*
X179266537Y-78137353D01*
X179291662Y-78118719D01*
X179318492Y-78102638D01*
X179346770Y-78089263D01*
X179376222Y-78078725D01*
X179406565Y-78071125D01*
X179437507Y-78066535D01*
X179468750Y-78065000D01*
X180106250Y-78065000D01*
X180137493Y-78066535D01*
G37*
D11*
X150425000Y-101075000D03*
X152575000Y-101075000D03*
X150425000Y-96925000D03*
X152575000Y-96925000D03*
D12*
X172460000Y-93472000D03*
D13*
X175000000Y-93472000D03*
D11*
X155425000Y-101075000D03*
X157575000Y-101075000D03*
X155425000Y-96925000D03*
X157575000Y-96925000D03*
D12*
X172460000Y-78681580D03*
D13*
X175000000Y-78681580D03*
D14*
X134644000Y-95504000D03*
X137644000Y-95504000D03*
X142750000Y-91500000D03*
X145750000Y-91500000D03*
D15*
X141500000Y-77000000D03*
X141500000Y-78500000D03*
X162179000Y-93881000D03*
X162179000Y-95381000D03*
D12*
X172460000Y-86000000D03*
D13*
X175000000Y-86000000D03*
D16*
X172000000Y-71050000D03*
X172000000Y-72950000D03*
X174000000Y-72000000D03*
D17*
X134700000Y-92500000D03*
X139300000Y-92500000D03*
D18*
X137000000Y-86250000D03*
D19*
X178500000Y-100500000D03*
X178500000Y-71500000D03*
X134500000Y-71500000D03*
X134500000Y-100500000D03*
D20*
X142250000Y-84000000D03*
D21*
X142250000Y-81460000D03*
D22*
X134500000Y-81000000D03*
D23*
X134500000Y-78460000D03*
X134500000Y-75920000D03*
D24*
X169545000Y-100330000D03*
D25*
X167545000Y-100330000D03*
X165545000Y-100330000D03*
X163545000Y-100330000D03*
D10*
G36*
X144637493Y-93826535D02*
G01*
X144668435Y-93831125D01*
X144698778Y-93838725D01*
X144728230Y-93849263D01*
X144756508Y-93862638D01*
X144783338Y-93878719D01*
X144808463Y-93897353D01*
X144831640Y-93918360D01*
X144852647Y-93941537D01*
X144871281Y-93966662D01*
X144887362Y-93993492D01*
X144900737Y-94021770D01*
X144911275Y-94051222D01*
X144918875Y-94081565D01*
X144923465Y-94112507D01*
X144925000Y-94143750D01*
X144925000Y-94856250D01*
X144923465Y-94887493D01*
X144918875Y-94918435D01*
X144911275Y-94948778D01*
X144900737Y-94978230D01*
X144887362Y-95006508D01*
X144871281Y-95033338D01*
X144852647Y-95058463D01*
X144831640Y-95081640D01*
X144808463Y-95102647D01*
X144783338Y-95121281D01*
X144756508Y-95137362D01*
X144728230Y-95150737D01*
X144698778Y-95161275D01*
X144668435Y-95168875D01*
X144637493Y-95173465D01*
X144606250Y-95175000D01*
X143968750Y-95175000D01*
X143937507Y-95173465D01*
X143906565Y-95168875D01*
X143876222Y-95161275D01*
X143846770Y-95150737D01*
X143818492Y-95137362D01*
X143791662Y-95121281D01*
X143766537Y-95102647D01*
X143743360Y-95081640D01*
X143722353Y-95058463D01*
X143703719Y-95033338D01*
X143687638Y-95006508D01*
X143674263Y-94978230D01*
X143663725Y-94948778D01*
X143656125Y-94918435D01*
X143651535Y-94887493D01*
X143650000Y-94856250D01*
X143650000Y-94143750D01*
X143651535Y-94112507D01*
X143656125Y-94081565D01*
X143663725Y-94051222D01*
X143674263Y-94021770D01*
X143687638Y-93993492D01*
X143703719Y-93966662D01*
X143722353Y-93941537D01*
X143743360Y-93918360D01*
X143766537Y-93897353D01*
X143791662Y-93878719D01*
X143818492Y-93862638D01*
X143846770Y-93849263D01*
X143876222Y-93838725D01*
X143906565Y-93831125D01*
X143937507Y-93826535D01*
X143968750Y-93825000D01*
X144606250Y-93825000D01*
X144637493Y-93826535D01*
G37*
G36*
X143062493Y-93826535D02*
G01*
X143093435Y-93831125D01*
X143123778Y-93838725D01*
X143153230Y-93849263D01*
X143181508Y-93862638D01*
X143208338Y-93878719D01*
X143233463Y-93897353D01*
X143256640Y-93918360D01*
X143277647Y-93941537D01*
X143296281Y-93966662D01*
X143312362Y-93993492D01*
X143325737Y-94021770D01*
X143336275Y-94051222D01*
X143343875Y-94081565D01*
X143348465Y-94112507D01*
X143350000Y-94143750D01*
X143350000Y-94856250D01*
X143348465Y-94887493D01*
X143343875Y-94918435D01*
X143336275Y-94948778D01*
X143325737Y-94978230D01*
X143312362Y-95006508D01*
X143296281Y-95033338D01*
X143277647Y-95058463D01*
X143256640Y-95081640D01*
X143233463Y-95102647D01*
X143208338Y-95121281D01*
X143181508Y-95137362D01*
X143153230Y-95150737D01*
X143123778Y-95161275D01*
X143093435Y-95168875D01*
X143062493Y-95173465D01*
X143031250Y-95175000D01*
X142393750Y-95175000D01*
X142362507Y-95173465D01*
X142331565Y-95168875D01*
X142301222Y-95161275D01*
X142271770Y-95150737D01*
X142243492Y-95137362D01*
X142216662Y-95121281D01*
X142191537Y-95102647D01*
X142168360Y-95081640D01*
X142147353Y-95058463D01*
X142128719Y-95033338D01*
X142112638Y-95006508D01*
X142099263Y-94978230D01*
X142088725Y-94948778D01*
X142081125Y-94918435D01*
X142076535Y-94887493D01*
X142075000Y-94856250D01*
X142075000Y-94143750D01*
X142076535Y-94112507D01*
X142081125Y-94081565D01*
X142088725Y-94051222D01*
X142099263Y-94021770D01*
X142112638Y-93993492D01*
X142128719Y-93966662D01*
X142147353Y-93941537D01*
X142168360Y-93918360D01*
X142191537Y-93897353D01*
X142216662Y-93878719D01*
X142243492Y-93862638D01*
X142271770Y-93849263D01*
X142301222Y-93838725D01*
X142331565Y-93831125D01*
X142362507Y-93826535D01*
X142393750Y-93825000D01*
X143031250Y-93825000D01*
X143062493Y-93826535D01*
G37*
G36*
X151387493Y-92151535D02*
G01*
X151418435Y-92156125D01*
X151448778Y-92163725D01*
X151478230Y-92174263D01*
X151506508Y-92187638D01*
X151533338Y-92203719D01*
X151558463Y-92222353D01*
X151581640Y-92243360D01*
X151602647Y-92266537D01*
X151621281Y-92291662D01*
X151637362Y-92318492D01*
X151650737Y-92346770D01*
X151661275Y-92376222D01*
X151668875Y-92406565D01*
X151673465Y-92437507D01*
X151675000Y-92468750D01*
X151675000Y-93106250D01*
X151673465Y-93137493D01*
X151668875Y-93168435D01*
X151661275Y-93198778D01*
X151650737Y-93228230D01*
X151637362Y-93256508D01*
X151621281Y-93283338D01*
X151602647Y-93308463D01*
X151581640Y-93331640D01*
X151558463Y-93352647D01*
X151533338Y-93371281D01*
X151506508Y-93387362D01*
X151478230Y-93400737D01*
X151448778Y-93411275D01*
X151418435Y-93418875D01*
X151387493Y-93423465D01*
X151356250Y-93425000D01*
X150643750Y-93425000D01*
X150612507Y-93423465D01*
X150581565Y-93418875D01*
X150551222Y-93411275D01*
X150521770Y-93400737D01*
X150493492Y-93387362D01*
X150466662Y-93371281D01*
X150441537Y-93352647D01*
X150418360Y-93331640D01*
X150397353Y-93308463D01*
X150378719Y-93283338D01*
X150362638Y-93256508D01*
X150349263Y-93228230D01*
X150338725Y-93198778D01*
X150331125Y-93168435D01*
X150326535Y-93137493D01*
X150325000Y-93106250D01*
X150325000Y-92468750D01*
X150326535Y-92437507D01*
X150331125Y-92406565D01*
X150338725Y-92376222D01*
X150349263Y-92346770D01*
X150362638Y-92318492D01*
X150378719Y-92291662D01*
X150397353Y-92266537D01*
X150418360Y-92243360D01*
X150441537Y-92222353D01*
X150466662Y-92203719D01*
X150493492Y-92187638D01*
X150521770Y-92174263D01*
X150551222Y-92163725D01*
X150581565Y-92156125D01*
X150612507Y-92151535D01*
X150643750Y-92150000D01*
X151356250Y-92150000D01*
X151387493Y-92151535D01*
G37*
G36*
X151387493Y-90576535D02*
G01*
X151418435Y-90581125D01*
X151448778Y-90588725D01*
X151478230Y-90599263D01*
X151506508Y-90612638D01*
X151533338Y-90628719D01*
X151558463Y-90647353D01*
X151581640Y-90668360D01*
X151602647Y-90691537D01*
X151621281Y-90716662D01*
X151637362Y-90743492D01*
X151650737Y-90771770D01*
X151661275Y-90801222D01*
X151668875Y-90831565D01*
X151673465Y-90862507D01*
X151675000Y-90893750D01*
X151675000Y-91531250D01*
X151673465Y-91562493D01*
X151668875Y-91593435D01*
X151661275Y-91623778D01*
X151650737Y-91653230D01*
X151637362Y-91681508D01*
X151621281Y-91708338D01*
X151602647Y-91733463D01*
X151581640Y-91756640D01*
X151558463Y-91777647D01*
X151533338Y-91796281D01*
X151506508Y-91812362D01*
X151478230Y-91825737D01*
X151448778Y-91836275D01*
X151418435Y-91843875D01*
X151387493Y-91848465D01*
X151356250Y-91850000D01*
X150643750Y-91850000D01*
X150612507Y-91848465D01*
X150581565Y-91843875D01*
X150551222Y-91836275D01*
X150521770Y-91825737D01*
X150493492Y-91812362D01*
X150466662Y-91796281D01*
X150441537Y-91777647D01*
X150418360Y-91756640D01*
X150397353Y-91733463D01*
X150378719Y-91708338D01*
X150362638Y-91681508D01*
X150349263Y-91653230D01*
X150338725Y-91623778D01*
X150331125Y-91593435D01*
X150326535Y-91562493D01*
X150325000Y-91531250D01*
X150325000Y-90893750D01*
X150326535Y-90862507D01*
X150331125Y-90831565D01*
X150338725Y-90801222D01*
X150349263Y-90771770D01*
X150362638Y-90743492D01*
X150378719Y-90716662D01*
X150397353Y-90691537D01*
X150418360Y-90668360D01*
X150441537Y-90647353D01*
X150466662Y-90628719D01*
X150493492Y-90612638D01*
X150521770Y-90599263D01*
X150551222Y-90588725D01*
X150581565Y-90581125D01*
X150612507Y-90576535D01*
X150643750Y-90575000D01*
X151356250Y-90575000D01*
X151387493Y-90576535D01*
G37*
G36*
X154387493Y-92151535D02*
G01*
X154418435Y-92156125D01*
X154448778Y-92163725D01*
X154478230Y-92174263D01*
X154506508Y-92187638D01*
X154533338Y-92203719D01*
X154558463Y-92222353D01*
X154581640Y-92243360D01*
X154602647Y-92266537D01*
X154621281Y-92291662D01*
X154637362Y-92318492D01*
X154650737Y-92346770D01*
X154661275Y-92376222D01*
X154668875Y-92406565D01*
X154673465Y-92437507D01*
X154675000Y-92468750D01*
X154675000Y-93106250D01*
X154673465Y-93137493D01*
X154668875Y-93168435D01*
X154661275Y-93198778D01*
X154650737Y-93228230D01*
X154637362Y-93256508D01*
X154621281Y-93283338D01*
X154602647Y-93308463D01*
X154581640Y-93331640D01*
X154558463Y-93352647D01*
X154533338Y-93371281D01*
X154506508Y-93387362D01*
X154478230Y-93400737D01*
X154448778Y-93411275D01*
X154418435Y-93418875D01*
X154387493Y-93423465D01*
X154356250Y-93425000D01*
X153643750Y-93425000D01*
X153612507Y-93423465D01*
X153581565Y-93418875D01*
X153551222Y-93411275D01*
X153521770Y-93400737D01*
X153493492Y-93387362D01*
X153466662Y-93371281D01*
X153441537Y-93352647D01*
X153418360Y-93331640D01*
X153397353Y-93308463D01*
X153378719Y-93283338D01*
X153362638Y-93256508D01*
X153349263Y-93228230D01*
X153338725Y-93198778D01*
X153331125Y-93168435D01*
X153326535Y-93137493D01*
X153325000Y-93106250D01*
X153325000Y-92468750D01*
X153326535Y-92437507D01*
X153331125Y-92406565D01*
X153338725Y-92376222D01*
X153349263Y-92346770D01*
X153362638Y-92318492D01*
X153378719Y-92291662D01*
X153397353Y-92266537D01*
X153418360Y-92243360D01*
X153441537Y-92222353D01*
X153466662Y-92203719D01*
X153493492Y-92187638D01*
X153521770Y-92174263D01*
X153551222Y-92163725D01*
X153581565Y-92156125D01*
X153612507Y-92151535D01*
X153643750Y-92150000D01*
X154356250Y-92150000D01*
X154387493Y-92151535D01*
G37*
G36*
X154387493Y-90576535D02*
G01*
X154418435Y-90581125D01*
X154448778Y-90588725D01*
X154478230Y-90599263D01*
X154506508Y-90612638D01*
X154533338Y-90628719D01*
X154558463Y-90647353D01*
X154581640Y-90668360D01*
X154602647Y-90691537D01*
X154621281Y-90716662D01*
X154637362Y-90743492D01*
X154650737Y-90771770D01*
X154661275Y-90801222D01*
X154668875Y-90831565D01*
X154673465Y-90862507D01*
X154675000Y-90893750D01*
X154675000Y-91531250D01*
X154673465Y-91562493D01*
X154668875Y-91593435D01*
X154661275Y-91623778D01*
X154650737Y-91653230D01*
X154637362Y-91681508D01*
X154621281Y-91708338D01*
X154602647Y-91733463D01*
X154581640Y-91756640D01*
X154558463Y-91777647D01*
X154533338Y-91796281D01*
X154506508Y-91812362D01*
X154478230Y-91825737D01*
X154448778Y-91836275D01*
X154418435Y-91843875D01*
X154387493Y-91848465D01*
X154356250Y-91850000D01*
X153643750Y-91850000D01*
X153612507Y-91848465D01*
X153581565Y-91843875D01*
X153551222Y-91836275D01*
X153521770Y-91825737D01*
X153493492Y-91812362D01*
X153466662Y-91796281D01*
X153441537Y-91777647D01*
X153418360Y-91756640D01*
X153397353Y-91733463D01*
X153378719Y-91708338D01*
X153362638Y-91681508D01*
X153349263Y-91653230D01*
X153338725Y-91623778D01*
X153331125Y-91593435D01*
X153326535Y-91562493D01*
X153325000Y-91531250D01*
X153325000Y-90893750D01*
X153326535Y-90862507D01*
X153331125Y-90831565D01*
X153338725Y-90801222D01*
X153349263Y-90771770D01*
X153362638Y-90743492D01*
X153378719Y-90716662D01*
X153397353Y-90691537D01*
X153418360Y-90668360D01*
X153441537Y-90647353D01*
X153466662Y-90628719D01*
X153493492Y-90612638D01*
X153521770Y-90599263D01*
X153551222Y-90588725D01*
X153581565Y-90581125D01*
X153612507Y-90576535D01*
X153643750Y-90575000D01*
X154356250Y-90575000D01*
X154387493Y-90576535D01*
G37*
G36*
X157232493Y-92074035D02*
G01*
X157263435Y-92078625D01*
X157293778Y-92086225D01*
X157323230Y-92096763D01*
X157351508Y-92110138D01*
X157378338Y-92126219D01*
X157403463Y-92144853D01*
X157426640Y-92165860D01*
X157447647Y-92189037D01*
X157466281Y-92214162D01*
X157482362Y-92240992D01*
X157495737Y-92269270D01*
X157506275Y-92298722D01*
X157513875Y-92329065D01*
X157518465Y-92360007D01*
X157520000Y-92391250D01*
X157520000Y-93028750D01*
X157518465Y-93059993D01*
X157513875Y-93090935D01*
X157506275Y-93121278D01*
X157495737Y-93150730D01*
X157482362Y-93179008D01*
X157466281Y-93205838D01*
X157447647Y-93230963D01*
X157426640Y-93254140D01*
X157403463Y-93275147D01*
X157378338Y-93293781D01*
X157351508Y-93309862D01*
X157323230Y-93323237D01*
X157293778Y-93333775D01*
X157263435Y-93341375D01*
X157232493Y-93345965D01*
X157201250Y-93347500D01*
X156488750Y-93347500D01*
X156457507Y-93345965D01*
X156426565Y-93341375D01*
X156396222Y-93333775D01*
X156366770Y-93323237D01*
X156338492Y-93309862D01*
X156311662Y-93293781D01*
X156286537Y-93275147D01*
X156263360Y-93254140D01*
X156242353Y-93230963D01*
X156223719Y-93205838D01*
X156207638Y-93179008D01*
X156194263Y-93150730D01*
X156183725Y-93121278D01*
X156176125Y-93090935D01*
X156171535Y-93059993D01*
X156170000Y-93028750D01*
X156170000Y-92391250D01*
X156171535Y-92360007D01*
X156176125Y-92329065D01*
X156183725Y-92298722D01*
X156194263Y-92269270D01*
X156207638Y-92240992D01*
X156223719Y-92214162D01*
X156242353Y-92189037D01*
X156263360Y-92165860D01*
X156286537Y-92144853D01*
X156311662Y-92126219D01*
X156338492Y-92110138D01*
X156366770Y-92096763D01*
X156396222Y-92086225D01*
X156426565Y-92078625D01*
X156457507Y-92074035D01*
X156488750Y-92072500D01*
X157201250Y-92072500D01*
X157232493Y-92074035D01*
G37*
G36*
X157232493Y-90499035D02*
G01*
X157263435Y-90503625D01*
X157293778Y-90511225D01*
X157323230Y-90521763D01*
X157351508Y-90535138D01*
X157378338Y-90551219D01*
X157403463Y-90569853D01*
X157426640Y-90590860D01*
X157447647Y-90614037D01*
X157466281Y-90639162D01*
X157482362Y-90665992D01*
X157495737Y-90694270D01*
X157506275Y-90723722D01*
X157513875Y-90754065D01*
X157518465Y-90785007D01*
X157520000Y-90816250D01*
X157520000Y-91453750D01*
X157518465Y-91484993D01*
X157513875Y-91515935D01*
X157506275Y-91546278D01*
X157495737Y-91575730D01*
X157482362Y-91604008D01*
X157466281Y-91630838D01*
X157447647Y-91655963D01*
X157426640Y-91679140D01*
X157403463Y-91700147D01*
X157378338Y-91718781D01*
X157351508Y-91734862D01*
X157323230Y-91748237D01*
X157293778Y-91758775D01*
X157263435Y-91766375D01*
X157232493Y-91770965D01*
X157201250Y-91772500D01*
X156488750Y-91772500D01*
X156457507Y-91770965D01*
X156426565Y-91766375D01*
X156396222Y-91758775D01*
X156366770Y-91748237D01*
X156338492Y-91734862D01*
X156311662Y-91718781D01*
X156286537Y-91700147D01*
X156263360Y-91679140D01*
X156242353Y-91655963D01*
X156223719Y-91630838D01*
X156207638Y-91604008D01*
X156194263Y-91575730D01*
X156183725Y-91546278D01*
X156176125Y-91515935D01*
X156171535Y-91484993D01*
X156170000Y-91453750D01*
X156170000Y-90816250D01*
X156171535Y-90785007D01*
X156176125Y-90754065D01*
X156183725Y-90723722D01*
X156194263Y-90694270D01*
X156207638Y-90665992D01*
X156223719Y-90639162D01*
X156242353Y-90614037D01*
X156263360Y-90590860D01*
X156286537Y-90569853D01*
X156311662Y-90551219D01*
X156338492Y-90535138D01*
X156366770Y-90521763D01*
X156396222Y-90511225D01*
X156426565Y-90503625D01*
X156457507Y-90499035D01*
X156488750Y-90497500D01*
X157201250Y-90497500D01*
X157232493Y-90499035D01*
G37*
G36*
X153003993Y-94068535D02*
G01*
X153034935Y-94073125D01*
X153065278Y-94080725D01*
X153094730Y-94091263D01*
X153123008Y-94104638D01*
X153149838Y-94120719D01*
X153174963Y-94139353D01*
X153198140Y-94160360D01*
X153219147Y-94183537D01*
X153237781Y-94208662D01*
X153253862Y-94235492D01*
X153267237Y-94263770D01*
X153277775Y-94293222D01*
X153285375Y-94323565D01*
X153289965Y-94354507D01*
X153291500Y-94385750D01*
X153291500Y-95098250D01*
X153289965Y-95129493D01*
X153285375Y-95160435D01*
X153277775Y-95190778D01*
X153267237Y-95220230D01*
X153253862Y-95248508D01*
X153237781Y-95275338D01*
X153219147Y-95300463D01*
X153198140Y-95323640D01*
X153174963Y-95344647D01*
X153149838Y-95363281D01*
X153123008Y-95379362D01*
X153094730Y-95392737D01*
X153065278Y-95403275D01*
X153034935Y-95410875D01*
X153003993Y-95415465D01*
X152972750Y-95417000D01*
X152335250Y-95417000D01*
X152304007Y-95415465D01*
X152273065Y-95410875D01*
X152242722Y-95403275D01*
X152213270Y-95392737D01*
X152184992Y-95379362D01*
X152158162Y-95363281D01*
X152133037Y-95344647D01*
X152109860Y-95323640D01*
X152088853Y-95300463D01*
X152070219Y-95275338D01*
X152054138Y-95248508D01*
X152040763Y-95220230D01*
X152030225Y-95190778D01*
X152022625Y-95160435D01*
X152018035Y-95129493D01*
X152016500Y-95098250D01*
X152016500Y-94385750D01*
X152018035Y-94354507D01*
X152022625Y-94323565D01*
X152030225Y-94293222D01*
X152040763Y-94263770D01*
X152054138Y-94235492D01*
X152070219Y-94208662D01*
X152088853Y-94183537D01*
X152109860Y-94160360D01*
X152133037Y-94139353D01*
X152158162Y-94120719D01*
X152184992Y-94104638D01*
X152213270Y-94091263D01*
X152242722Y-94080725D01*
X152273065Y-94073125D01*
X152304007Y-94068535D01*
X152335250Y-94067000D01*
X152972750Y-94067000D01*
X153003993Y-94068535D01*
G37*
G36*
X151428993Y-94068535D02*
G01*
X151459935Y-94073125D01*
X151490278Y-94080725D01*
X151519730Y-94091263D01*
X151548008Y-94104638D01*
X151574838Y-94120719D01*
X151599963Y-94139353D01*
X151623140Y-94160360D01*
X151644147Y-94183537D01*
X151662781Y-94208662D01*
X151678862Y-94235492D01*
X151692237Y-94263770D01*
X151702775Y-94293222D01*
X151710375Y-94323565D01*
X151714965Y-94354507D01*
X151716500Y-94385750D01*
X151716500Y-95098250D01*
X151714965Y-95129493D01*
X151710375Y-95160435D01*
X151702775Y-95190778D01*
X151692237Y-95220230D01*
X151678862Y-95248508D01*
X151662781Y-95275338D01*
X151644147Y-95300463D01*
X151623140Y-95323640D01*
X151599963Y-95344647D01*
X151574838Y-95363281D01*
X151548008Y-95379362D01*
X151519730Y-95392737D01*
X151490278Y-95403275D01*
X151459935Y-95410875D01*
X151428993Y-95415465D01*
X151397750Y-95417000D01*
X150760250Y-95417000D01*
X150729007Y-95415465D01*
X150698065Y-95410875D01*
X150667722Y-95403275D01*
X150638270Y-95392737D01*
X150609992Y-95379362D01*
X150583162Y-95363281D01*
X150558037Y-95344647D01*
X150534860Y-95323640D01*
X150513853Y-95300463D01*
X150495219Y-95275338D01*
X150479138Y-95248508D01*
X150465763Y-95220230D01*
X150455225Y-95190778D01*
X150447625Y-95160435D01*
X150443035Y-95129493D01*
X150441500Y-95098250D01*
X150441500Y-94385750D01*
X150443035Y-94354507D01*
X150447625Y-94323565D01*
X150455225Y-94293222D01*
X150465763Y-94263770D01*
X150479138Y-94235492D01*
X150495219Y-94208662D01*
X150513853Y-94183537D01*
X150534860Y-94160360D01*
X150558037Y-94139353D01*
X150583162Y-94120719D01*
X150609992Y-94104638D01*
X150638270Y-94091263D01*
X150667722Y-94080725D01*
X150698065Y-94073125D01*
X150729007Y-94068535D01*
X150760250Y-94067000D01*
X151397750Y-94067000D01*
X151428993Y-94068535D01*
G37*
G36*
X168243993Y-77304535D02*
G01*
X168274935Y-77309125D01*
X168305278Y-77316725D01*
X168334730Y-77327263D01*
X168363008Y-77340638D01*
X168389838Y-77356719D01*
X168414963Y-77375353D01*
X168438140Y-77396360D01*
X168459147Y-77419537D01*
X168477781Y-77444662D01*
X168493862Y-77471492D01*
X168507237Y-77499770D01*
X168517775Y-77529222D01*
X168525375Y-77559565D01*
X168529965Y-77590507D01*
X168531500Y-77621750D01*
X168531500Y-78334250D01*
X168529965Y-78365493D01*
X168525375Y-78396435D01*
X168517775Y-78426778D01*
X168507237Y-78456230D01*
X168493862Y-78484508D01*
X168477781Y-78511338D01*
X168459147Y-78536463D01*
X168438140Y-78559640D01*
X168414963Y-78580647D01*
X168389838Y-78599281D01*
X168363008Y-78615362D01*
X168334730Y-78628737D01*
X168305278Y-78639275D01*
X168274935Y-78646875D01*
X168243993Y-78651465D01*
X168212750Y-78653000D01*
X167575250Y-78653000D01*
X167544007Y-78651465D01*
X167513065Y-78646875D01*
X167482722Y-78639275D01*
X167453270Y-78628737D01*
X167424992Y-78615362D01*
X167398162Y-78599281D01*
X167373037Y-78580647D01*
X167349860Y-78559640D01*
X167328853Y-78536463D01*
X167310219Y-78511338D01*
X167294138Y-78484508D01*
X167280763Y-78456230D01*
X167270225Y-78426778D01*
X167262625Y-78396435D01*
X167258035Y-78365493D01*
X167256500Y-78334250D01*
X167256500Y-77621750D01*
X167258035Y-77590507D01*
X167262625Y-77559565D01*
X167270225Y-77529222D01*
X167280763Y-77499770D01*
X167294138Y-77471492D01*
X167310219Y-77444662D01*
X167328853Y-77419537D01*
X167349860Y-77396360D01*
X167373037Y-77375353D01*
X167398162Y-77356719D01*
X167424992Y-77340638D01*
X167453270Y-77327263D01*
X167482722Y-77316725D01*
X167513065Y-77309125D01*
X167544007Y-77304535D01*
X167575250Y-77303000D01*
X168212750Y-77303000D01*
X168243993Y-77304535D01*
G37*
G36*
X166668993Y-77304535D02*
G01*
X166699935Y-77309125D01*
X166730278Y-77316725D01*
X166759730Y-77327263D01*
X166788008Y-77340638D01*
X166814838Y-77356719D01*
X166839963Y-77375353D01*
X166863140Y-77396360D01*
X166884147Y-77419537D01*
X166902781Y-77444662D01*
X166918862Y-77471492D01*
X166932237Y-77499770D01*
X166942775Y-77529222D01*
X166950375Y-77559565D01*
X166954965Y-77590507D01*
X166956500Y-77621750D01*
X166956500Y-78334250D01*
X166954965Y-78365493D01*
X166950375Y-78396435D01*
X166942775Y-78426778D01*
X166932237Y-78456230D01*
X166918862Y-78484508D01*
X166902781Y-78511338D01*
X166884147Y-78536463D01*
X166863140Y-78559640D01*
X166839963Y-78580647D01*
X166814838Y-78599281D01*
X166788008Y-78615362D01*
X166759730Y-78628737D01*
X166730278Y-78639275D01*
X166699935Y-78646875D01*
X166668993Y-78651465D01*
X166637750Y-78653000D01*
X166000250Y-78653000D01*
X165969007Y-78651465D01*
X165938065Y-78646875D01*
X165907722Y-78639275D01*
X165878270Y-78628737D01*
X165849992Y-78615362D01*
X165823162Y-78599281D01*
X165798037Y-78580647D01*
X165774860Y-78559640D01*
X165753853Y-78536463D01*
X165735219Y-78511338D01*
X165719138Y-78484508D01*
X165705763Y-78456230D01*
X165695225Y-78426778D01*
X165687625Y-78396435D01*
X165683035Y-78365493D01*
X165681500Y-78334250D01*
X165681500Y-77621750D01*
X165683035Y-77590507D01*
X165687625Y-77559565D01*
X165695225Y-77529222D01*
X165705763Y-77499770D01*
X165719138Y-77471492D01*
X165735219Y-77444662D01*
X165753853Y-77419537D01*
X165774860Y-77396360D01*
X165798037Y-77375353D01*
X165823162Y-77356719D01*
X165849992Y-77340638D01*
X165878270Y-77327263D01*
X165907722Y-77316725D01*
X165938065Y-77309125D01*
X165969007Y-77304535D01*
X166000250Y-77303000D01*
X166637750Y-77303000D01*
X166668993Y-77304535D01*
G37*
G36*
X167011493Y-81888535D02*
G01*
X167042435Y-81893125D01*
X167072778Y-81900725D01*
X167102230Y-81911263D01*
X167130508Y-81924638D01*
X167157338Y-81940719D01*
X167182463Y-81959353D01*
X167205640Y-81980360D01*
X167226647Y-82003537D01*
X167245281Y-82028662D01*
X167261362Y-82055492D01*
X167274737Y-82083770D01*
X167285275Y-82113222D01*
X167292875Y-82143565D01*
X167297465Y-82174507D01*
X167299000Y-82205750D01*
X167299000Y-82843250D01*
X167297465Y-82874493D01*
X167292875Y-82905435D01*
X167285275Y-82935778D01*
X167274737Y-82965230D01*
X167261362Y-82993508D01*
X167245281Y-83020338D01*
X167226647Y-83045463D01*
X167205640Y-83068640D01*
X167182463Y-83089647D01*
X167157338Y-83108281D01*
X167130508Y-83124362D01*
X167102230Y-83137737D01*
X167072778Y-83148275D01*
X167042435Y-83155875D01*
X167011493Y-83160465D01*
X166980250Y-83162000D01*
X166267750Y-83162000D01*
X166236507Y-83160465D01*
X166205565Y-83155875D01*
X166175222Y-83148275D01*
X166145770Y-83137737D01*
X166117492Y-83124362D01*
X166090662Y-83108281D01*
X166065537Y-83089647D01*
X166042360Y-83068640D01*
X166021353Y-83045463D01*
X166002719Y-83020338D01*
X165986638Y-82993508D01*
X165973263Y-82965230D01*
X165962725Y-82935778D01*
X165955125Y-82905435D01*
X165950535Y-82874493D01*
X165949000Y-82843250D01*
X165949000Y-82205750D01*
X165950535Y-82174507D01*
X165955125Y-82143565D01*
X165962725Y-82113222D01*
X165973263Y-82083770D01*
X165986638Y-82055492D01*
X166002719Y-82028662D01*
X166021353Y-82003537D01*
X166042360Y-81980360D01*
X166065537Y-81959353D01*
X166090662Y-81940719D01*
X166117492Y-81924638D01*
X166145770Y-81911263D01*
X166175222Y-81900725D01*
X166205565Y-81893125D01*
X166236507Y-81888535D01*
X166267750Y-81887000D01*
X166980250Y-81887000D01*
X167011493Y-81888535D01*
G37*
G36*
X167011493Y-83463535D02*
G01*
X167042435Y-83468125D01*
X167072778Y-83475725D01*
X167102230Y-83486263D01*
X167130508Y-83499638D01*
X167157338Y-83515719D01*
X167182463Y-83534353D01*
X167205640Y-83555360D01*
X167226647Y-83578537D01*
X167245281Y-83603662D01*
X167261362Y-83630492D01*
X167274737Y-83658770D01*
X167285275Y-83688222D01*
X167292875Y-83718565D01*
X167297465Y-83749507D01*
X167299000Y-83780750D01*
X167299000Y-84418250D01*
X167297465Y-84449493D01*
X167292875Y-84480435D01*
X167285275Y-84510778D01*
X167274737Y-84540230D01*
X167261362Y-84568508D01*
X167245281Y-84595338D01*
X167226647Y-84620463D01*
X167205640Y-84643640D01*
X167182463Y-84664647D01*
X167157338Y-84683281D01*
X167130508Y-84699362D01*
X167102230Y-84712737D01*
X167072778Y-84723275D01*
X167042435Y-84730875D01*
X167011493Y-84735465D01*
X166980250Y-84737000D01*
X166267750Y-84737000D01*
X166236507Y-84735465D01*
X166205565Y-84730875D01*
X166175222Y-84723275D01*
X166145770Y-84712737D01*
X166117492Y-84699362D01*
X166090662Y-84683281D01*
X166065537Y-84664647D01*
X166042360Y-84643640D01*
X166021353Y-84620463D01*
X166002719Y-84595338D01*
X165986638Y-84568508D01*
X165973263Y-84540230D01*
X165962725Y-84510778D01*
X165955125Y-84480435D01*
X165950535Y-84449493D01*
X165949000Y-84418250D01*
X165949000Y-83780750D01*
X165950535Y-83749507D01*
X165955125Y-83718565D01*
X165962725Y-83688222D01*
X165973263Y-83658770D01*
X165986638Y-83630492D01*
X166002719Y-83603662D01*
X166021353Y-83578537D01*
X166042360Y-83555360D01*
X166065537Y-83534353D01*
X166090662Y-83515719D01*
X166117492Y-83499638D01*
X166145770Y-83486263D01*
X166175222Y-83475725D01*
X166205565Y-83468125D01*
X166236507Y-83463535D01*
X166267750Y-83462000D01*
X166980250Y-83462000D01*
X167011493Y-83463535D01*
G37*
G36*
X178562493Y-85326535D02*
G01*
X178593435Y-85331125D01*
X178623778Y-85338725D01*
X178653230Y-85349263D01*
X178681508Y-85362638D01*
X178708338Y-85378719D01*
X178733463Y-85397353D01*
X178756640Y-85418360D01*
X178777647Y-85441537D01*
X178796281Y-85466662D01*
X178812362Y-85493492D01*
X178825737Y-85521770D01*
X178836275Y-85551222D01*
X178843875Y-85581565D01*
X178848465Y-85612507D01*
X178850000Y-85643750D01*
X178850000Y-86356250D01*
X178848465Y-86387493D01*
X178843875Y-86418435D01*
X178836275Y-86448778D01*
X178825737Y-86478230D01*
X178812362Y-86506508D01*
X178796281Y-86533338D01*
X178777647Y-86558463D01*
X178756640Y-86581640D01*
X178733463Y-86602647D01*
X178708338Y-86621281D01*
X178681508Y-86637362D01*
X178653230Y-86650737D01*
X178623778Y-86661275D01*
X178593435Y-86668875D01*
X178562493Y-86673465D01*
X178531250Y-86675000D01*
X177893750Y-86675000D01*
X177862507Y-86673465D01*
X177831565Y-86668875D01*
X177801222Y-86661275D01*
X177771770Y-86650737D01*
X177743492Y-86637362D01*
X177716662Y-86621281D01*
X177691537Y-86602647D01*
X177668360Y-86581640D01*
X177647353Y-86558463D01*
X177628719Y-86533338D01*
X177612638Y-86506508D01*
X177599263Y-86478230D01*
X177588725Y-86448778D01*
X177581125Y-86418435D01*
X177576535Y-86387493D01*
X177575000Y-86356250D01*
X177575000Y-85643750D01*
X177576535Y-85612507D01*
X177581125Y-85581565D01*
X177588725Y-85551222D01*
X177599263Y-85521770D01*
X177612638Y-85493492D01*
X177628719Y-85466662D01*
X177647353Y-85441537D01*
X177668360Y-85418360D01*
X177691537Y-85397353D01*
X177716662Y-85378719D01*
X177743492Y-85362638D01*
X177771770Y-85349263D01*
X177801222Y-85338725D01*
X177831565Y-85331125D01*
X177862507Y-85326535D01*
X177893750Y-85325000D01*
X178531250Y-85325000D01*
X178562493Y-85326535D01*
G37*
G36*
X180137493Y-85326535D02*
G01*
X180168435Y-85331125D01*
X180198778Y-85338725D01*
X180228230Y-85349263D01*
X180256508Y-85362638D01*
X180283338Y-85378719D01*
X180308463Y-85397353D01*
X180331640Y-85418360D01*
X180352647Y-85441537D01*
X180371281Y-85466662D01*
X180387362Y-85493492D01*
X180400737Y-85521770D01*
X180411275Y-85551222D01*
X180418875Y-85581565D01*
X180423465Y-85612507D01*
X180425000Y-85643750D01*
X180425000Y-86356250D01*
X180423465Y-86387493D01*
X180418875Y-86418435D01*
X180411275Y-86448778D01*
X180400737Y-86478230D01*
X180387362Y-86506508D01*
X180371281Y-86533338D01*
X180352647Y-86558463D01*
X180331640Y-86581640D01*
X180308463Y-86602647D01*
X180283338Y-86621281D01*
X180256508Y-86637362D01*
X180228230Y-86650737D01*
X180198778Y-86661275D01*
X180168435Y-86668875D01*
X180137493Y-86673465D01*
X180106250Y-86675000D01*
X179468750Y-86675000D01*
X179437507Y-86673465D01*
X179406565Y-86668875D01*
X179376222Y-86661275D01*
X179346770Y-86650737D01*
X179318492Y-86637362D01*
X179291662Y-86621281D01*
X179266537Y-86602647D01*
X179243360Y-86581640D01*
X179222353Y-86558463D01*
X179203719Y-86533338D01*
X179187638Y-86506508D01*
X179174263Y-86478230D01*
X179163725Y-86448778D01*
X179156125Y-86418435D01*
X179151535Y-86387493D01*
X179150000Y-86356250D01*
X179150000Y-85643750D01*
X179151535Y-85612507D01*
X179156125Y-85581565D01*
X179163725Y-85551222D01*
X179174263Y-85521770D01*
X179187638Y-85493492D01*
X179203719Y-85466662D01*
X179222353Y-85441537D01*
X179243360Y-85418360D01*
X179266537Y-85397353D01*
X179291662Y-85378719D01*
X179318492Y-85362638D01*
X179346770Y-85349263D01*
X179376222Y-85338725D01*
X179406565Y-85331125D01*
X179437507Y-85326535D01*
X179468750Y-85325000D01*
X180106250Y-85325000D01*
X180137493Y-85326535D01*
G37*
G36*
X178562493Y-92798535D02*
G01*
X178593435Y-92803125D01*
X178623778Y-92810725D01*
X178653230Y-92821263D01*
X178681508Y-92834638D01*
X178708338Y-92850719D01*
X178733463Y-92869353D01*
X178756640Y-92890360D01*
X178777647Y-92913537D01*
X178796281Y-92938662D01*
X178812362Y-92965492D01*
X178825737Y-92993770D01*
X178836275Y-93023222D01*
X178843875Y-93053565D01*
X178848465Y-93084507D01*
X178850000Y-93115750D01*
X178850000Y-93828250D01*
X178848465Y-93859493D01*
X178843875Y-93890435D01*
X178836275Y-93920778D01*
X178825737Y-93950230D01*
X178812362Y-93978508D01*
X178796281Y-94005338D01*
X178777647Y-94030463D01*
X178756640Y-94053640D01*
X178733463Y-94074647D01*
X178708338Y-94093281D01*
X178681508Y-94109362D01*
X178653230Y-94122737D01*
X178623778Y-94133275D01*
X178593435Y-94140875D01*
X178562493Y-94145465D01*
X178531250Y-94147000D01*
X177893750Y-94147000D01*
X177862507Y-94145465D01*
X177831565Y-94140875D01*
X177801222Y-94133275D01*
X177771770Y-94122737D01*
X177743492Y-94109362D01*
X177716662Y-94093281D01*
X177691537Y-94074647D01*
X177668360Y-94053640D01*
X177647353Y-94030463D01*
X177628719Y-94005338D01*
X177612638Y-93978508D01*
X177599263Y-93950230D01*
X177588725Y-93920778D01*
X177581125Y-93890435D01*
X177576535Y-93859493D01*
X177575000Y-93828250D01*
X177575000Y-93115750D01*
X177576535Y-93084507D01*
X177581125Y-93053565D01*
X177588725Y-93023222D01*
X177599263Y-92993770D01*
X177612638Y-92965492D01*
X177628719Y-92938662D01*
X177647353Y-92913537D01*
X177668360Y-92890360D01*
X177691537Y-92869353D01*
X177716662Y-92850719D01*
X177743492Y-92834638D01*
X177771770Y-92821263D01*
X177801222Y-92810725D01*
X177831565Y-92803125D01*
X177862507Y-92798535D01*
X177893750Y-92797000D01*
X178531250Y-92797000D01*
X178562493Y-92798535D01*
G37*
G36*
X180137493Y-92798535D02*
G01*
X180168435Y-92803125D01*
X180198778Y-92810725D01*
X180228230Y-92821263D01*
X180256508Y-92834638D01*
X180283338Y-92850719D01*
X180308463Y-92869353D01*
X180331640Y-92890360D01*
X180352647Y-92913537D01*
X180371281Y-92938662D01*
X180387362Y-92965492D01*
X180400737Y-92993770D01*
X180411275Y-93023222D01*
X180418875Y-93053565D01*
X180423465Y-93084507D01*
X180425000Y-93115750D01*
X180425000Y-93828250D01*
X180423465Y-93859493D01*
X180418875Y-93890435D01*
X180411275Y-93920778D01*
X180400737Y-93950230D01*
X180387362Y-93978508D01*
X180371281Y-94005338D01*
X180352647Y-94030463D01*
X180331640Y-94053640D01*
X180308463Y-94074647D01*
X180283338Y-94093281D01*
X180256508Y-94109362D01*
X180228230Y-94122737D01*
X180198778Y-94133275D01*
X180168435Y-94140875D01*
X180137493Y-94145465D01*
X180106250Y-94147000D01*
X179468750Y-94147000D01*
X179437507Y-94145465D01*
X179406565Y-94140875D01*
X179376222Y-94133275D01*
X179346770Y-94122737D01*
X179318492Y-94109362D01*
X179291662Y-94093281D01*
X179266537Y-94074647D01*
X179243360Y-94053640D01*
X179222353Y-94030463D01*
X179203719Y-94005338D01*
X179187638Y-93978508D01*
X179174263Y-93950230D01*
X179163725Y-93920778D01*
X179156125Y-93890435D01*
X179151535Y-93859493D01*
X179150000Y-93828250D01*
X179150000Y-93115750D01*
X179151535Y-93084507D01*
X179156125Y-93053565D01*
X179163725Y-93023222D01*
X179174263Y-92993770D01*
X179187638Y-92965492D01*
X179203719Y-92938662D01*
X179222353Y-92913537D01*
X179243360Y-92890360D01*
X179266537Y-92869353D01*
X179291662Y-92850719D01*
X179318492Y-92834638D01*
X179346770Y-92821263D01*
X179376222Y-92810725D01*
X179406565Y-92803125D01*
X179437507Y-92798535D01*
X179468750Y-92797000D01*
X180106250Y-92797000D01*
X180137493Y-92798535D01*
G37*
G36*
X168027493Y-94614035D02*
G01*
X168058435Y-94618625D01*
X168088778Y-94626225D01*
X168118230Y-94636763D01*
X168146508Y-94650138D01*
X168173338Y-94666219D01*
X168198463Y-94684853D01*
X168221640Y-94705860D01*
X168242647Y-94729037D01*
X168261281Y-94754162D01*
X168277362Y-94780992D01*
X168290737Y-94809270D01*
X168301275Y-94838722D01*
X168308875Y-94869065D01*
X168313465Y-94900007D01*
X168315000Y-94931250D01*
X168315000Y-95568750D01*
X168313465Y-95599993D01*
X168308875Y-95630935D01*
X168301275Y-95661278D01*
X168290737Y-95690730D01*
X168277362Y-95719008D01*
X168261281Y-95745838D01*
X168242647Y-95770963D01*
X168221640Y-95794140D01*
X168198463Y-95815147D01*
X168173338Y-95833781D01*
X168146508Y-95849862D01*
X168118230Y-95863237D01*
X168088778Y-95873775D01*
X168058435Y-95881375D01*
X168027493Y-95885965D01*
X167996250Y-95887500D01*
X167283750Y-95887500D01*
X167252507Y-95885965D01*
X167221565Y-95881375D01*
X167191222Y-95873775D01*
X167161770Y-95863237D01*
X167133492Y-95849862D01*
X167106662Y-95833781D01*
X167081537Y-95815147D01*
X167058360Y-95794140D01*
X167037353Y-95770963D01*
X167018719Y-95745838D01*
X167002638Y-95719008D01*
X166989263Y-95690730D01*
X166978725Y-95661278D01*
X166971125Y-95630935D01*
X166966535Y-95599993D01*
X166965000Y-95568750D01*
X166965000Y-94931250D01*
X166966535Y-94900007D01*
X166971125Y-94869065D01*
X166978725Y-94838722D01*
X166989263Y-94809270D01*
X167002638Y-94780992D01*
X167018719Y-94754162D01*
X167037353Y-94729037D01*
X167058360Y-94705860D01*
X167081537Y-94684853D01*
X167106662Y-94666219D01*
X167133492Y-94650138D01*
X167161770Y-94636763D01*
X167191222Y-94626225D01*
X167221565Y-94618625D01*
X167252507Y-94614035D01*
X167283750Y-94612500D01*
X167996250Y-94612500D01*
X168027493Y-94614035D01*
G37*
G36*
X168027493Y-93039035D02*
G01*
X168058435Y-93043625D01*
X168088778Y-93051225D01*
X168118230Y-93061763D01*
X168146508Y-93075138D01*
X168173338Y-93091219D01*
X168198463Y-93109853D01*
X168221640Y-93130860D01*
X168242647Y-93154037D01*
X168261281Y-93179162D01*
X168277362Y-93205992D01*
X168290737Y-93234270D01*
X168301275Y-93263722D01*
X168308875Y-93294065D01*
X168313465Y-93325007D01*
X168315000Y-93356250D01*
X168315000Y-93993750D01*
X168313465Y-94024993D01*
X168308875Y-94055935D01*
X168301275Y-94086278D01*
X168290737Y-94115730D01*
X168277362Y-94144008D01*
X168261281Y-94170838D01*
X168242647Y-94195963D01*
X168221640Y-94219140D01*
X168198463Y-94240147D01*
X168173338Y-94258781D01*
X168146508Y-94274862D01*
X168118230Y-94288237D01*
X168088778Y-94298775D01*
X168058435Y-94306375D01*
X168027493Y-94310965D01*
X167996250Y-94312500D01*
X167283750Y-94312500D01*
X167252507Y-94310965D01*
X167221565Y-94306375D01*
X167191222Y-94298775D01*
X167161770Y-94288237D01*
X167133492Y-94274862D01*
X167106662Y-94258781D01*
X167081537Y-94240147D01*
X167058360Y-94219140D01*
X167037353Y-94195963D01*
X167018719Y-94170838D01*
X167002638Y-94144008D01*
X166989263Y-94115730D01*
X166978725Y-94086278D01*
X166971125Y-94055935D01*
X166966535Y-94024993D01*
X166965000Y-93993750D01*
X166965000Y-93356250D01*
X166966535Y-93325007D01*
X166971125Y-93294065D01*
X166978725Y-93263722D01*
X166989263Y-93234270D01*
X167002638Y-93205992D01*
X167018719Y-93179162D01*
X167037353Y-93154037D01*
X167058360Y-93130860D01*
X167081537Y-93109853D01*
X167106662Y-93091219D01*
X167133492Y-93075138D01*
X167161770Y-93061763D01*
X167191222Y-93051225D01*
X167221565Y-93043625D01*
X167252507Y-93039035D01*
X167283750Y-93037500D01*
X167996250Y-93037500D01*
X168027493Y-93039035D01*
G37*
D26*
X164080000Y-88520000D03*
X146080000Y-88520000D03*
D27*
X146080000Y-76520000D03*
D26*
X146080000Y-78020000D03*
X146080000Y-79520000D03*
X146080000Y-81020000D03*
X146080000Y-82520000D03*
X146080000Y-84020000D03*
X146080000Y-85520000D03*
X146080000Y-87020000D03*
X164080000Y-87020000D03*
X164080000Y-85520000D03*
X164080000Y-84020000D03*
X164080000Y-82520000D03*
X164080000Y-81020000D03*
X164080000Y-79520000D03*
X164080000Y-78020000D03*
X164080000Y-76520000D03*
D28*
X156200000Y-83100000D03*
D29*
X142200000Y-97350000D03*
X142850000Y-97350000D03*
X143500000Y-97350000D03*
X144150000Y-97350000D03*
X144800000Y-97350000D03*
D30*
X139775000Y-97400000D03*
X147225000Y-97400000D03*
D31*
X139625000Y-101200000D03*
X147375000Y-101200000D03*
D32*
X141000000Y-98450000D03*
X146000000Y-98450000D03*
D10*
G36*
X148174993Y-93826535D02*
G01*
X148205935Y-93831125D01*
X148236278Y-93838725D01*
X148265730Y-93849263D01*
X148294008Y-93862638D01*
X148320838Y-93878719D01*
X148345963Y-93897353D01*
X148369140Y-93918360D01*
X148390147Y-93941537D01*
X148408781Y-93966662D01*
X148424862Y-93993492D01*
X148438237Y-94021770D01*
X148448775Y-94051222D01*
X148456375Y-94081565D01*
X148460965Y-94112507D01*
X148462500Y-94143750D01*
X148462500Y-94856250D01*
X148460965Y-94887493D01*
X148456375Y-94918435D01*
X148448775Y-94948778D01*
X148438237Y-94978230D01*
X148424862Y-95006508D01*
X148408781Y-95033338D01*
X148390147Y-95058463D01*
X148369140Y-95081640D01*
X148345963Y-95102647D01*
X148320838Y-95121281D01*
X148294008Y-95137362D01*
X148265730Y-95150737D01*
X148236278Y-95161275D01*
X148205935Y-95168875D01*
X148174993Y-95173465D01*
X148143750Y-95175000D01*
X147506250Y-95175000D01*
X147475007Y-95173465D01*
X147444065Y-95168875D01*
X147413722Y-95161275D01*
X147384270Y-95150737D01*
X147355992Y-95137362D01*
X147329162Y-95121281D01*
X147304037Y-95102647D01*
X147280860Y-95081640D01*
X147259853Y-95058463D01*
X147241219Y-95033338D01*
X147225138Y-95006508D01*
X147211763Y-94978230D01*
X147201225Y-94948778D01*
X147193625Y-94918435D01*
X147189035Y-94887493D01*
X147187500Y-94856250D01*
X147187500Y-94143750D01*
X147189035Y-94112507D01*
X147193625Y-94081565D01*
X147201225Y-94051222D01*
X147211763Y-94021770D01*
X147225138Y-93993492D01*
X147241219Y-93966662D01*
X147259853Y-93941537D01*
X147280860Y-93918360D01*
X147304037Y-93897353D01*
X147329162Y-93878719D01*
X147355992Y-93862638D01*
X147384270Y-93849263D01*
X147413722Y-93838725D01*
X147444065Y-93831125D01*
X147475007Y-93826535D01*
X147506250Y-93825000D01*
X148143750Y-93825000D01*
X148174993Y-93826535D01*
G37*
G36*
X146599993Y-93826535D02*
G01*
X146630935Y-93831125D01*
X146661278Y-93838725D01*
X146690730Y-93849263D01*
X146719008Y-93862638D01*
X146745838Y-93878719D01*
X146770963Y-93897353D01*
X146794140Y-93918360D01*
X146815147Y-93941537D01*
X146833781Y-93966662D01*
X146849862Y-93993492D01*
X146863237Y-94021770D01*
X146873775Y-94051222D01*
X146881375Y-94081565D01*
X146885965Y-94112507D01*
X146887500Y-94143750D01*
X146887500Y-94856250D01*
X146885965Y-94887493D01*
X146881375Y-94918435D01*
X146873775Y-94948778D01*
X146863237Y-94978230D01*
X146849862Y-95006508D01*
X146833781Y-95033338D01*
X146815147Y-95058463D01*
X146794140Y-95081640D01*
X146770963Y-95102647D01*
X146745838Y-95121281D01*
X146719008Y-95137362D01*
X146690730Y-95150737D01*
X146661278Y-95161275D01*
X146630935Y-95168875D01*
X146599993Y-95173465D01*
X146568750Y-95175000D01*
X145931250Y-95175000D01*
X145900007Y-95173465D01*
X145869065Y-95168875D01*
X145838722Y-95161275D01*
X145809270Y-95150737D01*
X145780992Y-95137362D01*
X145754162Y-95121281D01*
X145729037Y-95102647D01*
X145705860Y-95081640D01*
X145684853Y-95058463D01*
X145666219Y-95033338D01*
X145650138Y-95006508D01*
X145636763Y-94978230D01*
X145626225Y-94948778D01*
X145618625Y-94918435D01*
X145614035Y-94887493D01*
X145612500Y-94856250D01*
X145612500Y-94143750D01*
X145614035Y-94112507D01*
X145618625Y-94081565D01*
X145626225Y-94051222D01*
X145636763Y-94021770D01*
X145650138Y-93993492D01*
X145666219Y-93966662D01*
X145684853Y-93941537D01*
X145705860Y-93918360D01*
X145729037Y-93897353D01*
X145754162Y-93878719D01*
X145780992Y-93862638D01*
X145809270Y-93849263D01*
X145838722Y-93838725D01*
X145869065Y-93831125D01*
X145900007Y-93826535D01*
X145931250Y-93825000D01*
X146568750Y-93825000D01*
X146599993Y-93826535D01*
G37*
M02*
