G04 #@! TF.GenerationSoftware,KiCad,Pcbnew,(5.1.5)-3*
G04 #@! TF.CreationDate,2020-01-07T01:01:47+09:00*
G04 #@! TF.ProjectId,irController,6972436f-6e74-4726-9f6c-6c65722e6b69,rev?*
G04 #@! TF.SameCoordinates,Original*
G04 #@! TF.FileFunction,Copper,L2,Bot*
G04 #@! TF.FilePolarity,Positive*
%FSLAX46Y46*%
G04 Gerber Fmt 4.6, Leading zero omitted, Abs format (unit mm)*
G04 Created by KiCad (PCBNEW (5.1.5)-3) date 2020-01-07 01:01:47*
%MOMM*%
%LPD*%
G04 APERTURE LIST*
%ADD10C,1.900000*%
%ADD11R,1.900000X2.000000*%
%ADD12R,2.032000X2.032000*%
%ADD13O,2.032000X2.032000*%
%ADD14R,2.032000X1.727200*%
%ADD15O,2.032000X1.727200*%
%ADD16R,1.200000X1.200000*%
%ADD17C,1.200000*%
%ADD18O,1.450000X2.000000*%
%ADD19O,1.150000X1.800000*%
%ADD20C,0.800000*%
%ADD21C,0.500000*%
%ADD22C,0.250000*%
%ADD23C,0.254000*%
G04 APERTURE END LIST*
D10*
X172460000Y-93472000D03*
D11*
X175000000Y-93472000D03*
D10*
X172460000Y-78681580D03*
D11*
X175000000Y-78681580D03*
D10*
X172460000Y-86000000D03*
D11*
X175000000Y-86000000D03*
D12*
X142250000Y-84000000D03*
D13*
X142250000Y-81460000D03*
D14*
X134500000Y-81000000D03*
D15*
X134500000Y-78460000D03*
X134500000Y-75920000D03*
D16*
X169545000Y-100330000D03*
D17*
X167545000Y-100330000D03*
X165545000Y-100330000D03*
X163545000Y-100330000D03*
D18*
X139775000Y-97400000D03*
X147225000Y-97400000D03*
D19*
X139625000Y-101200000D03*
X147375000Y-101200000D03*
D20*
X159000000Y-90750000D03*
X159000000Y-96500000D03*
X137000000Y-91500000D03*
X133500000Y-97500000D03*
X169418000Y-89916000D03*
X177800000Y-89916000D03*
X177800000Y-75438000D03*
X175260000Y-70358000D03*
X154050000Y-101050000D03*
X152400000Y-83058000D03*
X150622000Y-84836000D03*
X166624000Y-90424000D03*
X152450000Y-91730000D03*
X166700000Y-98200000D03*
X142748000Y-89408000D03*
X169672000Y-81788000D03*
X169672000Y-72644000D03*
X151500000Y-97000000D03*
X152500000Y-99500000D03*
X156500000Y-101000000D03*
X156750000Y-98750000D03*
X143000000Y-79500000D03*
D21*
X159000000Y-90750000D02*
X159000000Y-96500000D01*
X137000000Y-91500000D02*
X137000000Y-94000000D01*
X137000000Y-94000000D02*
X133500000Y-97500000D01*
X163545000Y-100330000D02*
X163545000Y-95789000D01*
X163545000Y-95789000D02*
X169418000Y-89916000D01*
X177800000Y-89916000D02*
X177800000Y-75438000D01*
X177800000Y-75438000D02*
X175260000Y-72898000D01*
X175260000Y-72898000D02*
X175260000Y-70358000D01*
X147375000Y-101200000D02*
X153900000Y-101200000D01*
X153900000Y-101200000D02*
X154050000Y-101050000D01*
X152400000Y-83058000D02*
X150622000Y-84836000D01*
X169418000Y-89916000D02*
X167132000Y-89916000D01*
X167132000Y-89916000D02*
X166624000Y-90424000D01*
X150622000Y-84836000D02*
X150622000Y-89902000D01*
X150622000Y-89902000D02*
X152450000Y-91730000D01*
X172460000Y-78681580D02*
X172460000Y-86000000D01*
X172460000Y-86000000D02*
X172460000Y-93472000D01*
X172460000Y-93472000D02*
X172460000Y-98812000D01*
X170942000Y-100330000D02*
X169545000Y-100330000D01*
X172460000Y-98812000D02*
X170942000Y-100330000D01*
X142748000Y-87732000D02*
X142748000Y-89408000D01*
X134500000Y-81000000D02*
X136016000Y-81000000D01*
X136016000Y-81000000D02*
X142748000Y-87732000D01*
X169545000Y-101430000D02*
X169545000Y-100330000D01*
X168867000Y-102108000D02*
X169545000Y-101430000D01*
X145920001Y-92580001D02*
X151880001Y-92580001D01*
X142748000Y-89408000D02*
X145920001Y-92580001D01*
X151880001Y-92580001D02*
X161400000Y-102100000D01*
X161366002Y-102108000D02*
X161400000Y-102100000D01*
X161400000Y-102100000D02*
X168867000Y-102108000D01*
D22*
X169672000Y-81788000D02*
X169672000Y-72644000D01*
X151500000Y-98000000D02*
X151500000Y-97000000D01*
X152500000Y-98500000D02*
X152500000Y-99500000D01*
X152000000Y-98000000D02*
X152500000Y-98500000D01*
X151500000Y-98000000D02*
X152000000Y-98000000D01*
X156500000Y-99000000D02*
X156500000Y-101000000D01*
X156750000Y-98750000D02*
X156500000Y-99000000D01*
X134500000Y-75920000D02*
X138670000Y-75920000D01*
X142250000Y-79500000D02*
X143000000Y-79500000D01*
X138670000Y-75920000D02*
X142250000Y-79500000D01*
D23*
G36*
X140373000Y-75500000D02*
G01*
X140375440Y-75524776D01*
X140382667Y-75548601D01*
X140394403Y-75570557D01*
X140410197Y-75589803D01*
X140429443Y-75605597D01*
X140451399Y-75617333D01*
X140475224Y-75624560D01*
X140500000Y-75627000D01*
X168910000Y-75627000D01*
X168912001Y-75626803D01*
X168912000Y-81084289D01*
X168868063Y-81128226D01*
X168754795Y-81297744D01*
X168676774Y-81486102D01*
X168637000Y-81686061D01*
X168637000Y-81889939D01*
X168676774Y-82089898D01*
X168754795Y-82278256D01*
X168868063Y-82447774D01*
X169012226Y-82591937D01*
X169181744Y-82705205D01*
X169370102Y-82783226D01*
X169570061Y-82823000D01*
X169773939Y-82823000D01*
X169973898Y-82783226D01*
X170162256Y-82705205D01*
X170331774Y-82591937D01*
X170475937Y-82447774D01*
X170589205Y-82278256D01*
X170667226Y-82089898D01*
X170707000Y-81889939D01*
X170707000Y-81686061D01*
X170667226Y-81486102D01*
X170589205Y-81297744D01*
X170475937Y-81128226D01*
X170432000Y-81084289D01*
X170432000Y-73347711D01*
X170475937Y-73303774D01*
X170589205Y-73134256D01*
X170667226Y-72945898D01*
X170707000Y-72745939D01*
X170707000Y-72542061D01*
X170667226Y-72342102D01*
X170589205Y-72153744D01*
X170475937Y-71984226D01*
X170331774Y-71840063D01*
X170162256Y-71726795D01*
X169973898Y-71648774D01*
X169773939Y-71609000D01*
X169570061Y-71609000D01*
X169370102Y-71648774D01*
X169181744Y-71726795D01*
X169037000Y-71823510D01*
X169037000Y-71329117D01*
X176765000Y-71329117D01*
X176765000Y-71670883D01*
X176831675Y-72006081D01*
X176962463Y-72321831D01*
X177152337Y-72605998D01*
X177394002Y-72847663D01*
X177678169Y-73037537D01*
X177993919Y-73168325D01*
X178329117Y-73235000D01*
X178670883Y-73235000D01*
X179006081Y-73168325D01*
X179321831Y-73037537D01*
X179605998Y-72847663D01*
X179847663Y-72605998D01*
X180037537Y-72321831D01*
X180168325Y-72006081D01*
X180235000Y-71670883D01*
X180235000Y-71329117D01*
X180168325Y-70993919D01*
X180037537Y-70678169D01*
X179847663Y-70394002D01*
X179605998Y-70152337D01*
X179321831Y-69962463D01*
X179006081Y-69831675D01*
X178670883Y-69765000D01*
X178329117Y-69765000D01*
X177993919Y-69831675D01*
X177678169Y-69962463D01*
X177394002Y-70152337D01*
X177152337Y-70394002D01*
X176962463Y-70678169D01*
X176831675Y-70993919D01*
X176765000Y-71329117D01*
X169037000Y-71329117D01*
X169037000Y-69710000D01*
X180290000Y-69710000D01*
X180290001Y-102290000D01*
X169936579Y-102290000D01*
X170140050Y-102086529D01*
X170173817Y-102058817D01*
X170226006Y-101995226D01*
X170284411Y-101924059D01*
X170325245Y-101847663D01*
X170366589Y-101770313D01*
X170417195Y-101603490D01*
X170427483Y-101499028D01*
X170499494Y-101460537D01*
X170596185Y-101381185D01*
X170675537Y-101284494D01*
X170712683Y-101215000D01*
X170898531Y-101215000D01*
X170942000Y-101219281D01*
X170985469Y-101215000D01*
X170985477Y-101215000D01*
X171115490Y-101202195D01*
X171282313Y-101151589D01*
X171436059Y-101069411D01*
X171570817Y-100958817D01*
X171598534Y-100925044D01*
X172194461Y-100329117D01*
X176765000Y-100329117D01*
X176765000Y-100670883D01*
X176831675Y-101006081D01*
X176962463Y-101321831D01*
X177152337Y-101605998D01*
X177394002Y-101847663D01*
X177678169Y-102037537D01*
X177993919Y-102168325D01*
X178329117Y-102235000D01*
X178670883Y-102235000D01*
X179006081Y-102168325D01*
X179321831Y-102037537D01*
X179605998Y-101847663D01*
X179847663Y-101605998D01*
X180037537Y-101321831D01*
X180168325Y-101006081D01*
X180235000Y-100670883D01*
X180235000Y-100329117D01*
X180168325Y-99993919D01*
X180037537Y-99678169D01*
X179847663Y-99394002D01*
X179605998Y-99152337D01*
X179321831Y-98962463D01*
X179006081Y-98831675D01*
X178670883Y-98765000D01*
X178329117Y-98765000D01*
X177993919Y-98831675D01*
X177678169Y-98962463D01*
X177394002Y-99152337D01*
X177152337Y-99394002D01*
X176962463Y-99678169D01*
X176831675Y-99993919D01*
X176765000Y-100329117D01*
X172194461Y-100329117D01*
X173055049Y-99468530D01*
X173088817Y-99440817D01*
X173123907Y-99398061D01*
X173199410Y-99306060D01*
X173213973Y-99278815D01*
X173281589Y-99152313D01*
X173332195Y-98985490D01*
X173345000Y-98855477D01*
X173345000Y-98855467D01*
X173349281Y-98812001D01*
X173345000Y-98768535D01*
X173345000Y-94786925D01*
X173458877Y-94710836D01*
X173460498Y-94716180D01*
X173519463Y-94826494D01*
X173598815Y-94923185D01*
X173695506Y-95002537D01*
X173805820Y-95061502D01*
X173925518Y-95097812D01*
X174050000Y-95110072D01*
X175950000Y-95110072D01*
X176074482Y-95097812D01*
X176194180Y-95061502D01*
X176304494Y-95002537D01*
X176401185Y-94923185D01*
X176480537Y-94826494D01*
X176539502Y-94716180D01*
X176575812Y-94596482D01*
X176588072Y-94472000D01*
X176588072Y-92472000D01*
X176575812Y-92347518D01*
X176539502Y-92227820D01*
X176480537Y-92117506D01*
X176401185Y-92020815D01*
X176304494Y-91941463D01*
X176194180Y-91882498D01*
X176074482Y-91846188D01*
X175950000Y-91833928D01*
X174050000Y-91833928D01*
X173925518Y-91846188D01*
X173805820Y-91882498D01*
X173695506Y-91941463D01*
X173598815Y-92020815D01*
X173519463Y-92117506D01*
X173460498Y-92227820D01*
X173458877Y-92233164D01*
X173345000Y-92157075D01*
X173345000Y-87314925D01*
X173458877Y-87238836D01*
X173460498Y-87244180D01*
X173519463Y-87354494D01*
X173598815Y-87451185D01*
X173695506Y-87530537D01*
X173805820Y-87589502D01*
X173925518Y-87625812D01*
X174050000Y-87638072D01*
X175950000Y-87638072D01*
X176074482Y-87625812D01*
X176194180Y-87589502D01*
X176304494Y-87530537D01*
X176401185Y-87451185D01*
X176480537Y-87354494D01*
X176539502Y-87244180D01*
X176575812Y-87124482D01*
X176588072Y-87000000D01*
X176588072Y-85000000D01*
X176575812Y-84875518D01*
X176539502Y-84755820D01*
X176480537Y-84645506D01*
X176401185Y-84548815D01*
X176304494Y-84469463D01*
X176194180Y-84410498D01*
X176074482Y-84374188D01*
X175950000Y-84361928D01*
X174050000Y-84361928D01*
X173925518Y-84374188D01*
X173805820Y-84410498D01*
X173695506Y-84469463D01*
X173598815Y-84548815D01*
X173519463Y-84645506D01*
X173460498Y-84755820D01*
X173458877Y-84761164D01*
X173345000Y-84685075D01*
X173345000Y-79996505D01*
X173458877Y-79920416D01*
X173460498Y-79925760D01*
X173519463Y-80036074D01*
X173598815Y-80132765D01*
X173695506Y-80212117D01*
X173805820Y-80271082D01*
X173925518Y-80307392D01*
X174050000Y-80319652D01*
X175950000Y-80319652D01*
X176074482Y-80307392D01*
X176194180Y-80271082D01*
X176304494Y-80212117D01*
X176401185Y-80132765D01*
X176480537Y-80036074D01*
X176539502Y-79925760D01*
X176575812Y-79806062D01*
X176588072Y-79681580D01*
X176588072Y-77681580D01*
X176575812Y-77557098D01*
X176539502Y-77437400D01*
X176480537Y-77327086D01*
X176401185Y-77230395D01*
X176304494Y-77151043D01*
X176194180Y-77092078D01*
X176074482Y-77055768D01*
X175950000Y-77043508D01*
X174050000Y-77043508D01*
X173925518Y-77055768D01*
X173805820Y-77092078D01*
X173695506Y-77151043D01*
X173598815Y-77230395D01*
X173519463Y-77327086D01*
X173460498Y-77437400D01*
X173458877Y-77442744D01*
X173210779Y-77276971D01*
X172922327Y-77157491D01*
X172616109Y-77096580D01*
X172303891Y-77096580D01*
X171997673Y-77157491D01*
X171709221Y-77276971D01*
X171449621Y-77450430D01*
X171228850Y-77671201D01*
X171055391Y-77930801D01*
X170935911Y-78219253D01*
X170875000Y-78525471D01*
X170875000Y-78837689D01*
X170935911Y-79143907D01*
X171055391Y-79432359D01*
X171228850Y-79691959D01*
X171449621Y-79912730D01*
X171575000Y-79996506D01*
X171575001Y-84685074D01*
X171449621Y-84768850D01*
X171228850Y-84989621D01*
X171055391Y-85249221D01*
X170935911Y-85537673D01*
X170875000Y-85843891D01*
X170875000Y-86156109D01*
X170935911Y-86462327D01*
X171055391Y-86750779D01*
X171228850Y-87010379D01*
X171449621Y-87231150D01*
X171575000Y-87314926D01*
X171575001Y-92157074D01*
X171449621Y-92240850D01*
X171228850Y-92461621D01*
X171055391Y-92721221D01*
X170935911Y-93009673D01*
X170875000Y-93315891D01*
X170875000Y-93628109D01*
X170935911Y-93934327D01*
X171055391Y-94222779D01*
X171228850Y-94482379D01*
X171449621Y-94703150D01*
X171575000Y-94786926D01*
X171575001Y-98445420D01*
X170661734Y-99358687D01*
X170596185Y-99278815D01*
X170499494Y-99199463D01*
X170389180Y-99140498D01*
X170269482Y-99104188D01*
X170145000Y-99091928D01*
X168945000Y-99091928D01*
X168820518Y-99104188D01*
X168700820Y-99140498D01*
X168590506Y-99199463D01*
X168493815Y-99278815D01*
X168414463Y-99375506D01*
X168387501Y-99425947D01*
X168332267Y-99370713D01*
X168129992Y-99235557D01*
X167905236Y-99142460D01*
X167666637Y-99095000D01*
X167423363Y-99095000D01*
X167184764Y-99142460D01*
X166960008Y-99235557D01*
X166757733Y-99370713D01*
X166585713Y-99542733D01*
X166545000Y-99603664D01*
X166504287Y-99542733D01*
X166332267Y-99370713D01*
X166129992Y-99235557D01*
X165905236Y-99142460D01*
X165666637Y-99095000D01*
X165423363Y-99095000D01*
X165184764Y-99142460D01*
X164960008Y-99235557D01*
X164757733Y-99370713D01*
X164585713Y-99542733D01*
X164493504Y-99680733D01*
X164394764Y-99659841D01*
X163724605Y-100330000D01*
X164394764Y-101000159D01*
X164493504Y-100979267D01*
X164585713Y-101117267D01*
X164686968Y-101218522D01*
X164207067Y-101218007D01*
X164215159Y-101179764D01*
X163545000Y-100509605D01*
X162874841Y-101179764D01*
X162882632Y-101216588D01*
X161766972Y-101215393D01*
X160960017Y-100408438D01*
X162306505Y-100408438D01*
X162345605Y-100648549D01*
X162430798Y-100876418D01*
X162471652Y-100952852D01*
X162695236Y-101000159D01*
X163365395Y-100330000D01*
X162695236Y-99659841D01*
X162471652Y-99707148D01*
X162370763Y-99928516D01*
X162315000Y-100165313D01*
X162306505Y-100408438D01*
X160960017Y-100408438D01*
X160031815Y-99480236D01*
X162874841Y-99480236D01*
X163545000Y-100150395D01*
X164215159Y-99480236D01*
X164167852Y-99256652D01*
X163946484Y-99155763D01*
X163709687Y-99100000D01*
X163466562Y-99091505D01*
X163226451Y-99130605D01*
X162998582Y-99215798D01*
X162922148Y-99256652D01*
X162874841Y-99480236D01*
X160031815Y-99480236D01*
X152536535Y-91984957D01*
X152508818Y-91951184D01*
X152374060Y-91840590D01*
X152220314Y-91758412D01*
X152053491Y-91707806D01*
X151923478Y-91695001D01*
X151923470Y-91695001D01*
X151880001Y-91690720D01*
X151836532Y-91695001D01*
X146286580Y-91695001D01*
X143754535Y-89162957D01*
X143743226Y-89106102D01*
X143665205Y-88917744D01*
X143633000Y-88869546D01*
X143633000Y-87775469D01*
X143637281Y-87732000D01*
X143633000Y-87688531D01*
X143633000Y-87688523D01*
X143620195Y-87558510D01*
X143569589Y-87391687D01*
X143487411Y-87237941D01*
X143376817Y-87103183D01*
X143343051Y-87075472D01*
X141921651Y-85654072D01*
X143266000Y-85654072D01*
X143390482Y-85641812D01*
X143510180Y-85605502D01*
X143620494Y-85546537D01*
X143717185Y-85467185D01*
X143796537Y-85370494D01*
X143855502Y-85260180D01*
X143891812Y-85140482D01*
X143904072Y-85016000D01*
X143904072Y-82984000D01*
X143891812Y-82859518D01*
X143855502Y-82739820D01*
X143796537Y-82629506D01*
X143717185Y-82532815D01*
X143620494Y-82453463D01*
X143584636Y-82434296D01*
X143713097Y-82242042D01*
X143837553Y-81941579D01*
X143901000Y-81622609D01*
X143901000Y-81297391D01*
X143837553Y-80978421D01*
X143713097Y-80677958D01*
X143532415Y-80407549D01*
X143521317Y-80396451D01*
X143659774Y-80303937D01*
X143803937Y-80159774D01*
X143917205Y-79990256D01*
X143995226Y-79801898D01*
X144035000Y-79601939D01*
X144035000Y-79398061D01*
X143995226Y-79198102D01*
X143917205Y-79009744D01*
X143803937Y-78840226D01*
X143659774Y-78696063D01*
X143490256Y-78582795D01*
X143301898Y-78504774D01*
X143101939Y-78465000D01*
X142898061Y-78465000D01*
X142698102Y-78504774D01*
X142509744Y-78582795D01*
X142448511Y-78623709D01*
X139233804Y-75409003D01*
X139210001Y-75379999D01*
X139094276Y-75285026D01*
X138962247Y-75214454D01*
X138818986Y-75170997D01*
X138707333Y-75160000D01*
X138707322Y-75160000D01*
X138670000Y-75156324D01*
X138632678Y-75160000D01*
X135945416Y-75160000D01*
X135904469Y-75083394D01*
X135717197Y-74855203D01*
X135489006Y-74667931D01*
X135228664Y-74528775D01*
X134946177Y-74443084D01*
X134726019Y-74421400D01*
X134273981Y-74421400D01*
X134053823Y-74443084D01*
X133771336Y-74528775D01*
X133510994Y-74667931D01*
X133282803Y-74855203D01*
X133095531Y-75083394D01*
X132956375Y-75343736D01*
X132870684Y-75626223D01*
X132841749Y-75920000D01*
X132870684Y-76213777D01*
X132956375Y-76496264D01*
X133095531Y-76756606D01*
X133282803Y-76984797D01*
X133510994Y-77172069D01*
X133550947Y-77193424D01*
X133348271Y-77341514D01*
X133149267Y-77557965D01*
X132996314Y-77809081D01*
X132895291Y-78085211D01*
X132892642Y-78100974D01*
X133013783Y-78333000D01*
X134373000Y-78333000D01*
X134373000Y-78313000D01*
X134627000Y-78313000D01*
X134627000Y-78333000D01*
X135986217Y-78333000D01*
X136107358Y-78100974D01*
X136104709Y-78085211D01*
X136003686Y-77809081D01*
X135850733Y-77557965D01*
X135651729Y-77341514D01*
X135449053Y-77193424D01*
X135489006Y-77172069D01*
X135717197Y-76984797D01*
X135904469Y-76756606D01*
X135945416Y-76680000D01*
X138355199Y-76680000D01*
X141612309Y-79937111D01*
X141467958Y-79996903D01*
X141197549Y-80177585D01*
X140967585Y-80407549D01*
X140786903Y-80677958D01*
X140662447Y-80978421D01*
X140599000Y-81297391D01*
X140599000Y-81622609D01*
X140662447Y-81941579D01*
X140786903Y-82242042D01*
X140915364Y-82434296D01*
X140879506Y-82453463D01*
X140782815Y-82532815D01*
X140703463Y-82629506D01*
X140644498Y-82739820D01*
X140608188Y-82859518D01*
X140595928Y-82984000D01*
X140595928Y-84328349D01*
X136672534Y-80404956D01*
X136644817Y-80371183D01*
X136510059Y-80260589D01*
X136356313Y-80178411D01*
X136189490Y-80127805D01*
X136152870Y-80124198D01*
X136141812Y-80011918D01*
X136105502Y-79892220D01*
X136046537Y-79781906D01*
X135967185Y-79685215D01*
X135870494Y-79605863D01*
X135760180Y-79546898D01*
X135698088Y-79528063D01*
X135850733Y-79362035D01*
X136003686Y-79110919D01*
X136104709Y-78834789D01*
X136107358Y-78819026D01*
X135986217Y-78587000D01*
X134627000Y-78587000D01*
X134627000Y-78607000D01*
X134373000Y-78607000D01*
X134373000Y-78587000D01*
X133013783Y-78587000D01*
X132892642Y-78819026D01*
X132895291Y-78834789D01*
X132996314Y-79110919D01*
X133149267Y-79362035D01*
X133301912Y-79528063D01*
X133239820Y-79546898D01*
X133129506Y-79605863D01*
X133032815Y-79685215D01*
X132953463Y-79781906D01*
X132894498Y-79892220D01*
X132858188Y-80011918D01*
X132845928Y-80136400D01*
X132845928Y-81863600D01*
X132858188Y-81988082D01*
X132894498Y-82107780D01*
X132953463Y-82218094D01*
X133032815Y-82314785D01*
X133129506Y-82394137D01*
X133239820Y-82453102D01*
X133359518Y-82489412D01*
X133484000Y-82501672D01*
X135516000Y-82501672D01*
X135640482Y-82489412D01*
X135760180Y-82453102D01*
X135870494Y-82394137D01*
X135967185Y-82314785D01*
X136017679Y-82253257D01*
X141863000Y-88098579D01*
X141863001Y-88869545D01*
X141830795Y-88917744D01*
X141752774Y-89106102D01*
X141713000Y-89306061D01*
X141713000Y-89509939D01*
X141752774Y-89709898D01*
X141830795Y-89898256D01*
X141944063Y-90067774D01*
X142088226Y-90211937D01*
X142257744Y-90325205D01*
X142446102Y-90403226D01*
X142502957Y-90414535D01*
X145263471Y-93175050D01*
X145291184Y-93208818D01*
X145324952Y-93236531D01*
X145324954Y-93236533D01*
X145400473Y-93298510D01*
X145425942Y-93319412D01*
X145579688Y-93401590D01*
X145746511Y-93452196D01*
X145876524Y-93465001D01*
X145876532Y-93465001D01*
X145920001Y-93469282D01*
X145963470Y-93465001D01*
X151513423Y-93465001D01*
X156042355Y-97993934D01*
X155946063Y-98090226D01*
X155832795Y-98259744D01*
X155754774Y-98448102D01*
X155715000Y-98648061D01*
X155715000Y-98851939D01*
X155739015Y-98972674D01*
X155736324Y-99000000D01*
X155740000Y-99037323D01*
X155740001Y-100296288D01*
X155696063Y-100340226D01*
X155582795Y-100509744D01*
X155504774Y-100698102D01*
X155465000Y-100898061D01*
X155465000Y-101101939D01*
X155504774Y-101301898D01*
X155582795Y-101490256D01*
X155696063Y-101659774D01*
X155840226Y-101803937D01*
X156009744Y-101917205D01*
X156198102Y-101995226D01*
X156398061Y-102035000D01*
X156601939Y-102035000D01*
X156801898Y-101995226D01*
X156990256Y-101917205D01*
X157159774Y-101803937D01*
X157303937Y-101659774D01*
X157417205Y-101490256D01*
X157495226Y-101301898D01*
X157535000Y-101101939D01*
X157535000Y-100898061D01*
X157495226Y-100698102D01*
X157417205Y-100509744D01*
X157303937Y-100340226D01*
X157260000Y-100296289D01*
X157260000Y-99654013D01*
X157409774Y-99553937D01*
X157506066Y-99457645D01*
X160338421Y-102290000D01*
X148319218Y-102290000D01*
X148444294Y-102105380D01*
X148536974Y-101885619D01*
X148585000Y-101652000D01*
X148585000Y-101327000D01*
X147502000Y-101327000D01*
X147502000Y-101347000D01*
X147248000Y-101347000D01*
X147248000Y-101327000D01*
X146165000Y-101327000D01*
X146165000Y-101652000D01*
X146213026Y-101885619D01*
X146305706Y-102105380D01*
X146430782Y-102290000D01*
X140569218Y-102290000D01*
X140694294Y-102105380D01*
X140786974Y-101885619D01*
X140835000Y-101652000D01*
X140835000Y-101327000D01*
X139752000Y-101327000D01*
X139752000Y-101347000D01*
X139498000Y-101347000D01*
X139498000Y-101327000D01*
X138415000Y-101327000D01*
X138415000Y-101652000D01*
X138463026Y-101885619D01*
X138555706Y-102105380D01*
X138680782Y-102290000D01*
X132710000Y-102290000D01*
X132710000Y-100329117D01*
X132765000Y-100329117D01*
X132765000Y-100670883D01*
X132831675Y-101006081D01*
X132962463Y-101321831D01*
X133152337Y-101605998D01*
X133394002Y-101847663D01*
X133678169Y-102037537D01*
X133993919Y-102168325D01*
X134329117Y-102235000D01*
X134670883Y-102235000D01*
X135006081Y-102168325D01*
X135321831Y-102037537D01*
X135605998Y-101847663D01*
X135847663Y-101605998D01*
X136037537Y-101321831D01*
X136168325Y-101006081D01*
X136219660Y-100748000D01*
X138415000Y-100748000D01*
X138415000Y-101073000D01*
X139498000Y-101073000D01*
X139498000Y-99831450D01*
X139752000Y-99831450D01*
X139752000Y-101073000D01*
X140835000Y-101073000D01*
X140835000Y-100748000D01*
X146165000Y-100748000D01*
X146165000Y-101073000D01*
X147248000Y-101073000D01*
X147248000Y-99831450D01*
X147502000Y-99831450D01*
X147502000Y-101073000D01*
X148585000Y-101073000D01*
X148585000Y-100748000D01*
X148536974Y-100514381D01*
X148444294Y-100294620D01*
X148310521Y-100097163D01*
X148140797Y-99929598D01*
X147941644Y-99798364D01*
X147720715Y-99708504D01*
X147688677Y-99706365D01*
X147502000Y-99831450D01*
X147248000Y-99831450D01*
X147061323Y-99706365D01*
X147029285Y-99708504D01*
X146808356Y-99798364D01*
X146609203Y-99929598D01*
X146439479Y-100097163D01*
X146305706Y-100294620D01*
X146213026Y-100514381D01*
X146165000Y-100748000D01*
X140835000Y-100748000D01*
X140786974Y-100514381D01*
X140694294Y-100294620D01*
X140560521Y-100097163D01*
X140390797Y-99929598D01*
X140191644Y-99798364D01*
X139970715Y-99708504D01*
X139938677Y-99706365D01*
X139752000Y-99831450D01*
X139498000Y-99831450D01*
X139311323Y-99706365D01*
X139279285Y-99708504D01*
X139058356Y-99798364D01*
X138859203Y-99929598D01*
X138689479Y-100097163D01*
X138555706Y-100294620D01*
X138463026Y-100514381D01*
X138415000Y-100748000D01*
X136219660Y-100748000D01*
X136235000Y-100670883D01*
X136235000Y-100329117D01*
X136168325Y-99993919D01*
X136037537Y-99678169D01*
X135847663Y-99394002D01*
X135605998Y-99152337D01*
X135321831Y-98962463D01*
X135006081Y-98831675D01*
X134670883Y-98765000D01*
X134329117Y-98765000D01*
X133993919Y-98831675D01*
X133678169Y-98962463D01*
X133394002Y-99152337D01*
X133152337Y-99394002D01*
X132962463Y-99678169D01*
X132831675Y-99993919D01*
X132765000Y-100329117D01*
X132710000Y-100329117D01*
X132710000Y-97527000D01*
X138415000Y-97527000D01*
X138415000Y-97802000D01*
X138465908Y-98064883D01*
X138567124Y-98312783D01*
X138714758Y-98536173D01*
X138903137Y-98726469D01*
X139125021Y-98876357D01*
X139371883Y-98980078D01*
X139437742Y-98992519D01*
X139648000Y-98869518D01*
X139648000Y-97527000D01*
X139902000Y-97527000D01*
X139902000Y-98869518D01*
X140112258Y-98992519D01*
X140117104Y-98991604D01*
X140196063Y-99109774D01*
X140340226Y-99253937D01*
X140509744Y-99367205D01*
X140698102Y-99445226D01*
X140898061Y-99485000D01*
X141101939Y-99485000D01*
X141301898Y-99445226D01*
X141490256Y-99367205D01*
X141659774Y-99253937D01*
X141803937Y-99109774D01*
X141917205Y-98940256D01*
X141995226Y-98751898D01*
X142035000Y-98551939D01*
X142035000Y-98348061D01*
X144965000Y-98348061D01*
X144965000Y-98551939D01*
X145004774Y-98751898D01*
X145082795Y-98940256D01*
X145196063Y-99109774D01*
X145340226Y-99253937D01*
X145509744Y-99367205D01*
X145698102Y-99445226D01*
X145898061Y-99485000D01*
X146101939Y-99485000D01*
X146301898Y-99445226D01*
X146490256Y-99367205D01*
X146659774Y-99253937D01*
X146803937Y-99109774D01*
X146882896Y-98991604D01*
X146887742Y-98992519D01*
X147098000Y-98869518D01*
X147098000Y-97527000D01*
X147352000Y-97527000D01*
X147352000Y-98869518D01*
X147562258Y-98992519D01*
X147628117Y-98980078D01*
X147874979Y-98876357D01*
X148096863Y-98726469D01*
X148285242Y-98536173D01*
X148432876Y-98312783D01*
X148534092Y-98064883D01*
X148585000Y-97802000D01*
X148585000Y-97527000D01*
X147352000Y-97527000D01*
X147098000Y-97527000D01*
X146476266Y-97527000D01*
X146301898Y-97454774D01*
X146101939Y-97415000D01*
X145898061Y-97415000D01*
X145698102Y-97454774D01*
X145509744Y-97532795D01*
X145340226Y-97646063D01*
X145196063Y-97790226D01*
X145082795Y-97959744D01*
X145004774Y-98148102D01*
X144965000Y-98348061D01*
X142035000Y-98348061D01*
X141995226Y-98148102D01*
X141917205Y-97959744D01*
X141803937Y-97790226D01*
X141659774Y-97646063D01*
X141490256Y-97532795D01*
X141301898Y-97454774D01*
X141101939Y-97415000D01*
X140898061Y-97415000D01*
X140698102Y-97454774D01*
X140523734Y-97527000D01*
X139902000Y-97527000D01*
X139648000Y-97527000D01*
X138415000Y-97527000D01*
X132710000Y-97527000D01*
X132710000Y-96998000D01*
X138415000Y-96998000D01*
X138415000Y-97273000D01*
X139648000Y-97273000D01*
X139648000Y-95930482D01*
X139902000Y-95930482D01*
X139902000Y-97273000D01*
X141135000Y-97273000D01*
X141135000Y-96998000D01*
X145865000Y-96998000D01*
X145865000Y-97273000D01*
X147098000Y-97273000D01*
X147098000Y-95930482D01*
X147352000Y-95930482D01*
X147352000Y-97273000D01*
X148585000Y-97273000D01*
X148585000Y-96998000D01*
X148565647Y-96898061D01*
X150465000Y-96898061D01*
X150465000Y-97101939D01*
X150504774Y-97301898D01*
X150582795Y-97490256D01*
X150696063Y-97659774D01*
X150740000Y-97703711D01*
X150740000Y-97962666D01*
X150736323Y-98000000D01*
X150750997Y-98148986D01*
X150794454Y-98292247D01*
X150865026Y-98424276D01*
X150918142Y-98488998D01*
X150959999Y-98540001D01*
X151075724Y-98634974D01*
X151207753Y-98705546D01*
X151351014Y-98749003D01*
X151500000Y-98763677D01*
X151537333Y-98760000D01*
X151685199Y-98760000D01*
X151730744Y-98805545D01*
X151696063Y-98840226D01*
X151582795Y-99009744D01*
X151504774Y-99198102D01*
X151465000Y-99398061D01*
X151465000Y-99601939D01*
X151504774Y-99801898D01*
X151582795Y-99990256D01*
X151696063Y-100159774D01*
X151840226Y-100303937D01*
X152009744Y-100417205D01*
X152198102Y-100495226D01*
X152398061Y-100535000D01*
X152601939Y-100535000D01*
X152801898Y-100495226D01*
X152990256Y-100417205D01*
X153159774Y-100303937D01*
X153303937Y-100159774D01*
X153417205Y-99990256D01*
X153495226Y-99801898D01*
X153535000Y-99601939D01*
X153535000Y-99398061D01*
X153495226Y-99198102D01*
X153417205Y-99009744D01*
X153303937Y-98840226D01*
X153260000Y-98796289D01*
X153260000Y-98537325D01*
X153263676Y-98500000D01*
X153260000Y-98462675D01*
X153260000Y-98462667D01*
X153249003Y-98351014D01*
X153205546Y-98207753D01*
X153134974Y-98075724D01*
X153040001Y-97959999D01*
X153010998Y-97936197D01*
X152563804Y-97489003D01*
X152540001Y-97459999D01*
X152457711Y-97392466D01*
X152495226Y-97301898D01*
X152535000Y-97101939D01*
X152535000Y-96898061D01*
X152495226Y-96698102D01*
X152417205Y-96509744D01*
X152303937Y-96340226D01*
X152159774Y-96196063D01*
X151990256Y-96082795D01*
X151801898Y-96004774D01*
X151601939Y-95965000D01*
X151398061Y-95965000D01*
X151198102Y-96004774D01*
X151009744Y-96082795D01*
X150840226Y-96196063D01*
X150696063Y-96340226D01*
X150582795Y-96509744D01*
X150504774Y-96698102D01*
X150465000Y-96898061D01*
X148565647Y-96898061D01*
X148534092Y-96735117D01*
X148432876Y-96487217D01*
X148285242Y-96263827D01*
X148096863Y-96073531D01*
X147874979Y-95923643D01*
X147628117Y-95819922D01*
X147562258Y-95807481D01*
X147352000Y-95930482D01*
X147098000Y-95930482D01*
X146887742Y-95807481D01*
X146821883Y-95819922D01*
X146575021Y-95923643D01*
X146353137Y-96073531D01*
X146164758Y-96263827D01*
X146017124Y-96487217D01*
X145915908Y-96735117D01*
X145865000Y-96998000D01*
X141135000Y-96998000D01*
X141084092Y-96735117D01*
X140982876Y-96487217D01*
X140835242Y-96263827D01*
X140646863Y-96073531D01*
X140424979Y-95923643D01*
X140178117Y-95819922D01*
X140112258Y-95807481D01*
X139902000Y-95930482D01*
X139648000Y-95930482D01*
X139437742Y-95807481D01*
X139371883Y-95819922D01*
X139125021Y-95923643D01*
X138903137Y-96073531D01*
X138714758Y-96263827D01*
X138567124Y-96487217D01*
X138465908Y-96735117D01*
X138415000Y-96998000D01*
X132710000Y-96998000D01*
X132710000Y-71329117D01*
X132765000Y-71329117D01*
X132765000Y-71670883D01*
X132831675Y-72006081D01*
X132962463Y-72321831D01*
X133152337Y-72605998D01*
X133394002Y-72847663D01*
X133678169Y-73037537D01*
X133993919Y-73168325D01*
X134329117Y-73235000D01*
X134670883Y-73235000D01*
X135006081Y-73168325D01*
X135321831Y-73037537D01*
X135605998Y-72847663D01*
X135847663Y-72605998D01*
X136037537Y-72321831D01*
X136168325Y-72006081D01*
X136235000Y-71670883D01*
X136235000Y-71329117D01*
X136168325Y-70993919D01*
X136037537Y-70678169D01*
X135847663Y-70394002D01*
X135605998Y-70152337D01*
X135321831Y-69962463D01*
X135006081Y-69831675D01*
X134670883Y-69765000D01*
X134329117Y-69765000D01*
X133993919Y-69831675D01*
X133678169Y-69962463D01*
X133394002Y-70152337D01*
X133152337Y-70394002D01*
X132962463Y-70678169D01*
X132831675Y-70993919D01*
X132765000Y-71329117D01*
X132710000Y-71329117D01*
X132710000Y-69710000D01*
X140373000Y-69710000D01*
X140373000Y-75500000D01*
G37*
X140373000Y-75500000D02*
X140375440Y-75524776D01*
X140382667Y-75548601D01*
X140394403Y-75570557D01*
X140410197Y-75589803D01*
X140429443Y-75605597D01*
X140451399Y-75617333D01*
X140475224Y-75624560D01*
X140500000Y-75627000D01*
X168910000Y-75627000D01*
X168912001Y-75626803D01*
X168912000Y-81084289D01*
X168868063Y-81128226D01*
X168754795Y-81297744D01*
X168676774Y-81486102D01*
X168637000Y-81686061D01*
X168637000Y-81889939D01*
X168676774Y-82089898D01*
X168754795Y-82278256D01*
X168868063Y-82447774D01*
X169012226Y-82591937D01*
X169181744Y-82705205D01*
X169370102Y-82783226D01*
X169570061Y-82823000D01*
X169773939Y-82823000D01*
X169973898Y-82783226D01*
X170162256Y-82705205D01*
X170331774Y-82591937D01*
X170475937Y-82447774D01*
X170589205Y-82278256D01*
X170667226Y-82089898D01*
X170707000Y-81889939D01*
X170707000Y-81686061D01*
X170667226Y-81486102D01*
X170589205Y-81297744D01*
X170475937Y-81128226D01*
X170432000Y-81084289D01*
X170432000Y-73347711D01*
X170475937Y-73303774D01*
X170589205Y-73134256D01*
X170667226Y-72945898D01*
X170707000Y-72745939D01*
X170707000Y-72542061D01*
X170667226Y-72342102D01*
X170589205Y-72153744D01*
X170475937Y-71984226D01*
X170331774Y-71840063D01*
X170162256Y-71726795D01*
X169973898Y-71648774D01*
X169773939Y-71609000D01*
X169570061Y-71609000D01*
X169370102Y-71648774D01*
X169181744Y-71726795D01*
X169037000Y-71823510D01*
X169037000Y-71329117D01*
X176765000Y-71329117D01*
X176765000Y-71670883D01*
X176831675Y-72006081D01*
X176962463Y-72321831D01*
X177152337Y-72605998D01*
X177394002Y-72847663D01*
X177678169Y-73037537D01*
X177993919Y-73168325D01*
X178329117Y-73235000D01*
X178670883Y-73235000D01*
X179006081Y-73168325D01*
X179321831Y-73037537D01*
X179605998Y-72847663D01*
X179847663Y-72605998D01*
X180037537Y-72321831D01*
X180168325Y-72006081D01*
X180235000Y-71670883D01*
X180235000Y-71329117D01*
X180168325Y-70993919D01*
X180037537Y-70678169D01*
X179847663Y-70394002D01*
X179605998Y-70152337D01*
X179321831Y-69962463D01*
X179006081Y-69831675D01*
X178670883Y-69765000D01*
X178329117Y-69765000D01*
X177993919Y-69831675D01*
X177678169Y-69962463D01*
X177394002Y-70152337D01*
X177152337Y-70394002D01*
X176962463Y-70678169D01*
X176831675Y-70993919D01*
X176765000Y-71329117D01*
X169037000Y-71329117D01*
X169037000Y-69710000D01*
X180290000Y-69710000D01*
X180290001Y-102290000D01*
X169936579Y-102290000D01*
X170140050Y-102086529D01*
X170173817Y-102058817D01*
X170226006Y-101995226D01*
X170284411Y-101924059D01*
X170325245Y-101847663D01*
X170366589Y-101770313D01*
X170417195Y-101603490D01*
X170427483Y-101499028D01*
X170499494Y-101460537D01*
X170596185Y-101381185D01*
X170675537Y-101284494D01*
X170712683Y-101215000D01*
X170898531Y-101215000D01*
X170942000Y-101219281D01*
X170985469Y-101215000D01*
X170985477Y-101215000D01*
X171115490Y-101202195D01*
X171282313Y-101151589D01*
X171436059Y-101069411D01*
X171570817Y-100958817D01*
X171598534Y-100925044D01*
X172194461Y-100329117D01*
X176765000Y-100329117D01*
X176765000Y-100670883D01*
X176831675Y-101006081D01*
X176962463Y-101321831D01*
X177152337Y-101605998D01*
X177394002Y-101847663D01*
X177678169Y-102037537D01*
X177993919Y-102168325D01*
X178329117Y-102235000D01*
X178670883Y-102235000D01*
X179006081Y-102168325D01*
X179321831Y-102037537D01*
X179605998Y-101847663D01*
X179847663Y-101605998D01*
X180037537Y-101321831D01*
X180168325Y-101006081D01*
X180235000Y-100670883D01*
X180235000Y-100329117D01*
X180168325Y-99993919D01*
X180037537Y-99678169D01*
X179847663Y-99394002D01*
X179605998Y-99152337D01*
X179321831Y-98962463D01*
X179006081Y-98831675D01*
X178670883Y-98765000D01*
X178329117Y-98765000D01*
X177993919Y-98831675D01*
X177678169Y-98962463D01*
X177394002Y-99152337D01*
X177152337Y-99394002D01*
X176962463Y-99678169D01*
X176831675Y-99993919D01*
X176765000Y-100329117D01*
X172194461Y-100329117D01*
X173055049Y-99468530D01*
X173088817Y-99440817D01*
X173123907Y-99398061D01*
X173199410Y-99306060D01*
X173213973Y-99278815D01*
X173281589Y-99152313D01*
X173332195Y-98985490D01*
X173345000Y-98855477D01*
X173345000Y-98855467D01*
X173349281Y-98812001D01*
X173345000Y-98768535D01*
X173345000Y-94786925D01*
X173458877Y-94710836D01*
X173460498Y-94716180D01*
X173519463Y-94826494D01*
X173598815Y-94923185D01*
X173695506Y-95002537D01*
X173805820Y-95061502D01*
X173925518Y-95097812D01*
X174050000Y-95110072D01*
X175950000Y-95110072D01*
X176074482Y-95097812D01*
X176194180Y-95061502D01*
X176304494Y-95002537D01*
X176401185Y-94923185D01*
X176480537Y-94826494D01*
X176539502Y-94716180D01*
X176575812Y-94596482D01*
X176588072Y-94472000D01*
X176588072Y-92472000D01*
X176575812Y-92347518D01*
X176539502Y-92227820D01*
X176480537Y-92117506D01*
X176401185Y-92020815D01*
X176304494Y-91941463D01*
X176194180Y-91882498D01*
X176074482Y-91846188D01*
X175950000Y-91833928D01*
X174050000Y-91833928D01*
X173925518Y-91846188D01*
X173805820Y-91882498D01*
X173695506Y-91941463D01*
X173598815Y-92020815D01*
X173519463Y-92117506D01*
X173460498Y-92227820D01*
X173458877Y-92233164D01*
X173345000Y-92157075D01*
X173345000Y-87314925D01*
X173458877Y-87238836D01*
X173460498Y-87244180D01*
X173519463Y-87354494D01*
X173598815Y-87451185D01*
X173695506Y-87530537D01*
X173805820Y-87589502D01*
X173925518Y-87625812D01*
X174050000Y-87638072D01*
X175950000Y-87638072D01*
X176074482Y-87625812D01*
X176194180Y-87589502D01*
X176304494Y-87530537D01*
X176401185Y-87451185D01*
X176480537Y-87354494D01*
X176539502Y-87244180D01*
X176575812Y-87124482D01*
X176588072Y-87000000D01*
X176588072Y-85000000D01*
X176575812Y-84875518D01*
X176539502Y-84755820D01*
X176480537Y-84645506D01*
X176401185Y-84548815D01*
X176304494Y-84469463D01*
X176194180Y-84410498D01*
X176074482Y-84374188D01*
X175950000Y-84361928D01*
X174050000Y-84361928D01*
X173925518Y-84374188D01*
X173805820Y-84410498D01*
X173695506Y-84469463D01*
X173598815Y-84548815D01*
X173519463Y-84645506D01*
X173460498Y-84755820D01*
X173458877Y-84761164D01*
X173345000Y-84685075D01*
X173345000Y-79996505D01*
X173458877Y-79920416D01*
X173460498Y-79925760D01*
X173519463Y-80036074D01*
X173598815Y-80132765D01*
X173695506Y-80212117D01*
X173805820Y-80271082D01*
X173925518Y-80307392D01*
X174050000Y-80319652D01*
X175950000Y-80319652D01*
X176074482Y-80307392D01*
X176194180Y-80271082D01*
X176304494Y-80212117D01*
X176401185Y-80132765D01*
X176480537Y-80036074D01*
X176539502Y-79925760D01*
X176575812Y-79806062D01*
X176588072Y-79681580D01*
X176588072Y-77681580D01*
X176575812Y-77557098D01*
X176539502Y-77437400D01*
X176480537Y-77327086D01*
X176401185Y-77230395D01*
X176304494Y-77151043D01*
X176194180Y-77092078D01*
X176074482Y-77055768D01*
X175950000Y-77043508D01*
X174050000Y-77043508D01*
X173925518Y-77055768D01*
X173805820Y-77092078D01*
X173695506Y-77151043D01*
X173598815Y-77230395D01*
X173519463Y-77327086D01*
X173460498Y-77437400D01*
X173458877Y-77442744D01*
X173210779Y-77276971D01*
X172922327Y-77157491D01*
X172616109Y-77096580D01*
X172303891Y-77096580D01*
X171997673Y-77157491D01*
X171709221Y-77276971D01*
X171449621Y-77450430D01*
X171228850Y-77671201D01*
X171055391Y-77930801D01*
X170935911Y-78219253D01*
X170875000Y-78525471D01*
X170875000Y-78837689D01*
X170935911Y-79143907D01*
X171055391Y-79432359D01*
X171228850Y-79691959D01*
X171449621Y-79912730D01*
X171575000Y-79996506D01*
X171575001Y-84685074D01*
X171449621Y-84768850D01*
X171228850Y-84989621D01*
X171055391Y-85249221D01*
X170935911Y-85537673D01*
X170875000Y-85843891D01*
X170875000Y-86156109D01*
X170935911Y-86462327D01*
X171055391Y-86750779D01*
X171228850Y-87010379D01*
X171449621Y-87231150D01*
X171575000Y-87314926D01*
X171575001Y-92157074D01*
X171449621Y-92240850D01*
X171228850Y-92461621D01*
X171055391Y-92721221D01*
X170935911Y-93009673D01*
X170875000Y-93315891D01*
X170875000Y-93628109D01*
X170935911Y-93934327D01*
X171055391Y-94222779D01*
X171228850Y-94482379D01*
X171449621Y-94703150D01*
X171575000Y-94786926D01*
X171575001Y-98445420D01*
X170661734Y-99358687D01*
X170596185Y-99278815D01*
X170499494Y-99199463D01*
X170389180Y-99140498D01*
X170269482Y-99104188D01*
X170145000Y-99091928D01*
X168945000Y-99091928D01*
X168820518Y-99104188D01*
X168700820Y-99140498D01*
X168590506Y-99199463D01*
X168493815Y-99278815D01*
X168414463Y-99375506D01*
X168387501Y-99425947D01*
X168332267Y-99370713D01*
X168129992Y-99235557D01*
X167905236Y-99142460D01*
X167666637Y-99095000D01*
X167423363Y-99095000D01*
X167184764Y-99142460D01*
X166960008Y-99235557D01*
X166757733Y-99370713D01*
X166585713Y-99542733D01*
X166545000Y-99603664D01*
X166504287Y-99542733D01*
X166332267Y-99370713D01*
X166129992Y-99235557D01*
X165905236Y-99142460D01*
X165666637Y-99095000D01*
X165423363Y-99095000D01*
X165184764Y-99142460D01*
X164960008Y-99235557D01*
X164757733Y-99370713D01*
X164585713Y-99542733D01*
X164493504Y-99680733D01*
X164394764Y-99659841D01*
X163724605Y-100330000D01*
X164394764Y-101000159D01*
X164493504Y-100979267D01*
X164585713Y-101117267D01*
X164686968Y-101218522D01*
X164207067Y-101218007D01*
X164215159Y-101179764D01*
X163545000Y-100509605D01*
X162874841Y-101179764D01*
X162882632Y-101216588D01*
X161766972Y-101215393D01*
X160960017Y-100408438D01*
X162306505Y-100408438D01*
X162345605Y-100648549D01*
X162430798Y-100876418D01*
X162471652Y-100952852D01*
X162695236Y-101000159D01*
X163365395Y-100330000D01*
X162695236Y-99659841D01*
X162471652Y-99707148D01*
X162370763Y-99928516D01*
X162315000Y-100165313D01*
X162306505Y-100408438D01*
X160960017Y-100408438D01*
X160031815Y-99480236D01*
X162874841Y-99480236D01*
X163545000Y-100150395D01*
X164215159Y-99480236D01*
X164167852Y-99256652D01*
X163946484Y-99155763D01*
X163709687Y-99100000D01*
X163466562Y-99091505D01*
X163226451Y-99130605D01*
X162998582Y-99215798D01*
X162922148Y-99256652D01*
X162874841Y-99480236D01*
X160031815Y-99480236D01*
X152536535Y-91984957D01*
X152508818Y-91951184D01*
X152374060Y-91840590D01*
X152220314Y-91758412D01*
X152053491Y-91707806D01*
X151923478Y-91695001D01*
X151923470Y-91695001D01*
X151880001Y-91690720D01*
X151836532Y-91695001D01*
X146286580Y-91695001D01*
X143754535Y-89162957D01*
X143743226Y-89106102D01*
X143665205Y-88917744D01*
X143633000Y-88869546D01*
X143633000Y-87775469D01*
X143637281Y-87732000D01*
X143633000Y-87688531D01*
X143633000Y-87688523D01*
X143620195Y-87558510D01*
X143569589Y-87391687D01*
X143487411Y-87237941D01*
X143376817Y-87103183D01*
X143343051Y-87075472D01*
X141921651Y-85654072D01*
X143266000Y-85654072D01*
X143390482Y-85641812D01*
X143510180Y-85605502D01*
X143620494Y-85546537D01*
X143717185Y-85467185D01*
X143796537Y-85370494D01*
X143855502Y-85260180D01*
X143891812Y-85140482D01*
X143904072Y-85016000D01*
X143904072Y-82984000D01*
X143891812Y-82859518D01*
X143855502Y-82739820D01*
X143796537Y-82629506D01*
X143717185Y-82532815D01*
X143620494Y-82453463D01*
X143584636Y-82434296D01*
X143713097Y-82242042D01*
X143837553Y-81941579D01*
X143901000Y-81622609D01*
X143901000Y-81297391D01*
X143837553Y-80978421D01*
X143713097Y-80677958D01*
X143532415Y-80407549D01*
X143521317Y-80396451D01*
X143659774Y-80303937D01*
X143803937Y-80159774D01*
X143917205Y-79990256D01*
X143995226Y-79801898D01*
X144035000Y-79601939D01*
X144035000Y-79398061D01*
X143995226Y-79198102D01*
X143917205Y-79009744D01*
X143803937Y-78840226D01*
X143659774Y-78696063D01*
X143490256Y-78582795D01*
X143301898Y-78504774D01*
X143101939Y-78465000D01*
X142898061Y-78465000D01*
X142698102Y-78504774D01*
X142509744Y-78582795D01*
X142448511Y-78623709D01*
X139233804Y-75409003D01*
X139210001Y-75379999D01*
X139094276Y-75285026D01*
X138962247Y-75214454D01*
X138818986Y-75170997D01*
X138707333Y-75160000D01*
X138707322Y-75160000D01*
X138670000Y-75156324D01*
X138632678Y-75160000D01*
X135945416Y-75160000D01*
X135904469Y-75083394D01*
X135717197Y-74855203D01*
X135489006Y-74667931D01*
X135228664Y-74528775D01*
X134946177Y-74443084D01*
X134726019Y-74421400D01*
X134273981Y-74421400D01*
X134053823Y-74443084D01*
X133771336Y-74528775D01*
X133510994Y-74667931D01*
X133282803Y-74855203D01*
X133095531Y-75083394D01*
X132956375Y-75343736D01*
X132870684Y-75626223D01*
X132841749Y-75920000D01*
X132870684Y-76213777D01*
X132956375Y-76496264D01*
X133095531Y-76756606D01*
X133282803Y-76984797D01*
X133510994Y-77172069D01*
X133550947Y-77193424D01*
X133348271Y-77341514D01*
X133149267Y-77557965D01*
X132996314Y-77809081D01*
X132895291Y-78085211D01*
X132892642Y-78100974D01*
X133013783Y-78333000D01*
X134373000Y-78333000D01*
X134373000Y-78313000D01*
X134627000Y-78313000D01*
X134627000Y-78333000D01*
X135986217Y-78333000D01*
X136107358Y-78100974D01*
X136104709Y-78085211D01*
X136003686Y-77809081D01*
X135850733Y-77557965D01*
X135651729Y-77341514D01*
X135449053Y-77193424D01*
X135489006Y-77172069D01*
X135717197Y-76984797D01*
X135904469Y-76756606D01*
X135945416Y-76680000D01*
X138355199Y-76680000D01*
X141612309Y-79937111D01*
X141467958Y-79996903D01*
X141197549Y-80177585D01*
X140967585Y-80407549D01*
X140786903Y-80677958D01*
X140662447Y-80978421D01*
X140599000Y-81297391D01*
X140599000Y-81622609D01*
X140662447Y-81941579D01*
X140786903Y-82242042D01*
X140915364Y-82434296D01*
X140879506Y-82453463D01*
X140782815Y-82532815D01*
X140703463Y-82629506D01*
X140644498Y-82739820D01*
X140608188Y-82859518D01*
X140595928Y-82984000D01*
X140595928Y-84328349D01*
X136672534Y-80404956D01*
X136644817Y-80371183D01*
X136510059Y-80260589D01*
X136356313Y-80178411D01*
X136189490Y-80127805D01*
X136152870Y-80124198D01*
X136141812Y-80011918D01*
X136105502Y-79892220D01*
X136046537Y-79781906D01*
X135967185Y-79685215D01*
X135870494Y-79605863D01*
X135760180Y-79546898D01*
X135698088Y-79528063D01*
X135850733Y-79362035D01*
X136003686Y-79110919D01*
X136104709Y-78834789D01*
X136107358Y-78819026D01*
X135986217Y-78587000D01*
X134627000Y-78587000D01*
X134627000Y-78607000D01*
X134373000Y-78607000D01*
X134373000Y-78587000D01*
X133013783Y-78587000D01*
X132892642Y-78819026D01*
X132895291Y-78834789D01*
X132996314Y-79110919D01*
X133149267Y-79362035D01*
X133301912Y-79528063D01*
X133239820Y-79546898D01*
X133129506Y-79605863D01*
X133032815Y-79685215D01*
X132953463Y-79781906D01*
X132894498Y-79892220D01*
X132858188Y-80011918D01*
X132845928Y-80136400D01*
X132845928Y-81863600D01*
X132858188Y-81988082D01*
X132894498Y-82107780D01*
X132953463Y-82218094D01*
X133032815Y-82314785D01*
X133129506Y-82394137D01*
X133239820Y-82453102D01*
X133359518Y-82489412D01*
X133484000Y-82501672D01*
X135516000Y-82501672D01*
X135640482Y-82489412D01*
X135760180Y-82453102D01*
X135870494Y-82394137D01*
X135967185Y-82314785D01*
X136017679Y-82253257D01*
X141863000Y-88098579D01*
X141863001Y-88869545D01*
X141830795Y-88917744D01*
X141752774Y-89106102D01*
X141713000Y-89306061D01*
X141713000Y-89509939D01*
X141752774Y-89709898D01*
X141830795Y-89898256D01*
X141944063Y-90067774D01*
X142088226Y-90211937D01*
X142257744Y-90325205D01*
X142446102Y-90403226D01*
X142502957Y-90414535D01*
X145263471Y-93175050D01*
X145291184Y-93208818D01*
X145324952Y-93236531D01*
X145324954Y-93236533D01*
X145400473Y-93298510D01*
X145425942Y-93319412D01*
X145579688Y-93401590D01*
X145746511Y-93452196D01*
X145876524Y-93465001D01*
X145876532Y-93465001D01*
X145920001Y-93469282D01*
X145963470Y-93465001D01*
X151513423Y-93465001D01*
X156042355Y-97993934D01*
X155946063Y-98090226D01*
X155832795Y-98259744D01*
X155754774Y-98448102D01*
X155715000Y-98648061D01*
X155715000Y-98851939D01*
X155739015Y-98972674D01*
X155736324Y-99000000D01*
X155740000Y-99037323D01*
X155740001Y-100296288D01*
X155696063Y-100340226D01*
X155582795Y-100509744D01*
X155504774Y-100698102D01*
X155465000Y-100898061D01*
X155465000Y-101101939D01*
X155504774Y-101301898D01*
X155582795Y-101490256D01*
X155696063Y-101659774D01*
X155840226Y-101803937D01*
X156009744Y-101917205D01*
X156198102Y-101995226D01*
X156398061Y-102035000D01*
X156601939Y-102035000D01*
X156801898Y-101995226D01*
X156990256Y-101917205D01*
X157159774Y-101803937D01*
X157303937Y-101659774D01*
X157417205Y-101490256D01*
X157495226Y-101301898D01*
X157535000Y-101101939D01*
X157535000Y-100898061D01*
X157495226Y-100698102D01*
X157417205Y-100509744D01*
X157303937Y-100340226D01*
X157260000Y-100296289D01*
X157260000Y-99654013D01*
X157409774Y-99553937D01*
X157506066Y-99457645D01*
X160338421Y-102290000D01*
X148319218Y-102290000D01*
X148444294Y-102105380D01*
X148536974Y-101885619D01*
X148585000Y-101652000D01*
X148585000Y-101327000D01*
X147502000Y-101327000D01*
X147502000Y-101347000D01*
X147248000Y-101347000D01*
X147248000Y-101327000D01*
X146165000Y-101327000D01*
X146165000Y-101652000D01*
X146213026Y-101885619D01*
X146305706Y-102105380D01*
X146430782Y-102290000D01*
X140569218Y-102290000D01*
X140694294Y-102105380D01*
X140786974Y-101885619D01*
X140835000Y-101652000D01*
X140835000Y-101327000D01*
X139752000Y-101327000D01*
X139752000Y-101347000D01*
X139498000Y-101347000D01*
X139498000Y-101327000D01*
X138415000Y-101327000D01*
X138415000Y-101652000D01*
X138463026Y-101885619D01*
X138555706Y-102105380D01*
X138680782Y-102290000D01*
X132710000Y-102290000D01*
X132710000Y-100329117D01*
X132765000Y-100329117D01*
X132765000Y-100670883D01*
X132831675Y-101006081D01*
X132962463Y-101321831D01*
X133152337Y-101605998D01*
X133394002Y-101847663D01*
X133678169Y-102037537D01*
X133993919Y-102168325D01*
X134329117Y-102235000D01*
X134670883Y-102235000D01*
X135006081Y-102168325D01*
X135321831Y-102037537D01*
X135605998Y-101847663D01*
X135847663Y-101605998D01*
X136037537Y-101321831D01*
X136168325Y-101006081D01*
X136219660Y-100748000D01*
X138415000Y-100748000D01*
X138415000Y-101073000D01*
X139498000Y-101073000D01*
X139498000Y-99831450D01*
X139752000Y-99831450D01*
X139752000Y-101073000D01*
X140835000Y-101073000D01*
X140835000Y-100748000D01*
X146165000Y-100748000D01*
X146165000Y-101073000D01*
X147248000Y-101073000D01*
X147248000Y-99831450D01*
X147502000Y-99831450D01*
X147502000Y-101073000D01*
X148585000Y-101073000D01*
X148585000Y-100748000D01*
X148536974Y-100514381D01*
X148444294Y-100294620D01*
X148310521Y-100097163D01*
X148140797Y-99929598D01*
X147941644Y-99798364D01*
X147720715Y-99708504D01*
X147688677Y-99706365D01*
X147502000Y-99831450D01*
X147248000Y-99831450D01*
X147061323Y-99706365D01*
X147029285Y-99708504D01*
X146808356Y-99798364D01*
X146609203Y-99929598D01*
X146439479Y-100097163D01*
X146305706Y-100294620D01*
X146213026Y-100514381D01*
X146165000Y-100748000D01*
X140835000Y-100748000D01*
X140786974Y-100514381D01*
X140694294Y-100294620D01*
X140560521Y-100097163D01*
X140390797Y-99929598D01*
X140191644Y-99798364D01*
X139970715Y-99708504D01*
X139938677Y-99706365D01*
X139752000Y-99831450D01*
X139498000Y-99831450D01*
X139311323Y-99706365D01*
X139279285Y-99708504D01*
X139058356Y-99798364D01*
X138859203Y-99929598D01*
X138689479Y-100097163D01*
X138555706Y-100294620D01*
X138463026Y-100514381D01*
X138415000Y-100748000D01*
X136219660Y-100748000D01*
X136235000Y-100670883D01*
X136235000Y-100329117D01*
X136168325Y-99993919D01*
X136037537Y-99678169D01*
X135847663Y-99394002D01*
X135605998Y-99152337D01*
X135321831Y-98962463D01*
X135006081Y-98831675D01*
X134670883Y-98765000D01*
X134329117Y-98765000D01*
X133993919Y-98831675D01*
X133678169Y-98962463D01*
X133394002Y-99152337D01*
X133152337Y-99394002D01*
X132962463Y-99678169D01*
X132831675Y-99993919D01*
X132765000Y-100329117D01*
X132710000Y-100329117D01*
X132710000Y-97527000D01*
X138415000Y-97527000D01*
X138415000Y-97802000D01*
X138465908Y-98064883D01*
X138567124Y-98312783D01*
X138714758Y-98536173D01*
X138903137Y-98726469D01*
X139125021Y-98876357D01*
X139371883Y-98980078D01*
X139437742Y-98992519D01*
X139648000Y-98869518D01*
X139648000Y-97527000D01*
X139902000Y-97527000D01*
X139902000Y-98869518D01*
X140112258Y-98992519D01*
X140117104Y-98991604D01*
X140196063Y-99109774D01*
X140340226Y-99253937D01*
X140509744Y-99367205D01*
X140698102Y-99445226D01*
X140898061Y-99485000D01*
X141101939Y-99485000D01*
X141301898Y-99445226D01*
X141490256Y-99367205D01*
X141659774Y-99253937D01*
X141803937Y-99109774D01*
X141917205Y-98940256D01*
X141995226Y-98751898D01*
X142035000Y-98551939D01*
X142035000Y-98348061D01*
X144965000Y-98348061D01*
X144965000Y-98551939D01*
X145004774Y-98751898D01*
X145082795Y-98940256D01*
X145196063Y-99109774D01*
X145340226Y-99253937D01*
X145509744Y-99367205D01*
X145698102Y-99445226D01*
X145898061Y-99485000D01*
X146101939Y-99485000D01*
X146301898Y-99445226D01*
X146490256Y-99367205D01*
X146659774Y-99253937D01*
X146803937Y-99109774D01*
X146882896Y-98991604D01*
X146887742Y-98992519D01*
X147098000Y-98869518D01*
X147098000Y-97527000D01*
X147352000Y-97527000D01*
X147352000Y-98869518D01*
X147562258Y-98992519D01*
X147628117Y-98980078D01*
X147874979Y-98876357D01*
X148096863Y-98726469D01*
X148285242Y-98536173D01*
X148432876Y-98312783D01*
X148534092Y-98064883D01*
X148585000Y-97802000D01*
X148585000Y-97527000D01*
X147352000Y-97527000D01*
X147098000Y-97527000D01*
X146476266Y-97527000D01*
X146301898Y-97454774D01*
X146101939Y-97415000D01*
X145898061Y-97415000D01*
X145698102Y-97454774D01*
X145509744Y-97532795D01*
X145340226Y-97646063D01*
X145196063Y-97790226D01*
X145082795Y-97959744D01*
X145004774Y-98148102D01*
X144965000Y-98348061D01*
X142035000Y-98348061D01*
X141995226Y-98148102D01*
X141917205Y-97959744D01*
X141803937Y-97790226D01*
X141659774Y-97646063D01*
X141490256Y-97532795D01*
X141301898Y-97454774D01*
X141101939Y-97415000D01*
X140898061Y-97415000D01*
X140698102Y-97454774D01*
X140523734Y-97527000D01*
X139902000Y-97527000D01*
X139648000Y-97527000D01*
X138415000Y-97527000D01*
X132710000Y-97527000D01*
X132710000Y-96998000D01*
X138415000Y-96998000D01*
X138415000Y-97273000D01*
X139648000Y-97273000D01*
X139648000Y-95930482D01*
X139902000Y-95930482D01*
X139902000Y-97273000D01*
X141135000Y-97273000D01*
X141135000Y-96998000D01*
X145865000Y-96998000D01*
X145865000Y-97273000D01*
X147098000Y-97273000D01*
X147098000Y-95930482D01*
X147352000Y-95930482D01*
X147352000Y-97273000D01*
X148585000Y-97273000D01*
X148585000Y-96998000D01*
X148565647Y-96898061D01*
X150465000Y-96898061D01*
X150465000Y-97101939D01*
X150504774Y-97301898D01*
X150582795Y-97490256D01*
X150696063Y-97659774D01*
X150740000Y-97703711D01*
X150740000Y-97962666D01*
X150736323Y-98000000D01*
X150750997Y-98148986D01*
X150794454Y-98292247D01*
X150865026Y-98424276D01*
X150918142Y-98488998D01*
X150959999Y-98540001D01*
X151075724Y-98634974D01*
X151207753Y-98705546D01*
X151351014Y-98749003D01*
X151500000Y-98763677D01*
X151537333Y-98760000D01*
X151685199Y-98760000D01*
X151730744Y-98805545D01*
X151696063Y-98840226D01*
X151582795Y-99009744D01*
X151504774Y-99198102D01*
X151465000Y-99398061D01*
X151465000Y-99601939D01*
X151504774Y-99801898D01*
X151582795Y-99990256D01*
X151696063Y-100159774D01*
X151840226Y-100303937D01*
X152009744Y-100417205D01*
X152198102Y-100495226D01*
X152398061Y-100535000D01*
X152601939Y-100535000D01*
X152801898Y-100495226D01*
X152990256Y-100417205D01*
X153159774Y-100303937D01*
X153303937Y-100159774D01*
X153417205Y-99990256D01*
X153495226Y-99801898D01*
X153535000Y-99601939D01*
X153535000Y-99398061D01*
X153495226Y-99198102D01*
X153417205Y-99009744D01*
X153303937Y-98840226D01*
X153260000Y-98796289D01*
X153260000Y-98537325D01*
X153263676Y-98500000D01*
X153260000Y-98462675D01*
X153260000Y-98462667D01*
X153249003Y-98351014D01*
X153205546Y-98207753D01*
X153134974Y-98075724D01*
X153040001Y-97959999D01*
X153010998Y-97936197D01*
X152563804Y-97489003D01*
X152540001Y-97459999D01*
X152457711Y-97392466D01*
X152495226Y-97301898D01*
X152535000Y-97101939D01*
X152535000Y-96898061D01*
X152495226Y-96698102D01*
X152417205Y-96509744D01*
X152303937Y-96340226D01*
X152159774Y-96196063D01*
X151990256Y-96082795D01*
X151801898Y-96004774D01*
X151601939Y-95965000D01*
X151398061Y-95965000D01*
X151198102Y-96004774D01*
X151009744Y-96082795D01*
X150840226Y-96196063D01*
X150696063Y-96340226D01*
X150582795Y-96509744D01*
X150504774Y-96698102D01*
X150465000Y-96898061D01*
X148565647Y-96898061D01*
X148534092Y-96735117D01*
X148432876Y-96487217D01*
X148285242Y-96263827D01*
X148096863Y-96073531D01*
X147874979Y-95923643D01*
X147628117Y-95819922D01*
X147562258Y-95807481D01*
X147352000Y-95930482D01*
X147098000Y-95930482D01*
X146887742Y-95807481D01*
X146821883Y-95819922D01*
X146575021Y-95923643D01*
X146353137Y-96073531D01*
X146164758Y-96263827D01*
X146017124Y-96487217D01*
X145915908Y-96735117D01*
X145865000Y-96998000D01*
X141135000Y-96998000D01*
X141084092Y-96735117D01*
X140982876Y-96487217D01*
X140835242Y-96263827D01*
X140646863Y-96073531D01*
X140424979Y-95923643D01*
X140178117Y-95819922D01*
X140112258Y-95807481D01*
X139902000Y-95930482D01*
X139648000Y-95930482D01*
X139437742Y-95807481D01*
X139371883Y-95819922D01*
X139125021Y-95923643D01*
X138903137Y-96073531D01*
X138714758Y-96263827D01*
X138567124Y-96487217D01*
X138465908Y-96735117D01*
X138415000Y-96998000D01*
X132710000Y-96998000D01*
X132710000Y-71329117D01*
X132765000Y-71329117D01*
X132765000Y-71670883D01*
X132831675Y-72006081D01*
X132962463Y-72321831D01*
X133152337Y-72605998D01*
X133394002Y-72847663D01*
X133678169Y-73037537D01*
X133993919Y-73168325D01*
X134329117Y-73235000D01*
X134670883Y-73235000D01*
X135006081Y-73168325D01*
X135321831Y-73037537D01*
X135605998Y-72847663D01*
X135847663Y-72605998D01*
X136037537Y-72321831D01*
X136168325Y-72006081D01*
X136235000Y-71670883D01*
X136235000Y-71329117D01*
X136168325Y-70993919D01*
X136037537Y-70678169D01*
X135847663Y-70394002D01*
X135605998Y-70152337D01*
X135321831Y-69962463D01*
X135006081Y-69831675D01*
X134670883Y-69765000D01*
X134329117Y-69765000D01*
X133993919Y-69831675D01*
X133678169Y-69962463D01*
X133394002Y-70152337D01*
X133152337Y-70394002D01*
X132962463Y-70678169D01*
X132831675Y-70993919D01*
X132765000Y-71329117D01*
X132710000Y-71329117D01*
X132710000Y-69710000D01*
X140373000Y-69710000D01*
X140373000Y-75500000D01*
M02*
