M48
; DRILL file {KiCad (5.1.5)-3} date 2020/03/31 22:24:36
; FORMAT={-:-/ absolute / metric / decimal}
; #@! TF.CreationDate,2020-03-31T22:24:36+09:00
; #@! TF.GenerationSoftware,Kicad,Pcbnew,(5.1.5)-3
FMAT,2
METRIC
T1C0.400
T2C0.550
T3C0.800
T4C0.850
T5C1.001
T6C1.016
T7C0.800
%
G90
G05
T1
X131.0Y-87.0
X132.08Y-96.52
X138.176Y-72.136
X139.954Y-86.106
X139.954Y-91.186
X140.716Y-81.534
X142.748Y-88.9
X144.399Y-99.949
X148.59Y-95.25
X149.758Y-88.087
X150.368Y-93.472
X151.892Y-83.058
X155.0Y-95.903
X156.739Y-95.261
X159.258Y-98.298
X160.579Y-83.058
X165.608Y-90.373
X166.5Y-95.5
X169.164Y-90.424
X169.5Y-95.5
X172.669Y-73.355
X176.276Y-81.737
X176.276Y-89.51
T3
X163.545Y-100.33
X165.545Y-100.33
X167.545Y-100.33
X169.545Y-100.33
T5
X171.19Y-78.682
X173.73Y-78.682
X171.19Y-93.472
X173.73Y-93.472
X171.19Y-86.0
X173.73Y-86.0
T6
X133.35Y-76.2
X133.35Y-78.74
X133.35Y-81.28
T7
X141.0Y-98.45
X146.0Y-98.45
T2
G00X139.625Y-100.875
M15
G01X139.625Y-101.525
M16
G05
G00X147.375Y-100.875
M15
G01X147.375Y-101.525
M16
G05
T4
G00X139.775Y-97.125
M15
G01X139.775Y-97.675
M16
G05
G00X147.225Y-97.125
M15
G01X147.225Y-97.675
M16
G05
T0
M30
