G04 #@! TF.GenerationSoftware,KiCad,Pcbnew,(5.1.5)-3*
G04 #@! TF.CreationDate,2020-03-31T22:24:07+09:00*
G04 #@! TF.ProjectId,irController,6972436f-6e74-4726-9f6c-6c65722e6b69,rev?*
G04 #@! TF.SameCoordinates,Original*
G04 #@! TF.FileFunction,Legend,Bot*
G04 #@! TF.FilePolarity,Positive*
%FSLAX46Y46*%
G04 Gerber Fmt 4.6, Leading zero omitted, Abs format (unit mm)*
G04 Created by KiCad (PCBNEW (5.1.5)-3) date 2020-03-31 22:24:07*
%MOMM*%
%LPD*%
G04 APERTURE LIST*
%ADD10C,0.150000*%
%ADD11C,0.200000*%
G04 APERTURE END LIST*
D10*
X161761904Y-89966666D02*
X161800000Y-89928571D01*
X161876190Y-89814285D01*
X161914285Y-89738095D01*
X161952380Y-89623809D01*
X161990476Y-89433333D01*
X161990476Y-89280952D01*
X161952380Y-89090476D01*
X161914285Y-88976190D01*
X161876190Y-88900000D01*
X161800000Y-88785714D01*
X161761904Y-88747619D01*
X161000000Y-89585714D02*
X161038095Y-89623809D01*
X161152380Y-89661904D01*
X161228571Y-89661904D01*
X161342857Y-89623809D01*
X161419047Y-89547619D01*
X161457142Y-89471428D01*
X161495238Y-89319047D01*
X161495238Y-89204761D01*
X161457142Y-89052380D01*
X161419047Y-88976190D01*
X161342857Y-88900000D01*
X161228571Y-88861904D01*
X161152380Y-88861904D01*
X161038095Y-88900000D01*
X161000000Y-88938095D01*
X160733333Y-89966666D02*
X160695238Y-89928571D01*
X160619047Y-89814285D01*
X160580952Y-89738095D01*
X160542857Y-89623809D01*
X160504761Y-89433333D01*
X160504761Y-89280952D01*
X160542857Y-89090476D01*
X160580952Y-88976190D01*
X160619047Y-88900000D01*
X160695238Y-88785714D01*
X160733333Y-88747619D01*
X159552380Y-88938095D02*
X159514285Y-88900000D01*
X159438095Y-88861904D01*
X159247619Y-88861904D01*
X159171428Y-88900000D01*
X159133333Y-88938095D01*
X159095238Y-89014285D01*
X159095238Y-89090476D01*
X159133333Y-89204761D01*
X159590476Y-89661904D01*
X159095238Y-89661904D01*
X158600000Y-88861904D02*
X158523809Y-88861904D01*
X158447619Y-88900000D01*
X158409523Y-88938095D01*
X158371428Y-89014285D01*
X158333333Y-89166666D01*
X158333333Y-89357142D01*
X158371428Y-89509523D01*
X158409523Y-89585714D01*
X158447619Y-89623809D01*
X158523809Y-89661904D01*
X158600000Y-89661904D01*
X158676190Y-89623809D01*
X158714285Y-89585714D01*
X158752380Y-89509523D01*
X158790476Y-89357142D01*
X158790476Y-89166666D01*
X158752380Y-89014285D01*
X158714285Y-88938095D01*
X158676190Y-88900000D01*
X158600000Y-88861904D01*
X158028571Y-88938095D02*
X157990476Y-88900000D01*
X157914285Y-88861904D01*
X157723809Y-88861904D01*
X157647619Y-88900000D01*
X157609523Y-88938095D01*
X157571428Y-89014285D01*
X157571428Y-89090476D01*
X157609523Y-89204761D01*
X158066666Y-89661904D01*
X157571428Y-89661904D01*
X157076190Y-88861904D02*
X157000000Y-88861904D01*
X156923809Y-88900000D01*
X156885714Y-88938095D01*
X156847619Y-89014285D01*
X156809523Y-89166666D01*
X156809523Y-89357142D01*
X156847619Y-89509523D01*
X156885714Y-89585714D01*
X156923809Y-89623809D01*
X157000000Y-89661904D01*
X157076190Y-89661904D01*
X157152380Y-89623809D01*
X157190476Y-89585714D01*
X157228571Y-89509523D01*
X157266666Y-89357142D01*
X157266666Y-89166666D01*
X157228571Y-89014285D01*
X157190476Y-88938095D01*
X157152380Y-88900000D01*
X157076190Y-88861904D01*
X155857142Y-89661904D02*
X155857142Y-88861904D01*
X155590476Y-89433333D01*
X155323809Y-88861904D01*
X155323809Y-89661904D01*
X154828571Y-89661904D02*
X154904761Y-89623809D01*
X154942857Y-89585714D01*
X154980952Y-89509523D01*
X154980952Y-89280952D01*
X154942857Y-89204761D01*
X154904761Y-89166666D01*
X154828571Y-89128571D01*
X154714285Y-89128571D01*
X154638095Y-89166666D01*
X154600000Y-89204761D01*
X154561904Y-89280952D01*
X154561904Y-89509523D01*
X154600000Y-89585714D01*
X154638095Y-89623809D01*
X154714285Y-89661904D01*
X154828571Y-89661904D01*
X154104761Y-89661904D02*
X154180952Y-89623809D01*
X154219047Y-89547619D01*
X154219047Y-88861904D01*
X153876190Y-89128571D02*
X153685714Y-89661904D01*
X153495238Y-89128571D02*
X153685714Y-89661904D01*
X153761904Y-89852380D01*
X153800000Y-89890476D01*
X153876190Y-89928571D01*
X153190476Y-89661904D02*
X153190476Y-88861904D01*
X153190476Y-89166666D02*
X153114285Y-89128571D01*
X152961904Y-89128571D01*
X152885714Y-89166666D01*
X152847619Y-89204761D01*
X152809523Y-89280952D01*
X152809523Y-89509523D01*
X152847619Y-89585714D01*
X152885714Y-89623809D01*
X152961904Y-89661904D01*
X153114285Y-89661904D01*
X153190476Y-89623809D01*
X152314285Y-89280952D02*
X152314285Y-89661904D01*
X152580952Y-88861904D02*
X152314285Y-89280952D01*
X152047619Y-88861904D01*
X151780952Y-89128571D02*
X151780952Y-89661904D01*
X151780952Y-89204761D02*
X151742857Y-89166666D01*
X151666666Y-89128571D01*
X151552380Y-89128571D01*
X151476190Y-89166666D01*
X151438095Y-89242857D01*
X151438095Y-89661904D01*
X150714285Y-89128571D02*
X150714285Y-89776190D01*
X150752380Y-89852380D01*
X150790476Y-89890476D01*
X150866666Y-89928571D01*
X150980952Y-89928571D01*
X151057142Y-89890476D01*
X150714285Y-89623809D02*
X150790476Y-89661904D01*
X150942857Y-89661904D01*
X151019047Y-89623809D01*
X151057142Y-89585714D01*
X151095238Y-89509523D01*
X151095238Y-89280952D01*
X151057142Y-89204761D01*
X151019047Y-89166666D01*
X150942857Y-89128571D01*
X150790476Y-89128571D01*
X150714285Y-89166666D01*
X150066666Y-89242857D02*
X150333333Y-89242857D01*
X150333333Y-89661904D02*
X150333333Y-88861904D01*
X149952380Y-88861904D01*
X149533333Y-89661904D02*
X149609523Y-89623809D01*
X149647619Y-89547619D01*
X149647619Y-88861904D01*
D11*
X165938095Y-87852380D02*
X165938095Y-86852380D01*
X164890476Y-87852380D02*
X165223809Y-87376190D01*
X165461904Y-87852380D02*
X165461904Y-86852380D01*
X165080952Y-86852380D01*
X164985714Y-86900000D01*
X164938095Y-86947619D01*
X164890476Y-87042857D01*
X164890476Y-87185714D01*
X164938095Y-87280952D01*
X164985714Y-87328571D01*
X165080952Y-87376190D01*
X165461904Y-87376190D01*
X163128571Y-87852380D02*
X163461904Y-87376190D01*
X163700000Y-87852380D02*
X163700000Y-86852380D01*
X163319047Y-86852380D01*
X163223809Y-86900000D01*
X163176190Y-86947619D01*
X163128571Y-87042857D01*
X163128571Y-87185714D01*
X163176190Y-87280952D01*
X163223809Y-87328571D01*
X163319047Y-87376190D01*
X163700000Y-87376190D01*
X162319047Y-87804761D02*
X162414285Y-87852380D01*
X162604761Y-87852380D01*
X162700000Y-87804761D01*
X162747619Y-87709523D01*
X162747619Y-87328571D01*
X162700000Y-87233333D01*
X162604761Y-87185714D01*
X162414285Y-87185714D01*
X162319047Y-87233333D01*
X162271428Y-87328571D01*
X162271428Y-87423809D01*
X162747619Y-87519047D01*
X161842857Y-87852380D02*
X161842857Y-87185714D01*
X161842857Y-87280952D02*
X161795238Y-87233333D01*
X161700000Y-87185714D01*
X161557142Y-87185714D01*
X161461904Y-87233333D01*
X161414285Y-87328571D01*
X161414285Y-87852380D01*
X161414285Y-87328571D02*
X161366666Y-87233333D01*
X161271428Y-87185714D01*
X161128571Y-87185714D01*
X161033333Y-87233333D01*
X160985714Y-87328571D01*
X160985714Y-87852380D01*
X160366666Y-87852380D02*
X160461904Y-87804761D01*
X160509523Y-87757142D01*
X160557142Y-87661904D01*
X160557142Y-87376190D01*
X160509523Y-87280952D01*
X160461904Y-87233333D01*
X160366666Y-87185714D01*
X160223809Y-87185714D01*
X160128571Y-87233333D01*
X160080952Y-87280952D01*
X160033333Y-87376190D01*
X160033333Y-87661904D01*
X160080952Y-87757142D01*
X160128571Y-87804761D01*
X160223809Y-87852380D01*
X160366666Y-87852380D01*
X159747619Y-87185714D02*
X159366666Y-87185714D01*
X159604761Y-86852380D02*
X159604761Y-87709523D01*
X159557142Y-87804761D01*
X159461904Y-87852380D01*
X159366666Y-87852380D01*
X158652380Y-87804761D02*
X158747619Y-87852380D01*
X158938095Y-87852380D01*
X159033333Y-87804761D01*
X159080952Y-87709523D01*
X159080952Y-87328571D01*
X159033333Y-87233333D01*
X158938095Y-87185714D01*
X158747619Y-87185714D01*
X158652380Y-87233333D01*
X158604761Y-87328571D01*
X158604761Y-87423809D01*
X159080952Y-87519047D01*
X156842857Y-87757142D02*
X156890476Y-87804761D01*
X157033333Y-87852380D01*
X157128571Y-87852380D01*
X157271428Y-87804761D01*
X157366666Y-87709523D01*
X157414285Y-87614285D01*
X157461904Y-87423809D01*
X157461904Y-87280952D01*
X157414285Y-87090476D01*
X157366666Y-86995238D01*
X157271428Y-86900000D01*
X157128571Y-86852380D01*
X157033333Y-86852380D01*
X156890476Y-86900000D01*
X156842857Y-86947619D01*
X156271428Y-87852380D02*
X156366666Y-87804761D01*
X156414285Y-87757142D01*
X156461904Y-87661904D01*
X156461904Y-87376190D01*
X156414285Y-87280952D01*
X156366666Y-87233333D01*
X156271428Y-87185714D01*
X156128571Y-87185714D01*
X156033333Y-87233333D01*
X155985714Y-87280952D01*
X155938095Y-87376190D01*
X155938095Y-87661904D01*
X155985714Y-87757142D01*
X156033333Y-87804761D01*
X156128571Y-87852380D01*
X156271428Y-87852380D01*
X155509523Y-87185714D02*
X155509523Y-87852380D01*
X155509523Y-87280952D02*
X155461904Y-87233333D01*
X155366666Y-87185714D01*
X155223809Y-87185714D01*
X155128571Y-87233333D01*
X155080952Y-87328571D01*
X155080952Y-87852380D01*
X154747619Y-87185714D02*
X154366666Y-87185714D01*
X154604761Y-86852380D02*
X154604761Y-87709523D01*
X154557142Y-87804761D01*
X154461904Y-87852380D01*
X154366666Y-87852380D01*
X154033333Y-87852380D02*
X154033333Y-87185714D01*
X154033333Y-87376190D02*
X153985714Y-87280952D01*
X153938095Y-87233333D01*
X153842857Y-87185714D01*
X153747619Y-87185714D01*
X153271428Y-87852380D02*
X153366666Y-87804761D01*
X153414285Y-87757142D01*
X153461904Y-87661904D01*
X153461904Y-87376190D01*
X153414285Y-87280952D01*
X153366666Y-87233333D01*
X153271428Y-87185714D01*
X153128571Y-87185714D01*
X153033333Y-87233333D01*
X152985714Y-87280952D01*
X152938095Y-87376190D01*
X152938095Y-87661904D01*
X152985714Y-87757142D01*
X153033333Y-87804761D01*
X153128571Y-87852380D01*
X153271428Y-87852380D01*
X152366666Y-87852380D02*
X152461904Y-87804761D01*
X152509523Y-87709523D01*
X152509523Y-86852380D01*
X151842857Y-87852380D02*
X151938095Y-87804761D01*
X151985714Y-87709523D01*
X151985714Y-86852380D01*
X151080952Y-87804761D02*
X151176190Y-87852380D01*
X151366666Y-87852380D01*
X151461904Y-87804761D01*
X151509523Y-87709523D01*
X151509523Y-87328571D01*
X151461904Y-87233333D01*
X151366666Y-87185714D01*
X151176190Y-87185714D01*
X151080952Y-87233333D01*
X151033333Y-87328571D01*
X151033333Y-87423809D01*
X151509523Y-87519047D01*
X150604761Y-87852380D02*
X150604761Y-87185714D01*
X150604761Y-87376190D02*
X150557142Y-87280952D01*
X150509523Y-87233333D01*
X150414285Y-87185714D01*
X150319047Y-87185714D01*
X149366666Y-86852380D02*
X149033333Y-87852380D01*
X148700000Y-86852380D01*
X147842857Y-87852380D02*
X148414285Y-87852380D01*
X148128571Y-87852380D02*
X148128571Y-86852380D01*
X148223809Y-86995238D01*
X148319047Y-87090476D01*
X148414285Y-87138095D01*
X147414285Y-87757142D02*
X147366666Y-87804761D01*
X147414285Y-87852380D01*
X147461904Y-87804761D01*
X147414285Y-87757142D01*
X147414285Y-87852380D01*
X146985714Y-86947619D02*
X146938095Y-86900000D01*
X146842857Y-86852380D01*
X146604761Y-86852380D01*
X146509523Y-86900000D01*
X146461904Y-86947619D01*
X146414285Y-87042857D01*
X146414285Y-87138095D01*
X146461904Y-87280952D01*
X147033333Y-87852380D01*
X146414285Y-87852380D01*
M02*
