G04 #@! TF.GenerationSoftware,KiCad,Pcbnew,(5.1.5)-3*
G04 #@! TF.CreationDate,2020-03-31T22:24:07+09:00*
G04 #@! TF.ProjectId,irController,6972436f-6e74-4726-9f6c-6c65722e6b69,rev?*
G04 #@! TF.SameCoordinates,Original*
G04 #@! TF.FileFunction,Legend,Top*
G04 #@! TF.FilePolarity,Positive*
%FSLAX46Y46*%
G04 Gerber Fmt 4.6, Leading zero omitted, Abs format (unit mm)*
G04 Created by KiCad (PCBNEW (5.1.5)-3) date 2020-03-31 22:24:07*
%MOMM*%
%LPD*%
G04 APERTURE LIST*
%ADD10C,0.150000*%
%ADD11C,0.200000*%
%ADD12C,0.120000*%
%ADD13C,0.152400*%
%ADD14C,0.254000*%
%ADD15C,0.124460*%
G04 APERTURE END LIST*
D10*
X159329380Y-100845714D02*
X158329380Y-100845714D01*
X158329380Y-100464761D01*
X158377000Y-100369523D01*
X158424619Y-100321904D01*
X158519857Y-100274285D01*
X158662714Y-100274285D01*
X158757952Y-100321904D01*
X158805571Y-100369523D01*
X158853190Y-100464761D01*
X158853190Y-100845714D01*
X159329380Y-99274285D02*
X158853190Y-99607619D01*
X159329380Y-99845714D02*
X158329380Y-99845714D01*
X158329380Y-99464761D01*
X158377000Y-99369523D01*
X158424619Y-99321904D01*
X158519857Y-99274285D01*
X158662714Y-99274285D01*
X158757952Y-99321904D01*
X158805571Y-99369523D01*
X158853190Y-99464761D01*
X158853190Y-99845714D01*
X158329380Y-98655238D02*
X158329380Y-98464761D01*
X158377000Y-98369523D01*
X158472238Y-98274285D01*
X158662714Y-98226666D01*
X158996047Y-98226666D01*
X159186523Y-98274285D01*
X159281761Y-98369523D01*
X159329380Y-98464761D01*
X159329380Y-98655238D01*
X159281761Y-98750476D01*
X159186523Y-98845714D01*
X158996047Y-98893333D01*
X158662714Y-98893333D01*
X158472238Y-98845714D01*
X158377000Y-98750476D01*
X158329380Y-98655238D01*
X158377000Y-97274285D02*
X158329380Y-97369523D01*
X158329380Y-97512380D01*
X158377000Y-97655238D01*
X158472238Y-97750476D01*
X158567476Y-97798095D01*
X158757952Y-97845714D01*
X158900809Y-97845714D01*
X159091285Y-97798095D01*
X159186523Y-97750476D01*
X159281761Y-97655238D01*
X159329380Y-97512380D01*
X159329380Y-97417142D01*
X159281761Y-97274285D01*
X159234142Y-97226666D01*
X158900809Y-97226666D01*
X158900809Y-97417142D01*
X154376380Y-99734619D02*
X153900190Y-100067952D01*
X154376380Y-100306047D02*
X153376380Y-100306047D01*
X153376380Y-99925095D01*
X153424000Y-99829857D01*
X153471619Y-99782238D01*
X153566857Y-99734619D01*
X153709714Y-99734619D01*
X153804952Y-99782238D01*
X153852571Y-99829857D01*
X153900190Y-99925095D01*
X153900190Y-100306047D01*
X154328761Y-99353666D02*
X154376380Y-99210809D01*
X154376380Y-98972714D01*
X154328761Y-98877476D01*
X154281142Y-98829857D01*
X154185904Y-98782238D01*
X154090666Y-98782238D01*
X153995428Y-98829857D01*
X153947809Y-98877476D01*
X153900190Y-98972714D01*
X153852571Y-99163190D01*
X153804952Y-99258428D01*
X153757333Y-99306047D01*
X153662095Y-99353666D01*
X153566857Y-99353666D01*
X153471619Y-99306047D01*
X153424000Y-99258428D01*
X153376380Y-99163190D01*
X153376380Y-98925095D01*
X153424000Y-98782238D01*
X153376380Y-98496523D02*
X153376380Y-97925095D01*
X154376380Y-98210809D02*
X153376380Y-98210809D01*
D11*
X148928571Y-79178571D02*
X149261904Y-79178571D01*
X149404761Y-79702380D02*
X148928571Y-79702380D01*
X148928571Y-78702380D01*
X149404761Y-78702380D01*
X149785714Y-79654761D02*
X149928571Y-79702380D01*
X150166666Y-79702380D01*
X150261904Y-79654761D01*
X150309523Y-79607142D01*
X150357142Y-79511904D01*
X150357142Y-79416666D01*
X150309523Y-79321428D01*
X150261904Y-79273809D01*
X150166666Y-79226190D01*
X149976190Y-79178571D01*
X149880952Y-79130952D01*
X149833333Y-79083333D01*
X149785714Y-78988095D01*
X149785714Y-78892857D01*
X149833333Y-78797619D01*
X149880952Y-78750000D01*
X149976190Y-78702380D01*
X150214285Y-78702380D01*
X150357142Y-78750000D01*
X150785714Y-79702380D02*
X150785714Y-78702380D01*
X151166666Y-78702380D01*
X151261904Y-78750000D01*
X151309523Y-78797619D01*
X151357142Y-78892857D01*
X151357142Y-79035714D01*
X151309523Y-79130952D01*
X151261904Y-79178571D01*
X151166666Y-79226190D01*
X150785714Y-79226190D01*
X151785714Y-79321428D02*
X152547619Y-79321428D01*
X152928571Y-78702380D02*
X153166666Y-79702380D01*
X153357142Y-78988095D01*
X153547619Y-79702380D01*
X153785714Y-78702380D01*
X154738095Y-79702380D02*
X154404761Y-79226190D01*
X154166666Y-79702380D02*
X154166666Y-78702380D01*
X154547619Y-78702380D01*
X154642857Y-78750000D01*
X154690476Y-78797619D01*
X154738095Y-78892857D01*
X154738095Y-79035714D01*
X154690476Y-79130952D01*
X154642857Y-79178571D01*
X154547619Y-79226190D01*
X154166666Y-79226190D01*
X155357142Y-78702380D02*
X155547619Y-78702380D01*
X155642857Y-78750000D01*
X155738095Y-78845238D01*
X155785714Y-79035714D01*
X155785714Y-79369047D01*
X155738095Y-79559523D01*
X155642857Y-79654761D01*
X155547619Y-79702380D01*
X155357142Y-79702380D01*
X155261904Y-79654761D01*
X155166666Y-79559523D01*
X155119047Y-79369047D01*
X155119047Y-79035714D01*
X155166666Y-78845238D01*
X155261904Y-78750000D01*
X155357142Y-78702380D01*
X156404761Y-78702380D02*
X156595238Y-78702380D01*
X156690476Y-78750000D01*
X156785714Y-78845238D01*
X156833333Y-79035714D01*
X156833333Y-79369047D01*
X156785714Y-79559523D01*
X156690476Y-79654761D01*
X156595238Y-79702380D01*
X156404761Y-79702380D01*
X156309523Y-79654761D01*
X156214285Y-79559523D01*
X156166666Y-79369047D01*
X156166666Y-79035714D01*
X156214285Y-78845238D01*
X156309523Y-78750000D01*
X156404761Y-78702380D01*
X157261904Y-79702380D02*
X157261904Y-78702380D01*
X157595238Y-79416666D01*
X157928571Y-78702380D01*
X157928571Y-79702380D01*
X158404761Y-79321428D02*
X159166666Y-79321428D01*
X159833333Y-78702380D02*
X159928571Y-78702380D01*
X160023809Y-78750000D01*
X160071428Y-78797619D01*
X160119047Y-78892857D01*
X160166666Y-79083333D01*
X160166666Y-79321428D01*
X160119047Y-79511904D01*
X160071428Y-79607142D01*
X160023809Y-79654761D01*
X159928571Y-79702380D01*
X159833333Y-79702380D01*
X159738095Y-79654761D01*
X159690476Y-79607142D01*
X159642857Y-79511904D01*
X159595238Y-79321428D01*
X159595238Y-79083333D01*
X159642857Y-78892857D01*
X159690476Y-78797619D01*
X159738095Y-78750000D01*
X159833333Y-78702380D01*
X160547619Y-78797619D02*
X160595238Y-78750000D01*
X160690476Y-78702380D01*
X160928571Y-78702380D01*
X161023809Y-78750000D01*
X161071428Y-78797619D01*
X161119047Y-78892857D01*
X161119047Y-78988095D01*
X161071428Y-79130952D01*
X160500000Y-79702380D01*
X161119047Y-79702380D01*
D10*
X160973238Y-96374000D02*
X160897047Y-96335904D01*
X160782761Y-96335904D01*
X160668476Y-96374000D01*
X160592285Y-96450190D01*
X160554190Y-96526380D01*
X160516095Y-96678761D01*
X160516095Y-96793047D01*
X160554190Y-96945428D01*
X160592285Y-97021619D01*
X160668476Y-97097809D01*
X160782761Y-97135904D01*
X160858952Y-97135904D01*
X160973238Y-97097809D01*
X161011333Y-97059714D01*
X161011333Y-96793047D01*
X160858952Y-96793047D01*
X161354190Y-97135904D02*
X161354190Y-96335904D01*
X161811333Y-97135904D01*
X161811333Y-96335904D01*
X162192285Y-97135904D02*
X162192285Y-96335904D01*
X162382761Y-96335904D01*
X162497047Y-96374000D01*
X162573238Y-96450190D01*
X162611333Y-96526380D01*
X162649428Y-96678761D01*
X162649428Y-96793047D01*
X162611333Y-96945428D01*
X162573238Y-97021619D01*
X162497047Y-97097809D01*
X162382761Y-97135904D01*
X162192285Y-97135904D01*
X163563714Y-96297809D02*
X162878000Y-97326380D01*
X163830380Y-97135904D02*
X163830380Y-96335904D01*
X164097047Y-96907333D01*
X164363714Y-96335904D01*
X164363714Y-97135904D01*
X164744666Y-97135904D02*
X164744666Y-96335904D01*
X165087523Y-97097809D02*
X165201809Y-97135904D01*
X165392285Y-97135904D01*
X165468476Y-97097809D01*
X165506571Y-97059714D01*
X165544666Y-96983523D01*
X165544666Y-96907333D01*
X165506571Y-96831142D01*
X165468476Y-96793047D01*
X165392285Y-96754952D01*
X165239904Y-96716857D01*
X165163714Y-96678761D01*
X165125619Y-96640666D01*
X165087523Y-96564476D01*
X165087523Y-96488285D01*
X165125619Y-96412095D01*
X165163714Y-96374000D01*
X165239904Y-96335904D01*
X165430380Y-96335904D01*
X165544666Y-96374000D01*
X166039904Y-96335904D02*
X166192285Y-96335904D01*
X166268476Y-96374000D01*
X166344666Y-96450190D01*
X166382761Y-96602571D01*
X166382761Y-96869238D01*
X166344666Y-97021619D01*
X166268476Y-97097809D01*
X166192285Y-97135904D01*
X166039904Y-97135904D01*
X165963714Y-97097809D01*
X165887523Y-97021619D01*
X165849428Y-96869238D01*
X165849428Y-96602571D01*
X165887523Y-96450190D01*
X165963714Y-96374000D01*
X166039904Y-96335904D01*
X167297047Y-96297809D02*
X166611333Y-97326380D01*
X167563714Y-97135904D02*
X167563714Y-96335904D01*
X167830380Y-96907333D01*
X168097047Y-96335904D01*
X168097047Y-97135904D01*
X168630380Y-96335904D02*
X168782761Y-96335904D01*
X168858952Y-96374000D01*
X168935142Y-96450190D01*
X168973238Y-96602571D01*
X168973238Y-96869238D01*
X168935142Y-97021619D01*
X168858952Y-97097809D01*
X168782761Y-97135904D01*
X168630380Y-97135904D01*
X168554190Y-97097809D01*
X168478000Y-97021619D01*
X168439904Y-96869238D01*
X168439904Y-96602571D01*
X168478000Y-96450190D01*
X168554190Y-96374000D01*
X168630380Y-96335904D01*
X169278000Y-97097809D02*
X169392285Y-97135904D01*
X169582761Y-97135904D01*
X169658952Y-97097809D01*
X169697047Y-97059714D01*
X169735142Y-96983523D01*
X169735142Y-96907333D01*
X169697047Y-96831142D01*
X169658952Y-96793047D01*
X169582761Y-96754952D01*
X169430380Y-96716857D01*
X169354190Y-96678761D01*
X169316095Y-96640666D01*
X169278000Y-96564476D01*
X169278000Y-96488285D01*
X169316095Y-96412095D01*
X169354190Y-96374000D01*
X169430380Y-96335904D01*
X169620857Y-96335904D01*
X169735142Y-96374000D01*
X170078000Y-97135904D02*
X170078000Y-96335904D01*
X171030380Y-96297809D02*
X170344666Y-97326380D01*
X171182761Y-96335904D02*
X171449428Y-97135904D01*
X171716095Y-96335904D01*
X172439904Y-97059714D02*
X172401809Y-97097809D01*
X172287523Y-97135904D01*
X172211333Y-97135904D01*
X172097047Y-97097809D01*
X172020857Y-97021619D01*
X171982761Y-96945428D01*
X171944666Y-96793047D01*
X171944666Y-96678761D01*
X171982761Y-96526380D01*
X172020857Y-96450190D01*
X172097047Y-96374000D01*
X172211333Y-96335904D01*
X172287523Y-96335904D01*
X172401809Y-96374000D01*
X172439904Y-96412095D01*
X173239904Y-97059714D02*
X173201809Y-97097809D01*
X173087523Y-97135904D01*
X173011333Y-97135904D01*
X172897047Y-97097809D01*
X172820857Y-97021619D01*
X172782761Y-96945428D01*
X172744666Y-96793047D01*
X172744666Y-96678761D01*
X172782761Y-96526380D01*
X172820857Y-96450190D01*
X172897047Y-96374000D01*
X173011333Y-96335904D01*
X173087523Y-96335904D01*
X173201809Y-96374000D01*
X173239904Y-96412095D01*
D11*
X169545000Y-102030000D02*
X161595000Y-102030000D01*
X161595000Y-102030000D02*
X161595000Y-97530000D01*
X161595000Y-97530000D02*
X171495000Y-97530000D01*
X171495000Y-97530000D02*
X171495000Y-100330000D01*
D12*
X152516721Y-94486000D02*
X152842279Y-94486000D01*
X152516721Y-95506000D02*
X152842279Y-95506000D01*
X159510000Y-92085279D02*
X159510000Y-91759721D01*
X160530000Y-92085279D02*
X160530000Y-91759721D01*
X152652000Y-91810721D02*
X152652000Y-92136279D01*
X153672000Y-91810721D02*
X153672000Y-92136279D01*
X135130000Y-84973279D02*
X135130000Y-84647721D01*
X134110000Y-84973279D02*
X134110000Y-84647721D01*
X161796000Y-91810721D02*
X161796000Y-92136279D01*
X162816000Y-91810721D02*
X162816000Y-92136279D01*
X141752000Y-77053221D02*
X141752000Y-77378779D01*
X142772000Y-77053221D02*
X142772000Y-77378779D01*
X144301936Y-92410000D02*
X145506064Y-92410000D01*
X144301936Y-90590000D02*
X145506064Y-90590000D01*
X135742000Y-97949936D02*
X135742000Y-99154064D01*
X137562000Y-97949936D02*
X137562000Y-99154064D01*
X167550279Y-85190000D02*
X167224721Y-85190000D01*
X167550279Y-86210000D02*
X167224721Y-86210000D01*
X177567221Y-78230000D02*
X177892779Y-78230000D01*
X177567221Y-79250000D02*
X177892779Y-79250000D01*
D10*
X174977936Y-93472000D02*
G75*
G03X174977936Y-93472000I-2517936J0D01*
G01*
X174960000Y-91972000D02*
X174960000Y-94972000D01*
X174944888Y-91947096D02*
G75*
G03X174960000Y-94972000I-2484888J-1524904D01*
G01*
X174977936Y-78681580D02*
G75*
G03X174977936Y-78681580I-2517936J0D01*
G01*
X174960000Y-77181580D02*
X174960000Y-80181580D01*
X174944888Y-77156676D02*
G75*
G03X174960000Y-80181580I-2484888J-1524904D01*
G01*
X174977936Y-86000000D02*
G75*
G03X174977936Y-86000000I-2517936J0D01*
G01*
X174960000Y-84500000D02*
X174960000Y-87500000D01*
X174944888Y-84475096D02*
G75*
G03X174960000Y-87500000I-2484888J-1524904D01*
G01*
D12*
X166260000Y-95080000D02*
X166260000Y-94150000D01*
X166260000Y-91920000D02*
X166260000Y-92850000D01*
X166260000Y-91920000D02*
X164100000Y-91920000D01*
X166260000Y-95080000D02*
X164800000Y-95080000D01*
D10*
X131116000Y-87936000D02*
X131116000Y-94436000D01*
X131116000Y-94436000D02*
X137616000Y-94436000D01*
X137616000Y-94436000D02*
X137616000Y-87936000D01*
X137616000Y-87936000D02*
X131116000Y-87936000D01*
X131800000Y-81280000D02*
X131800000Y-82830000D01*
X131800000Y-82830000D02*
X134900000Y-82830000D01*
X134900000Y-82830000D02*
X134900000Y-81280000D01*
X132080000Y-80010000D02*
X132080000Y-74930000D01*
X132080000Y-74930000D02*
X134620000Y-74930000D01*
X134620000Y-74930000D02*
X134620000Y-80010000D01*
X134620000Y-80010000D02*
X132080000Y-80010000D01*
D12*
X154938000Y-91759721D02*
X154938000Y-92085279D01*
X155958000Y-91759721D02*
X155958000Y-92085279D01*
X148080000Y-92085279D02*
X148080000Y-91759721D01*
X149100000Y-92085279D02*
X149100000Y-91759721D01*
X166114000Y-78928279D02*
X166114000Y-78602721D01*
X167134000Y-78928279D02*
X167134000Y-78602721D01*
X159446279Y-94740000D02*
X159120721Y-94740000D01*
X159446279Y-95760000D02*
X159120721Y-95760000D01*
X167134000Y-83149221D02*
X167134000Y-83474779D01*
X166114000Y-83149221D02*
X166114000Y-83474779D01*
X177567221Y-85490000D02*
X177892779Y-85490000D01*
X177567221Y-86510000D02*
X177892779Y-86510000D01*
X177567221Y-92962000D02*
X177892779Y-92962000D01*
X177567221Y-93982000D02*
X177892779Y-93982000D01*
X167575279Y-88010000D02*
X167249721Y-88010000D01*
X167575279Y-86990000D02*
X167249721Y-86990000D01*
D13*
X146080000Y-69535000D02*
X146080000Y-75720000D01*
X164063200Y-89120000D02*
X164063200Y-89499400D01*
X146080000Y-89120000D02*
X146080000Y-89499400D01*
X164063200Y-69535000D02*
X164063200Y-75720000D01*
X146080000Y-89537500D02*
X164063200Y-89537500D01*
X164050500Y-69535000D02*
X146080000Y-69535000D01*
D10*
X139350000Y-98600000D02*
X139350000Y-100000000D01*
X139350000Y-102400000D02*
X139350000Y-102550000D01*
X139350000Y-102550000D02*
X139650000Y-102550000D01*
X139650000Y-102550000D02*
X139650000Y-103000000D01*
X147350000Y-103000000D02*
X147350000Y-102550000D01*
X147350000Y-102550000D02*
X147650000Y-102550000D01*
X147650000Y-102550000D02*
X147650000Y-102400000D01*
X147650000Y-100000000D02*
X147650000Y-98600000D01*
X142425000Y-96425000D02*
X141700000Y-96425000D01*
X141700000Y-96425000D02*
X141700000Y-96850000D01*
X141700000Y-96850000D02*
X140700000Y-96850000D01*
X145300000Y-96850000D02*
X146300000Y-96850000D01*
D11*
X141300000Y-84492000D02*
X138100000Y-84492000D01*
X138100000Y-84492000D02*
X138100000Y-79592000D01*
X138100000Y-79592000D02*
X141300000Y-79592000D01*
X141300000Y-79592000D02*
X141300000Y-84492000D01*
X143175000Y-84622000D02*
X141650000Y-84622000D01*
D12*
X158244000Y-91810721D02*
X158244000Y-92136279D01*
X157224000Y-91810721D02*
X157224000Y-92136279D01*
X137666000Y-77027721D02*
X137666000Y-77353279D01*
X138686000Y-77027721D02*
X138686000Y-77353279D01*
X140464000Y-77027721D02*
X140464000Y-77353279D01*
X139444000Y-77027721D02*
X139444000Y-77353279D01*
X131824000Y-84973279D02*
X131824000Y-84647721D01*
X132844000Y-84973279D02*
X132844000Y-84647721D01*
X135888000Y-77027721D02*
X135888000Y-77353279D01*
X136908000Y-77027721D02*
X136908000Y-77353279D01*
D14*
X172550666Y-100650523D02*
X172550666Y-101557666D01*
X172490190Y-101739095D01*
X172369238Y-101860047D01*
X172187809Y-101920523D01*
X172066857Y-101920523D01*
X173820666Y-101920523D02*
X173094952Y-101920523D01*
X173457809Y-101920523D02*
X173457809Y-100650523D01*
X173336857Y-100831952D01*
X173215904Y-100952904D01*
X173094952Y-101013380D01*
D10*
X148963142Y-95448380D02*
X148629809Y-94972190D01*
X148391714Y-95448380D02*
X148391714Y-94448380D01*
X148772666Y-94448380D01*
X148867904Y-94496000D01*
X148915523Y-94543619D01*
X148963142Y-94638857D01*
X148963142Y-94781714D01*
X148915523Y-94876952D01*
X148867904Y-94924571D01*
X148772666Y-94972190D01*
X148391714Y-94972190D01*
X149915523Y-95448380D02*
X149344095Y-95448380D01*
X149629809Y-95448380D02*
X149629809Y-94448380D01*
X149534571Y-94591238D01*
X149439333Y-94686476D01*
X149344095Y-94734095D01*
X150248857Y-94448380D02*
X150867904Y-94448380D01*
X150534571Y-94829333D01*
X150677428Y-94829333D01*
X150772666Y-94876952D01*
X150820285Y-94924571D01*
X150867904Y-95019809D01*
X150867904Y-95257904D01*
X150820285Y-95353142D01*
X150772666Y-95400761D01*
X150677428Y-95448380D01*
X150391714Y-95448380D01*
X150296476Y-95400761D01*
X150248857Y-95353142D01*
X161869380Y-94527666D02*
X161393190Y-94861000D01*
X161869380Y-95099095D02*
X160869380Y-95099095D01*
X160869380Y-94718142D01*
X160917000Y-94622904D01*
X160964619Y-94575285D01*
X161059857Y-94527666D01*
X161202714Y-94527666D01*
X161297952Y-94575285D01*
X161345571Y-94622904D01*
X161393190Y-94718142D01*
X161393190Y-95099095D01*
X160869380Y-93670523D02*
X160869380Y-93861000D01*
X160917000Y-93956238D01*
X160964619Y-94003857D01*
X161107476Y-94099095D01*
X161297952Y-94146714D01*
X161678904Y-94146714D01*
X161774142Y-94099095D01*
X161821761Y-94051476D01*
X161869380Y-93956238D01*
X161869380Y-93765761D01*
X161821761Y-93670523D01*
X161774142Y-93622904D01*
X161678904Y-93575285D01*
X161440809Y-93575285D01*
X161345571Y-93622904D01*
X161297952Y-93670523D01*
X161250333Y-93765761D01*
X161250333Y-93956238D01*
X161297952Y-94051476D01*
X161345571Y-94099095D01*
X161440809Y-94146714D01*
X152090380Y-92114666D02*
X151614190Y-92448000D01*
X152090380Y-92686095D02*
X151090380Y-92686095D01*
X151090380Y-92305142D01*
X151138000Y-92209904D01*
X151185619Y-92162285D01*
X151280857Y-92114666D01*
X151423714Y-92114666D01*
X151518952Y-92162285D01*
X151566571Y-92209904D01*
X151614190Y-92305142D01*
X151614190Y-92686095D01*
X151090380Y-91781333D02*
X151090380Y-91162285D01*
X151471333Y-91495619D01*
X151471333Y-91352761D01*
X151518952Y-91257523D01*
X151566571Y-91209904D01*
X151661809Y-91162285D01*
X151899904Y-91162285D01*
X151995142Y-91209904D01*
X152042761Y-91257523D01*
X152090380Y-91352761D01*
X152090380Y-91638476D01*
X152042761Y-91733714D01*
X151995142Y-91781333D01*
X152042761Y-100333333D02*
X152090380Y-100190476D01*
X152090380Y-99952380D01*
X152042761Y-99857142D01*
X151995142Y-99809523D01*
X151899904Y-99761904D01*
X151804666Y-99761904D01*
X151709428Y-99809523D01*
X151661809Y-99857142D01*
X151614190Y-99952380D01*
X151566571Y-100142857D01*
X151518952Y-100238095D01*
X151471333Y-100285714D01*
X151376095Y-100333333D01*
X151280857Y-100333333D01*
X151185619Y-100285714D01*
X151138000Y-100238095D01*
X151090380Y-100142857D01*
X151090380Y-99904761D01*
X151138000Y-99761904D01*
X151090380Y-99428571D02*
X152090380Y-99190476D01*
X151376095Y-99000000D01*
X152090380Y-98809523D01*
X151090380Y-98571428D01*
X151185619Y-98238095D02*
X151138000Y-98190476D01*
X151090380Y-98095238D01*
X151090380Y-97857142D01*
X151138000Y-97761904D01*
X151185619Y-97714285D01*
X151280857Y-97666666D01*
X151376095Y-97666666D01*
X151518952Y-97714285D01*
X152090380Y-98285714D01*
X152090380Y-97666666D01*
X136501142Y-85764666D02*
X136548761Y-85812285D01*
X136596380Y-85955142D01*
X136596380Y-86050380D01*
X136548761Y-86193238D01*
X136453523Y-86288476D01*
X136358285Y-86336095D01*
X136167809Y-86383714D01*
X136024952Y-86383714D01*
X135834476Y-86336095D01*
X135739238Y-86288476D01*
X135644000Y-86193238D01*
X135596380Y-86050380D01*
X135596380Y-85955142D01*
X135644000Y-85812285D01*
X135691619Y-85764666D01*
X135596380Y-84859904D02*
X135596380Y-85336095D01*
X136072571Y-85383714D01*
X136024952Y-85336095D01*
X135977333Y-85240857D01*
X135977333Y-85002761D01*
X136024952Y-84907523D01*
X136072571Y-84859904D01*
X136167809Y-84812285D01*
X136405904Y-84812285D01*
X136501142Y-84859904D01*
X136548761Y-84907523D01*
X136596380Y-85002761D01*
X136596380Y-85240857D01*
X136548761Y-85336095D01*
X136501142Y-85383714D01*
X163044142Y-94527666D02*
X163091761Y-94575285D01*
X163139380Y-94718142D01*
X163139380Y-94813380D01*
X163091761Y-94956238D01*
X162996523Y-95051476D01*
X162901285Y-95099095D01*
X162710809Y-95146714D01*
X162567952Y-95146714D01*
X162377476Y-95099095D01*
X162282238Y-95051476D01*
X162187000Y-94956238D01*
X162139380Y-94813380D01*
X162139380Y-94718142D01*
X162187000Y-94575285D01*
X162234619Y-94527666D01*
X162472714Y-93670523D02*
X163139380Y-93670523D01*
X162091761Y-93908619D02*
X162806047Y-94146714D01*
X162806047Y-93527666D01*
X142597142Y-74588666D02*
X142644761Y-74636285D01*
X142692380Y-74779142D01*
X142692380Y-74874380D01*
X142644761Y-75017238D01*
X142549523Y-75112476D01*
X142454285Y-75160095D01*
X142263809Y-75207714D01*
X142120952Y-75207714D01*
X141930476Y-75160095D01*
X141835238Y-75112476D01*
X141740000Y-75017238D01*
X141692380Y-74874380D01*
X141692380Y-74779142D01*
X141740000Y-74636285D01*
X141787619Y-74588666D01*
X141692380Y-74255333D02*
X141692380Y-73636285D01*
X142073333Y-73969619D01*
X142073333Y-73826761D01*
X142120952Y-73731523D01*
X142168571Y-73683904D01*
X142263809Y-73636285D01*
X142501904Y-73636285D01*
X142597142Y-73683904D01*
X142644761Y-73731523D01*
X142692380Y-73826761D01*
X142692380Y-74112476D01*
X142644761Y-74207714D01*
X142597142Y-74255333D01*
X144737333Y-94083142D02*
X144689714Y-94130761D01*
X144546857Y-94178380D01*
X144451619Y-94178380D01*
X144308761Y-94130761D01*
X144213523Y-94035523D01*
X144165904Y-93940285D01*
X144118285Y-93749809D01*
X144118285Y-93606952D01*
X144165904Y-93416476D01*
X144213523Y-93321238D01*
X144308761Y-93226000D01*
X144451619Y-93178380D01*
X144546857Y-93178380D01*
X144689714Y-93226000D01*
X144737333Y-93273619D01*
X145118285Y-93273619D02*
X145165904Y-93226000D01*
X145261142Y-93178380D01*
X145499238Y-93178380D01*
X145594476Y-93226000D01*
X145642095Y-93273619D01*
X145689714Y-93368857D01*
X145689714Y-93464095D01*
X145642095Y-93606952D01*
X145070666Y-94178380D01*
X145689714Y-94178380D01*
X135231142Y-97194666D02*
X135278761Y-97242285D01*
X135326380Y-97385142D01*
X135326380Y-97480380D01*
X135278761Y-97623238D01*
X135183523Y-97718476D01*
X135088285Y-97766095D01*
X134897809Y-97813714D01*
X134754952Y-97813714D01*
X134564476Y-97766095D01*
X134469238Y-97718476D01*
X134374000Y-97623238D01*
X134326380Y-97480380D01*
X134326380Y-97385142D01*
X134374000Y-97242285D01*
X134421619Y-97194666D01*
X135326380Y-96242285D02*
X135326380Y-96813714D01*
X135326380Y-96528000D02*
X134326380Y-96528000D01*
X134469238Y-96623238D01*
X134564476Y-96718476D01*
X134612095Y-96813714D01*
X166743142Y-89606380D02*
X166409809Y-89130190D01*
X166171714Y-89606380D02*
X166171714Y-88606380D01*
X166552666Y-88606380D01*
X166647904Y-88654000D01*
X166695523Y-88701619D01*
X166743142Y-88796857D01*
X166743142Y-88939714D01*
X166695523Y-89034952D01*
X166647904Y-89082571D01*
X166552666Y-89130190D01*
X166171714Y-89130190D01*
X167695523Y-89606380D02*
X167124095Y-89606380D01*
X167409809Y-89606380D02*
X167409809Y-88606380D01*
X167314571Y-88749238D01*
X167219333Y-88844476D01*
X167124095Y-88892095D01*
X168076476Y-88701619D02*
X168124095Y-88654000D01*
X168219333Y-88606380D01*
X168457428Y-88606380D01*
X168552666Y-88654000D01*
X168600285Y-88701619D01*
X168647904Y-88796857D01*
X168647904Y-88892095D01*
X168600285Y-89034952D01*
X168028857Y-89606380D01*
X168647904Y-89606380D01*
X177563333Y-77762380D02*
X177230000Y-77286190D01*
X176991904Y-77762380D02*
X176991904Y-76762380D01*
X177372857Y-76762380D01*
X177468095Y-76810000D01*
X177515714Y-76857619D01*
X177563333Y-76952857D01*
X177563333Y-77095714D01*
X177515714Y-77190952D01*
X177468095Y-77238571D01*
X177372857Y-77286190D01*
X176991904Y-77286190D01*
X178134761Y-77190952D02*
X178039523Y-77143333D01*
X177991904Y-77095714D01*
X177944285Y-77000476D01*
X177944285Y-76952857D01*
X177991904Y-76857619D01*
X178039523Y-76810000D01*
X178134761Y-76762380D01*
X178325238Y-76762380D01*
X178420476Y-76810000D01*
X178468095Y-76857619D01*
X178515714Y-76952857D01*
X178515714Y-77000476D01*
X178468095Y-77095714D01*
X178420476Y-77143333D01*
X178325238Y-77190952D01*
X178134761Y-77190952D01*
X178039523Y-77238571D01*
X177991904Y-77286190D01*
X177944285Y-77381428D01*
X177944285Y-77571904D01*
X177991904Y-77667142D01*
X178039523Y-77714761D01*
X178134761Y-77762380D01*
X178325238Y-77762380D01*
X178420476Y-77714761D01*
X178468095Y-77667142D01*
X178515714Y-77571904D01*
X178515714Y-77381428D01*
X178468095Y-77286190D01*
X178420476Y-77238571D01*
X178325238Y-77190952D01*
X156868761Y-100333333D02*
X156916380Y-100190476D01*
X156916380Y-99952380D01*
X156868761Y-99857142D01*
X156821142Y-99809523D01*
X156725904Y-99761904D01*
X156630666Y-99761904D01*
X156535428Y-99809523D01*
X156487809Y-99857142D01*
X156440190Y-99952380D01*
X156392571Y-100142857D01*
X156344952Y-100238095D01*
X156297333Y-100285714D01*
X156202095Y-100333333D01*
X156106857Y-100333333D01*
X156011619Y-100285714D01*
X155964000Y-100238095D01*
X155916380Y-100142857D01*
X155916380Y-99904761D01*
X155964000Y-99761904D01*
X155916380Y-99428571D02*
X156916380Y-99190476D01*
X156202095Y-99000000D01*
X156916380Y-98809523D01*
X155916380Y-98571428D01*
X156916380Y-97666666D02*
X156916380Y-98238095D01*
X156916380Y-97952380D02*
X155916380Y-97952380D01*
X156059238Y-98047619D01*
X156154476Y-98142857D01*
X156202095Y-98238095D01*
X169991904Y-89924380D02*
X169991904Y-88924380D01*
X170230000Y-88924380D01*
X170372857Y-88972000D01*
X170468095Y-89067238D01*
X170515714Y-89162476D01*
X170563333Y-89352952D01*
X170563333Y-89495809D01*
X170515714Y-89686285D01*
X170468095Y-89781523D01*
X170372857Y-89876761D01*
X170230000Y-89924380D01*
X169991904Y-89924380D01*
X170896666Y-88924380D02*
X171515714Y-88924380D01*
X171182380Y-89305333D01*
X171325238Y-89305333D01*
X171420476Y-89352952D01*
X171468095Y-89400571D01*
X171515714Y-89495809D01*
X171515714Y-89733904D01*
X171468095Y-89829142D01*
X171420476Y-89876761D01*
X171325238Y-89924380D01*
X171039523Y-89924380D01*
X170944285Y-89876761D01*
X170896666Y-89829142D01*
X175276095Y-91682380D02*
X175276095Y-90682380D01*
X175847523Y-91682380D02*
X175418952Y-91110952D01*
X175847523Y-90682380D02*
X175276095Y-91253809D01*
X169799904Y-75401960D02*
X169799904Y-74401960D01*
X170038000Y-74401960D01*
X170180857Y-74449580D01*
X170276095Y-74544818D01*
X170323714Y-74640056D01*
X170371333Y-74830532D01*
X170371333Y-74973389D01*
X170323714Y-75163865D01*
X170276095Y-75259103D01*
X170180857Y-75354341D01*
X170038000Y-75401960D01*
X169799904Y-75401960D01*
X171323714Y-75401960D02*
X170752285Y-75401960D01*
X171038000Y-75401960D02*
X171038000Y-74401960D01*
X170942761Y-74544818D01*
X170847523Y-74640056D01*
X170752285Y-74687675D01*
X173468095Y-75633960D02*
X173468095Y-74633960D01*
X174039523Y-75633960D02*
X173610952Y-75062532D01*
X174039523Y-74633960D02*
X173468095Y-75205389D01*
X169799904Y-82464380D02*
X169799904Y-81464380D01*
X170038000Y-81464380D01*
X170180857Y-81512000D01*
X170276095Y-81607238D01*
X170323714Y-81702476D01*
X170371333Y-81892952D01*
X170371333Y-82035809D01*
X170323714Y-82226285D01*
X170276095Y-82321523D01*
X170180857Y-82416761D01*
X170038000Y-82464380D01*
X169799904Y-82464380D01*
X170752285Y-81559619D02*
X170799904Y-81512000D01*
X170895142Y-81464380D01*
X171133238Y-81464380D01*
X171228476Y-81512000D01*
X171276095Y-81559619D01*
X171323714Y-81654857D01*
X171323714Y-81750095D01*
X171276095Y-81892952D01*
X170704666Y-82464380D01*
X171323714Y-82464380D01*
X175276095Y-83464380D02*
X175276095Y-82464380D01*
X175847523Y-83464380D02*
X175418952Y-82892952D01*
X175847523Y-82464380D02*
X175276095Y-83035809D01*
X168695619Y-93567238D02*
X168648000Y-93662476D01*
X168552761Y-93757714D01*
X168409904Y-93900571D01*
X168362285Y-93995809D01*
X168362285Y-94091047D01*
X168600380Y-94043428D02*
X168552761Y-94138666D01*
X168457523Y-94233904D01*
X168267047Y-94281523D01*
X167933714Y-94281523D01*
X167743238Y-94233904D01*
X167648000Y-94138666D01*
X167600380Y-94043428D01*
X167600380Y-93852952D01*
X167648000Y-93757714D01*
X167743238Y-93662476D01*
X167933714Y-93614857D01*
X168267047Y-93614857D01*
X168457523Y-93662476D01*
X168552761Y-93757714D01*
X168600380Y-93852952D01*
X168600380Y-94043428D01*
X168600380Y-92662476D02*
X168600380Y-93233904D01*
X168600380Y-92948190D02*
X167600380Y-92948190D01*
X167743238Y-93043428D01*
X167838476Y-93138666D01*
X167886095Y-93233904D01*
D15*
X138037735Y-89142716D02*
X138522996Y-89142716D01*
X138580085Y-89114171D01*
X138608630Y-89085626D01*
X138637175Y-89028537D01*
X138637175Y-88914358D01*
X138608630Y-88857268D01*
X138580085Y-88828723D01*
X138522996Y-88800179D01*
X138037735Y-88800179D01*
X138637175Y-88200739D02*
X138637175Y-88543276D01*
X138637175Y-88372007D02*
X138037735Y-88372007D01*
X138123369Y-88429097D01*
X138180459Y-88486186D01*
X138209003Y-88543276D01*
D10*
X130516380Y-79501904D02*
X131325904Y-79501904D01*
X131421142Y-79454285D01*
X131468761Y-79406666D01*
X131516380Y-79311428D01*
X131516380Y-79120952D01*
X131468761Y-79025714D01*
X131421142Y-78978095D01*
X131325904Y-78930476D01*
X130516380Y-78930476D01*
X130516380Y-78549523D02*
X130516380Y-77930476D01*
X130897333Y-78263809D01*
X130897333Y-78120952D01*
X130944952Y-78025714D01*
X130992571Y-77978095D01*
X131087809Y-77930476D01*
X131325904Y-77930476D01*
X131421142Y-77978095D01*
X131468761Y-78025714D01*
X131516380Y-78120952D01*
X131516380Y-78406666D01*
X131468761Y-78501904D01*
X131421142Y-78549523D01*
X155900380Y-94400666D02*
X155424190Y-94734000D01*
X155900380Y-94972095D02*
X154900380Y-94972095D01*
X154900380Y-94591142D01*
X154948000Y-94495904D01*
X154995619Y-94448285D01*
X155090857Y-94400666D01*
X155233714Y-94400666D01*
X155328952Y-94448285D01*
X155376571Y-94495904D01*
X155424190Y-94591142D01*
X155424190Y-94972095D01*
X155900380Y-93448285D02*
X155900380Y-94019714D01*
X155900380Y-93734000D02*
X154900380Y-93734000D01*
X155043238Y-93829238D01*
X155138476Y-93924476D01*
X155186095Y-94019714D01*
X147612380Y-92089166D02*
X147136190Y-92422500D01*
X147612380Y-92660595D02*
X146612380Y-92660595D01*
X146612380Y-92279642D01*
X146660000Y-92184404D01*
X146707619Y-92136785D01*
X146802857Y-92089166D01*
X146945714Y-92089166D01*
X147040952Y-92136785D01*
X147088571Y-92184404D01*
X147136190Y-92279642D01*
X147136190Y-92660595D01*
X146707619Y-91708214D02*
X146660000Y-91660595D01*
X146612380Y-91565357D01*
X146612380Y-91327261D01*
X146660000Y-91232023D01*
X146707619Y-91184404D01*
X146802857Y-91136785D01*
X146898095Y-91136785D01*
X147040952Y-91184404D01*
X147612380Y-91755833D01*
X147612380Y-91136785D01*
X168481380Y-79009666D02*
X168005190Y-79343000D01*
X168481380Y-79581095D02*
X167481380Y-79581095D01*
X167481380Y-79200142D01*
X167529000Y-79104904D01*
X167576619Y-79057285D01*
X167671857Y-79009666D01*
X167814714Y-79009666D01*
X167909952Y-79057285D01*
X167957571Y-79104904D01*
X168005190Y-79200142D01*
X168005190Y-79581095D01*
X167814714Y-78152523D02*
X168481380Y-78152523D01*
X167433761Y-78390619D02*
X168148047Y-78628714D01*
X168148047Y-78009666D01*
X158964333Y-94559380D02*
X158631000Y-94083190D01*
X158392904Y-94559380D02*
X158392904Y-93559380D01*
X158773857Y-93559380D01*
X158869095Y-93607000D01*
X158916714Y-93654619D01*
X158964333Y-93749857D01*
X158964333Y-93892714D01*
X158916714Y-93987952D01*
X158869095Y-94035571D01*
X158773857Y-94083190D01*
X158392904Y-94083190D01*
X159869095Y-93559380D02*
X159392904Y-93559380D01*
X159345285Y-94035571D01*
X159392904Y-93987952D01*
X159488142Y-93940333D01*
X159726238Y-93940333D01*
X159821476Y-93987952D01*
X159869095Y-94035571D01*
X159916714Y-94130809D01*
X159916714Y-94368904D01*
X159869095Y-94464142D01*
X159821476Y-94511761D01*
X159726238Y-94559380D01*
X159488142Y-94559380D01*
X159392904Y-94511761D01*
X159345285Y-94464142D01*
X168506380Y-83478666D02*
X168030190Y-83812000D01*
X168506380Y-84050095D02*
X167506380Y-84050095D01*
X167506380Y-83669142D01*
X167554000Y-83573904D01*
X167601619Y-83526285D01*
X167696857Y-83478666D01*
X167839714Y-83478666D01*
X167934952Y-83526285D01*
X167982571Y-83573904D01*
X168030190Y-83669142D01*
X168030190Y-84050095D01*
X167506380Y-83145333D02*
X167506380Y-82478666D01*
X168506380Y-82907238D01*
X177563333Y-85022380D02*
X177230000Y-84546190D01*
X176991904Y-85022380D02*
X176991904Y-84022380D01*
X177372857Y-84022380D01*
X177468095Y-84070000D01*
X177515714Y-84117619D01*
X177563333Y-84212857D01*
X177563333Y-84355714D01*
X177515714Y-84450952D01*
X177468095Y-84498571D01*
X177372857Y-84546190D01*
X176991904Y-84546190D01*
X178039523Y-85022380D02*
X178230000Y-85022380D01*
X178325238Y-84974761D01*
X178372857Y-84927142D01*
X178468095Y-84784285D01*
X178515714Y-84593809D01*
X178515714Y-84212857D01*
X178468095Y-84117619D01*
X178420476Y-84070000D01*
X178325238Y-84022380D01*
X178134761Y-84022380D01*
X178039523Y-84070000D01*
X177991904Y-84117619D01*
X177944285Y-84212857D01*
X177944285Y-84450952D01*
X177991904Y-84546190D01*
X178039523Y-84593809D01*
X178134761Y-84641428D01*
X178325238Y-84641428D01*
X178420476Y-84593809D01*
X178468095Y-84546190D01*
X178515714Y-84450952D01*
X177087142Y-92494380D02*
X176753809Y-92018190D01*
X176515714Y-92494380D02*
X176515714Y-91494380D01*
X176896666Y-91494380D01*
X176991904Y-91542000D01*
X177039523Y-91589619D01*
X177087142Y-91684857D01*
X177087142Y-91827714D01*
X177039523Y-91922952D01*
X176991904Y-91970571D01*
X176896666Y-92018190D01*
X176515714Y-92018190D01*
X178039523Y-92494380D02*
X177468095Y-92494380D01*
X177753809Y-92494380D02*
X177753809Y-91494380D01*
X177658571Y-91637238D01*
X177563333Y-91732476D01*
X177468095Y-91780095D01*
X178658571Y-91494380D02*
X178753809Y-91494380D01*
X178849047Y-91542000D01*
X178896666Y-91589619D01*
X178944285Y-91684857D01*
X178991904Y-91875333D01*
X178991904Y-92113428D01*
X178944285Y-92303904D01*
X178896666Y-92399142D01*
X178849047Y-92446761D01*
X178753809Y-92494380D01*
X178658571Y-92494380D01*
X178563333Y-92446761D01*
X178515714Y-92399142D01*
X178468095Y-92303904D01*
X178420476Y-92113428D01*
X178420476Y-91875333D01*
X178468095Y-91684857D01*
X178515714Y-91589619D01*
X178563333Y-91542000D01*
X178658571Y-91494380D01*
X166743142Y-91130380D02*
X166409809Y-90654190D01*
X166171714Y-91130380D02*
X166171714Y-90130380D01*
X166552666Y-90130380D01*
X166647904Y-90178000D01*
X166695523Y-90225619D01*
X166743142Y-90320857D01*
X166743142Y-90463714D01*
X166695523Y-90558952D01*
X166647904Y-90606571D01*
X166552666Y-90654190D01*
X166171714Y-90654190D01*
X167695523Y-91130380D02*
X167124095Y-91130380D01*
X167409809Y-91130380D02*
X167409809Y-90130380D01*
X167314571Y-90273238D01*
X167219333Y-90368476D01*
X167124095Y-90416095D01*
X168647904Y-91130380D02*
X168076476Y-91130380D01*
X168362190Y-91130380D02*
X168362190Y-90130380D01*
X168266952Y-90273238D01*
X168171714Y-90368476D01*
X168076476Y-90416095D01*
X142318095Y-70972380D02*
X142318095Y-71781904D01*
X142365714Y-71877142D01*
X142413333Y-71924761D01*
X142508571Y-71972380D01*
X142699047Y-71972380D01*
X142794285Y-71924761D01*
X142841904Y-71877142D01*
X142889523Y-71781904D01*
X142889523Y-70972380D01*
X143318095Y-71067619D02*
X143365714Y-71020000D01*
X143460952Y-70972380D01*
X143699047Y-70972380D01*
X143794285Y-71020000D01*
X143841904Y-71067619D01*
X143889523Y-71162857D01*
X143889523Y-71258095D01*
X143841904Y-71400952D01*
X143270476Y-71972380D01*
X143889523Y-71972380D01*
X142761904Y-96202380D02*
X142761904Y-95202380D01*
X143142857Y-95202380D01*
X143238095Y-95250000D01*
X143285714Y-95297619D01*
X143333333Y-95392857D01*
X143333333Y-95535714D01*
X143285714Y-95630952D01*
X143238095Y-95678571D01*
X143142857Y-95726190D01*
X142761904Y-95726190D01*
X144285714Y-96202380D02*
X143714285Y-96202380D01*
X144000000Y-96202380D02*
X144000000Y-95202380D01*
X143904761Y-95345238D01*
X143809523Y-95440476D01*
X143714285Y-95488095D01*
D14*
X138460238Y-82616523D02*
X138460238Y-81346523D01*
X139790714Y-82495571D02*
X139730238Y-82556047D01*
X139548809Y-82616523D01*
X139427857Y-82616523D01*
X139246428Y-82556047D01*
X139125476Y-82435095D01*
X139065000Y-82314142D01*
X139004523Y-82072238D01*
X139004523Y-81890809D01*
X139065000Y-81648904D01*
X139125476Y-81527952D01*
X139246428Y-81407000D01*
X139427857Y-81346523D01*
X139548809Y-81346523D01*
X139730238Y-81407000D01*
X139790714Y-81467476D01*
X141000238Y-82616523D02*
X140274523Y-82616523D01*
X140637380Y-82616523D02*
X140637380Y-81346523D01*
X140516428Y-81527952D01*
X140395476Y-81648904D01*
X140274523Y-81709380D01*
D10*
X157678380Y-94400666D02*
X157202190Y-94734000D01*
X157678380Y-94972095D02*
X156678380Y-94972095D01*
X156678380Y-94591142D01*
X156726000Y-94495904D01*
X156773619Y-94448285D01*
X156868857Y-94400666D01*
X157011714Y-94400666D01*
X157106952Y-94448285D01*
X157154571Y-94495904D01*
X157202190Y-94591142D01*
X157202190Y-94972095D01*
X157011714Y-93543523D02*
X157678380Y-93543523D01*
X156630761Y-93781619D02*
X157345047Y-94019714D01*
X157345047Y-93400666D01*
X138628380Y-74556857D02*
X138152190Y-74890190D01*
X138628380Y-75128285D02*
X137628380Y-75128285D01*
X137628380Y-74747333D01*
X137676000Y-74652095D01*
X137723619Y-74604476D01*
X137818857Y-74556857D01*
X137961714Y-74556857D01*
X138056952Y-74604476D01*
X138104571Y-74652095D01*
X138152190Y-74747333D01*
X138152190Y-75128285D01*
X138628380Y-73604476D02*
X138628380Y-74175904D01*
X138628380Y-73890190D02*
X137628380Y-73890190D01*
X137771238Y-73985428D01*
X137866476Y-74080666D01*
X137914095Y-74175904D01*
X137961714Y-72747333D02*
X138628380Y-72747333D01*
X137580761Y-72985428D02*
X138295047Y-73223523D01*
X138295047Y-72604476D01*
X140152380Y-74556857D02*
X139676190Y-74890190D01*
X140152380Y-75128285D02*
X139152380Y-75128285D01*
X139152380Y-74747333D01*
X139200000Y-74652095D01*
X139247619Y-74604476D01*
X139342857Y-74556857D01*
X139485714Y-74556857D01*
X139580952Y-74604476D01*
X139628571Y-74652095D01*
X139676190Y-74747333D01*
X139676190Y-75128285D01*
X140152380Y-73604476D02*
X140152380Y-74175904D01*
X140152380Y-73890190D02*
X139152380Y-73890190D01*
X139295238Y-73985428D01*
X139390476Y-74080666D01*
X139438095Y-74175904D01*
X139152380Y-72699714D02*
X139152380Y-73175904D01*
X139628571Y-73223523D01*
X139580952Y-73175904D01*
X139533333Y-73080666D01*
X139533333Y-72842571D01*
X139580952Y-72747333D01*
X139628571Y-72699714D01*
X139723809Y-72652095D01*
X139961904Y-72652095D01*
X140057142Y-72699714D01*
X140104761Y-72747333D01*
X140152380Y-72842571D01*
X140152380Y-73080666D01*
X140104761Y-73175904D01*
X140057142Y-73223523D01*
X131356380Y-85453357D02*
X130880190Y-85786690D01*
X131356380Y-86024785D02*
X130356380Y-86024785D01*
X130356380Y-85643833D01*
X130404000Y-85548595D01*
X130451619Y-85500976D01*
X130546857Y-85453357D01*
X130689714Y-85453357D01*
X130784952Y-85500976D01*
X130832571Y-85548595D01*
X130880190Y-85643833D01*
X130880190Y-86024785D01*
X131356380Y-84500976D02*
X131356380Y-85072404D01*
X131356380Y-84786690D02*
X130356380Y-84786690D01*
X130499238Y-84881928D01*
X130594476Y-84977166D01*
X130642095Y-85072404D01*
X130356380Y-83643833D02*
X130356380Y-83834309D01*
X130404000Y-83929547D01*
X130451619Y-83977166D01*
X130594476Y-84072404D01*
X130784952Y-84120023D01*
X131165904Y-84120023D01*
X131261142Y-84072404D01*
X131308761Y-84024785D01*
X131356380Y-83929547D01*
X131356380Y-83739071D01*
X131308761Y-83643833D01*
X131261142Y-83596214D01*
X131165904Y-83548595D01*
X130927809Y-83548595D01*
X130832571Y-83596214D01*
X130784952Y-83643833D01*
X130737333Y-83739071D01*
X130737333Y-83929547D01*
X130784952Y-84024785D01*
X130832571Y-84072404D01*
X130927809Y-84120023D01*
X136850380Y-74556857D02*
X136374190Y-74890190D01*
X136850380Y-75128285D02*
X135850380Y-75128285D01*
X135850380Y-74747333D01*
X135898000Y-74652095D01*
X135945619Y-74604476D01*
X136040857Y-74556857D01*
X136183714Y-74556857D01*
X136278952Y-74604476D01*
X136326571Y-74652095D01*
X136374190Y-74747333D01*
X136374190Y-75128285D01*
X136850380Y-73604476D02*
X136850380Y-74175904D01*
X136850380Y-73890190D02*
X135850380Y-73890190D01*
X135993238Y-73985428D01*
X136088476Y-74080666D01*
X136136095Y-74175904D01*
X135850380Y-73271142D02*
X135850380Y-72604476D01*
X136850380Y-73033047D01*
M02*
