G04 #@! TF.GenerationSoftware,KiCad,Pcbnew,(5.1.5)-3*
G04 #@! TF.CreationDate,2020-03-31T22:24:07+09:00*
G04 #@! TF.ProjectId,irController,6972436f-6e74-4726-9f6c-6c65722e6b69,rev?*
G04 #@! TF.SameCoordinates,Original*
G04 #@! TF.FileFunction,Paste,Top*
G04 #@! TF.FilePolarity,Positive*
%FSLAX46Y46*%
G04 Gerber Fmt 4.6, Leading zero omitted, Abs format (unit mm)*
G04 Created by KiCad (PCBNEW (5.1.5)-3) date 2020-03-31 22:24:07*
%MOMM*%
%LPD*%
G04 APERTURE LIST*
%ADD10C,0.100000*%
%ADD11R,0.650000X1.050000*%
%ADD12R,0.900000X0.800000*%
%ADD13R,2.500000X2.000000*%
%ADD14R,6.000000X6.000000*%
%ADD15O,2.000000X0.900000*%
%ADD16R,2.000000X0.900000*%
%ADD17R,4.300000X4.300000*%
%ADD18R,0.450000X1.300000*%
%ADD19R,1.525000X0.650000*%
G04 APERTURE END LIST*
D10*
G36*
X152132191Y-94522053D02*
G01*
X152153426Y-94525203D01*
X152174250Y-94530419D01*
X152194462Y-94537651D01*
X152213868Y-94546830D01*
X152232281Y-94557866D01*
X152249524Y-94570654D01*
X152265430Y-94585070D01*
X152279846Y-94600976D01*
X152292634Y-94618219D01*
X152303670Y-94636632D01*
X152312849Y-94656038D01*
X152320081Y-94676250D01*
X152325297Y-94697074D01*
X152328447Y-94718309D01*
X152329500Y-94739750D01*
X152329500Y-95252250D01*
X152328447Y-95273691D01*
X152325297Y-95294926D01*
X152320081Y-95315750D01*
X152312849Y-95335962D01*
X152303670Y-95355368D01*
X152292634Y-95373781D01*
X152279846Y-95391024D01*
X152265430Y-95406930D01*
X152249524Y-95421346D01*
X152232281Y-95434134D01*
X152213868Y-95445170D01*
X152194462Y-95454349D01*
X152174250Y-95461581D01*
X152153426Y-95466797D01*
X152132191Y-95469947D01*
X152110750Y-95471000D01*
X151673250Y-95471000D01*
X151651809Y-95469947D01*
X151630574Y-95466797D01*
X151609750Y-95461581D01*
X151589538Y-95454349D01*
X151570132Y-95445170D01*
X151551719Y-95434134D01*
X151534476Y-95421346D01*
X151518570Y-95406930D01*
X151504154Y-95391024D01*
X151491366Y-95373781D01*
X151480330Y-95355368D01*
X151471151Y-95335962D01*
X151463919Y-95315750D01*
X151458703Y-95294926D01*
X151455553Y-95273691D01*
X151454500Y-95252250D01*
X151454500Y-94739750D01*
X151455553Y-94718309D01*
X151458703Y-94697074D01*
X151463919Y-94676250D01*
X151471151Y-94656038D01*
X151480330Y-94636632D01*
X151491366Y-94618219D01*
X151504154Y-94600976D01*
X151518570Y-94585070D01*
X151534476Y-94570654D01*
X151551719Y-94557866D01*
X151570132Y-94546830D01*
X151589538Y-94537651D01*
X151609750Y-94530419D01*
X151630574Y-94525203D01*
X151651809Y-94522053D01*
X151673250Y-94521000D01*
X152110750Y-94521000D01*
X152132191Y-94522053D01*
G37*
G36*
X153707191Y-94522053D02*
G01*
X153728426Y-94525203D01*
X153749250Y-94530419D01*
X153769462Y-94537651D01*
X153788868Y-94546830D01*
X153807281Y-94557866D01*
X153824524Y-94570654D01*
X153840430Y-94585070D01*
X153854846Y-94600976D01*
X153867634Y-94618219D01*
X153878670Y-94636632D01*
X153887849Y-94656038D01*
X153895081Y-94676250D01*
X153900297Y-94697074D01*
X153903447Y-94718309D01*
X153904500Y-94739750D01*
X153904500Y-95252250D01*
X153903447Y-95273691D01*
X153900297Y-95294926D01*
X153895081Y-95315750D01*
X153887849Y-95335962D01*
X153878670Y-95355368D01*
X153867634Y-95373781D01*
X153854846Y-95391024D01*
X153840430Y-95406930D01*
X153824524Y-95421346D01*
X153807281Y-95434134D01*
X153788868Y-95445170D01*
X153769462Y-95454349D01*
X153749250Y-95461581D01*
X153728426Y-95466797D01*
X153707191Y-95469947D01*
X153685750Y-95471000D01*
X153248250Y-95471000D01*
X153226809Y-95469947D01*
X153205574Y-95466797D01*
X153184750Y-95461581D01*
X153164538Y-95454349D01*
X153145132Y-95445170D01*
X153126719Y-95434134D01*
X153109476Y-95421346D01*
X153093570Y-95406930D01*
X153079154Y-95391024D01*
X153066366Y-95373781D01*
X153055330Y-95355368D01*
X153046151Y-95335962D01*
X153038919Y-95315750D01*
X153033703Y-95294926D01*
X153030553Y-95273691D01*
X153029500Y-95252250D01*
X153029500Y-94739750D01*
X153030553Y-94718309D01*
X153033703Y-94697074D01*
X153038919Y-94676250D01*
X153046151Y-94656038D01*
X153055330Y-94636632D01*
X153066366Y-94618219D01*
X153079154Y-94600976D01*
X153093570Y-94585070D01*
X153109476Y-94570654D01*
X153126719Y-94557866D01*
X153145132Y-94546830D01*
X153164538Y-94537651D01*
X153184750Y-94530419D01*
X153205574Y-94525203D01*
X153226809Y-94522053D01*
X153248250Y-94521000D01*
X153685750Y-94521000D01*
X153707191Y-94522053D01*
G37*
G36*
X160297691Y-92273553D02*
G01*
X160318926Y-92276703D01*
X160339750Y-92281919D01*
X160359962Y-92289151D01*
X160379368Y-92298330D01*
X160397781Y-92309366D01*
X160415024Y-92322154D01*
X160430930Y-92336570D01*
X160445346Y-92352476D01*
X160458134Y-92369719D01*
X160469170Y-92388132D01*
X160478349Y-92407538D01*
X160485581Y-92427750D01*
X160490797Y-92448574D01*
X160493947Y-92469809D01*
X160495000Y-92491250D01*
X160495000Y-92928750D01*
X160493947Y-92950191D01*
X160490797Y-92971426D01*
X160485581Y-92992250D01*
X160478349Y-93012462D01*
X160469170Y-93031868D01*
X160458134Y-93050281D01*
X160445346Y-93067524D01*
X160430930Y-93083430D01*
X160415024Y-93097846D01*
X160397781Y-93110634D01*
X160379368Y-93121670D01*
X160359962Y-93130849D01*
X160339750Y-93138081D01*
X160318926Y-93143297D01*
X160297691Y-93146447D01*
X160276250Y-93147500D01*
X159763750Y-93147500D01*
X159742309Y-93146447D01*
X159721074Y-93143297D01*
X159700250Y-93138081D01*
X159680038Y-93130849D01*
X159660632Y-93121670D01*
X159642219Y-93110634D01*
X159624976Y-93097846D01*
X159609070Y-93083430D01*
X159594654Y-93067524D01*
X159581866Y-93050281D01*
X159570830Y-93031868D01*
X159561651Y-93012462D01*
X159554419Y-92992250D01*
X159549203Y-92971426D01*
X159546053Y-92950191D01*
X159545000Y-92928750D01*
X159545000Y-92491250D01*
X159546053Y-92469809D01*
X159549203Y-92448574D01*
X159554419Y-92427750D01*
X159561651Y-92407538D01*
X159570830Y-92388132D01*
X159581866Y-92369719D01*
X159594654Y-92352476D01*
X159609070Y-92336570D01*
X159624976Y-92322154D01*
X159642219Y-92309366D01*
X159660632Y-92298330D01*
X159680038Y-92289151D01*
X159700250Y-92281919D01*
X159721074Y-92276703D01*
X159742309Y-92273553D01*
X159763750Y-92272500D01*
X160276250Y-92272500D01*
X160297691Y-92273553D01*
G37*
G36*
X160297691Y-90698553D02*
G01*
X160318926Y-90701703D01*
X160339750Y-90706919D01*
X160359962Y-90714151D01*
X160379368Y-90723330D01*
X160397781Y-90734366D01*
X160415024Y-90747154D01*
X160430930Y-90761570D01*
X160445346Y-90777476D01*
X160458134Y-90794719D01*
X160469170Y-90813132D01*
X160478349Y-90832538D01*
X160485581Y-90852750D01*
X160490797Y-90873574D01*
X160493947Y-90894809D01*
X160495000Y-90916250D01*
X160495000Y-91353750D01*
X160493947Y-91375191D01*
X160490797Y-91396426D01*
X160485581Y-91417250D01*
X160478349Y-91437462D01*
X160469170Y-91456868D01*
X160458134Y-91475281D01*
X160445346Y-91492524D01*
X160430930Y-91508430D01*
X160415024Y-91522846D01*
X160397781Y-91535634D01*
X160379368Y-91546670D01*
X160359962Y-91555849D01*
X160339750Y-91563081D01*
X160318926Y-91568297D01*
X160297691Y-91571447D01*
X160276250Y-91572500D01*
X159763750Y-91572500D01*
X159742309Y-91571447D01*
X159721074Y-91568297D01*
X159700250Y-91563081D01*
X159680038Y-91555849D01*
X159660632Y-91546670D01*
X159642219Y-91535634D01*
X159624976Y-91522846D01*
X159609070Y-91508430D01*
X159594654Y-91492524D01*
X159581866Y-91475281D01*
X159570830Y-91456868D01*
X159561651Y-91437462D01*
X159554419Y-91417250D01*
X159549203Y-91396426D01*
X159546053Y-91375191D01*
X159545000Y-91353750D01*
X159545000Y-90916250D01*
X159546053Y-90894809D01*
X159549203Y-90873574D01*
X159554419Y-90852750D01*
X159561651Y-90832538D01*
X159570830Y-90813132D01*
X159581866Y-90794719D01*
X159594654Y-90777476D01*
X159609070Y-90761570D01*
X159624976Y-90747154D01*
X159642219Y-90734366D01*
X159660632Y-90723330D01*
X159680038Y-90714151D01*
X159700250Y-90706919D01*
X159721074Y-90701703D01*
X159742309Y-90698553D01*
X159763750Y-90697500D01*
X160276250Y-90697500D01*
X160297691Y-90698553D01*
G37*
G36*
X153439691Y-92324553D02*
G01*
X153460926Y-92327703D01*
X153481750Y-92332919D01*
X153501962Y-92340151D01*
X153521368Y-92349330D01*
X153539781Y-92360366D01*
X153557024Y-92373154D01*
X153572930Y-92387570D01*
X153587346Y-92403476D01*
X153600134Y-92420719D01*
X153611170Y-92439132D01*
X153620349Y-92458538D01*
X153627581Y-92478750D01*
X153632797Y-92499574D01*
X153635947Y-92520809D01*
X153637000Y-92542250D01*
X153637000Y-92979750D01*
X153635947Y-93001191D01*
X153632797Y-93022426D01*
X153627581Y-93043250D01*
X153620349Y-93063462D01*
X153611170Y-93082868D01*
X153600134Y-93101281D01*
X153587346Y-93118524D01*
X153572930Y-93134430D01*
X153557024Y-93148846D01*
X153539781Y-93161634D01*
X153521368Y-93172670D01*
X153501962Y-93181849D01*
X153481750Y-93189081D01*
X153460926Y-93194297D01*
X153439691Y-93197447D01*
X153418250Y-93198500D01*
X152905750Y-93198500D01*
X152884309Y-93197447D01*
X152863074Y-93194297D01*
X152842250Y-93189081D01*
X152822038Y-93181849D01*
X152802632Y-93172670D01*
X152784219Y-93161634D01*
X152766976Y-93148846D01*
X152751070Y-93134430D01*
X152736654Y-93118524D01*
X152723866Y-93101281D01*
X152712830Y-93082868D01*
X152703651Y-93063462D01*
X152696419Y-93043250D01*
X152691203Y-93022426D01*
X152688053Y-93001191D01*
X152687000Y-92979750D01*
X152687000Y-92542250D01*
X152688053Y-92520809D01*
X152691203Y-92499574D01*
X152696419Y-92478750D01*
X152703651Y-92458538D01*
X152712830Y-92439132D01*
X152723866Y-92420719D01*
X152736654Y-92403476D01*
X152751070Y-92387570D01*
X152766976Y-92373154D01*
X152784219Y-92360366D01*
X152802632Y-92349330D01*
X152822038Y-92340151D01*
X152842250Y-92332919D01*
X152863074Y-92327703D01*
X152884309Y-92324553D01*
X152905750Y-92323500D01*
X153418250Y-92323500D01*
X153439691Y-92324553D01*
G37*
G36*
X153439691Y-90749553D02*
G01*
X153460926Y-90752703D01*
X153481750Y-90757919D01*
X153501962Y-90765151D01*
X153521368Y-90774330D01*
X153539781Y-90785366D01*
X153557024Y-90798154D01*
X153572930Y-90812570D01*
X153587346Y-90828476D01*
X153600134Y-90845719D01*
X153611170Y-90864132D01*
X153620349Y-90883538D01*
X153627581Y-90903750D01*
X153632797Y-90924574D01*
X153635947Y-90945809D01*
X153637000Y-90967250D01*
X153637000Y-91404750D01*
X153635947Y-91426191D01*
X153632797Y-91447426D01*
X153627581Y-91468250D01*
X153620349Y-91488462D01*
X153611170Y-91507868D01*
X153600134Y-91526281D01*
X153587346Y-91543524D01*
X153572930Y-91559430D01*
X153557024Y-91573846D01*
X153539781Y-91586634D01*
X153521368Y-91597670D01*
X153501962Y-91606849D01*
X153481750Y-91614081D01*
X153460926Y-91619297D01*
X153439691Y-91622447D01*
X153418250Y-91623500D01*
X152905750Y-91623500D01*
X152884309Y-91622447D01*
X152863074Y-91619297D01*
X152842250Y-91614081D01*
X152822038Y-91606849D01*
X152802632Y-91597670D01*
X152784219Y-91586634D01*
X152766976Y-91573846D01*
X152751070Y-91559430D01*
X152736654Y-91543524D01*
X152723866Y-91526281D01*
X152712830Y-91507868D01*
X152703651Y-91488462D01*
X152696419Y-91468250D01*
X152691203Y-91447426D01*
X152688053Y-91426191D01*
X152687000Y-91404750D01*
X152687000Y-90967250D01*
X152688053Y-90945809D01*
X152691203Y-90924574D01*
X152696419Y-90903750D01*
X152703651Y-90883538D01*
X152712830Y-90864132D01*
X152723866Y-90845719D01*
X152736654Y-90828476D01*
X152751070Y-90812570D01*
X152766976Y-90798154D01*
X152784219Y-90785366D01*
X152802632Y-90774330D01*
X152822038Y-90765151D01*
X152842250Y-90757919D01*
X152863074Y-90752703D01*
X152884309Y-90749553D01*
X152905750Y-90748500D01*
X153418250Y-90748500D01*
X153439691Y-90749553D01*
G37*
D11*
X150563000Y-101135000D03*
X152713000Y-101135000D03*
X150563000Y-96985000D03*
X152713000Y-96985000D03*
D10*
G36*
X134897691Y-83586553D02*
G01*
X134918926Y-83589703D01*
X134939750Y-83594919D01*
X134959962Y-83602151D01*
X134979368Y-83611330D01*
X134997781Y-83622366D01*
X135015024Y-83635154D01*
X135030930Y-83649570D01*
X135045346Y-83665476D01*
X135058134Y-83682719D01*
X135069170Y-83701132D01*
X135078349Y-83720538D01*
X135085581Y-83740750D01*
X135090797Y-83761574D01*
X135093947Y-83782809D01*
X135095000Y-83804250D01*
X135095000Y-84241750D01*
X135093947Y-84263191D01*
X135090797Y-84284426D01*
X135085581Y-84305250D01*
X135078349Y-84325462D01*
X135069170Y-84344868D01*
X135058134Y-84363281D01*
X135045346Y-84380524D01*
X135030930Y-84396430D01*
X135015024Y-84410846D01*
X134997781Y-84423634D01*
X134979368Y-84434670D01*
X134959962Y-84443849D01*
X134939750Y-84451081D01*
X134918926Y-84456297D01*
X134897691Y-84459447D01*
X134876250Y-84460500D01*
X134363750Y-84460500D01*
X134342309Y-84459447D01*
X134321074Y-84456297D01*
X134300250Y-84451081D01*
X134280038Y-84443849D01*
X134260632Y-84434670D01*
X134242219Y-84423634D01*
X134224976Y-84410846D01*
X134209070Y-84396430D01*
X134194654Y-84380524D01*
X134181866Y-84363281D01*
X134170830Y-84344868D01*
X134161651Y-84325462D01*
X134154419Y-84305250D01*
X134149203Y-84284426D01*
X134146053Y-84263191D01*
X134145000Y-84241750D01*
X134145000Y-83804250D01*
X134146053Y-83782809D01*
X134149203Y-83761574D01*
X134154419Y-83740750D01*
X134161651Y-83720538D01*
X134170830Y-83701132D01*
X134181866Y-83682719D01*
X134194654Y-83665476D01*
X134209070Y-83649570D01*
X134224976Y-83635154D01*
X134242219Y-83622366D01*
X134260632Y-83611330D01*
X134280038Y-83602151D01*
X134300250Y-83594919D01*
X134321074Y-83589703D01*
X134342309Y-83586553D01*
X134363750Y-83585500D01*
X134876250Y-83585500D01*
X134897691Y-83586553D01*
G37*
G36*
X134897691Y-85161553D02*
G01*
X134918926Y-85164703D01*
X134939750Y-85169919D01*
X134959962Y-85177151D01*
X134979368Y-85186330D01*
X134997781Y-85197366D01*
X135015024Y-85210154D01*
X135030930Y-85224570D01*
X135045346Y-85240476D01*
X135058134Y-85257719D01*
X135069170Y-85276132D01*
X135078349Y-85295538D01*
X135085581Y-85315750D01*
X135090797Y-85336574D01*
X135093947Y-85357809D01*
X135095000Y-85379250D01*
X135095000Y-85816750D01*
X135093947Y-85838191D01*
X135090797Y-85859426D01*
X135085581Y-85880250D01*
X135078349Y-85900462D01*
X135069170Y-85919868D01*
X135058134Y-85938281D01*
X135045346Y-85955524D01*
X135030930Y-85971430D01*
X135015024Y-85985846D01*
X134997781Y-85998634D01*
X134979368Y-86009670D01*
X134959962Y-86018849D01*
X134939750Y-86026081D01*
X134918926Y-86031297D01*
X134897691Y-86034447D01*
X134876250Y-86035500D01*
X134363750Y-86035500D01*
X134342309Y-86034447D01*
X134321074Y-86031297D01*
X134300250Y-86026081D01*
X134280038Y-86018849D01*
X134260632Y-86009670D01*
X134242219Y-85998634D01*
X134224976Y-85985846D01*
X134209070Y-85971430D01*
X134194654Y-85955524D01*
X134181866Y-85938281D01*
X134170830Y-85919868D01*
X134161651Y-85900462D01*
X134154419Y-85880250D01*
X134149203Y-85859426D01*
X134146053Y-85838191D01*
X134145000Y-85816750D01*
X134145000Y-85379250D01*
X134146053Y-85357809D01*
X134149203Y-85336574D01*
X134154419Y-85315750D01*
X134161651Y-85295538D01*
X134170830Y-85276132D01*
X134181866Y-85257719D01*
X134194654Y-85240476D01*
X134209070Y-85224570D01*
X134224976Y-85210154D01*
X134242219Y-85197366D01*
X134260632Y-85186330D01*
X134280038Y-85177151D01*
X134300250Y-85169919D01*
X134321074Y-85164703D01*
X134342309Y-85161553D01*
X134363750Y-85160500D01*
X134876250Y-85160500D01*
X134897691Y-85161553D01*
G37*
G36*
X162583691Y-92324553D02*
G01*
X162604926Y-92327703D01*
X162625750Y-92332919D01*
X162645962Y-92340151D01*
X162665368Y-92349330D01*
X162683781Y-92360366D01*
X162701024Y-92373154D01*
X162716930Y-92387570D01*
X162731346Y-92403476D01*
X162744134Y-92420719D01*
X162755170Y-92439132D01*
X162764349Y-92458538D01*
X162771581Y-92478750D01*
X162776797Y-92499574D01*
X162779947Y-92520809D01*
X162781000Y-92542250D01*
X162781000Y-92979750D01*
X162779947Y-93001191D01*
X162776797Y-93022426D01*
X162771581Y-93043250D01*
X162764349Y-93063462D01*
X162755170Y-93082868D01*
X162744134Y-93101281D01*
X162731346Y-93118524D01*
X162716930Y-93134430D01*
X162701024Y-93148846D01*
X162683781Y-93161634D01*
X162665368Y-93172670D01*
X162645962Y-93181849D01*
X162625750Y-93189081D01*
X162604926Y-93194297D01*
X162583691Y-93197447D01*
X162562250Y-93198500D01*
X162049750Y-93198500D01*
X162028309Y-93197447D01*
X162007074Y-93194297D01*
X161986250Y-93189081D01*
X161966038Y-93181849D01*
X161946632Y-93172670D01*
X161928219Y-93161634D01*
X161910976Y-93148846D01*
X161895070Y-93134430D01*
X161880654Y-93118524D01*
X161867866Y-93101281D01*
X161856830Y-93082868D01*
X161847651Y-93063462D01*
X161840419Y-93043250D01*
X161835203Y-93022426D01*
X161832053Y-93001191D01*
X161831000Y-92979750D01*
X161831000Y-92542250D01*
X161832053Y-92520809D01*
X161835203Y-92499574D01*
X161840419Y-92478750D01*
X161847651Y-92458538D01*
X161856830Y-92439132D01*
X161867866Y-92420719D01*
X161880654Y-92403476D01*
X161895070Y-92387570D01*
X161910976Y-92373154D01*
X161928219Y-92360366D01*
X161946632Y-92349330D01*
X161966038Y-92340151D01*
X161986250Y-92332919D01*
X162007074Y-92327703D01*
X162028309Y-92324553D01*
X162049750Y-92323500D01*
X162562250Y-92323500D01*
X162583691Y-92324553D01*
G37*
G36*
X162583691Y-90749553D02*
G01*
X162604926Y-90752703D01*
X162625750Y-90757919D01*
X162645962Y-90765151D01*
X162665368Y-90774330D01*
X162683781Y-90785366D01*
X162701024Y-90798154D01*
X162716930Y-90812570D01*
X162731346Y-90828476D01*
X162744134Y-90845719D01*
X162755170Y-90864132D01*
X162764349Y-90883538D01*
X162771581Y-90903750D01*
X162776797Y-90924574D01*
X162779947Y-90945809D01*
X162781000Y-90967250D01*
X162781000Y-91404750D01*
X162779947Y-91426191D01*
X162776797Y-91447426D01*
X162771581Y-91468250D01*
X162764349Y-91488462D01*
X162755170Y-91507868D01*
X162744134Y-91526281D01*
X162731346Y-91543524D01*
X162716930Y-91559430D01*
X162701024Y-91573846D01*
X162683781Y-91586634D01*
X162665368Y-91597670D01*
X162645962Y-91606849D01*
X162625750Y-91614081D01*
X162604926Y-91619297D01*
X162583691Y-91622447D01*
X162562250Y-91623500D01*
X162049750Y-91623500D01*
X162028309Y-91622447D01*
X162007074Y-91619297D01*
X161986250Y-91614081D01*
X161966038Y-91606849D01*
X161946632Y-91597670D01*
X161928219Y-91586634D01*
X161910976Y-91573846D01*
X161895070Y-91559430D01*
X161880654Y-91543524D01*
X161867866Y-91526281D01*
X161856830Y-91507868D01*
X161847651Y-91488462D01*
X161840419Y-91468250D01*
X161835203Y-91447426D01*
X161832053Y-91426191D01*
X161831000Y-91404750D01*
X161831000Y-90967250D01*
X161832053Y-90945809D01*
X161835203Y-90924574D01*
X161840419Y-90903750D01*
X161847651Y-90883538D01*
X161856830Y-90864132D01*
X161867866Y-90845719D01*
X161880654Y-90828476D01*
X161895070Y-90812570D01*
X161910976Y-90798154D01*
X161928219Y-90785366D01*
X161946632Y-90774330D01*
X161966038Y-90765151D01*
X161986250Y-90757919D01*
X162007074Y-90752703D01*
X162028309Y-90749553D01*
X162049750Y-90748500D01*
X162562250Y-90748500D01*
X162583691Y-90749553D01*
G37*
G36*
X142539691Y-77567053D02*
G01*
X142560926Y-77570203D01*
X142581750Y-77575419D01*
X142601962Y-77582651D01*
X142621368Y-77591830D01*
X142639781Y-77602866D01*
X142657024Y-77615654D01*
X142672930Y-77630070D01*
X142687346Y-77645976D01*
X142700134Y-77663219D01*
X142711170Y-77681632D01*
X142720349Y-77701038D01*
X142727581Y-77721250D01*
X142732797Y-77742074D01*
X142735947Y-77763309D01*
X142737000Y-77784750D01*
X142737000Y-78222250D01*
X142735947Y-78243691D01*
X142732797Y-78264926D01*
X142727581Y-78285750D01*
X142720349Y-78305962D01*
X142711170Y-78325368D01*
X142700134Y-78343781D01*
X142687346Y-78361024D01*
X142672930Y-78376930D01*
X142657024Y-78391346D01*
X142639781Y-78404134D01*
X142621368Y-78415170D01*
X142601962Y-78424349D01*
X142581750Y-78431581D01*
X142560926Y-78436797D01*
X142539691Y-78439947D01*
X142518250Y-78441000D01*
X142005750Y-78441000D01*
X141984309Y-78439947D01*
X141963074Y-78436797D01*
X141942250Y-78431581D01*
X141922038Y-78424349D01*
X141902632Y-78415170D01*
X141884219Y-78404134D01*
X141866976Y-78391346D01*
X141851070Y-78376930D01*
X141836654Y-78361024D01*
X141823866Y-78343781D01*
X141812830Y-78325368D01*
X141803651Y-78305962D01*
X141796419Y-78285750D01*
X141791203Y-78264926D01*
X141788053Y-78243691D01*
X141787000Y-78222250D01*
X141787000Y-77784750D01*
X141788053Y-77763309D01*
X141791203Y-77742074D01*
X141796419Y-77721250D01*
X141803651Y-77701038D01*
X141812830Y-77681632D01*
X141823866Y-77663219D01*
X141836654Y-77645976D01*
X141851070Y-77630070D01*
X141866976Y-77615654D01*
X141884219Y-77602866D01*
X141902632Y-77591830D01*
X141922038Y-77582651D01*
X141942250Y-77575419D01*
X141963074Y-77570203D01*
X141984309Y-77567053D01*
X142005750Y-77566000D01*
X142518250Y-77566000D01*
X142539691Y-77567053D01*
G37*
G36*
X142539691Y-75992053D02*
G01*
X142560926Y-75995203D01*
X142581750Y-76000419D01*
X142601962Y-76007651D01*
X142621368Y-76016830D01*
X142639781Y-76027866D01*
X142657024Y-76040654D01*
X142672930Y-76055070D01*
X142687346Y-76070976D01*
X142700134Y-76088219D01*
X142711170Y-76106632D01*
X142720349Y-76126038D01*
X142727581Y-76146250D01*
X142732797Y-76167074D01*
X142735947Y-76188309D01*
X142737000Y-76209750D01*
X142737000Y-76647250D01*
X142735947Y-76668691D01*
X142732797Y-76689926D01*
X142727581Y-76710750D01*
X142720349Y-76730962D01*
X142711170Y-76750368D01*
X142700134Y-76768781D01*
X142687346Y-76786024D01*
X142672930Y-76801930D01*
X142657024Y-76816346D01*
X142639781Y-76829134D01*
X142621368Y-76840170D01*
X142601962Y-76849349D01*
X142581750Y-76856581D01*
X142560926Y-76861797D01*
X142539691Y-76864947D01*
X142518250Y-76866000D01*
X142005750Y-76866000D01*
X141984309Y-76864947D01*
X141963074Y-76861797D01*
X141942250Y-76856581D01*
X141922038Y-76849349D01*
X141902632Y-76840170D01*
X141884219Y-76829134D01*
X141866976Y-76816346D01*
X141851070Y-76801930D01*
X141836654Y-76786024D01*
X141823866Y-76768781D01*
X141812830Y-76750368D01*
X141803651Y-76730962D01*
X141796419Y-76710750D01*
X141791203Y-76689926D01*
X141788053Y-76668691D01*
X141787000Y-76647250D01*
X141787000Y-76209750D01*
X141788053Y-76188309D01*
X141791203Y-76167074D01*
X141796419Y-76146250D01*
X141803651Y-76126038D01*
X141812830Y-76106632D01*
X141823866Y-76088219D01*
X141836654Y-76070976D01*
X141851070Y-76055070D01*
X141866976Y-76040654D01*
X141884219Y-76027866D01*
X141902632Y-76016830D01*
X141922038Y-76007651D01*
X141942250Y-76000419D01*
X141963074Y-75995203D01*
X141984309Y-75992053D01*
X142005750Y-75991000D01*
X142518250Y-75991000D01*
X142539691Y-75992053D01*
G37*
G36*
X146703504Y-90626204D02*
G01*
X146727773Y-90629804D01*
X146751571Y-90635765D01*
X146774671Y-90644030D01*
X146796849Y-90654520D01*
X146817893Y-90667133D01*
X146837598Y-90681747D01*
X146855777Y-90698223D01*
X146872253Y-90716402D01*
X146886867Y-90736107D01*
X146899480Y-90757151D01*
X146909970Y-90779329D01*
X146918235Y-90802429D01*
X146924196Y-90826227D01*
X146927796Y-90850496D01*
X146929000Y-90875000D01*
X146929000Y-92125000D01*
X146927796Y-92149504D01*
X146924196Y-92173773D01*
X146918235Y-92197571D01*
X146909970Y-92220671D01*
X146899480Y-92242849D01*
X146886867Y-92263893D01*
X146872253Y-92283598D01*
X146855777Y-92301777D01*
X146837598Y-92318253D01*
X146817893Y-92332867D01*
X146796849Y-92345480D01*
X146774671Y-92355970D01*
X146751571Y-92364235D01*
X146727773Y-92370196D01*
X146703504Y-92373796D01*
X146679000Y-92375000D01*
X145929000Y-92375000D01*
X145904496Y-92373796D01*
X145880227Y-92370196D01*
X145856429Y-92364235D01*
X145833329Y-92355970D01*
X145811151Y-92345480D01*
X145790107Y-92332867D01*
X145770402Y-92318253D01*
X145752223Y-92301777D01*
X145735747Y-92283598D01*
X145721133Y-92263893D01*
X145708520Y-92242849D01*
X145698030Y-92220671D01*
X145689765Y-92197571D01*
X145683804Y-92173773D01*
X145680204Y-92149504D01*
X145679000Y-92125000D01*
X145679000Y-90875000D01*
X145680204Y-90850496D01*
X145683804Y-90826227D01*
X145689765Y-90802429D01*
X145698030Y-90779329D01*
X145708520Y-90757151D01*
X145721133Y-90736107D01*
X145735747Y-90716402D01*
X145752223Y-90698223D01*
X145770402Y-90681747D01*
X145790107Y-90667133D01*
X145811151Y-90654520D01*
X145833329Y-90644030D01*
X145856429Y-90635765D01*
X145880227Y-90629804D01*
X145904496Y-90626204D01*
X145929000Y-90625000D01*
X146679000Y-90625000D01*
X146703504Y-90626204D01*
G37*
G36*
X143903504Y-90626204D02*
G01*
X143927773Y-90629804D01*
X143951571Y-90635765D01*
X143974671Y-90644030D01*
X143996849Y-90654520D01*
X144017893Y-90667133D01*
X144037598Y-90681747D01*
X144055777Y-90698223D01*
X144072253Y-90716402D01*
X144086867Y-90736107D01*
X144099480Y-90757151D01*
X144109970Y-90779329D01*
X144118235Y-90802429D01*
X144124196Y-90826227D01*
X144127796Y-90850496D01*
X144129000Y-90875000D01*
X144129000Y-92125000D01*
X144127796Y-92149504D01*
X144124196Y-92173773D01*
X144118235Y-92197571D01*
X144109970Y-92220671D01*
X144099480Y-92242849D01*
X144086867Y-92263893D01*
X144072253Y-92283598D01*
X144055777Y-92301777D01*
X144037598Y-92318253D01*
X144017893Y-92332867D01*
X143996849Y-92345480D01*
X143974671Y-92355970D01*
X143951571Y-92364235D01*
X143927773Y-92370196D01*
X143903504Y-92373796D01*
X143879000Y-92375000D01*
X143129000Y-92375000D01*
X143104496Y-92373796D01*
X143080227Y-92370196D01*
X143056429Y-92364235D01*
X143033329Y-92355970D01*
X143011151Y-92345480D01*
X142990107Y-92332867D01*
X142970402Y-92318253D01*
X142952223Y-92301777D01*
X142935747Y-92283598D01*
X142921133Y-92263893D01*
X142908520Y-92242849D01*
X142898030Y-92220671D01*
X142889765Y-92197571D01*
X142883804Y-92173773D01*
X142880204Y-92149504D01*
X142879000Y-92125000D01*
X142879000Y-90875000D01*
X142880204Y-90850496D01*
X142883804Y-90826227D01*
X142889765Y-90802429D01*
X142898030Y-90779329D01*
X142908520Y-90757151D01*
X142921133Y-90736107D01*
X142935747Y-90716402D01*
X142952223Y-90698223D01*
X142970402Y-90681747D01*
X142990107Y-90667133D01*
X143011151Y-90654520D01*
X143033329Y-90644030D01*
X143056429Y-90635765D01*
X143080227Y-90629804D01*
X143104496Y-90626204D01*
X143129000Y-90625000D01*
X143879000Y-90625000D01*
X143903504Y-90626204D01*
G37*
G36*
X137301504Y-99328204D02*
G01*
X137325773Y-99331804D01*
X137349571Y-99337765D01*
X137372671Y-99346030D01*
X137394849Y-99356520D01*
X137415893Y-99369133D01*
X137435598Y-99383747D01*
X137453777Y-99400223D01*
X137470253Y-99418402D01*
X137484867Y-99438107D01*
X137497480Y-99459151D01*
X137507970Y-99481329D01*
X137516235Y-99504429D01*
X137522196Y-99528227D01*
X137525796Y-99552496D01*
X137527000Y-99577000D01*
X137527000Y-100327000D01*
X137525796Y-100351504D01*
X137522196Y-100375773D01*
X137516235Y-100399571D01*
X137507970Y-100422671D01*
X137497480Y-100444849D01*
X137484867Y-100465893D01*
X137470253Y-100485598D01*
X137453777Y-100503777D01*
X137435598Y-100520253D01*
X137415893Y-100534867D01*
X137394849Y-100547480D01*
X137372671Y-100557970D01*
X137349571Y-100566235D01*
X137325773Y-100572196D01*
X137301504Y-100575796D01*
X137277000Y-100577000D01*
X136027000Y-100577000D01*
X136002496Y-100575796D01*
X135978227Y-100572196D01*
X135954429Y-100566235D01*
X135931329Y-100557970D01*
X135909151Y-100547480D01*
X135888107Y-100534867D01*
X135868402Y-100520253D01*
X135850223Y-100503777D01*
X135833747Y-100485598D01*
X135819133Y-100465893D01*
X135806520Y-100444849D01*
X135796030Y-100422671D01*
X135787765Y-100399571D01*
X135781804Y-100375773D01*
X135778204Y-100351504D01*
X135777000Y-100327000D01*
X135777000Y-99577000D01*
X135778204Y-99552496D01*
X135781804Y-99528227D01*
X135787765Y-99504429D01*
X135796030Y-99481329D01*
X135806520Y-99459151D01*
X135819133Y-99438107D01*
X135833747Y-99418402D01*
X135850223Y-99400223D01*
X135868402Y-99383747D01*
X135888107Y-99369133D01*
X135909151Y-99356520D01*
X135931329Y-99346030D01*
X135954429Y-99337765D01*
X135978227Y-99331804D01*
X136002496Y-99328204D01*
X136027000Y-99327000D01*
X137277000Y-99327000D01*
X137301504Y-99328204D01*
G37*
G36*
X137301504Y-96528204D02*
G01*
X137325773Y-96531804D01*
X137349571Y-96537765D01*
X137372671Y-96546030D01*
X137394849Y-96556520D01*
X137415893Y-96569133D01*
X137435598Y-96583747D01*
X137453777Y-96600223D01*
X137470253Y-96618402D01*
X137484867Y-96638107D01*
X137497480Y-96659151D01*
X137507970Y-96681329D01*
X137516235Y-96704429D01*
X137522196Y-96728227D01*
X137525796Y-96752496D01*
X137527000Y-96777000D01*
X137527000Y-97527000D01*
X137525796Y-97551504D01*
X137522196Y-97575773D01*
X137516235Y-97599571D01*
X137507970Y-97622671D01*
X137497480Y-97644849D01*
X137484867Y-97665893D01*
X137470253Y-97685598D01*
X137453777Y-97703777D01*
X137435598Y-97720253D01*
X137415893Y-97734867D01*
X137394849Y-97747480D01*
X137372671Y-97757970D01*
X137349571Y-97766235D01*
X137325773Y-97772196D01*
X137301504Y-97775796D01*
X137277000Y-97777000D01*
X136027000Y-97777000D01*
X136002496Y-97775796D01*
X135978227Y-97772196D01*
X135954429Y-97766235D01*
X135931329Y-97757970D01*
X135909151Y-97747480D01*
X135888107Y-97734867D01*
X135868402Y-97720253D01*
X135850223Y-97703777D01*
X135833747Y-97685598D01*
X135819133Y-97665893D01*
X135806520Y-97644849D01*
X135796030Y-97622671D01*
X135787765Y-97599571D01*
X135781804Y-97575773D01*
X135778204Y-97551504D01*
X135777000Y-97527000D01*
X135777000Y-96777000D01*
X135778204Y-96752496D01*
X135781804Y-96728227D01*
X135787765Y-96704429D01*
X135796030Y-96681329D01*
X135806520Y-96659151D01*
X135819133Y-96638107D01*
X135833747Y-96618402D01*
X135850223Y-96600223D01*
X135868402Y-96583747D01*
X135888107Y-96569133D01*
X135909151Y-96556520D01*
X135931329Y-96546030D01*
X135954429Y-96537765D01*
X135978227Y-96531804D01*
X136002496Y-96528204D01*
X136027000Y-96527000D01*
X137277000Y-96527000D01*
X137301504Y-96528204D01*
G37*
G36*
X166840191Y-85226053D02*
G01*
X166861426Y-85229203D01*
X166882250Y-85234419D01*
X166902462Y-85241651D01*
X166921868Y-85250830D01*
X166940281Y-85261866D01*
X166957524Y-85274654D01*
X166973430Y-85289070D01*
X166987846Y-85304976D01*
X167000634Y-85322219D01*
X167011670Y-85340632D01*
X167020849Y-85360038D01*
X167028081Y-85380250D01*
X167033297Y-85401074D01*
X167036447Y-85422309D01*
X167037500Y-85443750D01*
X167037500Y-85956250D01*
X167036447Y-85977691D01*
X167033297Y-85998926D01*
X167028081Y-86019750D01*
X167020849Y-86039962D01*
X167011670Y-86059368D01*
X167000634Y-86077781D01*
X166987846Y-86095024D01*
X166973430Y-86110930D01*
X166957524Y-86125346D01*
X166940281Y-86138134D01*
X166921868Y-86149170D01*
X166902462Y-86158349D01*
X166882250Y-86165581D01*
X166861426Y-86170797D01*
X166840191Y-86173947D01*
X166818750Y-86175000D01*
X166381250Y-86175000D01*
X166359809Y-86173947D01*
X166338574Y-86170797D01*
X166317750Y-86165581D01*
X166297538Y-86158349D01*
X166278132Y-86149170D01*
X166259719Y-86138134D01*
X166242476Y-86125346D01*
X166226570Y-86110930D01*
X166212154Y-86095024D01*
X166199366Y-86077781D01*
X166188330Y-86059368D01*
X166179151Y-86039962D01*
X166171919Y-86019750D01*
X166166703Y-85998926D01*
X166163553Y-85977691D01*
X166162500Y-85956250D01*
X166162500Y-85443750D01*
X166163553Y-85422309D01*
X166166703Y-85401074D01*
X166171919Y-85380250D01*
X166179151Y-85360038D01*
X166188330Y-85340632D01*
X166199366Y-85322219D01*
X166212154Y-85304976D01*
X166226570Y-85289070D01*
X166242476Y-85274654D01*
X166259719Y-85261866D01*
X166278132Y-85250830D01*
X166297538Y-85241651D01*
X166317750Y-85234419D01*
X166338574Y-85229203D01*
X166359809Y-85226053D01*
X166381250Y-85225000D01*
X166818750Y-85225000D01*
X166840191Y-85226053D01*
G37*
G36*
X168415191Y-85226053D02*
G01*
X168436426Y-85229203D01*
X168457250Y-85234419D01*
X168477462Y-85241651D01*
X168496868Y-85250830D01*
X168515281Y-85261866D01*
X168532524Y-85274654D01*
X168548430Y-85289070D01*
X168562846Y-85304976D01*
X168575634Y-85322219D01*
X168586670Y-85340632D01*
X168595849Y-85360038D01*
X168603081Y-85380250D01*
X168608297Y-85401074D01*
X168611447Y-85422309D01*
X168612500Y-85443750D01*
X168612500Y-85956250D01*
X168611447Y-85977691D01*
X168608297Y-85998926D01*
X168603081Y-86019750D01*
X168595849Y-86039962D01*
X168586670Y-86059368D01*
X168575634Y-86077781D01*
X168562846Y-86095024D01*
X168548430Y-86110930D01*
X168532524Y-86125346D01*
X168515281Y-86138134D01*
X168496868Y-86149170D01*
X168477462Y-86158349D01*
X168457250Y-86165581D01*
X168436426Y-86170797D01*
X168415191Y-86173947D01*
X168393750Y-86175000D01*
X167956250Y-86175000D01*
X167934809Y-86173947D01*
X167913574Y-86170797D01*
X167892750Y-86165581D01*
X167872538Y-86158349D01*
X167853132Y-86149170D01*
X167834719Y-86138134D01*
X167817476Y-86125346D01*
X167801570Y-86110930D01*
X167787154Y-86095024D01*
X167774366Y-86077781D01*
X167763330Y-86059368D01*
X167754151Y-86039962D01*
X167746919Y-86019750D01*
X167741703Y-85998926D01*
X167738553Y-85977691D01*
X167737500Y-85956250D01*
X167737500Y-85443750D01*
X167738553Y-85422309D01*
X167741703Y-85401074D01*
X167746919Y-85380250D01*
X167754151Y-85360038D01*
X167763330Y-85340632D01*
X167774366Y-85322219D01*
X167787154Y-85304976D01*
X167801570Y-85289070D01*
X167817476Y-85274654D01*
X167834719Y-85261866D01*
X167853132Y-85250830D01*
X167872538Y-85241651D01*
X167892750Y-85234419D01*
X167913574Y-85229203D01*
X167934809Y-85226053D01*
X167956250Y-85225000D01*
X168393750Y-85225000D01*
X168415191Y-85226053D01*
G37*
G36*
X177182691Y-78266053D02*
G01*
X177203926Y-78269203D01*
X177224750Y-78274419D01*
X177244962Y-78281651D01*
X177264368Y-78290830D01*
X177282781Y-78301866D01*
X177300024Y-78314654D01*
X177315930Y-78329070D01*
X177330346Y-78344976D01*
X177343134Y-78362219D01*
X177354170Y-78380632D01*
X177363349Y-78400038D01*
X177370581Y-78420250D01*
X177375797Y-78441074D01*
X177378947Y-78462309D01*
X177380000Y-78483750D01*
X177380000Y-78996250D01*
X177378947Y-79017691D01*
X177375797Y-79038926D01*
X177370581Y-79059750D01*
X177363349Y-79079962D01*
X177354170Y-79099368D01*
X177343134Y-79117781D01*
X177330346Y-79135024D01*
X177315930Y-79150930D01*
X177300024Y-79165346D01*
X177282781Y-79178134D01*
X177264368Y-79189170D01*
X177244962Y-79198349D01*
X177224750Y-79205581D01*
X177203926Y-79210797D01*
X177182691Y-79213947D01*
X177161250Y-79215000D01*
X176723750Y-79215000D01*
X176702309Y-79213947D01*
X176681074Y-79210797D01*
X176660250Y-79205581D01*
X176640038Y-79198349D01*
X176620632Y-79189170D01*
X176602219Y-79178134D01*
X176584976Y-79165346D01*
X176569070Y-79150930D01*
X176554654Y-79135024D01*
X176541866Y-79117781D01*
X176530830Y-79099368D01*
X176521651Y-79079962D01*
X176514419Y-79059750D01*
X176509203Y-79038926D01*
X176506053Y-79017691D01*
X176505000Y-78996250D01*
X176505000Y-78483750D01*
X176506053Y-78462309D01*
X176509203Y-78441074D01*
X176514419Y-78420250D01*
X176521651Y-78400038D01*
X176530830Y-78380632D01*
X176541866Y-78362219D01*
X176554654Y-78344976D01*
X176569070Y-78329070D01*
X176584976Y-78314654D01*
X176602219Y-78301866D01*
X176620632Y-78290830D01*
X176640038Y-78281651D01*
X176660250Y-78274419D01*
X176681074Y-78269203D01*
X176702309Y-78266053D01*
X176723750Y-78265000D01*
X177161250Y-78265000D01*
X177182691Y-78266053D01*
G37*
G36*
X178757691Y-78266053D02*
G01*
X178778926Y-78269203D01*
X178799750Y-78274419D01*
X178819962Y-78281651D01*
X178839368Y-78290830D01*
X178857781Y-78301866D01*
X178875024Y-78314654D01*
X178890930Y-78329070D01*
X178905346Y-78344976D01*
X178918134Y-78362219D01*
X178929170Y-78380632D01*
X178938349Y-78400038D01*
X178945581Y-78420250D01*
X178950797Y-78441074D01*
X178953947Y-78462309D01*
X178955000Y-78483750D01*
X178955000Y-78996250D01*
X178953947Y-79017691D01*
X178950797Y-79038926D01*
X178945581Y-79059750D01*
X178938349Y-79079962D01*
X178929170Y-79099368D01*
X178918134Y-79117781D01*
X178905346Y-79135024D01*
X178890930Y-79150930D01*
X178875024Y-79165346D01*
X178857781Y-79178134D01*
X178839368Y-79189170D01*
X178819962Y-79198349D01*
X178799750Y-79205581D01*
X178778926Y-79210797D01*
X178757691Y-79213947D01*
X178736250Y-79215000D01*
X178298750Y-79215000D01*
X178277309Y-79213947D01*
X178256074Y-79210797D01*
X178235250Y-79205581D01*
X178215038Y-79198349D01*
X178195632Y-79189170D01*
X178177219Y-79178134D01*
X178159976Y-79165346D01*
X178144070Y-79150930D01*
X178129654Y-79135024D01*
X178116866Y-79117781D01*
X178105830Y-79099368D01*
X178096651Y-79079962D01*
X178089419Y-79059750D01*
X178084203Y-79038926D01*
X178081053Y-79017691D01*
X178080000Y-78996250D01*
X178080000Y-78483750D01*
X178081053Y-78462309D01*
X178084203Y-78441074D01*
X178089419Y-78420250D01*
X178096651Y-78400038D01*
X178105830Y-78380632D01*
X178116866Y-78362219D01*
X178129654Y-78344976D01*
X178144070Y-78329070D01*
X178159976Y-78314654D01*
X178177219Y-78301866D01*
X178195632Y-78290830D01*
X178215038Y-78281651D01*
X178235250Y-78274419D01*
X178256074Y-78269203D01*
X178277309Y-78266053D01*
X178298750Y-78265000D01*
X178736250Y-78265000D01*
X178757691Y-78266053D01*
G37*
D11*
X155425000Y-101178000D03*
X157575000Y-101178000D03*
X155425000Y-97028000D03*
X157575000Y-97028000D03*
D12*
X164500000Y-92550000D03*
X164500000Y-94450000D03*
X166500000Y-93500000D03*
D13*
X140616000Y-93486000D03*
X140616000Y-88886000D03*
D14*
X134366000Y-91186000D03*
D10*
G36*
X155725691Y-92273553D02*
G01*
X155746926Y-92276703D01*
X155767750Y-92281919D01*
X155787962Y-92289151D01*
X155807368Y-92298330D01*
X155825781Y-92309366D01*
X155843024Y-92322154D01*
X155858930Y-92336570D01*
X155873346Y-92352476D01*
X155886134Y-92369719D01*
X155897170Y-92388132D01*
X155906349Y-92407538D01*
X155913581Y-92427750D01*
X155918797Y-92448574D01*
X155921947Y-92469809D01*
X155923000Y-92491250D01*
X155923000Y-92928750D01*
X155921947Y-92950191D01*
X155918797Y-92971426D01*
X155913581Y-92992250D01*
X155906349Y-93012462D01*
X155897170Y-93031868D01*
X155886134Y-93050281D01*
X155873346Y-93067524D01*
X155858930Y-93083430D01*
X155843024Y-93097846D01*
X155825781Y-93110634D01*
X155807368Y-93121670D01*
X155787962Y-93130849D01*
X155767750Y-93138081D01*
X155746926Y-93143297D01*
X155725691Y-93146447D01*
X155704250Y-93147500D01*
X155191750Y-93147500D01*
X155170309Y-93146447D01*
X155149074Y-93143297D01*
X155128250Y-93138081D01*
X155108038Y-93130849D01*
X155088632Y-93121670D01*
X155070219Y-93110634D01*
X155052976Y-93097846D01*
X155037070Y-93083430D01*
X155022654Y-93067524D01*
X155009866Y-93050281D01*
X154998830Y-93031868D01*
X154989651Y-93012462D01*
X154982419Y-92992250D01*
X154977203Y-92971426D01*
X154974053Y-92950191D01*
X154973000Y-92928750D01*
X154973000Y-92491250D01*
X154974053Y-92469809D01*
X154977203Y-92448574D01*
X154982419Y-92427750D01*
X154989651Y-92407538D01*
X154998830Y-92388132D01*
X155009866Y-92369719D01*
X155022654Y-92352476D01*
X155037070Y-92336570D01*
X155052976Y-92322154D01*
X155070219Y-92309366D01*
X155088632Y-92298330D01*
X155108038Y-92289151D01*
X155128250Y-92281919D01*
X155149074Y-92276703D01*
X155170309Y-92273553D01*
X155191750Y-92272500D01*
X155704250Y-92272500D01*
X155725691Y-92273553D01*
G37*
G36*
X155725691Y-90698553D02*
G01*
X155746926Y-90701703D01*
X155767750Y-90706919D01*
X155787962Y-90714151D01*
X155807368Y-90723330D01*
X155825781Y-90734366D01*
X155843024Y-90747154D01*
X155858930Y-90761570D01*
X155873346Y-90777476D01*
X155886134Y-90794719D01*
X155897170Y-90813132D01*
X155906349Y-90832538D01*
X155913581Y-90852750D01*
X155918797Y-90873574D01*
X155921947Y-90894809D01*
X155923000Y-90916250D01*
X155923000Y-91353750D01*
X155921947Y-91375191D01*
X155918797Y-91396426D01*
X155913581Y-91417250D01*
X155906349Y-91437462D01*
X155897170Y-91456868D01*
X155886134Y-91475281D01*
X155873346Y-91492524D01*
X155858930Y-91508430D01*
X155843024Y-91522846D01*
X155825781Y-91535634D01*
X155807368Y-91546670D01*
X155787962Y-91555849D01*
X155767750Y-91563081D01*
X155746926Y-91568297D01*
X155725691Y-91571447D01*
X155704250Y-91572500D01*
X155191750Y-91572500D01*
X155170309Y-91571447D01*
X155149074Y-91568297D01*
X155128250Y-91563081D01*
X155108038Y-91555849D01*
X155088632Y-91546670D01*
X155070219Y-91535634D01*
X155052976Y-91522846D01*
X155037070Y-91508430D01*
X155022654Y-91492524D01*
X155009866Y-91475281D01*
X154998830Y-91456868D01*
X154989651Y-91437462D01*
X154982419Y-91417250D01*
X154977203Y-91396426D01*
X154974053Y-91375191D01*
X154973000Y-91353750D01*
X154973000Y-90916250D01*
X154974053Y-90894809D01*
X154977203Y-90873574D01*
X154982419Y-90852750D01*
X154989651Y-90832538D01*
X154998830Y-90813132D01*
X155009866Y-90794719D01*
X155022654Y-90777476D01*
X155037070Y-90761570D01*
X155052976Y-90747154D01*
X155070219Y-90734366D01*
X155088632Y-90723330D01*
X155108038Y-90714151D01*
X155128250Y-90706919D01*
X155149074Y-90701703D01*
X155170309Y-90698553D01*
X155191750Y-90697500D01*
X155704250Y-90697500D01*
X155725691Y-90698553D01*
G37*
G36*
X148867691Y-92273553D02*
G01*
X148888926Y-92276703D01*
X148909750Y-92281919D01*
X148929962Y-92289151D01*
X148949368Y-92298330D01*
X148967781Y-92309366D01*
X148985024Y-92322154D01*
X149000930Y-92336570D01*
X149015346Y-92352476D01*
X149028134Y-92369719D01*
X149039170Y-92388132D01*
X149048349Y-92407538D01*
X149055581Y-92427750D01*
X149060797Y-92448574D01*
X149063947Y-92469809D01*
X149065000Y-92491250D01*
X149065000Y-92928750D01*
X149063947Y-92950191D01*
X149060797Y-92971426D01*
X149055581Y-92992250D01*
X149048349Y-93012462D01*
X149039170Y-93031868D01*
X149028134Y-93050281D01*
X149015346Y-93067524D01*
X149000930Y-93083430D01*
X148985024Y-93097846D01*
X148967781Y-93110634D01*
X148949368Y-93121670D01*
X148929962Y-93130849D01*
X148909750Y-93138081D01*
X148888926Y-93143297D01*
X148867691Y-93146447D01*
X148846250Y-93147500D01*
X148333750Y-93147500D01*
X148312309Y-93146447D01*
X148291074Y-93143297D01*
X148270250Y-93138081D01*
X148250038Y-93130849D01*
X148230632Y-93121670D01*
X148212219Y-93110634D01*
X148194976Y-93097846D01*
X148179070Y-93083430D01*
X148164654Y-93067524D01*
X148151866Y-93050281D01*
X148140830Y-93031868D01*
X148131651Y-93012462D01*
X148124419Y-92992250D01*
X148119203Y-92971426D01*
X148116053Y-92950191D01*
X148115000Y-92928750D01*
X148115000Y-92491250D01*
X148116053Y-92469809D01*
X148119203Y-92448574D01*
X148124419Y-92427750D01*
X148131651Y-92407538D01*
X148140830Y-92388132D01*
X148151866Y-92369719D01*
X148164654Y-92352476D01*
X148179070Y-92336570D01*
X148194976Y-92322154D01*
X148212219Y-92309366D01*
X148230632Y-92298330D01*
X148250038Y-92289151D01*
X148270250Y-92281919D01*
X148291074Y-92276703D01*
X148312309Y-92273553D01*
X148333750Y-92272500D01*
X148846250Y-92272500D01*
X148867691Y-92273553D01*
G37*
G36*
X148867691Y-90698553D02*
G01*
X148888926Y-90701703D01*
X148909750Y-90706919D01*
X148929962Y-90714151D01*
X148949368Y-90723330D01*
X148967781Y-90734366D01*
X148985024Y-90747154D01*
X149000930Y-90761570D01*
X149015346Y-90777476D01*
X149028134Y-90794719D01*
X149039170Y-90813132D01*
X149048349Y-90832538D01*
X149055581Y-90852750D01*
X149060797Y-90873574D01*
X149063947Y-90894809D01*
X149065000Y-90916250D01*
X149065000Y-91353750D01*
X149063947Y-91375191D01*
X149060797Y-91396426D01*
X149055581Y-91417250D01*
X149048349Y-91437462D01*
X149039170Y-91456868D01*
X149028134Y-91475281D01*
X149015346Y-91492524D01*
X149000930Y-91508430D01*
X148985024Y-91522846D01*
X148967781Y-91535634D01*
X148949368Y-91546670D01*
X148929962Y-91555849D01*
X148909750Y-91563081D01*
X148888926Y-91568297D01*
X148867691Y-91571447D01*
X148846250Y-91572500D01*
X148333750Y-91572500D01*
X148312309Y-91571447D01*
X148291074Y-91568297D01*
X148270250Y-91563081D01*
X148250038Y-91555849D01*
X148230632Y-91546670D01*
X148212219Y-91535634D01*
X148194976Y-91522846D01*
X148179070Y-91508430D01*
X148164654Y-91492524D01*
X148151866Y-91475281D01*
X148140830Y-91456868D01*
X148131651Y-91437462D01*
X148124419Y-91417250D01*
X148119203Y-91396426D01*
X148116053Y-91375191D01*
X148115000Y-91353750D01*
X148115000Y-90916250D01*
X148116053Y-90894809D01*
X148119203Y-90873574D01*
X148124419Y-90852750D01*
X148131651Y-90832538D01*
X148140830Y-90813132D01*
X148151866Y-90794719D01*
X148164654Y-90777476D01*
X148179070Y-90761570D01*
X148194976Y-90747154D01*
X148212219Y-90734366D01*
X148230632Y-90723330D01*
X148250038Y-90714151D01*
X148270250Y-90706919D01*
X148291074Y-90701703D01*
X148312309Y-90698553D01*
X148333750Y-90697500D01*
X148846250Y-90697500D01*
X148867691Y-90698553D01*
G37*
G36*
X166901691Y-79116553D02*
G01*
X166922926Y-79119703D01*
X166943750Y-79124919D01*
X166963962Y-79132151D01*
X166983368Y-79141330D01*
X167001781Y-79152366D01*
X167019024Y-79165154D01*
X167034930Y-79179570D01*
X167049346Y-79195476D01*
X167062134Y-79212719D01*
X167073170Y-79231132D01*
X167082349Y-79250538D01*
X167089581Y-79270750D01*
X167094797Y-79291574D01*
X167097947Y-79312809D01*
X167099000Y-79334250D01*
X167099000Y-79771750D01*
X167097947Y-79793191D01*
X167094797Y-79814426D01*
X167089581Y-79835250D01*
X167082349Y-79855462D01*
X167073170Y-79874868D01*
X167062134Y-79893281D01*
X167049346Y-79910524D01*
X167034930Y-79926430D01*
X167019024Y-79940846D01*
X167001781Y-79953634D01*
X166983368Y-79964670D01*
X166963962Y-79973849D01*
X166943750Y-79981081D01*
X166922926Y-79986297D01*
X166901691Y-79989447D01*
X166880250Y-79990500D01*
X166367750Y-79990500D01*
X166346309Y-79989447D01*
X166325074Y-79986297D01*
X166304250Y-79981081D01*
X166284038Y-79973849D01*
X166264632Y-79964670D01*
X166246219Y-79953634D01*
X166228976Y-79940846D01*
X166213070Y-79926430D01*
X166198654Y-79910524D01*
X166185866Y-79893281D01*
X166174830Y-79874868D01*
X166165651Y-79855462D01*
X166158419Y-79835250D01*
X166153203Y-79814426D01*
X166150053Y-79793191D01*
X166149000Y-79771750D01*
X166149000Y-79334250D01*
X166150053Y-79312809D01*
X166153203Y-79291574D01*
X166158419Y-79270750D01*
X166165651Y-79250538D01*
X166174830Y-79231132D01*
X166185866Y-79212719D01*
X166198654Y-79195476D01*
X166213070Y-79179570D01*
X166228976Y-79165154D01*
X166246219Y-79152366D01*
X166264632Y-79141330D01*
X166284038Y-79132151D01*
X166304250Y-79124919D01*
X166325074Y-79119703D01*
X166346309Y-79116553D01*
X166367750Y-79115500D01*
X166880250Y-79115500D01*
X166901691Y-79116553D01*
G37*
G36*
X166901691Y-77541553D02*
G01*
X166922926Y-77544703D01*
X166943750Y-77549919D01*
X166963962Y-77557151D01*
X166983368Y-77566330D01*
X167001781Y-77577366D01*
X167019024Y-77590154D01*
X167034930Y-77604570D01*
X167049346Y-77620476D01*
X167062134Y-77637719D01*
X167073170Y-77656132D01*
X167082349Y-77675538D01*
X167089581Y-77695750D01*
X167094797Y-77716574D01*
X167097947Y-77737809D01*
X167099000Y-77759250D01*
X167099000Y-78196750D01*
X167097947Y-78218191D01*
X167094797Y-78239426D01*
X167089581Y-78260250D01*
X167082349Y-78280462D01*
X167073170Y-78299868D01*
X167062134Y-78318281D01*
X167049346Y-78335524D01*
X167034930Y-78351430D01*
X167019024Y-78365846D01*
X167001781Y-78378634D01*
X166983368Y-78389670D01*
X166963962Y-78398849D01*
X166943750Y-78406081D01*
X166922926Y-78411297D01*
X166901691Y-78414447D01*
X166880250Y-78415500D01*
X166367750Y-78415500D01*
X166346309Y-78414447D01*
X166325074Y-78411297D01*
X166304250Y-78406081D01*
X166284038Y-78398849D01*
X166264632Y-78389670D01*
X166246219Y-78378634D01*
X166228976Y-78365846D01*
X166213070Y-78351430D01*
X166198654Y-78335524D01*
X166185866Y-78318281D01*
X166174830Y-78299868D01*
X166165651Y-78280462D01*
X166158419Y-78260250D01*
X166153203Y-78239426D01*
X166150053Y-78218191D01*
X166149000Y-78196750D01*
X166149000Y-77759250D01*
X166150053Y-77737809D01*
X166153203Y-77716574D01*
X166158419Y-77695750D01*
X166165651Y-77675538D01*
X166174830Y-77656132D01*
X166185866Y-77637719D01*
X166198654Y-77620476D01*
X166213070Y-77604570D01*
X166228976Y-77590154D01*
X166246219Y-77577366D01*
X166264632Y-77566330D01*
X166284038Y-77557151D01*
X166304250Y-77549919D01*
X166325074Y-77544703D01*
X166346309Y-77541553D01*
X166367750Y-77540500D01*
X166880250Y-77540500D01*
X166901691Y-77541553D01*
G37*
G36*
X158736191Y-94776053D02*
G01*
X158757426Y-94779203D01*
X158778250Y-94784419D01*
X158798462Y-94791651D01*
X158817868Y-94800830D01*
X158836281Y-94811866D01*
X158853524Y-94824654D01*
X158869430Y-94839070D01*
X158883846Y-94854976D01*
X158896634Y-94872219D01*
X158907670Y-94890632D01*
X158916849Y-94910038D01*
X158924081Y-94930250D01*
X158929297Y-94951074D01*
X158932447Y-94972309D01*
X158933500Y-94993750D01*
X158933500Y-95506250D01*
X158932447Y-95527691D01*
X158929297Y-95548926D01*
X158924081Y-95569750D01*
X158916849Y-95589962D01*
X158907670Y-95609368D01*
X158896634Y-95627781D01*
X158883846Y-95645024D01*
X158869430Y-95660930D01*
X158853524Y-95675346D01*
X158836281Y-95688134D01*
X158817868Y-95699170D01*
X158798462Y-95708349D01*
X158778250Y-95715581D01*
X158757426Y-95720797D01*
X158736191Y-95723947D01*
X158714750Y-95725000D01*
X158277250Y-95725000D01*
X158255809Y-95723947D01*
X158234574Y-95720797D01*
X158213750Y-95715581D01*
X158193538Y-95708349D01*
X158174132Y-95699170D01*
X158155719Y-95688134D01*
X158138476Y-95675346D01*
X158122570Y-95660930D01*
X158108154Y-95645024D01*
X158095366Y-95627781D01*
X158084330Y-95609368D01*
X158075151Y-95589962D01*
X158067919Y-95569750D01*
X158062703Y-95548926D01*
X158059553Y-95527691D01*
X158058500Y-95506250D01*
X158058500Y-94993750D01*
X158059553Y-94972309D01*
X158062703Y-94951074D01*
X158067919Y-94930250D01*
X158075151Y-94910038D01*
X158084330Y-94890632D01*
X158095366Y-94872219D01*
X158108154Y-94854976D01*
X158122570Y-94839070D01*
X158138476Y-94824654D01*
X158155719Y-94811866D01*
X158174132Y-94800830D01*
X158193538Y-94791651D01*
X158213750Y-94784419D01*
X158234574Y-94779203D01*
X158255809Y-94776053D01*
X158277250Y-94775000D01*
X158714750Y-94775000D01*
X158736191Y-94776053D01*
G37*
G36*
X160311191Y-94776053D02*
G01*
X160332426Y-94779203D01*
X160353250Y-94784419D01*
X160373462Y-94791651D01*
X160392868Y-94800830D01*
X160411281Y-94811866D01*
X160428524Y-94824654D01*
X160444430Y-94839070D01*
X160458846Y-94854976D01*
X160471634Y-94872219D01*
X160482670Y-94890632D01*
X160491849Y-94910038D01*
X160499081Y-94930250D01*
X160504297Y-94951074D01*
X160507447Y-94972309D01*
X160508500Y-94993750D01*
X160508500Y-95506250D01*
X160507447Y-95527691D01*
X160504297Y-95548926D01*
X160499081Y-95569750D01*
X160491849Y-95589962D01*
X160482670Y-95609368D01*
X160471634Y-95627781D01*
X160458846Y-95645024D01*
X160444430Y-95660930D01*
X160428524Y-95675346D01*
X160411281Y-95688134D01*
X160392868Y-95699170D01*
X160373462Y-95708349D01*
X160353250Y-95715581D01*
X160332426Y-95720797D01*
X160311191Y-95723947D01*
X160289750Y-95725000D01*
X159852250Y-95725000D01*
X159830809Y-95723947D01*
X159809574Y-95720797D01*
X159788750Y-95715581D01*
X159768538Y-95708349D01*
X159749132Y-95699170D01*
X159730719Y-95688134D01*
X159713476Y-95675346D01*
X159697570Y-95660930D01*
X159683154Y-95645024D01*
X159670366Y-95627781D01*
X159659330Y-95609368D01*
X159650151Y-95589962D01*
X159642919Y-95569750D01*
X159637703Y-95548926D01*
X159634553Y-95527691D01*
X159633500Y-95506250D01*
X159633500Y-94993750D01*
X159634553Y-94972309D01*
X159637703Y-94951074D01*
X159642919Y-94930250D01*
X159650151Y-94910038D01*
X159659330Y-94890632D01*
X159670366Y-94872219D01*
X159683154Y-94854976D01*
X159697570Y-94839070D01*
X159713476Y-94824654D01*
X159730719Y-94811866D01*
X159749132Y-94800830D01*
X159768538Y-94791651D01*
X159788750Y-94784419D01*
X159809574Y-94779203D01*
X159830809Y-94776053D01*
X159852250Y-94775000D01*
X160289750Y-94775000D01*
X160311191Y-94776053D01*
G37*
G36*
X166901691Y-82088053D02*
G01*
X166922926Y-82091203D01*
X166943750Y-82096419D01*
X166963962Y-82103651D01*
X166983368Y-82112830D01*
X167001781Y-82123866D01*
X167019024Y-82136654D01*
X167034930Y-82151070D01*
X167049346Y-82166976D01*
X167062134Y-82184219D01*
X167073170Y-82202632D01*
X167082349Y-82222038D01*
X167089581Y-82242250D01*
X167094797Y-82263074D01*
X167097947Y-82284309D01*
X167099000Y-82305750D01*
X167099000Y-82743250D01*
X167097947Y-82764691D01*
X167094797Y-82785926D01*
X167089581Y-82806750D01*
X167082349Y-82826962D01*
X167073170Y-82846368D01*
X167062134Y-82864781D01*
X167049346Y-82882024D01*
X167034930Y-82897930D01*
X167019024Y-82912346D01*
X167001781Y-82925134D01*
X166983368Y-82936170D01*
X166963962Y-82945349D01*
X166943750Y-82952581D01*
X166922926Y-82957797D01*
X166901691Y-82960947D01*
X166880250Y-82962000D01*
X166367750Y-82962000D01*
X166346309Y-82960947D01*
X166325074Y-82957797D01*
X166304250Y-82952581D01*
X166284038Y-82945349D01*
X166264632Y-82936170D01*
X166246219Y-82925134D01*
X166228976Y-82912346D01*
X166213070Y-82897930D01*
X166198654Y-82882024D01*
X166185866Y-82864781D01*
X166174830Y-82846368D01*
X166165651Y-82826962D01*
X166158419Y-82806750D01*
X166153203Y-82785926D01*
X166150053Y-82764691D01*
X166149000Y-82743250D01*
X166149000Y-82305750D01*
X166150053Y-82284309D01*
X166153203Y-82263074D01*
X166158419Y-82242250D01*
X166165651Y-82222038D01*
X166174830Y-82202632D01*
X166185866Y-82184219D01*
X166198654Y-82166976D01*
X166213070Y-82151070D01*
X166228976Y-82136654D01*
X166246219Y-82123866D01*
X166264632Y-82112830D01*
X166284038Y-82103651D01*
X166304250Y-82096419D01*
X166325074Y-82091203D01*
X166346309Y-82088053D01*
X166367750Y-82087000D01*
X166880250Y-82087000D01*
X166901691Y-82088053D01*
G37*
G36*
X166901691Y-83663053D02*
G01*
X166922926Y-83666203D01*
X166943750Y-83671419D01*
X166963962Y-83678651D01*
X166983368Y-83687830D01*
X167001781Y-83698866D01*
X167019024Y-83711654D01*
X167034930Y-83726070D01*
X167049346Y-83741976D01*
X167062134Y-83759219D01*
X167073170Y-83777632D01*
X167082349Y-83797038D01*
X167089581Y-83817250D01*
X167094797Y-83838074D01*
X167097947Y-83859309D01*
X167099000Y-83880750D01*
X167099000Y-84318250D01*
X167097947Y-84339691D01*
X167094797Y-84360926D01*
X167089581Y-84381750D01*
X167082349Y-84401962D01*
X167073170Y-84421368D01*
X167062134Y-84439781D01*
X167049346Y-84457024D01*
X167034930Y-84472930D01*
X167019024Y-84487346D01*
X167001781Y-84500134D01*
X166983368Y-84511170D01*
X166963962Y-84520349D01*
X166943750Y-84527581D01*
X166922926Y-84532797D01*
X166901691Y-84535947D01*
X166880250Y-84537000D01*
X166367750Y-84537000D01*
X166346309Y-84535947D01*
X166325074Y-84532797D01*
X166304250Y-84527581D01*
X166284038Y-84520349D01*
X166264632Y-84511170D01*
X166246219Y-84500134D01*
X166228976Y-84487346D01*
X166213070Y-84472930D01*
X166198654Y-84457024D01*
X166185866Y-84439781D01*
X166174830Y-84421368D01*
X166165651Y-84401962D01*
X166158419Y-84381750D01*
X166153203Y-84360926D01*
X166150053Y-84339691D01*
X166149000Y-84318250D01*
X166149000Y-83880750D01*
X166150053Y-83859309D01*
X166153203Y-83838074D01*
X166158419Y-83817250D01*
X166165651Y-83797038D01*
X166174830Y-83777632D01*
X166185866Y-83759219D01*
X166198654Y-83741976D01*
X166213070Y-83726070D01*
X166228976Y-83711654D01*
X166246219Y-83698866D01*
X166264632Y-83687830D01*
X166284038Y-83678651D01*
X166304250Y-83671419D01*
X166325074Y-83666203D01*
X166346309Y-83663053D01*
X166367750Y-83662000D01*
X166880250Y-83662000D01*
X166901691Y-83663053D01*
G37*
G36*
X177182691Y-85526053D02*
G01*
X177203926Y-85529203D01*
X177224750Y-85534419D01*
X177244962Y-85541651D01*
X177264368Y-85550830D01*
X177282781Y-85561866D01*
X177300024Y-85574654D01*
X177315930Y-85589070D01*
X177330346Y-85604976D01*
X177343134Y-85622219D01*
X177354170Y-85640632D01*
X177363349Y-85660038D01*
X177370581Y-85680250D01*
X177375797Y-85701074D01*
X177378947Y-85722309D01*
X177380000Y-85743750D01*
X177380000Y-86256250D01*
X177378947Y-86277691D01*
X177375797Y-86298926D01*
X177370581Y-86319750D01*
X177363349Y-86339962D01*
X177354170Y-86359368D01*
X177343134Y-86377781D01*
X177330346Y-86395024D01*
X177315930Y-86410930D01*
X177300024Y-86425346D01*
X177282781Y-86438134D01*
X177264368Y-86449170D01*
X177244962Y-86458349D01*
X177224750Y-86465581D01*
X177203926Y-86470797D01*
X177182691Y-86473947D01*
X177161250Y-86475000D01*
X176723750Y-86475000D01*
X176702309Y-86473947D01*
X176681074Y-86470797D01*
X176660250Y-86465581D01*
X176640038Y-86458349D01*
X176620632Y-86449170D01*
X176602219Y-86438134D01*
X176584976Y-86425346D01*
X176569070Y-86410930D01*
X176554654Y-86395024D01*
X176541866Y-86377781D01*
X176530830Y-86359368D01*
X176521651Y-86339962D01*
X176514419Y-86319750D01*
X176509203Y-86298926D01*
X176506053Y-86277691D01*
X176505000Y-86256250D01*
X176505000Y-85743750D01*
X176506053Y-85722309D01*
X176509203Y-85701074D01*
X176514419Y-85680250D01*
X176521651Y-85660038D01*
X176530830Y-85640632D01*
X176541866Y-85622219D01*
X176554654Y-85604976D01*
X176569070Y-85589070D01*
X176584976Y-85574654D01*
X176602219Y-85561866D01*
X176620632Y-85550830D01*
X176640038Y-85541651D01*
X176660250Y-85534419D01*
X176681074Y-85529203D01*
X176702309Y-85526053D01*
X176723750Y-85525000D01*
X177161250Y-85525000D01*
X177182691Y-85526053D01*
G37*
G36*
X178757691Y-85526053D02*
G01*
X178778926Y-85529203D01*
X178799750Y-85534419D01*
X178819962Y-85541651D01*
X178839368Y-85550830D01*
X178857781Y-85561866D01*
X178875024Y-85574654D01*
X178890930Y-85589070D01*
X178905346Y-85604976D01*
X178918134Y-85622219D01*
X178929170Y-85640632D01*
X178938349Y-85660038D01*
X178945581Y-85680250D01*
X178950797Y-85701074D01*
X178953947Y-85722309D01*
X178955000Y-85743750D01*
X178955000Y-86256250D01*
X178953947Y-86277691D01*
X178950797Y-86298926D01*
X178945581Y-86319750D01*
X178938349Y-86339962D01*
X178929170Y-86359368D01*
X178918134Y-86377781D01*
X178905346Y-86395024D01*
X178890930Y-86410930D01*
X178875024Y-86425346D01*
X178857781Y-86438134D01*
X178839368Y-86449170D01*
X178819962Y-86458349D01*
X178799750Y-86465581D01*
X178778926Y-86470797D01*
X178757691Y-86473947D01*
X178736250Y-86475000D01*
X178298750Y-86475000D01*
X178277309Y-86473947D01*
X178256074Y-86470797D01*
X178235250Y-86465581D01*
X178215038Y-86458349D01*
X178195632Y-86449170D01*
X178177219Y-86438134D01*
X178159976Y-86425346D01*
X178144070Y-86410930D01*
X178129654Y-86395024D01*
X178116866Y-86377781D01*
X178105830Y-86359368D01*
X178096651Y-86339962D01*
X178089419Y-86319750D01*
X178084203Y-86298926D01*
X178081053Y-86277691D01*
X178080000Y-86256250D01*
X178080000Y-85743750D01*
X178081053Y-85722309D01*
X178084203Y-85701074D01*
X178089419Y-85680250D01*
X178096651Y-85660038D01*
X178105830Y-85640632D01*
X178116866Y-85622219D01*
X178129654Y-85604976D01*
X178144070Y-85589070D01*
X178159976Y-85574654D01*
X178177219Y-85561866D01*
X178195632Y-85550830D01*
X178215038Y-85541651D01*
X178235250Y-85534419D01*
X178256074Y-85529203D01*
X178277309Y-85526053D01*
X178298750Y-85525000D01*
X178736250Y-85525000D01*
X178757691Y-85526053D01*
G37*
G36*
X177182691Y-92998053D02*
G01*
X177203926Y-93001203D01*
X177224750Y-93006419D01*
X177244962Y-93013651D01*
X177264368Y-93022830D01*
X177282781Y-93033866D01*
X177300024Y-93046654D01*
X177315930Y-93061070D01*
X177330346Y-93076976D01*
X177343134Y-93094219D01*
X177354170Y-93112632D01*
X177363349Y-93132038D01*
X177370581Y-93152250D01*
X177375797Y-93173074D01*
X177378947Y-93194309D01*
X177380000Y-93215750D01*
X177380000Y-93728250D01*
X177378947Y-93749691D01*
X177375797Y-93770926D01*
X177370581Y-93791750D01*
X177363349Y-93811962D01*
X177354170Y-93831368D01*
X177343134Y-93849781D01*
X177330346Y-93867024D01*
X177315930Y-93882930D01*
X177300024Y-93897346D01*
X177282781Y-93910134D01*
X177264368Y-93921170D01*
X177244962Y-93930349D01*
X177224750Y-93937581D01*
X177203926Y-93942797D01*
X177182691Y-93945947D01*
X177161250Y-93947000D01*
X176723750Y-93947000D01*
X176702309Y-93945947D01*
X176681074Y-93942797D01*
X176660250Y-93937581D01*
X176640038Y-93930349D01*
X176620632Y-93921170D01*
X176602219Y-93910134D01*
X176584976Y-93897346D01*
X176569070Y-93882930D01*
X176554654Y-93867024D01*
X176541866Y-93849781D01*
X176530830Y-93831368D01*
X176521651Y-93811962D01*
X176514419Y-93791750D01*
X176509203Y-93770926D01*
X176506053Y-93749691D01*
X176505000Y-93728250D01*
X176505000Y-93215750D01*
X176506053Y-93194309D01*
X176509203Y-93173074D01*
X176514419Y-93152250D01*
X176521651Y-93132038D01*
X176530830Y-93112632D01*
X176541866Y-93094219D01*
X176554654Y-93076976D01*
X176569070Y-93061070D01*
X176584976Y-93046654D01*
X176602219Y-93033866D01*
X176620632Y-93022830D01*
X176640038Y-93013651D01*
X176660250Y-93006419D01*
X176681074Y-93001203D01*
X176702309Y-92998053D01*
X176723750Y-92997000D01*
X177161250Y-92997000D01*
X177182691Y-92998053D01*
G37*
G36*
X178757691Y-92998053D02*
G01*
X178778926Y-93001203D01*
X178799750Y-93006419D01*
X178819962Y-93013651D01*
X178839368Y-93022830D01*
X178857781Y-93033866D01*
X178875024Y-93046654D01*
X178890930Y-93061070D01*
X178905346Y-93076976D01*
X178918134Y-93094219D01*
X178929170Y-93112632D01*
X178938349Y-93132038D01*
X178945581Y-93152250D01*
X178950797Y-93173074D01*
X178953947Y-93194309D01*
X178955000Y-93215750D01*
X178955000Y-93728250D01*
X178953947Y-93749691D01*
X178950797Y-93770926D01*
X178945581Y-93791750D01*
X178938349Y-93811962D01*
X178929170Y-93831368D01*
X178918134Y-93849781D01*
X178905346Y-93867024D01*
X178890930Y-93882930D01*
X178875024Y-93897346D01*
X178857781Y-93910134D01*
X178839368Y-93921170D01*
X178819962Y-93930349D01*
X178799750Y-93937581D01*
X178778926Y-93942797D01*
X178757691Y-93945947D01*
X178736250Y-93947000D01*
X178298750Y-93947000D01*
X178277309Y-93945947D01*
X178256074Y-93942797D01*
X178235250Y-93937581D01*
X178215038Y-93930349D01*
X178195632Y-93921170D01*
X178177219Y-93910134D01*
X178159976Y-93897346D01*
X178144070Y-93882930D01*
X178129654Y-93867024D01*
X178116866Y-93849781D01*
X178105830Y-93831368D01*
X178096651Y-93811962D01*
X178089419Y-93791750D01*
X178084203Y-93770926D01*
X178081053Y-93749691D01*
X178080000Y-93728250D01*
X178080000Y-93215750D01*
X178081053Y-93194309D01*
X178084203Y-93173074D01*
X178089419Y-93152250D01*
X178096651Y-93132038D01*
X178105830Y-93112632D01*
X178116866Y-93094219D01*
X178129654Y-93076976D01*
X178144070Y-93061070D01*
X178159976Y-93046654D01*
X178177219Y-93033866D01*
X178195632Y-93022830D01*
X178215038Y-93013651D01*
X178235250Y-93006419D01*
X178256074Y-93001203D01*
X178277309Y-92998053D01*
X178298750Y-92997000D01*
X178736250Y-92997000D01*
X178757691Y-92998053D01*
G37*
G36*
X168440191Y-87026053D02*
G01*
X168461426Y-87029203D01*
X168482250Y-87034419D01*
X168502462Y-87041651D01*
X168521868Y-87050830D01*
X168540281Y-87061866D01*
X168557524Y-87074654D01*
X168573430Y-87089070D01*
X168587846Y-87104976D01*
X168600634Y-87122219D01*
X168611670Y-87140632D01*
X168620849Y-87160038D01*
X168628081Y-87180250D01*
X168633297Y-87201074D01*
X168636447Y-87222309D01*
X168637500Y-87243750D01*
X168637500Y-87756250D01*
X168636447Y-87777691D01*
X168633297Y-87798926D01*
X168628081Y-87819750D01*
X168620849Y-87839962D01*
X168611670Y-87859368D01*
X168600634Y-87877781D01*
X168587846Y-87895024D01*
X168573430Y-87910930D01*
X168557524Y-87925346D01*
X168540281Y-87938134D01*
X168521868Y-87949170D01*
X168502462Y-87958349D01*
X168482250Y-87965581D01*
X168461426Y-87970797D01*
X168440191Y-87973947D01*
X168418750Y-87975000D01*
X167981250Y-87975000D01*
X167959809Y-87973947D01*
X167938574Y-87970797D01*
X167917750Y-87965581D01*
X167897538Y-87958349D01*
X167878132Y-87949170D01*
X167859719Y-87938134D01*
X167842476Y-87925346D01*
X167826570Y-87910930D01*
X167812154Y-87895024D01*
X167799366Y-87877781D01*
X167788330Y-87859368D01*
X167779151Y-87839962D01*
X167771919Y-87819750D01*
X167766703Y-87798926D01*
X167763553Y-87777691D01*
X167762500Y-87756250D01*
X167762500Y-87243750D01*
X167763553Y-87222309D01*
X167766703Y-87201074D01*
X167771919Y-87180250D01*
X167779151Y-87160038D01*
X167788330Y-87140632D01*
X167799366Y-87122219D01*
X167812154Y-87104976D01*
X167826570Y-87089070D01*
X167842476Y-87074654D01*
X167859719Y-87061866D01*
X167878132Y-87050830D01*
X167897538Y-87041651D01*
X167917750Y-87034419D01*
X167938574Y-87029203D01*
X167959809Y-87026053D01*
X167981250Y-87025000D01*
X168418750Y-87025000D01*
X168440191Y-87026053D01*
G37*
G36*
X166865191Y-87026053D02*
G01*
X166886426Y-87029203D01*
X166907250Y-87034419D01*
X166927462Y-87041651D01*
X166946868Y-87050830D01*
X166965281Y-87061866D01*
X166982524Y-87074654D01*
X166998430Y-87089070D01*
X167012846Y-87104976D01*
X167025634Y-87122219D01*
X167036670Y-87140632D01*
X167045849Y-87160038D01*
X167053081Y-87180250D01*
X167058297Y-87201074D01*
X167061447Y-87222309D01*
X167062500Y-87243750D01*
X167062500Y-87756250D01*
X167061447Y-87777691D01*
X167058297Y-87798926D01*
X167053081Y-87819750D01*
X167045849Y-87839962D01*
X167036670Y-87859368D01*
X167025634Y-87877781D01*
X167012846Y-87895024D01*
X166998430Y-87910930D01*
X166982524Y-87925346D01*
X166965281Y-87938134D01*
X166946868Y-87949170D01*
X166927462Y-87958349D01*
X166907250Y-87965581D01*
X166886426Y-87970797D01*
X166865191Y-87973947D01*
X166843750Y-87975000D01*
X166406250Y-87975000D01*
X166384809Y-87973947D01*
X166363574Y-87970797D01*
X166342750Y-87965581D01*
X166322538Y-87958349D01*
X166303132Y-87949170D01*
X166284719Y-87938134D01*
X166267476Y-87925346D01*
X166251570Y-87910930D01*
X166237154Y-87895024D01*
X166224366Y-87877781D01*
X166213330Y-87859368D01*
X166204151Y-87839962D01*
X166196919Y-87819750D01*
X166191703Y-87798926D01*
X166188553Y-87777691D01*
X166187500Y-87756250D01*
X166187500Y-87243750D01*
X166188553Y-87222309D01*
X166191703Y-87201074D01*
X166196919Y-87180250D01*
X166204151Y-87160038D01*
X166213330Y-87140632D01*
X166224366Y-87122219D01*
X166237154Y-87104976D01*
X166251570Y-87089070D01*
X166267476Y-87074654D01*
X166284719Y-87061866D01*
X166303132Y-87050830D01*
X166322538Y-87041651D01*
X166342750Y-87034419D01*
X166363574Y-87029203D01*
X166384809Y-87026053D01*
X166406250Y-87025000D01*
X166843750Y-87025000D01*
X166865191Y-87026053D01*
G37*
D15*
X164080000Y-88520000D03*
X146080000Y-88520000D03*
D16*
X146080000Y-76520000D03*
D15*
X146080000Y-78020000D03*
X146080000Y-79520000D03*
X146080000Y-81020000D03*
X146080000Y-82520000D03*
X146080000Y-84020000D03*
X146080000Y-85520000D03*
X146080000Y-87020000D03*
X164080000Y-87020000D03*
X164080000Y-85520000D03*
X164080000Y-84020000D03*
X164080000Y-82520000D03*
X164080000Y-81020000D03*
X164080000Y-79520000D03*
X164080000Y-78020000D03*
X164080000Y-76520000D03*
D17*
X156200000Y-83100000D03*
D18*
X142200000Y-97350000D03*
X142850000Y-97350000D03*
X143500000Y-97350000D03*
X144150000Y-97350000D03*
X144800000Y-97350000D03*
D19*
X142412000Y-83947000D03*
X142412000Y-82677000D03*
X142412000Y-81407000D03*
X142412000Y-80137000D03*
X136988000Y-80137000D03*
X136988000Y-81407000D03*
X136988000Y-82677000D03*
X136988000Y-83947000D03*
D10*
G36*
X158011691Y-90749553D02*
G01*
X158032926Y-90752703D01*
X158053750Y-90757919D01*
X158073962Y-90765151D01*
X158093368Y-90774330D01*
X158111781Y-90785366D01*
X158129024Y-90798154D01*
X158144930Y-90812570D01*
X158159346Y-90828476D01*
X158172134Y-90845719D01*
X158183170Y-90864132D01*
X158192349Y-90883538D01*
X158199581Y-90903750D01*
X158204797Y-90924574D01*
X158207947Y-90945809D01*
X158209000Y-90967250D01*
X158209000Y-91404750D01*
X158207947Y-91426191D01*
X158204797Y-91447426D01*
X158199581Y-91468250D01*
X158192349Y-91488462D01*
X158183170Y-91507868D01*
X158172134Y-91526281D01*
X158159346Y-91543524D01*
X158144930Y-91559430D01*
X158129024Y-91573846D01*
X158111781Y-91586634D01*
X158093368Y-91597670D01*
X158073962Y-91606849D01*
X158053750Y-91614081D01*
X158032926Y-91619297D01*
X158011691Y-91622447D01*
X157990250Y-91623500D01*
X157477750Y-91623500D01*
X157456309Y-91622447D01*
X157435074Y-91619297D01*
X157414250Y-91614081D01*
X157394038Y-91606849D01*
X157374632Y-91597670D01*
X157356219Y-91586634D01*
X157338976Y-91573846D01*
X157323070Y-91559430D01*
X157308654Y-91543524D01*
X157295866Y-91526281D01*
X157284830Y-91507868D01*
X157275651Y-91488462D01*
X157268419Y-91468250D01*
X157263203Y-91447426D01*
X157260053Y-91426191D01*
X157259000Y-91404750D01*
X157259000Y-90967250D01*
X157260053Y-90945809D01*
X157263203Y-90924574D01*
X157268419Y-90903750D01*
X157275651Y-90883538D01*
X157284830Y-90864132D01*
X157295866Y-90845719D01*
X157308654Y-90828476D01*
X157323070Y-90812570D01*
X157338976Y-90798154D01*
X157356219Y-90785366D01*
X157374632Y-90774330D01*
X157394038Y-90765151D01*
X157414250Y-90757919D01*
X157435074Y-90752703D01*
X157456309Y-90749553D01*
X157477750Y-90748500D01*
X157990250Y-90748500D01*
X158011691Y-90749553D01*
G37*
G36*
X158011691Y-92324553D02*
G01*
X158032926Y-92327703D01*
X158053750Y-92332919D01*
X158073962Y-92340151D01*
X158093368Y-92349330D01*
X158111781Y-92360366D01*
X158129024Y-92373154D01*
X158144930Y-92387570D01*
X158159346Y-92403476D01*
X158172134Y-92420719D01*
X158183170Y-92439132D01*
X158192349Y-92458538D01*
X158199581Y-92478750D01*
X158204797Y-92499574D01*
X158207947Y-92520809D01*
X158209000Y-92542250D01*
X158209000Y-92979750D01*
X158207947Y-93001191D01*
X158204797Y-93022426D01*
X158199581Y-93043250D01*
X158192349Y-93063462D01*
X158183170Y-93082868D01*
X158172134Y-93101281D01*
X158159346Y-93118524D01*
X158144930Y-93134430D01*
X158129024Y-93148846D01*
X158111781Y-93161634D01*
X158093368Y-93172670D01*
X158073962Y-93181849D01*
X158053750Y-93189081D01*
X158032926Y-93194297D01*
X158011691Y-93197447D01*
X157990250Y-93198500D01*
X157477750Y-93198500D01*
X157456309Y-93197447D01*
X157435074Y-93194297D01*
X157414250Y-93189081D01*
X157394038Y-93181849D01*
X157374632Y-93172670D01*
X157356219Y-93161634D01*
X157338976Y-93148846D01*
X157323070Y-93134430D01*
X157308654Y-93118524D01*
X157295866Y-93101281D01*
X157284830Y-93082868D01*
X157275651Y-93063462D01*
X157268419Y-93043250D01*
X157263203Y-93022426D01*
X157260053Y-93001191D01*
X157259000Y-92979750D01*
X157259000Y-92542250D01*
X157260053Y-92520809D01*
X157263203Y-92499574D01*
X157268419Y-92478750D01*
X157275651Y-92458538D01*
X157284830Y-92439132D01*
X157295866Y-92420719D01*
X157308654Y-92403476D01*
X157323070Y-92387570D01*
X157338976Y-92373154D01*
X157356219Y-92360366D01*
X157374632Y-92349330D01*
X157394038Y-92340151D01*
X157414250Y-92332919D01*
X157435074Y-92327703D01*
X157456309Y-92324553D01*
X157477750Y-92323500D01*
X157990250Y-92323500D01*
X158011691Y-92324553D01*
G37*
G36*
X138453691Y-77541553D02*
G01*
X138474926Y-77544703D01*
X138495750Y-77549919D01*
X138515962Y-77557151D01*
X138535368Y-77566330D01*
X138553781Y-77577366D01*
X138571024Y-77590154D01*
X138586930Y-77604570D01*
X138601346Y-77620476D01*
X138614134Y-77637719D01*
X138625170Y-77656132D01*
X138634349Y-77675538D01*
X138641581Y-77695750D01*
X138646797Y-77716574D01*
X138649947Y-77737809D01*
X138651000Y-77759250D01*
X138651000Y-78196750D01*
X138649947Y-78218191D01*
X138646797Y-78239426D01*
X138641581Y-78260250D01*
X138634349Y-78280462D01*
X138625170Y-78299868D01*
X138614134Y-78318281D01*
X138601346Y-78335524D01*
X138586930Y-78351430D01*
X138571024Y-78365846D01*
X138553781Y-78378634D01*
X138535368Y-78389670D01*
X138515962Y-78398849D01*
X138495750Y-78406081D01*
X138474926Y-78411297D01*
X138453691Y-78414447D01*
X138432250Y-78415500D01*
X137919750Y-78415500D01*
X137898309Y-78414447D01*
X137877074Y-78411297D01*
X137856250Y-78406081D01*
X137836038Y-78398849D01*
X137816632Y-78389670D01*
X137798219Y-78378634D01*
X137780976Y-78365846D01*
X137765070Y-78351430D01*
X137750654Y-78335524D01*
X137737866Y-78318281D01*
X137726830Y-78299868D01*
X137717651Y-78280462D01*
X137710419Y-78260250D01*
X137705203Y-78239426D01*
X137702053Y-78218191D01*
X137701000Y-78196750D01*
X137701000Y-77759250D01*
X137702053Y-77737809D01*
X137705203Y-77716574D01*
X137710419Y-77695750D01*
X137717651Y-77675538D01*
X137726830Y-77656132D01*
X137737866Y-77637719D01*
X137750654Y-77620476D01*
X137765070Y-77604570D01*
X137780976Y-77590154D01*
X137798219Y-77577366D01*
X137816632Y-77566330D01*
X137836038Y-77557151D01*
X137856250Y-77549919D01*
X137877074Y-77544703D01*
X137898309Y-77541553D01*
X137919750Y-77540500D01*
X138432250Y-77540500D01*
X138453691Y-77541553D01*
G37*
G36*
X138453691Y-75966553D02*
G01*
X138474926Y-75969703D01*
X138495750Y-75974919D01*
X138515962Y-75982151D01*
X138535368Y-75991330D01*
X138553781Y-76002366D01*
X138571024Y-76015154D01*
X138586930Y-76029570D01*
X138601346Y-76045476D01*
X138614134Y-76062719D01*
X138625170Y-76081132D01*
X138634349Y-76100538D01*
X138641581Y-76120750D01*
X138646797Y-76141574D01*
X138649947Y-76162809D01*
X138651000Y-76184250D01*
X138651000Y-76621750D01*
X138649947Y-76643191D01*
X138646797Y-76664426D01*
X138641581Y-76685250D01*
X138634349Y-76705462D01*
X138625170Y-76724868D01*
X138614134Y-76743281D01*
X138601346Y-76760524D01*
X138586930Y-76776430D01*
X138571024Y-76790846D01*
X138553781Y-76803634D01*
X138535368Y-76814670D01*
X138515962Y-76823849D01*
X138495750Y-76831081D01*
X138474926Y-76836297D01*
X138453691Y-76839447D01*
X138432250Y-76840500D01*
X137919750Y-76840500D01*
X137898309Y-76839447D01*
X137877074Y-76836297D01*
X137856250Y-76831081D01*
X137836038Y-76823849D01*
X137816632Y-76814670D01*
X137798219Y-76803634D01*
X137780976Y-76790846D01*
X137765070Y-76776430D01*
X137750654Y-76760524D01*
X137737866Y-76743281D01*
X137726830Y-76724868D01*
X137717651Y-76705462D01*
X137710419Y-76685250D01*
X137705203Y-76664426D01*
X137702053Y-76643191D01*
X137701000Y-76621750D01*
X137701000Y-76184250D01*
X137702053Y-76162809D01*
X137705203Y-76141574D01*
X137710419Y-76120750D01*
X137717651Y-76100538D01*
X137726830Y-76081132D01*
X137737866Y-76062719D01*
X137750654Y-76045476D01*
X137765070Y-76029570D01*
X137780976Y-76015154D01*
X137798219Y-76002366D01*
X137816632Y-75991330D01*
X137836038Y-75982151D01*
X137856250Y-75974919D01*
X137877074Y-75969703D01*
X137898309Y-75966553D01*
X137919750Y-75965500D01*
X138432250Y-75965500D01*
X138453691Y-75966553D01*
G37*
G36*
X140231691Y-75966553D02*
G01*
X140252926Y-75969703D01*
X140273750Y-75974919D01*
X140293962Y-75982151D01*
X140313368Y-75991330D01*
X140331781Y-76002366D01*
X140349024Y-76015154D01*
X140364930Y-76029570D01*
X140379346Y-76045476D01*
X140392134Y-76062719D01*
X140403170Y-76081132D01*
X140412349Y-76100538D01*
X140419581Y-76120750D01*
X140424797Y-76141574D01*
X140427947Y-76162809D01*
X140429000Y-76184250D01*
X140429000Y-76621750D01*
X140427947Y-76643191D01*
X140424797Y-76664426D01*
X140419581Y-76685250D01*
X140412349Y-76705462D01*
X140403170Y-76724868D01*
X140392134Y-76743281D01*
X140379346Y-76760524D01*
X140364930Y-76776430D01*
X140349024Y-76790846D01*
X140331781Y-76803634D01*
X140313368Y-76814670D01*
X140293962Y-76823849D01*
X140273750Y-76831081D01*
X140252926Y-76836297D01*
X140231691Y-76839447D01*
X140210250Y-76840500D01*
X139697750Y-76840500D01*
X139676309Y-76839447D01*
X139655074Y-76836297D01*
X139634250Y-76831081D01*
X139614038Y-76823849D01*
X139594632Y-76814670D01*
X139576219Y-76803634D01*
X139558976Y-76790846D01*
X139543070Y-76776430D01*
X139528654Y-76760524D01*
X139515866Y-76743281D01*
X139504830Y-76724868D01*
X139495651Y-76705462D01*
X139488419Y-76685250D01*
X139483203Y-76664426D01*
X139480053Y-76643191D01*
X139479000Y-76621750D01*
X139479000Y-76184250D01*
X139480053Y-76162809D01*
X139483203Y-76141574D01*
X139488419Y-76120750D01*
X139495651Y-76100538D01*
X139504830Y-76081132D01*
X139515866Y-76062719D01*
X139528654Y-76045476D01*
X139543070Y-76029570D01*
X139558976Y-76015154D01*
X139576219Y-76002366D01*
X139594632Y-75991330D01*
X139614038Y-75982151D01*
X139634250Y-75974919D01*
X139655074Y-75969703D01*
X139676309Y-75966553D01*
X139697750Y-75965500D01*
X140210250Y-75965500D01*
X140231691Y-75966553D01*
G37*
G36*
X140231691Y-77541553D02*
G01*
X140252926Y-77544703D01*
X140273750Y-77549919D01*
X140293962Y-77557151D01*
X140313368Y-77566330D01*
X140331781Y-77577366D01*
X140349024Y-77590154D01*
X140364930Y-77604570D01*
X140379346Y-77620476D01*
X140392134Y-77637719D01*
X140403170Y-77656132D01*
X140412349Y-77675538D01*
X140419581Y-77695750D01*
X140424797Y-77716574D01*
X140427947Y-77737809D01*
X140429000Y-77759250D01*
X140429000Y-78196750D01*
X140427947Y-78218191D01*
X140424797Y-78239426D01*
X140419581Y-78260250D01*
X140412349Y-78280462D01*
X140403170Y-78299868D01*
X140392134Y-78318281D01*
X140379346Y-78335524D01*
X140364930Y-78351430D01*
X140349024Y-78365846D01*
X140331781Y-78378634D01*
X140313368Y-78389670D01*
X140293962Y-78398849D01*
X140273750Y-78406081D01*
X140252926Y-78411297D01*
X140231691Y-78414447D01*
X140210250Y-78415500D01*
X139697750Y-78415500D01*
X139676309Y-78414447D01*
X139655074Y-78411297D01*
X139634250Y-78406081D01*
X139614038Y-78398849D01*
X139594632Y-78389670D01*
X139576219Y-78378634D01*
X139558976Y-78365846D01*
X139543070Y-78351430D01*
X139528654Y-78335524D01*
X139515866Y-78318281D01*
X139504830Y-78299868D01*
X139495651Y-78280462D01*
X139488419Y-78260250D01*
X139483203Y-78239426D01*
X139480053Y-78218191D01*
X139479000Y-78196750D01*
X139479000Y-77759250D01*
X139480053Y-77737809D01*
X139483203Y-77716574D01*
X139488419Y-77695750D01*
X139495651Y-77675538D01*
X139504830Y-77656132D01*
X139515866Y-77637719D01*
X139528654Y-77620476D01*
X139543070Y-77604570D01*
X139558976Y-77590154D01*
X139576219Y-77577366D01*
X139594632Y-77566330D01*
X139614038Y-77557151D01*
X139634250Y-77549919D01*
X139655074Y-77544703D01*
X139676309Y-77541553D01*
X139697750Y-77540500D01*
X140210250Y-77540500D01*
X140231691Y-77541553D01*
G37*
G36*
X132611691Y-85161553D02*
G01*
X132632926Y-85164703D01*
X132653750Y-85169919D01*
X132673962Y-85177151D01*
X132693368Y-85186330D01*
X132711781Y-85197366D01*
X132729024Y-85210154D01*
X132744930Y-85224570D01*
X132759346Y-85240476D01*
X132772134Y-85257719D01*
X132783170Y-85276132D01*
X132792349Y-85295538D01*
X132799581Y-85315750D01*
X132804797Y-85336574D01*
X132807947Y-85357809D01*
X132809000Y-85379250D01*
X132809000Y-85816750D01*
X132807947Y-85838191D01*
X132804797Y-85859426D01*
X132799581Y-85880250D01*
X132792349Y-85900462D01*
X132783170Y-85919868D01*
X132772134Y-85938281D01*
X132759346Y-85955524D01*
X132744930Y-85971430D01*
X132729024Y-85985846D01*
X132711781Y-85998634D01*
X132693368Y-86009670D01*
X132673962Y-86018849D01*
X132653750Y-86026081D01*
X132632926Y-86031297D01*
X132611691Y-86034447D01*
X132590250Y-86035500D01*
X132077750Y-86035500D01*
X132056309Y-86034447D01*
X132035074Y-86031297D01*
X132014250Y-86026081D01*
X131994038Y-86018849D01*
X131974632Y-86009670D01*
X131956219Y-85998634D01*
X131938976Y-85985846D01*
X131923070Y-85971430D01*
X131908654Y-85955524D01*
X131895866Y-85938281D01*
X131884830Y-85919868D01*
X131875651Y-85900462D01*
X131868419Y-85880250D01*
X131863203Y-85859426D01*
X131860053Y-85838191D01*
X131859000Y-85816750D01*
X131859000Y-85379250D01*
X131860053Y-85357809D01*
X131863203Y-85336574D01*
X131868419Y-85315750D01*
X131875651Y-85295538D01*
X131884830Y-85276132D01*
X131895866Y-85257719D01*
X131908654Y-85240476D01*
X131923070Y-85224570D01*
X131938976Y-85210154D01*
X131956219Y-85197366D01*
X131974632Y-85186330D01*
X131994038Y-85177151D01*
X132014250Y-85169919D01*
X132035074Y-85164703D01*
X132056309Y-85161553D01*
X132077750Y-85160500D01*
X132590250Y-85160500D01*
X132611691Y-85161553D01*
G37*
G36*
X132611691Y-83586553D02*
G01*
X132632926Y-83589703D01*
X132653750Y-83594919D01*
X132673962Y-83602151D01*
X132693368Y-83611330D01*
X132711781Y-83622366D01*
X132729024Y-83635154D01*
X132744930Y-83649570D01*
X132759346Y-83665476D01*
X132772134Y-83682719D01*
X132783170Y-83701132D01*
X132792349Y-83720538D01*
X132799581Y-83740750D01*
X132804797Y-83761574D01*
X132807947Y-83782809D01*
X132809000Y-83804250D01*
X132809000Y-84241750D01*
X132807947Y-84263191D01*
X132804797Y-84284426D01*
X132799581Y-84305250D01*
X132792349Y-84325462D01*
X132783170Y-84344868D01*
X132772134Y-84363281D01*
X132759346Y-84380524D01*
X132744930Y-84396430D01*
X132729024Y-84410846D01*
X132711781Y-84423634D01*
X132693368Y-84434670D01*
X132673962Y-84443849D01*
X132653750Y-84451081D01*
X132632926Y-84456297D01*
X132611691Y-84459447D01*
X132590250Y-84460500D01*
X132077750Y-84460500D01*
X132056309Y-84459447D01*
X132035074Y-84456297D01*
X132014250Y-84451081D01*
X131994038Y-84443849D01*
X131974632Y-84434670D01*
X131956219Y-84423634D01*
X131938976Y-84410846D01*
X131923070Y-84396430D01*
X131908654Y-84380524D01*
X131895866Y-84363281D01*
X131884830Y-84344868D01*
X131875651Y-84325462D01*
X131868419Y-84305250D01*
X131863203Y-84284426D01*
X131860053Y-84263191D01*
X131859000Y-84241750D01*
X131859000Y-83804250D01*
X131860053Y-83782809D01*
X131863203Y-83761574D01*
X131868419Y-83740750D01*
X131875651Y-83720538D01*
X131884830Y-83701132D01*
X131895866Y-83682719D01*
X131908654Y-83665476D01*
X131923070Y-83649570D01*
X131938976Y-83635154D01*
X131956219Y-83622366D01*
X131974632Y-83611330D01*
X131994038Y-83602151D01*
X132014250Y-83594919D01*
X132035074Y-83589703D01*
X132056309Y-83586553D01*
X132077750Y-83585500D01*
X132590250Y-83585500D01*
X132611691Y-83586553D01*
G37*
G36*
X136675691Y-77541553D02*
G01*
X136696926Y-77544703D01*
X136717750Y-77549919D01*
X136737962Y-77557151D01*
X136757368Y-77566330D01*
X136775781Y-77577366D01*
X136793024Y-77590154D01*
X136808930Y-77604570D01*
X136823346Y-77620476D01*
X136836134Y-77637719D01*
X136847170Y-77656132D01*
X136856349Y-77675538D01*
X136863581Y-77695750D01*
X136868797Y-77716574D01*
X136871947Y-77737809D01*
X136873000Y-77759250D01*
X136873000Y-78196750D01*
X136871947Y-78218191D01*
X136868797Y-78239426D01*
X136863581Y-78260250D01*
X136856349Y-78280462D01*
X136847170Y-78299868D01*
X136836134Y-78318281D01*
X136823346Y-78335524D01*
X136808930Y-78351430D01*
X136793024Y-78365846D01*
X136775781Y-78378634D01*
X136757368Y-78389670D01*
X136737962Y-78398849D01*
X136717750Y-78406081D01*
X136696926Y-78411297D01*
X136675691Y-78414447D01*
X136654250Y-78415500D01*
X136141750Y-78415500D01*
X136120309Y-78414447D01*
X136099074Y-78411297D01*
X136078250Y-78406081D01*
X136058038Y-78398849D01*
X136038632Y-78389670D01*
X136020219Y-78378634D01*
X136002976Y-78365846D01*
X135987070Y-78351430D01*
X135972654Y-78335524D01*
X135959866Y-78318281D01*
X135948830Y-78299868D01*
X135939651Y-78280462D01*
X135932419Y-78260250D01*
X135927203Y-78239426D01*
X135924053Y-78218191D01*
X135923000Y-78196750D01*
X135923000Y-77759250D01*
X135924053Y-77737809D01*
X135927203Y-77716574D01*
X135932419Y-77695750D01*
X135939651Y-77675538D01*
X135948830Y-77656132D01*
X135959866Y-77637719D01*
X135972654Y-77620476D01*
X135987070Y-77604570D01*
X136002976Y-77590154D01*
X136020219Y-77577366D01*
X136038632Y-77566330D01*
X136058038Y-77557151D01*
X136078250Y-77549919D01*
X136099074Y-77544703D01*
X136120309Y-77541553D01*
X136141750Y-77540500D01*
X136654250Y-77540500D01*
X136675691Y-77541553D01*
G37*
G36*
X136675691Y-75966553D02*
G01*
X136696926Y-75969703D01*
X136717750Y-75974919D01*
X136737962Y-75982151D01*
X136757368Y-75991330D01*
X136775781Y-76002366D01*
X136793024Y-76015154D01*
X136808930Y-76029570D01*
X136823346Y-76045476D01*
X136836134Y-76062719D01*
X136847170Y-76081132D01*
X136856349Y-76100538D01*
X136863581Y-76120750D01*
X136868797Y-76141574D01*
X136871947Y-76162809D01*
X136873000Y-76184250D01*
X136873000Y-76621750D01*
X136871947Y-76643191D01*
X136868797Y-76664426D01*
X136863581Y-76685250D01*
X136856349Y-76705462D01*
X136847170Y-76724868D01*
X136836134Y-76743281D01*
X136823346Y-76760524D01*
X136808930Y-76776430D01*
X136793024Y-76790846D01*
X136775781Y-76803634D01*
X136757368Y-76814670D01*
X136737962Y-76823849D01*
X136717750Y-76831081D01*
X136696926Y-76836297D01*
X136675691Y-76839447D01*
X136654250Y-76840500D01*
X136141750Y-76840500D01*
X136120309Y-76839447D01*
X136099074Y-76836297D01*
X136078250Y-76831081D01*
X136058038Y-76823849D01*
X136038632Y-76814670D01*
X136020219Y-76803634D01*
X136002976Y-76790846D01*
X135987070Y-76776430D01*
X135972654Y-76760524D01*
X135959866Y-76743281D01*
X135948830Y-76724868D01*
X135939651Y-76705462D01*
X135932419Y-76685250D01*
X135927203Y-76664426D01*
X135924053Y-76643191D01*
X135923000Y-76621750D01*
X135923000Y-76184250D01*
X135924053Y-76162809D01*
X135927203Y-76141574D01*
X135932419Y-76120750D01*
X135939651Y-76100538D01*
X135948830Y-76081132D01*
X135959866Y-76062719D01*
X135972654Y-76045476D01*
X135987070Y-76029570D01*
X136002976Y-76015154D01*
X136020219Y-76002366D01*
X136038632Y-75991330D01*
X136058038Y-75982151D01*
X136078250Y-75974919D01*
X136099074Y-75969703D01*
X136120309Y-75966553D01*
X136141750Y-75965500D01*
X136654250Y-75965500D01*
X136675691Y-75966553D01*
G37*
M02*
