G04 #@! TF.GenerationSoftware,KiCad,Pcbnew,(5.1.5)-3*
G04 #@! TF.CreationDate,2020-03-31T22:24:07+09:00*
G04 #@! TF.ProjectId,irController,6972436f-6e74-4726-9f6c-6c65722e6b69,rev?*
G04 #@! TF.SameCoordinates,Original*
G04 #@! TF.FileFunction,Soldermask,Top*
G04 #@! TF.FilePolarity,Negative*
%FSLAX46Y46*%
G04 Gerber Fmt 4.6, Leading zero omitted, Abs format (unit mm)*
G04 Created by KiCad (PCBNEW (5.1.5)-3) date 2020-03-31 22:24:07*
%MOMM*%
%LPD*%
G04 APERTURE LIST*
%ADD10R,1.600000X1.600000*%
%ADD11C,1.600000*%
%ADD12C,0.100000*%
%ADD13R,1.050000X1.450000*%
%ADD14C,2.300000*%
%ADD15R,2.300000X2.400000*%
%ADD16R,1.300000X1.200000*%
%ADD17R,2.900000X2.400000*%
%ADD18R,6.400000X6.400000*%
%ADD19R,2.432000X2.127200*%
%ADD20O,2.432000X2.127200*%
%ADD21O,2.400000X1.300000*%
%ADD22R,2.400000X1.300000*%
%ADD23R,4.700000X4.700000*%
%ADD24R,0.850000X1.700000*%
%ADD25O,1.850000X2.400000*%
%ADD26O,1.550000X2.200000*%
%ADD27O,1.200000X1.200000*%
%ADD28R,1.925000X1.050000*%
G04 APERTURE END LIST*
D10*
X169545000Y-100330000D03*
D11*
X167545000Y-100330000D03*
X165545000Y-100330000D03*
X163545000Y-100330000D03*
D12*
G36*
X152241993Y-94322535D02*
G01*
X152272935Y-94327125D01*
X152303278Y-94334725D01*
X152332730Y-94345263D01*
X152361008Y-94358638D01*
X152387838Y-94374719D01*
X152412963Y-94393353D01*
X152436140Y-94414360D01*
X152457147Y-94437537D01*
X152475781Y-94462662D01*
X152491862Y-94489492D01*
X152505237Y-94517770D01*
X152515775Y-94547222D01*
X152523375Y-94577565D01*
X152527965Y-94608507D01*
X152529500Y-94639750D01*
X152529500Y-95352250D01*
X152527965Y-95383493D01*
X152523375Y-95414435D01*
X152515775Y-95444778D01*
X152505237Y-95474230D01*
X152491862Y-95502508D01*
X152475781Y-95529338D01*
X152457147Y-95554463D01*
X152436140Y-95577640D01*
X152412963Y-95598647D01*
X152387838Y-95617281D01*
X152361008Y-95633362D01*
X152332730Y-95646737D01*
X152303278Y-95657275D01*
X152272935Y-95664875D01*
X152241993Y-95669465D01*
X152210750Y-95671000D01*
X151573250Y-95671000D01*
X151542007Y-95669465D01*
X151511065Y-95664875D01*
X151480722Y-95657275D01*
X151451270Y-95646737D01*
X151422992Y-95633362D01*
X151396162Y-95617281D01*
X151371037Y-95598647D01*
X151347860Y-95577640D01*
X151326853Y-95554463D01*
X151308219Y-95529338D01*
X151292138Y-95502508D01*
X151278763Y-95474230D01*
X151268225Y-95444778D01*
X151260625Y-95414435D01*
X151256035Y-95383493D01*
X151254500Y-95352250D01*
X151254500Y-94639750D01*
X151256035Y-94608507D01*
X151260625Y-94577565D01*
X151268225Y-94547222D01*
X151278763Y-94517770D01*
X151292138Y-94489492D01*
X151308219Y-94462662D01*
X151326853Y-94437537D01*
X151347860Y-94414360D01*
X151371037Y-94393353D01*
X151396162Y-94374719D01*
X151422992Y-94358638D01*
X151451270Y-94345263D01*
X151480722Y-94334725D01*
X151511065Y-94327125D01*
X151542007Y-94322535D01*
X151573250Y-94321000D01*
X152210750Y-94321000D01*
X152241993Y-94322535D01*
G37*
G36*
X153816993Y-94322535D02*
G01*
X153847935Y-94327125D01*
X153878278Y-94334725D01*
X153907730Y-94345263D01*
X153936008Y-94358638D01*
X153962838Y-94374719D01*
X153987963Y-94393353D01*
X154011140Y-94414360D01*
X154032147Y-94437537D01*
X154050781Y-94462662D01*
X154066862Y-94489492D01*
X154080237Y-94517770D01*
X154090775Y-94547222D01*
X154098375Y-94577565D01*
X154102965Y-94608507D01*
X154104500Y-94639750D01*
X154104500Y-95352250D01*
X154102965Y-95383493D01*
X154098375Y-95414435D01*
X154090775Y-95444778D01*
X154080237Y-95474230D01*
X154066862Y-95502508D01*
X154050781Y-95529338D01*
X154032147Y-95554463D01*
X154011140Y-95577640D01*
X153987963Y-95598647D01*
X153962838Y-95617281D01*
X153936008Y-95633362D01*
X153907730Y-95646737D01*
X153878278Y-95657275D01*
X153847935Y-95664875D01*
X153816993Y-95669465D01*
X153785750Y-95671000D01*
X153148250Y-95671000D01*
X153117007Y-95669465D01*
X153086065Y-95664875D01*
X153055722Y-95657275D01*
X153026270Y-95646737D01*
X152997992Y-95633362D01*
X152971162Y-95617281D01*
X152946037Y-95598647D01*
X152922860Y-95577640D01*
X152901853Y-95554463D01*
X152883219Y-95529338D01*
X152867138Y-95502508D01*
X152853763Y-95474230D01*
X152843225Y-95444778D01*
X152835625Y-95414435D01*
X152831035Y-95383493D01*
X152829500Y-95352250D01*
X152829500Y-94639750D01*
X152831035Y-94608507D01*
X152835625Y-94577565D01*
X152843225Y-94547222D01*
X152853763Y-94517770D01*
X152867138Y-94489492D01*
X152883219Y-94462662D01*
X152901853Y-94437537D01*
X152922860Y-94414360D01*
X152946037Y-94393353D01*
X152971162Y-94374719D01*
X152997992Y-94358638D01*
X153026270Y-94345263D01*
X153055722Y-94334725D01*
X153086065Y-94327125D01*
X153117007Y-94322535D01*
X153148250Y-94321000D01*
X153785750Y-94321000D01*
X153816993Y-94322535D01*
G37*
G36*
X160407493Y-92074035D02*
G01*
X160438435Y-92078625D01*
X160468778Y-92086225D01*
X160498230Y-92096763D01*
X160526508Y-92110138D01*
X160553338Y-92126219D01*
X160578463Y-92144853D01*
X160601640Y-92165860D01*
X160622647Y-92189037D01*
X160641281Y-92214162D01*
X160657362Y-92240992D01*
X160670737Y-92269270D01*
X160681275Y-92298722D01*
X160688875Y-92329065D01*
X160693465Y-92360007D01*
X160695000Y-92391250D01*
X160695000Y-93028750D01*
X160693465Y-93059993D01*
X160688875Y-93090935D01*
X160681275Y-93121278D01*
X160670737Y-93150730D01*
X160657362Y-93179008D01*
X160641281Y-93205838D01*
X160622647Y-93230963D01*
X160601640Y-93254140D01*
X160578463Y-93275147D01*
X160553338Y-93293781D01*
X160526508Y-93309862D01*
X160498230Y-93323237D01*
X160468778Y-93333775D01*
X160438435Y-93341375D01*
X160407493Y-93345965D01*
X160376250Y-93347500D01*
X159663750Y-93347500D01*
X159632507Y-93345965D01*
X159601565Y-93341375D01*
X159571222Y-93333775D01*
X159541770Y-93323237D01*
X159513492Y-93309862D01*
X159486662Y-93293781D01*
X159461537Y-93275147D01*
X159438360Y-93254140D01*
X159417353Y-93230963D01*
X159398719Y-93205838D01*
X159382638Y-93179008D01*
X159369263Y-93150730D01*
X159358725Y-93121278D01*
X159351125Y-93090935D01*
X159346535Y-93059993D01*
X159345000Y-93028750D01*
X159345000Y-92391250D01*
X159346535Y-92360007D01*
X159351125Y-92329065D01*
X159358725Y-92298722D01*
X159369263Y-92269270D01*
X159382638Y-92240992D01*
X159398719Y-92214162D01*
X159417353Y-92189037D01*
X159438360Y-92165860D01*
X159461537Y-92144853D01*
X159486662Y-92126219D01*
X159513492Y-92110138D01*
X159541770Y-92096763D01*
X159571222Y-92086225D01*
X159601565Y-92078625D01*
X159632507Y-92074035D01*
X159663750Y-92072500D01*
X160376250Y-92072500D01*
X160407493Y-92074035D01*
G37*
G36*
X160407493Y-90499035D02*
G01*
X160438435Y-90503625D01*
X160468778Y-90511225D01*
X160498230Y-90521763D01*
X160526508Y-90535138D01*
X160553338Y-90551219D01*
X160578463Y-90569853D01*
X160601640Y-90590860D01*
X160622647Y-90614037D01*
X160641281Y-90639162D01*
X160657362Y-90665992D01*
X160670737Y-90694270D01*
X160681275Y-90723722D01*
X160688875Y-90754065D01*
X160693465Y-90785007D01*
X160695000Y-90816250D01*
X160695000Y-91453750D01*
X160693465Y-91484993D01*
X160688875Y-91515935D01*
X160681275Y-91546278D01*
X160670737Y-91575730D01*
X160657362Y-91604008D01*
X160641281Y-91630838D01*
X160622647Y-91655963D01*
X160601640Y-91679140D01*
X160578463Y-91700147D01*
X160553338Y-91718781D01*
X160526508Y-91734862D01*
X160498230Y-91748237D01*
X160468778Y-91758775D01*
X160438435Y-91766375D01*
X160407493Y-91770965D01*
X160376250Y-91772500D01*
X159663750Y-91772500D01*
X159632507Y-91770965D01*
X159601565Y-91766375D01*
X159571222Y-91758775D01*
X159541770Y-91748237D01*
X159513492Y-91734862D01*
X159486662Y-91718781D01*
X159461537Y-91700147D01*
X159438360Y-91679140D01*
X159417353Y-91655963D01*
X159398719Y-91630838D01*
X159382638Y-91604008D01*
X159369263Y-91575730D01*
X159358725Y-91546278D01*
X159351125Y-91515935D01*
X159346535Y-91484993D01*
X159345000Y-91453750D01*
X159345000Y-90816250D01*
X159346535Y-90785007D01*
X159351125Y-90754065D01*
X159358725Y-90723722D01*
X159369263Y-90694270D01*
X159382638Y-90665992D01*
X159398719Y-90639162D01*
X159417353Y-90614037D01*
X159438360Y-90590860D01*
X159461537Y-90569853D01*
X159486662Y-90551219D01*
X159513492Y-90535138D01*
X159541770Y-90521763D01*
X159571222Y-90511225D01*
X159601565Y-90503625D01*
X159632507Y-90499035D01*
X159663750Y-90497500D01*
X160376250Y-90497500D01*
X160407493Y-90499035D01*
G37*
G36*
X153549493Y-92125035D02*
G01*
X153580435Y-92129625D01*
X153610778Y-92137225D01*
X153640230Y-92147763D01*
X153668508Y-92161138D01*
X153695338Y-92177219D01*
X153720463Y-92195853D01*
X153743640Y-92216860D01*
X153764647Y-92240037D01*
X153783281Y-92265162D01*
X153799362Y-92291992D01*
X153812737Y-92320270D01*
X153823275Y-92349722D01*
X153830875Y-92380065D01*
X153835465Y-92411007D01*
X153837000Y-92442250D01*
X153837000Y-93079750D01*
X153835465Y-93110993D01*
X153830875Y-93141935D01*
X153823275Y-93172278D01*
X153812737Y-93201730D01*
X153799362Y-93230008D01*
X153783281Y-93256838D01*
X153764647Y-93281963D01*
X153743640Y-93305140D01*
X153720463Y-93326147D01*
X153695338Y-93344781D01*
X153668508Y-93360862D01*
X153640230Y-93374237D01*
X153610778Y-93384775D01*
X153580435Y-93392375D01*
X153549493Y-93396965D01*
X153518250Y-93398500D01*
X152805750Y-93398500D01*
X152774507Y-93396965D01*
X152743565Y-93392375D01*
X152713222Y-93384775D01*
X152683770Y-93374237D01*
X152655492Y-93360862D01*
X152628662Y-93344781D01*
X152603537Y-93326147D01*
X152580360Y-93305140D01*
X152559353Y-93281963D01*
X152540719Y-93256838D01*
X152524638Y-93230008D01*
X152511263Y-93201730D01*
X152500725Y-93172278D01*
X152493125Y-93141935D01*
X152488535Y-93110993D01*
X152487000Y-93079750D01*
X152487000Y-92442250D01*
X152488535Y-92411007D01*
X152493125Y-92380065D01*
X152500725Y-92349722D01*
X152511263Y-92320270D01*
X152524638Y-92291992D01*
X152540719Y-92265162D01*
X152559353Y-92240037D01*
X152580360Y-92216860D01*
X152603537Y-92195853D01*
X152628662Y-92177219D01*
X152655492Y-92161138D01*
X152683770Y-92147763D01*
X152713222Y-92137225D01*
X152743565Y-92129625D01*
X152774507Y-92125035D01*
X152805750Y-92123500D01*
X153518250Y-92123500D01*
X153549493Y-92125035D01*
G37*
G36*
X153549493Y-90550035D02*
G01*
X153580435Y-90554625D01*
X153610778Y-90562225D01*
X153640230Y-90572763D01*
X153668508Y-90586138D01*
X153695338Y-90602219D01*
X153720463Y-90620853D01*
X153743640Y-90641860D01*
X153764647Y-90665037D01*
X153783281Y-90690162D01*
X153799362Y-90716992D01*
X153812737Y-90745270D01*
X153823275Y-90774722D01*
X153830875Y-90805065D01*
X153835465Y-90836007D01*
X153837000Y-90867250D01*
X153837000Y-91504750D01*
X153835465Y-91535993D01*
X153830875Y-91566935D01*
X153823275Y-91597278D01*
X153812737Y-91626730D01*
X153799362Y-91655008D01*
X153783281Y-91681838D01*
X153764647Y-91706963D01*
X153743640Y-91730140D01*
X153720463Y-91751147D01*
X153695338Y-91769781D01*
X153668508Y-91785862D01*
X153640230Y-91799237D01*
X153610778Y-91809775D01*
X153580435Y-91817375D01*
X153549493Y-91821965D01*
X153518250Y-91823500D01*
X152805750Y-91823500D01*
X152774507Y-91821965D01*
X152743565Y-91817375D01*
X152713222Y-91809775D01*
X152683770Y-91799237D01*
X152655492Y-91785862D01*
X152628662Y-91769781D01*
X152603537Y-91751147D01*
X152580360Y-91730140D01*
X152559353Y-91706963D01*
X152540719Y-91681838D01*
X152524638Y-91655008D01*
X152511263Y-91626730D01*
X152500725Y-91597278D01*
X152493125Y-91566935D01*
X152488535Y-91535993D01*
X152487000Y-91504750D01*
X152487000Y-90867250D01*
X152488535Y-90836007D01*
X152493125Y-90805065D01*
X152500725Y-90774722D01*
X152511263Y-90745270D01*
X152524638Y-90716992D01*
X152540719Y-90690162D01*
X152559353Y-90665037D01*
X152580360Y-90641860D01*
X152603537Y-90620853D01*
X152628662Y-90602219D01*
X152655492Y-90586138D01*
X152683770Y-90572763D01*
X152713222Y-90562225D01*
X152743565Y-90554625D01*
X152774507Y-90550035D01*
X152805750Y-90548500D01*
X153518250Y-90548500D01*
X153549493Y-90550035D01*
G37*
D13*
X150563000Y-101135000D03*
X152713000Y-101135000D03*
X150563000Y-96985000D03*
X152713000Y-96985000D03*
D12*
G36*
X135007493Y-83387035D02*
G01*
X135038435Y-83391625D01*
X135068778Y-83399225D01*
X135098230Y-83409763D01*
X135126508Y-83423138D01*
X135153338Y-83439219D01*
X135178463Y-83457853D01*
X135201640Y-83478860D01*
X135222647Y-83502037D01*
X135241281Y-83527162D01*
X135257362Y-83553992D01*
X135270737Y-83582270D01*
X135281275Y-83611722D01*
X135288875Y-83642065D01*
X135293465Y-83673007D01*
X135295000Y-83704250D01*
X135295000Y-84341750D01*
X135293465Y-84372993D01*
X135288875Y-84403935D01*
X135281275Y-84434278D01*
X135270737Y-84463730D01*
X135257362Y-84492008D01*
X135241281Y-84518838D01*
X135222647Y-84543963D01*
X135201640Y-84567140D01*
X135178463Y-84588147D01*
X135153338Y-84606781D01*
X135126508Y-84622862D01*
X135098230Y-84636237D01*
X135068778Y-84646775D01*
X135038435Y-84654375D01*
X135007493Y-84658965D01*
X134976250Y-84660500D01*
X134263750Y-84660500D01*
X134232507Y-84658965D01*
X134201565Y-84654375D01*
X134171222Y-84646775D01*
X134141770Y-84636237D01*
X134113492Y-84622862D01*
X134086662Y-84606781D01*
X134061537Y-84588147D01*
X134038360Y-84567140D01*
X134017353Y-84543963D01*
X133998719Y-84518838D01*
X133982638Y-84492008D01*
X133969263Y-84463730D01*
X133958725Y-84434278D01*
X133951125Y-84403935D01*
X133946535Y-84372993D01*
X133945000Y-84341750D01*
X133945000Y-83704250D01*
X133946535Y-83673007D01*
X133951125Y-83642065D01*
X133958725Y-83611722D01*
X133969263Y-83582270D01*
X133982638Y-83553992D01*
X133998719Y-83527162D01*
X134017353Y-83502037D01*
X134038360Y-83478860D01*
X134061537Y-83457853D01*
X134086662Y-83439219D01*
X134113492Y-83423138D01*
X134141770Y-83409763D01*
X134171222Y-83399225D01*
X134201565Y-83391625D01*
X134232507Y-83387035D01*
X134263750Y-83385500D01*
X134976250Y-83385500D01*
X135007493Y-83387035D01*
G37*
G36*
X135007493Y-84962035D02*
G01*
X135038435Y-84966625D01*
X135068778Y-84974225D01*
X135098230Y-84984763D01*
X135126508Y-84998138D01*
X135153338Y-85014219D01*
X135178463Y-85032853D01*
X135201640Y-85053860D01*
X135222647Y-85077037D01*
X135241281Y-85102162D01*
X135257362Y-85128992D01*
X135270737Y-85157270D01*
X135281275Y-85186722D01*
X135288875Y-85217065D01*
X135293465Y-85248007D01*
X135295000Y-85279250D01*
X135295000Y-85916750D01*
X135293465Y-85947993D01*
X135288875Y-85978935D01*
X135281275Y-86009278D01*
X135270737Y-86038730D01*
X135257362Y-86067008D01*
X135241281Y-86093838D01*
X135222647Y-86118963D01*
X135201640Y-86142140D01*
X135178463Y-86163147D01*
X135153338Y-86181781D01*
X135126508Y-86197862D01*
X135098230Y-86211237D01*
X135068778Y-86221775D01*
X135038435Y-86229375D01*
X135007493Y-86233965D01*
X134976250Y-86235500D01*
X134263750Y-86235500D01*
X134232507Y-86233965D01*
X134201565Y-86229375D01*
X134171222Y-86221775D01*
X134141770Y-86211237D01*
X134113492Y-86197862D01*
X134086662Y-86181781D01*
X134061537Y-86163147D01*
X134038360Y-86142140D01*
X134017353Y-86118963D01*
X133998719Y-86093838D01*
X133982638Y-86067008D01*
X133969263Y-86038730D01*
X133958725Y-86009278D01*
X133951125Y-85978935D01*
X133946535Y-85947993D01*
X133945000Y-85916750D01*
X133945000Y-85279250D01*
X133946535Y-85248007D01*
X133951125Y-85217065D01*
X133958725Y-85186722D01*
X133969263Y-85157270D01*
X133982638Y-85128992D01*
X133998719Y-85102162D01*
X134017353Y-85077037D01*
X134038360Y-85053860D01*
X134061537Y-85032853D01*
X134086662Y-85014219D01*
X134113492Y-84998138D01*
X134141770Y-84984763D01*
X134171222Y-84974225D01*
X134201565Y-84966625D01*
X134232507Y-84962035D01*
X134263750Y-84960500D01*
X134976250Y-84960500D01*
X135007493Y-84962035D01*
G37*
G36*
X162693493Y-92125035D02*
G01*
X162724435Y-92129625D01*
X162754778Y-92137225D01*
X162784230Y-92147763D01*
X162812508Y-92161138D01*
X162839338Y-92177219D01*
X162864463Y-92195853D01*
X162887640Y-92216860D01*
X162908647Y-92240037D01*
X162927281Y-92265162D01*
X162943362Y-92291992D01*
X162956737Y-92320270D01*
X162967275Y-92349722D01*
X162974875Y-92380065D01*
X162979465Y-92411007D01*
X162981000Y-92442250D01*
X162981000Y-93079750D01*
X162979465Y-93110993D01*
X162974875Y-93141935D01*
X162967275Y-93172278D01*
X162956737Y-93201730D01*
X162943362Y-93230008D01*
X162927281Y-93256838D01*
X162908647Y-93281963D01*
X162887640Y-93305140D01*
X162864463Y-93326147D01*
X162839338Y-93344781D01*
X162812508Y-93360862D01*
X162784230Y-93374237D01*
X162754778Y-93384775D01*
X162724435Y-93392375D01*
X162693493Y-93396965D01*
X162662250Y-93398500D01*
X161949750Y-93398500D01*
X161918507Y-93396965D01*
X161887565Y-93392375D01*
X161857222Y-93384775D01*
X161827770Y-93374237D01*
X161799492Y-93360862D01*
X161772662Y-93344781D01*
X161747537Y-93326147D01*
X161724360Y-93305140D01*
X161703353Y-93281963D01*
X161684719Y-93256838D01*
X161668638Y-93230008D01*
X161655263Y-93201730D01*
X161644725Y-93172278D01*
X161637125Y-93141935D01*
X161632535Y-93110993D01*
X161631000Y-93079750D01*
X161631000Y-92442250D01*
X161632535Y-92411007D01*
X161637125Y-92380065D01*
X161644725Y-92349722D01*
X161655263Y-92320270D01*
X161668638Y-92291992D01*
X161684719Y-92265162D01*
X161703353Y-92240037D01*
X161724360Y-92216860D01*
X161747537Y-92195853D01*
X161772662Y-92177219D01*
X161799492Y-92161138D01*
X161827770Y-92147763D01*
X161857222Y-92137225D01*
X161887565Y-92129625D01*
X161918507Y-92125035D01*
X161949750Y-92123500D01*
X162662250Y-92123500D01*
X162693493Y-92125035D01*
G37*
G36*
X162693493Y-90550035D02*
G01*
X162724435Y-90554625D01*
X162754778Y-90562225D01*
X162784230Y-90572763D01*
X162812508Y-90586138D01*
X162839338Y-90602219D01*
X162864463Y-90620853D01*
X162887640Y-90641860D01*
X162908647Y-90665037D01*
X162927281Y-90690162D01*
X162943362Y-90716992D01*
X162956737Y-90745270D01*
X162967275Y-90774722D01*
X162974875Y-90805065D01*
X162979465Y-90836007D01*
X162981000Y-90867250D01*
X162981000Y-91504750D01*
X162979465Y-91535993D01*
X162974875Y-91566935D01*
X162967275Y-91597278D01*
X162956737Y-91626730D01*
X162943362Y-91655008D01*
X162927281Y-91681838D01*
X162908647Y-91706963D01*
X162887640Y-91730140D01*
X162864463Y-91751147D01*
X162839338Y-91769781D01*
X162812508Y-91785862D01*
X162784230Y-91799237D01*
X162754778Y-91809775D01*
X162724435Y-91817375D01*
X162693493Y-91821965D01*
X162662250Y-91823500D01*
X161949750Y-91823500D01*
X161918507Y-91821965D01*
X161887565Y-91817375D01*
X161857222Y-91809775D01*
X161827770Y-91799237D01*
X161799492Y-91785862D01*
X161772662Y-91769781D01*
X161747537Y-91751147D01*
X161724360Y-91730140D01*
X161703353Y-91706963D01*
X161684719Y-91681838D01*
X161668638Y-91655008D01*
X161655263Y-91626730D01*
X161644725Y-91597278D01*
X161637125Y-91566935D01*
X161632535Y-91535993D01*
X161631000Y-91504750D01*
X161631000Y-90867250D01*
X161632535Y-90836007D01*
X161637125Y-90805065D01*
X161644725Y-90774722D01*
X161655263Y-90745270D01*
X161668638Y-90716992D01*
X161684719Y-90690162D01*
X161703353Y-90665037D01*
X161724360Y-90641860D01*
X161747537Y-90620853D01*
X161772662Y-90602219D01*
X161799492Y-90586138D01*
X161827770Y-90572763D01*
X161857222Y-90562225D01*
X161887565Y-90554625D01*
X161918507Y-90550035D01*
X161949750Y-90548500D01*
X162662250Y-90548500D01*
X162693493Y-90550035D01*
G37*
G36*
X142649493Y-77367535D02*
G01*
X142680435Y-77372125D01*
X142710778Y-77379725D01*
X142740230Y-77390263D01*
X142768508Y-77403638D01*
X142795338Y-77419719D01*
X142820463Y-77438353D01*
X142843640Y-77459360D01*
X142864647Y-77482537D01*
X142883281Y-77507662D01*
X142899362Y-77534492D01*
X142912737Y-77562770D01*
X142923275Y-77592222D01*
X142930875Y-77622565D01*
X142935465Y-77653507D01*
X142937000Y-77684750D01*
X142937000Y-78322250D01*
X142935465Y-78353493D01*
X142930875Y-78384435D01*
X142923275Y-78414778D01*
X142912737Y-78444230D01*
X142899362Y-78472508D01*
X142883281Y-78499338D01*
X142864647Y-78524463D01*
X142843640Y-78547640D01*
X142820463Y-78568647D01*
X142795338Y-78587281D01*
X142768508Y-78603362D01*
X142740230Y-78616737D01*
X142710778Y-78627275D01*
X142680435Y-78634875D01*
X142649493Y-78639465D01*
X142618250Y-78641000D01*
X141905750Y-78641000D01*
X141874507Y-78639465D01*
X141843565Y-78634875D01*
X141813222Y-78627275D01*
X141783770Y-78616737D01*
X141755492Y-78603362D01*
X141728662Y-78587281D01*
X141703537Y-78568647D01*
X141680360Y-78547640D01*
X141659353Y-78524463D01*
X141640719Y-78499338D01*
X141624638Y-78472508D01*
X141611263Y-78444230D01*
X141600725Y-78414778D01*
X141593125Y-78384435D01*
X141588535Y-78353493D01*
X141587000Y-78322250D01*
X141587000Y-77684750D01*
X141588535Y-77653507D01*
X141593125Y-77622565D01*
X141600725Y-77592222D01*
X141611263Y-77562770D01*
X141624638Y-77534492D01*
X141640719Y-77507662D01*
X141659353Y-77482537D01*
X141680360Y-77459360D01*
X141703537Y-77438353D01*
X141728662Y-77419719D01*
X141755492Y-77403638D01*
X141783770Y-77390263D01*
X141813222Y-77379725D01*
X141843565Y-77372125D01*
X141874507Y-77367535D01*
X141905750Y-77366000D01*
X142618250Y-77366000D01*
X142649493Y-77367535D01*
G37*
G36*
X142649493Y-75792535D02*
G01*
X142680435Y-75797125D01*
X142710778Y-75804725D01*
X142740230Y-75815263D01*
X142768508Y-75828638D01*
X142795338Y-75844719D01*
X142820463Y-75863353D01*
X142843640Y-75884360D01*
X142864647Y-75907537D01*
X142883281Y-75932662D01*
X142899362Y-75959492D01*
X142912737Y-75987770D01*
X142923275Y-76017222D01*
X142930875Y-76047565D01*
X142935465Y-76078507D01*
X142937000Y-76109750D01*
X142937000Y-76747250D01*
X142935465Y-76778493D01*
X142930875Y-76809435D01*
X142923275Y-76839778D01*
X142912737Y-76869230D01*
X142899362Y-76897508D01*
X142883281Y-76924338D01*
X142864647Y-76949463D01*
X142843640Y-76972640D01*
X142820463Y-76993647D01*
X142795338Y-77012281D01*
X142768508Y-77028362D01*
X142740230Y-77041737D01*
X142710778Y-77052275D01*
X142680435Y-77059875D01*
X142649493Y-77064465D01*
X142618250Y-77066000D01*
X141905750Y-77066000D01*
X141874507Y-77064465D01*
X141843565Y-77059875D01*
X141813222Y-77052275D01*
X141783770Y-77041737D01*
X141755492Y-77028362D01*
X141728662Y-77012281D01*
X141703537Y-76993647D01*
X141680360Y-76972640D01*
X141659353Y-76949463D01*
X141640719Y-76924338D01*
X141624638Y-76897508D01*
X141611263Y-76869230D01*
X141600725Y-76839778D01*
X141593125Y-76809435D01*
X141588535Y-76778493D01*
X141587000Y-76747250D01*
X141587000Y-76109750D01*
X141588535Y-76078507D01*
X141593125Y-76047565D01*
X141600725Y-76017222D01*
X141611263Y-75987770D01*
X141624638Y-75959492D01*
X141640719Y-75932662D01*
X141659353Y-75907537D01*
X141680360Y-75884360D01*
X141703537Y-75863353D01*
X141728662Y-75844719D01*
X141755492Y-75828638D01*
X141783770Y-75815263D01*
X141813222Y-75804725D01*
X141843565Y-75797125D01*
X141874507Y-75792535D01*
X141905750Y-75791000D01*
X142618250Y-75791000D01*
X142649493Y-75792535D01*
G37*
G36*
X146831346Y-90426589D02*
G01*
X146863380Y-90431341D01*
X146894794Y-90439210D01*
X146925286Y-90450120D01*
X146954561Y-90463966D01*
X146982338Y-90480615D01*
X147008350Y-90499907D01*
X147032345Y-90521655D01*
X147054093Y-90545650D01*
X147073385Y-90571662D01*
X147090034Y-90599439D01*
X147103880Y-90628714D01*
X147114790Y-90659206D01*
X147122659Y-90690620D01*
X147127411Y-90722654D01*
X147129000Y-90755000D01*
X147129000Y-92245000D01*
X147127411Y-92277346D01*
X147122659Y-92309380D01*
X147114790Y-92340794D01*
X147103880Y-92371286D01*
X147090034Y-92400561D01*
X147073385Y-92428338D01*
X147054093Y-92454350D01*
X147032345Y-92478345D01*
X147008350Y-92500093D01*
X146982338Y-92519385D01*
X146954561Y-92536034D01*
X146925286Y-92549880D01*
X146894794Y-92560790D01*
X146863380Y-92568659D01*
X146831346Y-92573411D01*
X146799000Y-92575000D01*
X145809000Y-92575000D01*
X145776654Y-92573411D01*
X145744620Y-92568659D01*
X145713206Y-92560790D01*
X145682714Y-92549880D01*
X145653439Y-92536034D01*
X145625662Y-92519385D01*
X145599650Y-92500093D01*
X145575655Y-92478345D01*
X145553907Y-92454350D01*
X145534615Y-92428338D01*
X145517966Y-92400561D01*
X145504120Y-92371286D01*
X145493210Y-92340794D01*
X145485341Y-92309380D01*
X145480589Y-92277346D01*
X145479000Y-92245000D01*
X145479000Y-90755000D01*
X145480589Y-90722654D01*
X145485341Y-90690620D01*
X145493210Y-90659206D01*
X145504120Y-90628714D01*
X145517966Y-90599439D01*
X145534615Y-90571662D01*
X145553907Y-90545650D01*
X145575655Y-90521655D01*
X145599650Y-90499907D01*
X145625662Y-90480615D01*
X145653439Y-90463966D01*
X145682714Y-90450120D01*
X145713206Y-90439210D01*
X145744620Y-90431341D01*
X145776654Y-90426589D01*
X145809000Y-90425000D01*
X146799000Y-90425000D01*
X146831346Y-90426589D01*
G37*
G36*
X144031346Y-90426589D02*
G01*
X144063380Y-90431341D01*
X144094794Y-90439210D01*
X144125286Y-90450120D01*
X144154561Y-90463966D01*
X144182338Y-90480615D01*
X144208350Y-90499907D01*
X144232345Y-90521655D01*
X144254093Y-90545650D01*
X144273385Y-90571662D01*
X144290034Y-90599439D01*
X144303880Y-90628714D01*
X144314790Y-90659206D01*
X144322659Y-90690620D01*
X144327411Y-90722654D01*
X144329000Y-90755000D01*
X144329000Y-92245000D01*
X144327411Y-92277346D01*
X144322659Y-92309380D01*
X144314790Y-92340794D01*
X144303880Y-92371286D01*
X144290034Y-92400561D01*
X144273385Y-92428338D01*
X144254093Y-92454350D01*
X144232345Y-92478345D01*
X144208350Y-92500093D01*
X144182338Y-92519385D01*
X144154561Y-92536034D01*
X144125286Y-92549880D01*
X144094794Y-92560790D01*
X144063380Y-92568659D01*
X144031346Y-92573411D01*
X143999000Y-92575000D01*
X143009000Y-92575000D01*
X142976654Y-92573411D01*
X142944620Y-92568659D01*
X142913206Y-92560790D01*
X142882714Y-92549880D01*
X142853439Y-92536034D01*
X142825662Y-92519385D01*
X142799650Y-92500093D01*
X142775655Y-92478345D01*
X142753907Y-92454350D01*
X142734615Y-92428338D01*
X142717966Y-92400561D01*
X142704120Y-92371286D01*
X142693210Y-92340794D01*
X142685341Y-92309380D01*
X142680589Y-92277346D01*
X142679000Y-92245000D01*
X142679000Y-90755000D01*
X142680589Y-90722654D01*
X142685341Y-90690620D01*
X142693210Y-90659206D01*
X142704120Y-90628714D01*
X142717966Y-90599439D01*
X142734615Y-90571662D01*
X142753907Y-90545650D01*
X142775655Y-90521655D01*
X142799650Y-90499907D01*
X142825662Y-90480615D01*
X142853439Y-90463966D01*
X142882714Y-90450120D01*
X142913206Y-90439210D01*
X142944620Y-90431341D01*
X142976654Y-90426589D01*
X143009000Y-90425000D01*
X143999000Y-90425000D01*
X144031346Y-90426589D01*
G37*
G36*
X137429346Y-99128589D02*
G01*
X137461380Y-99133341D01*
X137492794Y-99141210D01*
X137523286Y-99152120D01*
X137552561Y-99165966D01*
X137580338Y-99182615D01*
X137606350Y-99201907D01*
X137630345Y-99223655D01*
X137652093Y-99247650D01*
X137671385Y-99273662D01*
X137688034Y-99301439D01*
X137701880Y-99330714D01*
X137712790Y-99361206D01*
X137720659Y-99392620D01*
X137725411Y-99424654D01*
X137727000Y-99457000D01*
X137727000Y-100447000D01*
X137725411Y-100479346D01*
X137720659Y-100511380D01*
X137712790Y-100542794D01*
X137701880Y-100573286D01*
X137688034Y-100602561D01*
X137671385Y-100630338D01*
X137652093Y-100656350D01*
X137630345Y-100680345D01*
X137606350Y-100702093D01*
X137580338Y-100721385D01*
X137552561Y-100738034D01*
X137523286Y-100751880D01*
X137492794Y-100762790D01*
X137461380Y-100770659D01*
X137429346Y-100775411D01*
X137397000Y-100777000D01*
X135907000Y-100777000D01*
X135874654Y-100775411D01*
X135842620Y-100770659D01*
X135811206Y-100762790D01*
X135780714Y-100751880D01*
X135751439Y-100738034D01*
X135723662Y-100721385D01*
X135697650Y-100702093D01*
X135673655Y-100680345D01*
X135651907Y-100656350D01*
X135632615Y-100630338D01*
X135615966Y-100602561D01*
X135602120Y-100573286D01*
X135591210Y-100542794D01*
X135583341Y-100511380D01*
X135578589Y-100479346D01*
X135577000Y-100447000D01*
X135577000Y-99457000D01*
X135578589Y-99424654D01*
X135583341Y-99392620D01*
X135591210Y-99361206D01*
X135602120Y-99330714D01*
X135615966Y-99301439D01*
X135632615Y-99273662D01*
X135651907Y-99247650D01*
X135673655Y-99223655D01*
X135697650Y-99201907D01*
X135723662Y-99182615D01*
X135751439Y-99165966D01*
X135780714Y-99152120D01*
X135811206Y-99141210D01*
X135842620Y-99133341D01*
X135874654Y-99128589D01*
X135907000Y-99127000D01*
X137397000Y-99127000D01*
X137429346Y-99128589D01*
G37*
G36*
X137429346Y-96328589D02*
G01*
X137461380Y-96333341D01*
X137492794Y-96341210D01*
X137523286Y-96352120D01*
X137552561Y-96365966D01*
X137580338Y-96382615D01*
X137606350Y-96401907D01*
X137630345Y-96423655D01*
X137652093Y-96447650D01*
X137671385Y-96473662D01*
X137688034Y-96501439D01*
X137701880Y-96530714D01*
X137712790Y-96561206D01*
X137720659Y-96592620D01*
X137725411Y-96624654D01*
X137727000Y-96657000D01*
X137727000Y-97647000D01*
X137725411Y-97679346D01*
X137720659Y-97711380D01*
X137712790Y-97742794D01*
X137701880Y-97773286D01*
X137688034Y-97802561D01*
X137671385Y-97830338D01*
X137652093Y-97856350D01*
X137630345Y-97880345D01*
X137606350Y-97902093D01*
X137580338Y-97921385D01*
X137552561Y-97938034D01*
X137523286Y-97951880D01*
X137492794Y-97962790D01*
X137461380Y-97970659D01*
X137429346Y-97975411D01*
X137397000Y-97977000D01*
X135907000Y-97977000D01*
X135874654Y-97975411D01*
X135842620Y-97970659D01*
X135811206Y-97962790D01*
X135780714Y-97951880D01*
X135751439Y-97938034D01*
X135723662Y-97921385D01*
X135697650Y-97902093D01*
X135673655Y-97880345D01*
X135651907Y-97856350D01*
X135632615Y-97830338D01*
X135615966Y-97802561D01*
X135602120Y-97773286D01*
X135591210Y-97742794D01*
X135583341Y-97711380D01*
X135578589Y-97679346D01*
X135577000Y-97647000D01*
X135577000Y-96657000D01*
X135578589Y-96624654D01*
X135583341Y-96592620D01*
X135591210Y-96561206D01*
X135602120Y-96530714D01*
X135615966Y-96501439D01*
X135632615Y-96473662D01*
X135651907Y-96447650D01*
X135673655Y-96423655D01*
X135697650Y-96401907D01*
X135723662Y-96382615D01*
X135751439Y-96365966D01*
X135780714Y-96352120D01*
X135811206Y-96341210D01*
X135842620Y-96333341D01*
X135874654Y-96328589D01*
X135907000Y-96327000D01*
X137397000Y-96327000D01*
X137429346Y-96328589D01*
G37*
G36*
X166949993Y-85026535D02*
G01*
X166980935Y-85031125D01*
X167011278Y-85038725D01*
X167040730Y-85049263D01*
X167069008Y-85062638D01*
X167095838Y-85078719D01*
X167120963Y-85097353D01*
X167144140Y-85118360D01*
X167165147Y-85141537D01*
X167183781Y-85166662D01*
X167199862Y-85193492D01*
X167213237Y-85221770D01*
X167223775Y-85251222D01*
X167231375Y-85281565D01*
X167235965Y-85312507D01*
X167237500Y-85343750D01*
X167237500Y-86056250D01*
X167235965Y-86087493D01*
X167231375Y-86118435D01*
X167223775Y-86148778D01*
X167213237Y-86178230D01*
X167199862Y-86206508D01*
X167183781Y-86233338D01*
X167165147Y-86258463D01*
X167144140Y-86281640D01*
X167120963Y-86302647D01*
X167095838Y-86321281D01*
X167069008Y-86337362D01*
X167040730Y-86350737D01*
X167011278Y-86361275D01*
X166980935Y-86368875D01*
X166949993Y-86373465D01*
X166918750Y-86375000D01*
X166281250Y-86375000D01*
X166250007Y-86373465D01*
X166219065Y-86368875D01*
X166188722Y-86361275D01*
X166159270Y-86350737D01*
X166130992Y-86337362D01*
X166104162Y-86321281D01*
X166079037Y-86302647D01*
X166055860Y-86281640D01*
X166034853Y-86258463D01*
X166016219Y-86233338D01*
X166000138Y-86206508D01*
X165986763Y-86178230D01*
X165976225Y-86148778D01*
X165968625Y-86118435D01*
X165964035Y-86087493D01*
X165962500Y-86056250D01*
X165962500Y-85343750D01*
X165964035Y-85312507D01*
X165968625Y-85281565D01*
X165976225Y-85251222D01*
X165986763Y-85221770D01*
X166000138Y-85193492D01*
X166016219Y-85166662D01*
X166034853Y-85141537D01*
X166055860Y-85118360D01*
X166079037Y-85097353D01*
X166104162Y-85078719D01*
X166130992Y-85062638D01*
X166159270Y-85049263D01*
X166188722Y-85038725D01*
X166219065Y-85031125D01*
X166250007Y-85026535D01*
X166281250Y-85025000D01*
X166918750Y-85025000D01*
X166949993Y-85026535D01*
G37*
G36*
X168524993Y-85026535D02*
G01*
X168555935Y-85031125D01*
X168586278Y-85038725D01*
X168615730Y-85049263D01*
X168644008Y-85062638D01*
X168670838Y-85078719D01*
X168695963Y-85097353D01*
X168719140Y-85118360D01*
X168740147Y-85141537D01*
X168758781Y-85166662D01*
X168774862Y-85193492D01*
X168788237Y-85221770D01*
X168798775Y-85251222D01*
X168806375Y-85281565D01*
X168810965Y-85312507D01*
X168812500Y-85343750D01*
X168812500Y-86056250D01*
X168810965Y-86087493D01*
X168806375Y-86118435D01*
X168798775Y-86148778D01*
X168788237Y-86178230D01*
X168774862Y-86206508D01*
X168758781Y-86233338D01*
X168740147Y-86258463D01*
X168719140Y-86281640D01*
X168695963Y-86302647D01*
X168670838Y-86321281D01*
X168644008Y-86337362D01*
X168615730Y-86350737D01*
X168586278Y-86361275D01*
X168555935Y-86368875D01*
X168524993Y-86373465D01*
X168493750Y-86375000D01*
X167856250Y-86375000D01*
X167825007Y-86373465D01*
X167794065Y-86368875D01*
X167763722Y-86361275D01*
X167734270Y-86350737D01*
X167705992Y-86337362D01*
X167679162Y-86321281D01*
X167654037Y-86302647D01*
X167630860Y-86281640D01*
X167609853Y-86258463D01*
X167591219Y-86233338D01*
X167575138Y-86206508D01*
X167561763Y-86178230D01*
X167551225Y-86148778D01*
X167543625Y-86118435D01*
X167539035Y-86087493D01*
X167537500Y-86056250D01*
X167537500Y-85343750D01*
X167539035Y-85312507D01*
X167543625Y-85281565D01*
X167551225Y-85251222D01*
X167561763Y-85221770D01*
X167575138Y-85193492D01*
X167591219Y-85166662D01*
X167609853Y-85141537D01*
X167630860Y-85118360D01*
X167654037Y-85097353D01*
X167679162Y-85078719D01*
X167705992Y-85062638D01*
X167734270Y-85049263D01*
X167763722Y-85038725D01*
X167794065Y-85031125D01*
X167825007Y-85026535D01*
X167856250Y-85025000D01*
X168493750Y-85025000D01*
X168524993Y-85026535D01*
G37*
G36*
X177292493Y-78066535D02*
G01*
X177323435Y-78071125D01*
X177353778Y-78078725D01*
X177383230Y-78089263D01*
X177411508Y-78102638D01*
X177438338Y-78118719D01*
X177463463Y-78137353D01*
X177486640Y-78158360D01*
X177507647Y-78181537D01*
X177526281Y-78206662D01*
X177542362Y-78233492D01*
X177555737Y-78261770D01*
X177566275Y-78291222D01*
X177573875Y-78321565D01*
X177578465Y-78352507D01*
X177580000Y-78383750D01*
X177580000Y-79096250D01*
X177578465Y-79127493D01*
X177573875Y-79158435D01*
X177566275Y-79188778D01*
X177555737Y-79218230D01*
X177542362Y-79246508D01*
X177526281Y-79273338D01*
X177507647Y-79298463D01*
X177486640Y-79321640D01*
X177463463Y-79342647D01*
X177438338Y-79361281D01*
X177411508Y-79377362D01*
X177383230Y-79390737D01*
X177353778Y-79401275D01*
X177323435Y-79408875D01*
X177292493Y-79413465D01*
X177261250Y-79415000D01*
X176623750Y-79415000D01*
X176592507Y-79413465D01*
X176561565Y-79408875D01*
X176531222Y-79401275D01*
X176501770Y-79390737D01*
X176473492Y-79377362D01*
X176446662Y-79361281D01*
X176421537Y-79342647D01*
X176398360Y-79321640D01*
X176377353Y-79298463D01*
X176358719Y-79273338D01*
X176342638Y-79246508D01*
X176329263Y-79218230D01*
X176318725Y-79188778D01*
X176311125Y-79158435D01*
X176306535Y-79127493D01*
X176305000Y-79096250D01*
X176305000Y-78383750D01*
X176306535Y-78352507D01*
X176311125Y-78321565D01*
X176318725Y-78291222D01*
X176329263Y-78261770D01*
X176342638Y-78233492D01*
X176358719Y-78206662D01*
X176377353Y-78181537D01*
X176398360Y-78158360D01*
X176421537Y-78137353D01*
X176446662Y-78118719D01*
X176473492Y-78102638D01*
X176501770Y-78089263D01*
X176531222Y-78078725D01*
X176561565Y-78071125D01*
X176592507Y-78066535D01*
X176623750Y-78065000D01*
X177261250Y-78065000D01*
X177292493Y-78066535D01*
G37*
G36*
X178867493Y-78066535D02*
G01*
X178898435Y-78071125D01*
X178928778Y-78078725D01*
X178958230Y-78089263D01*
X178986508Y-78102638D01*
X179013338Y-78118719D01*
X179038463Y-78137353D01*
X179061640Y-78158360D01*
X179082647Y-78181537D01*
X179101281Y-78206662D01*
X179117362Y-78233492D01*
X179130737Y-78261770D01*
X179141275Y-78291222D01*
X179148875Y-78321565D01*
X179153465Y-78352507D01*
X179155000Y-78383750D01*
X179155000Y-79096250D01*
X179153465Y-79127493D01*
X179148875Y-79158435D01*
X179141275Y-79188778D01*
X179130737Y-79218230D01*
X179117362Y-79246508D01*
X179101281Y-79273338D01*
X179082647Y-79298463D01*
X179061640Y-79321640D01*
X179038463Y-79342647D01*
X179013338Y-79361281D01*
X178986508Y-79377362D01*
X178958230Y-79390737D01*
X178928778Y-79401275D01*
X178898435Y-79408875D01*
X178867493Y-79413465D01*
X178836250Y-79415000D01*
X178198750Y-79415000D01*
X178167507Y-79413465D01*
X178136565Y-79408875D01*
X178106222Y-79401275D01*
X178076770Y-79390737D01*
X178048492Y-79377362D01*
X178021662Y-79361281D01*
X177996537Y-79342647D01*
X177973360Y-79321640D01*
X177952353Y-79298463D01*
X177933719Y-79273338D01*
X177917638Y-79246508D01*
X177904263Y-79218230D01*
X177893725Y-79188778D01*
X177886125Y-79158435D01*
X177881535Y-79127493D01*
X177880000Y-79096250D01*
X177880000Y-78383750D01*
X177881535Y-78352507D01*
X177886125Y-78321565D01*
X177893725Y-78291222D01*
X177904263Y-78261770D01*
X177917638Y-78233492D01*
X177933719Y-78206662D01*
X177952353Y-78181537D01*
X177973360Y-78158360D01*
X177996537Y-78137353D01*
X178021662Y-78118719D01*
X178048492Y-78102638D01*
X178076770Y-78089263D01*
X178106222Y-78078725D01*
X178136565Y-78071125D01*
X178167507Y-78066535D01*
X178198750Y-78065000D01*
X178836250Y-78065000D01*
X178867493Y-78066535D01*
G37*
D13*
X155425000Y-101178000D03*
X157575000Y-101178000D03*
X155425000Y-97028000D03*
X157575000Y-97028000D03*
D14*
X171190000Y-93472000D03*
D15*
X173730000Y-93472000D03*
D14*
X171190000Y-78681580D03*
D15*
X173730000Y-78681580D03*
D14*
X171190000Y-86000000D03*
D15*
X173730000Y-86000000D03*
D16*
X164500000Y-92550000D03*
X164500000Y-94450000D03*
X166500000Y-93500000D03*
D17*
X140616000Y-93486000D03*
X140616000Y-88886000D03*
D18*
X134366000Y-91186000D03*
D19*
X133350000Y-81280000D03*
D20*
X133350000Y-78740000D03*
X133350000Y-76200000D03*
D12*
G36*
X155835493Y-92074035D02*
G01*
X155866435Y-92078625D01*
X155896778Y-92086225D01*
X155926230Y-92096763D01*
X155954508Y-92110138D01*
X155981338Y-92126219D01*
X156006463Y-92144853D01*
X156029640Y-92165860D01*
X156050647Y-92189037D01*
X156069281Y-92214162D01*
X156085362Y-92240992D01*
X156098737Y-92269270D01*
X156109275Y-92298722D01*
X156116875Y-92329065D01*
X156121465Y-92360007D01*
X156123000Y-92391250D01*
X156123000Y-93028750D01*
X156121465Y-93059993D01*
X156116875Y-93090935D01*
X156109275Y-93121278D01*
X156098737Y-93150730D01*
X156085362Y-93179008D01*
X156069281Y-93205838D01*
X156050647Y-93230963D01*
X156029640Y-93254140D01*
X156006463Y-93275147D01*
X155981338Y-93293781D01*
X155954508Y-93309862D01*
X155926230Y-93323237D01*
X155896778Y-93333775D01*
X155866435Y-93341375D01*
X155835493Y-93345965D01*
X155804250Y-93347500D01*
X155091750Y-93347500D01*
X155060507Y-93345965D01*
X155029565Y-93341375D01*
X154999222Y-93333775D01*
X154969770Y-93323237D01*
X154941492Y-93309862D01*
X154914662Y-93293781D01*
X154889537Y-93275147D01*
X154866360Y-93254140D01*
X154845353Y-93230963D01*
X154826719Y-93205838D01*
X154810638Y-93179008D01*
X154797263Y-93150730D01*
X154786725Y-93121278D01*
X154779125Y-93090935D01*
X154774535Y-93059993D01*
X154773000Y-93028750D01*
X154773000Y-92391250D01*
X154774535Y-92360007D01*
X154779125Y-92329065D01*
X154786725Y-92298722D01*
X154797263Y-92269270D01*
X154810638Y-92240992D01*
X154826719Y-92214162D01*
X154845353Y-92189037D01*
X154866360Y-92165860D01*
X154889537Y-92144853D01*
X154914662Y-92126219D01*
X154941492Y-92110138D01*
X154969770Y-92096763D01*
X154999222Y-92086225D01*
X155029565Y-92078625D01*
X155060507Y-92074035D01*
X155091750Y-92072500D01*
X155804250Y-92072500D01*
X155835493Y-92074035D01*
G37*
G36*
X155835493Y-90499035D02*
G01*
X155866435Y-90503625D01*
X155896778Y-90511225D01*
X155926230Y-90521763D01*
X155954508Y-90535138D01*
X155981338Y-90551219D01*
X156006463Y-90569853D01*
X156029640Y-90590860D01*
X156050647Y-90614037D01*
X156069281Y-90639162D01*
X156085362Y-90665992D01*
X156098737Y-90694270D01*
X156109275Y-90723722D01*
X156116875Y-90754065D01*
X156121465Y-90785007D01*
X156123000Y-90816250D01*
X156123000Y-91453750D01*
X156121465Y-91484993D01*
X156116875Y-91515935D01*
X156109275Y-91546278D01*
X156098737Y-91575730D01*
X156085362Y-91604008D01*
X156069281Y-91630838D01*
X156050647Y-91655963D01*
X156029640Y-91679140D01*
X156006463Y-91700147D01*
X155981338Y-91718781D01*
X155954508Y-91734862D01*
X155926230Y-91748237D01*
X155896778Y-91758775D01*
X155866435Y-91766375D01*
X155835493Y-91770965D01*
X155804250Y-91772500D01*
X155091750Y-91772500D01*
X155060507Y-91770965D01*
X155029565Y-91766375D01*
X154999222Y-91758775D01*
X154969770Y-91748237D01*
X154941492Y-91734862D01*
X154914662Y-91718781D01*
X154889537Y-91700147D01*
X154866360Y-91679140D01*
X154845353Y-91655963D01*
X154826719Y-91630838D01*
X154810638Y-91604008D01*
X154797263Y-91575730D01*
X154786725Y-91546278D01*
X154779125Y-91515935D01*
X154774535Y-91484993D01*
X154773000Y-91453750D01*
X154773000Y-90816250D01*
X154774535Y-90785007D01*
X154779125Y-90754065D01*
X154786725Y-90723722D01*
X154797263Y-90694270D01*
X154810638Y-90665992D01*
X154826719Y-90639162D01*
X154845353Y-90614037D01*
X154866360Y-90590860D01*
X154889537Y-90569853D01*
X154914662Y-90551219D01*
X154941492Y-90535138D01*
X154969770Y-90521763D01*
X154999222Y-90511225D01*
X155029565Y-90503625D01*
X155060507Y-90499035D01*
X155091750Y-90497500D01*
X155804250Y-90497500D01*
X155835493Y-90499035D01*
G37*
G36*
X148977493Y-92074035D02*
G01*
X149008435Y-92078625D01*
X149038778Y-92086225D01*
X149068230Y-92096763D01*
X149096508Y-92110138D01*
X149123338Y-92126219D01*
X149148463Y-92144853D01*
X149171640Y-92165860D01*
X149192647Y-92189037D01*
X149211281Y-92214162D01*
X149227362Y-92240992D01*
X149240737Y-92269270D01*
X149251275Y-92298722D01*
X149258875Y-92329065D01*
X149263465Y-92360007D01*
X149265000Y-92391250D01*
X149265000Y-93028750D01*
X149263465Y-93059993D01*
X149258875Y-93090935D01*
X149251275Y-93121278D01*
X149240737Y-93150730D01*
X149227362Y-93179008D01*
X149211281Y-93205838D01*
X149192647Y-93230963D01*
X149171640Y-93254140D01*
X149148463Y-93275147D01*
X149123338Y-93293781D01*
X149096508Y-93309862D01*
X149068230Y-93323237D01*
X149038778Y-93333775D01*
X149008435Y-93341375D01*
X148977493Y-93345965D01*
X148946250Y-93347500D01*
X148233750Y-93347500D01*
X148202507Y-93345965D01*
X148171565Y-93341375D01*
X148141222Y-93333775D01*
X148111770Y-93323237D01*
X148083492Y-93309862D01*
X148056662Y-93293781D01*
X148031537Y-93275147D01*
X148008360Y-93254140D01*
X147987353Y-93230963D01*
X147968719Y-93205838D01*
X147952638Y-93179008D01*
X147939263Y-93150730D01*
X147928725Y-93121278D01*
X147921125Y-93090935D01*
X147916535Y-93059993D01*
X147915000Y-93028750D01*
X147915000Y-92391250D01*
X147916535Y-92360007D01*
X147921125Y-92329065D01*
X147928725Y-92298722D01*
X147939263Y-92269270D01*
X147952638Y-92240992D01*
X147968719Y-92214162D01*
X147987353Y-92189037D01*
X148008360Y-92165860D01*
X148031537Y-92144853D01*
X148056662Y-92126219D01*
X148083492Y-92110138D01*
X148111770Y-92096763D01*
X148141222Y-92086225D01*
X148171565Y-92078625D01*
X148202507Y-92074035D01*
X148233750Y-92072500D01*
X148946250Y-92072500D01*
X148977493Y-92074035D01*
G37*
G36*
X148977493Y-90499035D02*
G01*
X149008435Y-90503625D01*
X149038778Y-90511225D01*
X149068230Y-90521763D01*
X149096508Y-90535138D01*
X149123338Y-90551219D01*
X149148463Y-90569853D01*
X149171640Y-90590860D01*
X149192647Y-90614037D01*
X149211281Y-90639162D01*
X149227362Y-90665992D01*
X149240737Y-90694270D01*
X149251275Y-90723722D01*
X149258875Y-90754065D01*
X149263465Y-90785007D01*
X149265000Y-90816250D01*
X149265000Y-91453750D01*
X149263465Y-91484993D01*
X149258875Y-91515935D01*
X149251275Y-91546278D01*
X149240737Y-91575730D01*
X149227362Y-91604008D01*
X149211281Y-91630838D01*
X149192647Y-91655963D01*
X149171640Y-91679140D01*
X149148463Y-91700147D01*
X149123338Y-91718781D01*
X149096508Y-91734862D01*
X149068230Y-91748237D01*
X149038778Y-91758775D01*
X149008435Y-91766375D01*
X148977493Y-91770965D01*
X148946250Y-91772500D01*
X148233750Y-91772500D01*
X148202507Y-91770965D01*
X148171565Y-91766375D01*
X148141222Y-91758775D01*
X148111770Y-91748237D01*
X148083492Y-91734862D01*
X148056662Y-91718781D01*
X148031537Y-91700147D01*
X148008360Y-91679140D01*
X147987353Y-91655963D01*
X147968719Y-91630838D01*
X147952638Y-91604008D01*
X147939263Y-91575730D01*
X147928725Y-91546278D01*
X147921125Y-91515935D01*
X147916535Y-91484993D01*
X147915000Y-91453750D01*
X147915000Y-90816250D01*
X147916535Y-90785007D01*
X147921125Y-90754065D01*
X147928725Y-90723722D01*
X147939263Y-90694270D01*
X147952638Y-90665992D01*
X147968719Y-90639162D01*
X147987353Y-90614037D01*
X148008360Y-90590860D01*
X148031537Y-90569853D01*
X148056662Y-90551219D01*
X148083492Y-90535138D01*
X148111770Y-90521763D01*
X148141222Y-90511225D01*
X148171565Y-90503625D01*
X148202507Y-90499035D01*
X148233750Y-90497500D01*
X148946250Y-90497500D01*
X148977493Y-90499035D01*
G37*
G36*
X167011493Y-78917035D02*
G01*
X167042435Y-78921625D01*
X167072778Y-78929225D01*
X167102230Y-78939763D01*
X167130508Y-78953138D01*
X167157338Y-78969219D01*
X167182463Y-78987853D01*
X167205640Y-79008860D01*
X167226647Y-79032037D01*
X167245281Y-79057162D01*
X167261362Y-79083992D01*
X167274737Y-79112270D01*
X167285275Y-79141722D01*
X167292875Y-79172065D01*
X167297465Y-79203007D01*
X167299000Y-79234250D01*
X167299000Y-79871750D01*
X167297465Y-79902993D01*
X167292875Y-79933935D01*
X167285275Y-79964278D01*
X167274737Y-79993730D01*
X167261362Y-80022008D01*
X167245281Y-80048838D01*
X167226647Y-80073963D01*
X167205640Y-80097140D01*
X167182463Y-80118147D01*
X167157338Y-80136781D01*
X167130508Y-80152862D01*
X167102230Y-80166237D01*
X167072778Y-80176775D01*
X167042435Y-80184375D01*
X167011493Y-80188965D01*
X166980250Y-80190500D01*
X166267750Y-80190500D01*
X166236507Y-80188965D01*
X166205565Y-80184375D01*
X166175222Y-80176775D01*
X166145770Y-80166237D01*
X166117492Y-80152862D01*
X166090662Y-80136781D01*
X166065537Y-80118147D01*
X166042360Y-80097140D01*
X166021353Y-80073963D01*
X166002719Y-80048838D01*
X165986638Y-80022008D01*
X165973263Y-79993730D01*
X165962725Y-79964278D01*
X165955125Y-79933935D01*
X165950535Y-79902993D01*
X165949000Y-79871750D01*
X165949000Y-79234250D01*
X165950535Y-79203007D01*
X165955125Y-79172065D01*
X165962725Y-79141722D01*
X165973263Y-79112270D01*
X165986638Y-79083992D01*
X166002719Y-79057162D01*
X166021353Y-79032037D01*
X166042360Y-79008860D01*
X166065537Y-78987853D01*
X166090662Y-78969219D01*
X166117492Y-78953138D01*
X166145770Y-78939763D01*
X166175222Y-78929225D01*
X166205565Y-78921625D01*
X166236507Y-78917035D01*
X166267750Y-78915500D01*
X166980250Y-78915500D01*
X167011493Y-78917035D01*
G37*
G36*
X167011493Y-77342035D02*
G01*
X167042435Y-77346625D01*
X167072778Y-77354225D01*
X167102230Y-77364763D01*
X167130508Y-77378138D01*
X167157338Y-77394219D01*
X167182463Y-77412853D01*
X167205640Y-77433860D01*
X167226647Y-77457037D01*
X167245281Y-77482162D01*
X167261362Y-77508992D01*
X167274737Y-77537270D01*
X167285275Y-77566722D01*
X167292875Y-77597065D01*
X167297465Y-77628007D01*
X167299000Y-77659250D01*
X167299000Y-78296750D01*
X167297465Y-78327993D01*
X167292875Y-78358935D01*
X167285275Y-78389278D01*
X167274737Y-78418730D01*
X167261362Y-78447008D01*
X167245281Y-78473838D01*
X167226647Y-78498963D01*
X167205640Y-78522140D01*
X167182463Y-78543147D01*
X167157338Y-78561781D01*
X167130508Y-78577862D01*
X167102230Y-78591237D01*
X167072778Y-78601775D01*
X167042435Y-78609375D01*
X167011493Y-78613965D01*
X166980250Y-78615500D01*
X166267750Y-78615500D01*
X166236507Y-78613965D01*
X166205565Y-78609375D01*
X166175222Y-78601775D01*
X166145770Y-78591237D01*
X166117492Y-78577862D01*
X166090662Y-78561781D01*
X166065537Y-78543147D01*
X166042360Y-78522140D01*
X166021353Y-78498963D01*
X166002719Y-78473838D01*
X165986638Y-78447008D01*
X165973263Y-78418730D01*
X165962725Y-78389278D01*
X165955125Y-78358935D01*
X165950535Y-78327993D01*
X165949000Y-78296750D01*
X165949000Y-77659250D01*
X165950535Y-77628007D01*
X165955125Y-77597065D01*
X165962725Y-77566722D01*
X165973263Y-77537270D01*
X165986638Y-77508992D01*
X166002719Y-77482162D01*
X166021353Y-77457037D01*
X166042360Y-77433860D01*
X166065537Y-77412853D01*
X166090662Y-77394219D01*
X166117492Y-77378138D01*
X166145770Y-77364763D01*
X166175222Y-77354225D01*
X166205565Y-77346625D01*
X166236507Y-77342035D01*
X166267750Y-77340500D01*
X166980250Y-77340500D01*
X167011493Y-77342035D01*
G37*
G36*
X158845993Y-94576535D02*
G01*
X158876935Y-94581125D01*
X158907278Y-94588725D01*
X158936730Y-94599263D01*
X158965008Y-94612638D01*
X158991838Y-94628719D01*
X159016963Y-94647353D01*
X159040140Y-94668360D01*
X159061147Y-94691537D01*
X159079781Y-94716662D01*
X159095862Y-94743492D01*
X159109237Y-94771770D01*
X159119775Y-94801222D01*
X159127375Y-94831565D01*
X159131965Y-94862507D01*
X159133500Y-94893750D01*
X159133500Y-95606250D01*
X159131965Y-95637493D01*
X159127375Y-95668435D01*
X159119775Y-95698778D01*
X159109237Y-95728230D01*
X159095862Y-95756508D01*
X159079781Y-95783338D01*
X159061147Y-95808463D01*
X159040140Y-95831640D01*
X159016963Y-95852647D01*
X158991838Y-95871281D01*
X158965008Y-95887362D01*
X158936730Y-95900737D01*
X158907278Y-95911275D01*
X158876935Y-95918875D01*
X158845993Y-95923465D01*
X158814750Y-95925000D01*
X158177250Y-95925000D01*
X158146007Y-95923465D01*
X158115065Y-95918875D01*
X158084722Y-95911275D01*
X158055270Y-95900737D01*
X158026992Y-95887362D01*
X158000162Y-95871281D01*
X157975037Y-95852647D01*
X157951860Y-95831640D01*
X157930853Y-95808463D01*
X157912219Y-95783338D01*
X157896138Y-95756508D01*
X157882763Y-95728230D01*
X157872225Y-95698778D01*
X157864625Y-95668435D01*
X157860035Y-95637493D01*
X157858500Y-95606250D01*
X157858500Y-94893750D01*
X157860035Y-94862507D01*
X157864625Y-94831565D01*
X157872225Y-94801222D01*
X157882763Y-94771770D01*
X157896138Y-94743492D01*
X157912219Y-94716662D01*
X157930853Y-94691537D01*
X157951860Y-94668360D01*
X157975037Y-94647353D01*
X158000162Y-94628719D01*
X158026992Y-94612638D01*
X158055270Y-94599263D01*
X158084722Y-94588725D01*
X158115065Y-94581125D01*
X158146007Y-94576535D01*
X158177250Y-94575000D01*
X158814750Y-94575000D01*
X158845993Y-94576535D01*
G37*
G36*
X160420993Y-94576535D02*
G01*
X160451935Y-94581125D01*
X160482278Y-94588725D01*
X160511730Y-94599263D01*
X160540008Y-94612638D01*
X160566838Y-94628719D01*
X160591963Y-94647353D01*
X160615140Y-94668360D01*
X160636147Y-94691537D01*
X160654781Y-94716662D01*
X160670862Y-94743492D01*
X160684237Y-94771770D01*
X160694775Y-94801222D01*
X160702375Y-94831565D01*
X160706965Y-94862507D01*
X160708500Y-94893750D01*
X160708500Y-95606250D01*
X160706965Y-95637493D01*
X160702375Y-95668435D01*
X160694775Y-95698778D01*
X160684237Y-95728230D01*
X160670862Y-95756508D01*
X160654781Y-95783338D01*
X160636147Y-95808463D01*
X160615140Y-95831640D01*
X160591963Y-95852647D01*
X160566838Y-95871281D01*
X160540008Y-95887362D01*
X160511730Y-95900737D01*
X160482278Y-95911275D01*
X160451935Y-95918875D01*
X160420993Y-95923465D01*
X160389750Y-95925000D01*
X159752250Y-95925000D01*
X159721007Y-95923465D01*
X159690065Y-95918875D01*
X159659722Y-95911275D01*
X159630270Y-95900737D01*
X159601992Y-95887362D01*
X159575162Y-95871281D01*
X159550037Y-95852647D01*
X159526860Y-95831640D01*
X159505853Y-95808463D01*
X159487219Y-95783338D01*
X159471138Y-95756508D01*
X159457763Y-95728230D01*
X159447225Y-95698778D01*
X159439625Y-95668435D01*
X159435035Y-95637493D01*
X159433500Y-95606250D01*
X159433500Y-94893750D01*
X159435035Y-94862507D01*
X159439625Y-94831565D01*
X159447225Y-94801222D01*
X159457763Y-94771770D01*
X159471138Y-94743492D01*
X159487219Y-94716662D01*
X159505853Y-94691537D01*
X159526860Y-94668360D01*
X159550037Y-94647353D01*
X159575162Y-94628719D01*
X159601992Y-94612638D01*
X159630270Y-94599263D01*
X159659722Y-94588725D01*
X159690065Y-94581125D01*
X159721007Y-94576535D01*
X159752250Y-94575000D01*
X160389750Y-94575000D01*
X160420993Y-94576535D01*
G37*
G36*
X167011493Y-81888535D02*
G01*
X167042435Y-81893125D01*
X167072778Y-81900725D01*
X167102230Y-81911263D01*
X167130508Y-81924638D01*
X167157338Y-81940719D01*
X167182463Y-81959353D01*
X167205640Y-81980360D01*
X167226647Y-82003537D01*
X167245281Y-82028662D01*
X167261362Y-82055492D01*
X167274737Y-82083770D01*
X167285275Y-82113222D01*
X167292875Y-82143565D01*
X167297465Y-82174507D01*
X167299000Y-82205750D01*
X167299000Y-82843250D01*
X167297465Y-82874493D01*
X167292875Y-82905435D01*
X167285275Y-82935778D01*
X167274737Y-82965230D01*
X167261362Y-82993508D01*
X167245281Y-83020338D01*
X167226647Y-83045463D01*
X167205640Y-83068640D01*
X167182463Y-83089647D01*
X167157338Y-83108281D01*
X167130508Y-83124362D01*
X167102230Y-83137737D01*
X167072778Y-83148275D01*
X167042435Y-83155875D01*
X167011493Y-83160465D01*
X166980250Y-83162000D01*
X166267750Y-83162000D01*
X166236507Y-83160465D01*
X166205565Y-83155875D01*
X166175222Y-83148275D01*
X166145770Y-83137737D01*
X166117492Y-83124362D01*
X166090662Y-83108281D01*
X166065537Y-83089647D01*
X166042360Y-83068640D01*
X166021353Y-83045463D01*
X166002719Y-83020338D01*
X165986638Y-82993508D01*
X165973263Y-82965230D01*
X165962725Y-82935778D01*
X165955125Y-82905435D01*
X165950535Y-82874493D01*
X165949000Y-82843250D01*
X165949000Y-82205750D01*
X165950535Y-82174507D01*
X165955125Y-82143565D01*
X165962725Y-82113222D01*
X165973263Y-82083770D01*
X165986638Y-82055492D01*
X166002719Y-82028662D01*
X166021353Y-82003537D01*
X166042360Y-81980360D01*
X166065537Y-81959353D01*
X166090662Y-81940719D01*
X166117492Y-81924638D01*
X166145770Y-81911263D01*
X166175222Y-81900725D01*
X166205565Y-81893125D01*
X166236507Y-81888535D01*
X166267750Y-81887000D01*
X166980250Y-81887000D01*
X167011493Y-81888535D01*
G37*
G36*
X167011493Y-83463535D02*
G01*
X167042435Y-83468125D01*
X167072778Y-83475725D01*
X167102230Y-83486263D01*
X167130508Y-83499638D01*
X167157338Y-83515719D01*
X167182463Y-83534353D01*
X167205640Y-83555360D01*
X167226647Y-83578537D01*
X167245281Y-83603662D01*
X167261362Y-83630492D01*
X167274737Y-83658770D01*
X167285275Y-83688222D01*
X167292875Y-83718565D01*
X167297465Y-83749507D01*
X167299000Y-83780750D01*
X167299000Y-84418250D01*
X167297465Y-84449493D01*
X167292875Y-84480435D01*
X167285275Y-84510778D01*
X167274737Y-84540230D01*
X167261362Y-84568508D01*
X167245281Y-84595338D01*
X167226647Y-84620463D01*
X167205640Y-84643640D01*
X167182463Y-84664647D01*
X167157338Y-84683281D01*
X167130508Y-84699362D01*
X167102230Y-84712737D01*
X167072778Y-84723275D01*
X167042435Y-84730875D01*
X167011493Y-84735465D01*
X166980250Y-84737000D01*
X166267750Y-84737000D01*
X166236507Y-84735465D01*
X166205565Y-84730875D01*
X166175222Y-84723275D01*
X166145770Y-84712737D01*
X166117492Y-84699362D01*
X166090662Y-84683281D01*
X166065537Y-84664647D01*
X166042360Y-84643640D01*
X166021353Y-84620463D01*
X166002719Y-84595338D01*
X165986638Y-84568508D01*
X165973263Y-84540230D01*
X165962725Y-84510778D01*
X165955125Y-84480435D01*
X165950535Y-84449493D01*
X165949000Y-84418250D01*
X165949000Y-83780750D01*
X165950535Y-83749507D01*
X165955125Y-83718565D01*
X165962725Y-83688222D01*
X165973263Y-83658770D01*
X165986638Y-83630492D01*
X166002719Y-83603662D01*
X166021353Y-83578537D01*
X166042360Y-83555360D01*
X166065537Y-83534353D01*
X166090662Y-83515719D01*
X166117492Y-83499638D01*
X166145770Y-83486263D01*
X166175222Y-83475725D01*
X166205565Y-83468125D01*
X166236507Y-83463535D01*
X166267750Y-83462000D01*
X166980250Y-83462000D01*
X167011493Y-83463535D01*
G37*
G36*
X177292493Y-85326535D02*
G01*
X177323435Y-85331125D01*
X177353778Y-85338725D01*
X177383230Y-85349263D01*
X177411508Y-85362638D01*
X177438338Y-85378719D01*
X177463463Y-85397353D01*
X177486640Y-85418360D01*
X177507647Y-85441537D01*
X177526281Y-85466662D01*
X177542362Y-85493492D01*
X177555737Y-85521770D01*
X177566275Y-85551222D01*
X177573875Y-85581565D01*
X177578465Y-85612507D01*
X177580000Y-85643750D01*
X177580000Y-86356250D01*
X177578465Y-86387493D01*
X177573875Y-86418435D01*
X177566275Y-86448778D01*
X177555737Y-86478230D01*
X177542362Y-86506508D01*
X177526281Y-86533338D01*
X177507647Y-86558463D01*
X177486640Y-86581640D01*
X177463463Y-86602647D01*
X177438338Y-86621281D01*
X177411508Y-86637362D01*
X177383230Y-86650737D01*
X177353778Y-86661275D01*
X177323435Y-86668875D01*
X177292493Y-86673465D01*
X177261250Y-86675000D01*
X176623750Y-86675000D01*
X176592507Y-86673465D01*
X176561565Y-86668875D01*
X176531222Y-86661275D01*
X176501770Y-86650737D01*
X176473492Y-86637362D01*
X176446662Y-86621281D01*
X176421537Y-86602647D01*
X176398360Y-86581640D01*
X176377353Y-86558463D01*
X176358719Y-86533338D01*
X176342638Y-86506508D01*
X176329263Y-86478230D01*
X176318725Y-86448778D01*
X176311125Y-86418435D01*
X176306535Y-86387493D01*
X176305000Y-86356250D01*
X176305000Y-85643750D01*
X176306535Y-85612507D01*
X176311125Y-85581565D01*
X176318725Y-85551222D01*
X176329263Y-85521770D01*
X176342638Y-85493492D01*
X176358719Y-85466662D01*
X176377353Y-85441537D01*
X176398360Y-85418360D01*
X176421537Y-85397353D01*
X176446662Y-85378719D01*
X176473492Y-85362638D01*
X176501770Y-85349263D01*
X176531222Y-85338725D01*
X176561565Y-85331125D01*
X176592507Y-85326535D01*
X176623750Y-85325000D01*
X177261250Y-85325000D01*
X177292493Y-85326535D01*
G37*
G36*
X178867493Y-85326535D02*
G01*
X178898435Y-85331125D01*
X178928778Y-85338725D01*
X178958230Y-85349263D01*
X178986508Y-85362638D01*
X179013338Y-85378719D01*
X179038463Y-85397353D01*
X179061640Y-85418360D01*
X179082647Y-85441537D01*
X179101281Y-85466662D01*
X179117362Y-85493492D01*
X179130737Y-85521770D01*
X179141275Y-85551222D01*
X179148875Y-85581565D01*
X179153465Y-85612507D01*
X179155000Y-85643750D01*
X179155000Y-86356250D01*
X179153465Y-86387493D01*
X179148875Y-86418435D01*
X179141275Y-86448778D01*
X179130737Y-86478230D01*
X179117362Y-86506508D01*
X179101281Y-86533338D01*
X179082647Y-86558463D01*
X179061640Y-86581640D01*
X179038463Y-86602647D01*
X179013338Y-86621281D01*
X178986508Y-86637362D01*
X178958230Y-86650737D01*
X178928778Y-86661275D01*
X178898435Y-86668875D01*
X178867493Y-86673465D01*
X178836250Y-86675000D01*
X178198750Y-86675000D01*
X178167507Y-86673465D01*
X178136565Y-86668875D01*
X178106222Y-86661275D01*
X178076770Y-86650737D01*
X178048492Y-86637362D01*
X178021662Y-86621281D01*
X177996537Y-86602647D01*
X177973360Y-86581640D01*
X177952353Y-86558463D01*
X177933719Y-86533338D01*
X177917638Y-86506508D01*
X177904263Y-86478230D01*
X177893725Y-86448778D01*
X177886125Y-86418435D01*
X177881535Y-86387493D01*
X177880000Y-86356250D01*
X177880000Y-85643750D01*
X177881535Y-85612507D01*
X177886125Y-85581565D01*
X177893725Y-85551222D01*
X177904263Y-85521770D01*
X177917638Y-85493492D01*
X177933719Y-85466662D01*
X177952353Y-85441537D01*
X177973360Y-85418360D01*
X177996537Y-85397353D01*
X178021662Y-85378719D01*
X178048492Y-85362638D01*
X178076770Y-85349263D01*
X178106222Y-85338725D01*
X178136565Y-85331125D01*
X178167507Y-85326535D01*
X178198750Y-85325000D01*
X178836250Y-85325000D01*
X178867493Y-85326535D01*
G37*
G36*
X177292493Y-92798535D02*
G01*
X177323435Y-92803125D01*
X177353778Y-92810725D01*
X177383230Y-92821263D01*
X177411508Y-92834638D01*
X177438338Y-92850719D01*
X177463463Y-92869353D01*
X177486640Y-92890360D01*
X177507647Y-92913537D01*
X177526281Y-92938662D01*
X177542362Y-92965492D01*
X177555737Y-92993770D01*
X177566275Y-93023222D01*
X177573875Y-93053565D01*
X177578465Y-93084507D01*
X177580000Y-93115750D01*
X177580000Y-93828250D01*
X177578465Y-93859493D01*
X177573875Y-93890435D01*
X177566275Y-93920778D01*
X177555737Y-93950230D01*
X177542362Y-93978508D01*
X177526281Y-94005338D01*
X177507647Y-94030463D01*
X177486640Y-94053640D01*
X177463463Y-94074647D01*
X177438338Y-94093281D01*
X177411508Y-94109362D01*
X177383230Y-94122737D01*
X177353778Y-94133275D01*
X177323435Y-94140875D01*
X177292493Y-94145465D01*
X177261250Y-94147000D01*
X176623750Y-94147000D01*
X176592507Y-94145465D01*
X176561565Y-94140875D01*
X176531222Y-94133275D01*
X176501770Y-94122737D01*
X176473492Y-94109362D01*
X176446662Y-94093281D01*
X176421537Y-94074647D01*
X176398360Y-94053640D01*
X176377353Y-94030463D01*
X176358719Y-94005338D01*
X176342638Y-93978508D01*
X176329263Y-93950230D01*
X176318725Y-93920778D01*
X176311125Y-93890435D01*
X176306535Y-93859493D01*
X176305000Y-93828250D01*
X176305000Y-93115750D01*
X176306535Y-93084507D01*
X176311125Y-93053565D01*
X176318725Y-93023222D01*
X176329263Y-92993770D01*
X176342638Y-92965492D01*
X176358719Y-92938662D01*
X176377353Y-92913537D01*
X176398360Y-92890360D01*
X176421537Y-92869353D01*
X176446662Y-92850719D01*
X176473492Y-92834638D01*
X176501770Y-92821263D01*
X176531222Y-92810725D01*
X176561565Y-92803125D01*
X176592507Y-92798535D01*
X176623750Y-92797000D01*
X177261250Y-92797000D01*
X177292493Y-92798535D01*
G37*
G36*
X178867493Y-92798535D02*
G01*
X178898435Y-92803125D01*
X178928778Y-92810725D01*
X178958230Y-92821263D01*
X178986508Y-92834638D01*
X179013338Y-92850719D01*
X179038463Y-92869353D01*
X179061640Y-92890360D01*
X179082647Y-92913537D01*
X179101281Y-92938662D01*
X179117362Y-92965492D01*
X179130737Y-92993770D01*
X179141275Y-93023222D01*
X179148875Y-93053565D01*
X179153465Y-93084507D01*
X179155000Y-93115750D01*
X179155000Y-93828250D01*
X179153465Y-93859493D01*
X179148875Y-93890435D01*
X179141275Y-93920778D01*
X179130737Y-93950230D01*
X179117362Y-93978508D01*
X179101281Y-94005338D01*
X179082647Y-94030463D01*
X179061640Y-94053640D01*
X179038463Y-94074647D01*
X179013338Y-94093281D01*
X178986508Y-94109362D01*
X178958230Y-94122737D01*
X178928778Y-94133275D01*
X178898435Y-94140875D01*
X178867493Y-94145465D01*
X178836250Y-94147000D01*
X178198750Y-94147000D01*
X178167507Y-94145465D01*
X178136565Y-94140875D01*
X178106222Y-94133275D01*
X178076770Y-94122737D01*
X178048492Y-94109362D01*
X178021662Y-94093281D01*
X177996537Y-94074647D01*
X177973360Y-94053640D01*
X177952353Y-94030463D01*
X177933719Y-94005338D01*
X177917638Y-93978508D01*
X177904263Y-93950230D01*
X177893725Y-93920778D01*
X177886125Y-93890435D01*
X177881535Y-93859493D01*
X177880000Y-93828250D01*
X177880000Y-93115750D01*
X177881535Y-93084507D01*
X177886125Y-93053565D01*
X177893725Y-93023222D01*
X177904263Y-92993770D01*
X177917638Y-92965492D01*
X177933719Y-92938662D01*
X177952353Y-92913537D01*
X177973360Y-92890360D01*
X177996537Y-92869353D01*
X178021662Y-92850719D01*
X178048492Y-92834638D01*
X178076770Y-92821263D01*
X178106222Y-92810725D01*
X178136565Y-92803125D01*
X178167507Y-92798535D01*
X178198750Y-92797000D01*
X178836250Y-92797000D01*
X178867493Y-92798535D01*
G37*
G36*
X168549993Y-86826535D02*
G01*
X168580935Y-86831125D01*
X168611278Y-86838725D01*
X168640730Y-86849263D01*
X168669008Y-86862638D01*
X168695838Y-86878719D01*
X168720963Y-86897353D01*
X168744140Y-86918360D01*
X168765147Y-86941537D01*
X168783781Y-86966662D01*
X168799862Y-86993492D01*
X168813237Y-87021770D01*
X168823775Y-87051222D01*
X168831375Y-87081565D01*
X168835965Y-87112507D01*
X168837500Y-87143750D01*
X168837500Y-87856250D01*
X168835965Y-87887493D01*
X168831375Y-87918435D01*
X168823775Y-87948778D01*
X168813237Y-87978230D01*
X168799862Y-88006508D01*
X168783781Y-88033338D01*
X168765147Y-88058463D01*
X168744140Y-88081640D01*
X168720963Y-88102647D01*
X168695838Y-88121281D01*
X168669008Y-88137362D01*
X168640730Y-88150737D01*
X168611278Y-88161275D01*
X168580935Y-88168875D01*
X168549993Y-88173465D01*
X168518750Y-88175000D01*
X167881250Y-88175000D01*
X167850007Y-88173465D01*
X167819065Y-88168875D01*
X167788722Y-88161275D01*
X167759270Y-88150737D01*
X167730992Y-88137362D01*
X167704162Y-88121281D01*
X167679037Y-88102647D01*
X167655860Y-88081640D01*
X167634853Y-88058463D01*
X167616219Y-88033338D01*
X167600138Y-88006508D01*
X167586763Y-87978230D01*
X167576225Y-87948778D01*
X167568625Y-87918435D01*
X167564035Y-87887493D01*
X167562500Y-87856250D01*
X167562500Y-87143750D01*
X167564035Y-87112507D01*
X167568625Y-87081565D01*
X167576225Y-87051222D01*
X167586763Y-87021770D01*
X167600138Y-86993492D01*
X167616219Y-86966662D01*
X167634853Y-86941537D01*
X167655860Y-86918360D01*
X167679037Y-86897353D01*
X167704162Y-86878719D01*
X167730992Y-86862638D01*
X167759270Y-86849263D01*
X167788722Y-86838725D01*
X167819065Y-86831125D01*
X167850007Y-86826535D01*
X167881250Y-86825000D01*
X168518750Y-86825000D01*
X168549993Y-86826535D01*
G37*
G36*
X166974993Y-86826535D02*
G01*
X167005935Y-86831125D01*
X167036278Y-86838725D01*
X167065730Y-86849263D01*
X167094008Y-86862638D01*
X167120838Y-86878719D01*
X167145963Y-86897353D01*
X167169140Y-86918360D01*
X167190147Y-86941537D01*
X167208781Y-86966662D01*
X167224862Y-86993492D01*
X167238237Y-87021770D01*
X167248775Y-87051222D01*
X167256375Y-87081565D01*
X167260965Y-87112507D01*
X167262500Y-87143750D01*
X167262500Y-87856250D01*
X167260965Y-87887493D01*
X167256375Y-87918435D01*
X167248775Y-87948778D01*
X167238237Y-87978230D01*
X167224862Y-88006508D01*
X167208781Y-88033338D01*
X167190147Y-88058463D01*
X167169140Y-88081640D01*
X167145963Y-88102647D01*
X167120838Y-88121281D01*
X167094008Y-88137362D01*
X167065730Y-88150737D01*
X167036278Y-88161275D01*
X167005935Y-88168875D01*
X166974993Y-88173465D01*
X166943750Y-88175000D01*
X166306250Y-88175000D01*
X166275007Y-88173465D01*
X166244065Y-88168875D01*
X166213722Y-88161275D01*
X166184270Y-88150737D01*
X166155992Y-88137362D01*
X166129162Y-88121281D01*
X166104037Y-88102647D01*
X166080860Y-88081640D01*
X166059853Y-88058463D01*
X166041219Y-88033338D01*
X166025138Y-88006508D01*
X166011763Y-87978230D01*
X166001225Y-87948778D01*
X165993625Y-87918435D01*
X165989035Y-87887493D01*
X165987500Y-87856250D01*
X165987500Y-87143750D01*
X165989035Y-87112507D01*
X165993625Y-87081565D01*
X166001225Y-87051222D01*
X166011763Y-87021770D01*
X166025138Y-86993492D01*
X166041219Y-86966662D01*
X166059853Y-86941537D01*
X166080860Y-86918360D01*
X166104037Y-86897353D01*
X166129162Y-86878719D01*
X166155992Y-86862638D01*
X166184270Y-86849263D01*
X166213722Y-86838725D01*
X166244065Y-86831125D01*
X166275007Y-86826535D01*
X166306250Y-86825000D01*
X166943750Y-86825000D01*
X166974993Y-86826535D01*
G37*
D21*
X164080000Y-88520000D03*
X146080000Y-88520000D03*
D22*
X146080000Y-76520000D03*
D21*
X146080000Y-78020000D03*
X146080000Y-79520000D03*
X146080000Y-81020000D03*
X146080000Y-82520000D03*
X146080000Y-84020000D03*
X146080000Y-85520000D03*
X146080000Y-87020000D03*
X164080000Y-87020000D03*
X164080000Y-85520000D03*
X164080000Y-84020000D03*
X164080000Y-82520000D03*
X164080000Y-81020000D03*
X164080000Y-79520000D03*
X164080000Y-78020000D03*
X164080000Y-76520000D03*
D23*
X156200000Y-83100000D03*
D24*
X142200000Y-97350000D03*
X142850000Y-97350000D03*
X143500000Y-97350000D03*
X144150000Y-97350000D03*
X144800000Y-97350000D03*
D25*
X139775000Y-97400000D03*
X147225000Y-97400000D03*
D26*
X139625000Y-101200000D03*
X147375000Y-101200000D03*
D27*
X141000000Y-98450000D03*
X146000000Y-98450000D03*
D28*
X142412000Y-83947000D03*
X142412000Y-82677000D03*
X142412000Y-81407000D03*
X142412000Y-80137000D03*
X136988000Y-80137000D03*
X136988000Y-81407000D03*
X136988000Y-82677000D03*
X136988000Y-83947000D03*
D12*
G36*
X158121493Y-90550035D02*
G01*
X158152435Y-90554625D01*
X158182778Y-90562225D01*
X158212230Y-90572763D01*
X158240508Y-90586138D01*
X158267338Y-90602219D01*
X158292463Y-90620853D01*
X158315640Y-90641860D01*
X158336647Y-90665037D01*
X158355281Y-90690162D01*
X158371362Y-90716992D01*
X158384737Y-90745270D01*
X158395275Y-90774722D01*
X158402875Y-90805065D01*
X158407465Y-90836007D01*
X158409000Y-90867250D01*
X158409000Y-91504750D01*
X158407465Y-91535993D01*
X158402875Y-91566935D01*
X158395275Y-91597278D01*
X158384737Y-91626730D01*
X158371362Y-91655008D01*
X158355281Y-91681838D01*
X158336647Y-91706963D01*
X158315640Y-91730140D01*
X158292463Y-91751147D01*
X158267338Y-91769781D01*
X158240508Y-91785862D01*
X158212230Y-91799237D01*
X158182778Y-91809775D01*
X158152435Y-91817375D01*
X158121493Y-91821965D01*
X158090250Y-91823500D01*
X157377750Y-91823500D01*
X157346507Y-91821965D01*
X157315565Y-91817375D01*
X157285222Y-91809775D01*
X157255770Y-91799237D01*
X157227492Y-91785862D01*
X157200662Y-91769781D01*
X157175537Y-91751147D01*
X157152360Y-91730140D01*
X157131353Y-91706963D01*
X157112719Y-91681838D01*
X157096638Y-91655008D01*
X157083263Y-91626730D01*
X157072725Y-91597278D01*
X157065125Y-91566935D01*
X157060535Y-91535993D01*
X157059000Y-91504750D01*
X157059000Y-90867250D01*
X157060535Y-90836007D01*
X157065125Y-90805065D01*
X157072725Y-90774722D01*
X157083263Y-90745270D01*
X157096638Y-90716992D01*
X157112719Y-90690162D01*
X157131353Y-90665037D01*
X157152360Y-90641860D01*
X157175537Y-90620853D01*
X157200662Y-90602219D01*
X157227492Y-90586138D01*
X157255770Y-90572763D01*
X157285222Y-90562225D01*
X157315565Y-90554625D01*
X157346507Y-90550035D01*
X157377750Y-90548500D01*
X158090250Y-90548500D01*
X158121493Y-90550035D01*
G37*
G36*
X158121493Y-92125035D02*
G01*
X158152435Y-92129625D01*
X158182778Y-92137225D01*
X158212230Y-92147763D01*
X158240508Y-92161138D01*
X158267338Y-92177219D01*
X158292463Y-92195853D01*
X158315640Y-92216860D01*
X158336647Y-92240037D01*
X158355281Y-92265162D01*
X158371362Y-92291992D01*
X158384737Y-92320270D01*
X158395275Y-92349722D01*
X158402875Y-92380065D01*
X158407465Y-92411007D01*
X158409000Y-92442250D01*
X158409000Y-93079750D01*
X158407465Y-93110993D01*
X158402875Y-93141935D01*
X158395275Y-93172278D01*
X158384737Y-93201730D01*
X158371362Y-93230008D01*
X158355281Y-93256838D01*
X158336647Y-93281963D01*
X158315640Y-93305140D01*
X158292463Y-93326147D01*
X158267338Y-93344781D01*
X158240508Y-93360862D01*
X158212230Y-93374237D01*
X158182778Y-93384775D01*
X158152435Y-93392375D01*
X158121493Y-93396965D01*
X158090250Y-93398500D01*
X157377750Y-93398500D01*
X157346507Y-93396965D01*
X157315565Y-93392375D01*
X157285222Y-93384775D01*
X157255770Y-93374237D01*
X157227492Y-93360862D01*
X157200662Y-93344781D01*
X157175537Y-93326147D01*
X157152360Y-93305140D01*
X157131353Y-93281963D01*
X157112719Y-93256838D01*
X157096638Y-93230008D01*
X157083263Y-93201730D01*
X157072725Y-93172278D01*
X157065125Y-93141935D01*
X157060535Y-93110993D01*
X157059000Y-93079750D01*
X157059000Y-92442250D01*
X157060535Y-92411007D01*
X157065125Y-92380065D01*
X157072725Y-92349722D01*
X157083263Y-92320270D01*
X157096638Y-92291992D01*
X157112719Y-92265162D01*
X157131353Y-92240037D01*
X157152360Y-92216860D01*
X157175537Y-92195853D01*
X157200662Y-92177219D01*
X157227492Y-92161138D01*
X157255770Y-92147763D01*
X157285222Y-92137225D01*
X157315565Y-92129625D01*
X157346507Y-92125035D01*
X157377750Y-92123500D01*
X158090250Y-92123500D01*
X158121493Y-92125035D01*
G37*
G36*
X138563493Y-77342035D02*
G01*
X138594435Y-77346625D01*
X138624778Y-77354225D01*
X138654230Y-77364763D01*
X138682508Y-77378138D01*
X138709338Y-77394219D01*
X138734463Y-77412853D01*
X138757640Y-77433860D01*
X138778647Y-77457037D01*
X138797281Y-77482162D01*
X138813362Y-77508992D01*
X138826737Y-77537270D01*
X138837275Y-77566722D01*
X138844875Y-77597065D01*
X138849465Y-77628007D01*
X138851000Y-77659250D01*
X138851000Y-78296750D01*
X138849465Y-78327993D01*
X138844875Y-78358935D01*
X138837275Y-78389278D01*
X138826737Y-78418730D01*
X138813362Y-78447008D01*
X138797281Y-78473838D01*
X138778647Y-78498963D01*
X138757640Y-78522140D01*
X138734463Y-78543147D01*
X138709338Y-78561781D01*
X138682508Y-78577862D01*
X138654230Y-78591237D01*
X138624778Y-78601775D01*
X138594435Y-78609375D01*
X138563493Y-78613965D01*
X138532250Y-78615500D01*
X137819750Y-78615500D01*
X137788507Y-78613965D01*
X137757565Y-78609375D01*
X137727222Y-78601775D01*
X137697770Y-78591237D01*
X137669492Y-78577862D01*
X137642662Y-78561781D01*
X137617537Y-78543147D01*
X137594360Y-78522140D01*
X137573353Y-78498963D01*
X137554719Y-78473838D01*
X137538638Y-78447008D01*
X137525263Y-78418730D01*
X137514725Y-78389278D01*
X137507125Y-78358935D01*
X137502535Y-78327993D01*
X137501000Y-78296750D01*
X137501000Y-77659250D01*
X137502535Y-77628007D01*
X137507125Y-77597065D01*
X137514725Y-77566722D01*
X137525263Y-77537270D01*
X137538638Y-77508992D01*
X137554719Y-77482162D01*
X137573353Y-77457037D01*
X137594360Y-77433860D01*
X137617537Y-77412853D01*
X137642662Y-77394219D01*
X137669492Y-77378138D01*
X137697770Y-77364763D01*
X137727222Y-77354225D01*
X137757565Y-77346625D01*
X137788507Y-77342035D01*
X137819750Y-77340500D01*
X138532250Y-77340500D01*
X138563493Y-77342035D01*
G37*
G36*
X138563493Y-75767035D02*
G01*
X138594435Y-75771625D01*
X138624778Y-75779225D01*
X138654230Y-75789763D01*
X138682508Y-75803138D01*
X138709338Y-75819219D01*
X138734463Y-75837853D01*
X138757640Y-75858860D01*
X138778647Y-75882037D01*
X138797281Y-75907162D01*
X138813362Y-75933992D01*
X138826737Y-75962270D01*
X138837275Y-75991722D01*
X138844875Y-76022065D01*
X138849465Y-76053007D01*
X138851000Y-76084250D01*
X138851000Y-76721750D01*
X138849465Y-76752993D01*
X138844875Y-76783935D01*
X138837275Y-76814278D01*
X138826737Y-76843730D01*
X138813362Y-76872008D01*
X138797281Y-76898838D01*
X138778647Y-76923963D01*
X138757640Y-76947140D01*
X138734463Y-76968147D01*
X138709338Y-76986781D01*
X138682508Y-77002862D01*
X138654230Y-77016237D01*
X138624778Y-77026775D01*
X138594435Y-77034375D01*
X138563493Y-77038965D01*
X138532250Y-77040500D01*
X137819750Y-77040500D01*
X137788507Y-77038965D01*
X137757565Y-77034375D01*
X137727222Y-77026775D01*
X137697770Y-77016237D01*
X137669492Y-77002862D01*
X137642662Y-76986781D01*
X137617537Y-76968147D01*
X137594360Y-76947140D01*
X137573353Y-76923963D01*
X137554719Y-76898838D01*
X137538638Y-76872008D01*
X137525263Y-76843730D01*
X137514725Y-76814278D01*
X137507125Y-76783935D01*
X137502535Y-76752993D01*
X137501000Y-76721750D01*
X137501000Y-76084250D01*
X137502535Y-76053007D01*
X137507125Y-76022065D01*
X137514725Y-75991722D01*
X137525263Y-75962270D01*
X137538638Y-75933992D01*
X137554719Y-75907162D01*
X137573353Y-75882037D01*
X137594360Y-75858860D01*
X137617537Y-75837853D01*
X137642662Y-75819219D01*
X137669492Y-75803138D01*
X137697770Y-75789763D01*
X137727222Y-75779225D01*
X137757565Y-75771625D01*
X137788507Y-75767035D01*
X137819750Y-75765500D01*
X138532250Y-75765500D01*
X138563493Y-75767035D01*
G37*
G36*
X140341493Y-75767035D02*
G01*
X140372435Y-75771625D01*
X140402778Y-75779225D01*
X140432230Y-75789763D01*
X140460508Y-75803138D01*
X140487338Y-75819219D01*
X140512463Y-75837853D01*
X140535640Y-75858860D01*
X140556647Y-75882037D01*
X140575281Y-75907162D01*
X140591362Y-75933992D01*
X140604737Y-75962270D01*
X140615275Y-75991722D01*
X140622875Y-76022065D01*
X140627465Y-76053007D01*
X140629000Y-76084250D01*
X140629000Y-76721750D01*
X140627465Y-76752993D01*
X140622875Y-76783935D01*
X140615275Y-76814278D01*
X140604737Y-76843730D01*
X140591362Y-76872008D01*
X140575281Y-76898838D01*
X140556647Y-76923963D01*
X140535640Y-76947140D01*
X140512463Y-76968147D01*
X140487338Y-76986781D01*
X140460508Y-77002862D01*
X140432230Y-77016237D01*
X140402778Y-77026775D01*
X140372435Y-77034375D01*
X140341493Y-77038965D01*
X140310250Y-77040500D01*
X139597750Y-77040500D01*
X139566507Y-77038965D01*
X139535565Y-77034375D01*
X139505222Y-77026775D01*
X139475770Y-77016237D01*
X139447492Y-77002862D01*
X139420662Y-76986781D01*
X139395537Y-76968147D01*
X139372360Y-76947140D01*
X139351353Y-76923963D01*
X139332719Y-76898838D01*
X139316638Y-76872008D01*
X139303263Y-76843730D01*
X139292725Y-76814278D01*
X139285125Y-76783935D01*
X139280535Y-76752993D01*
X139279000Y-76721750D01*
X139279000Y-76084250D01*
X139280535Y-76053007D01*
X139285125Y-76022065D01*
X139292725Y-75991722D01*
X139303263Y-75962270D01*
X139316638Y-75933992D01*
X139332719Y-75907162D01*
X139351353Y-75882037D01*
X139372360Y-75858860D01*
X139395537Y-75837853D01*
X139420662Y-75819219D01*
X139447492Y-75803138D01*
X139475770Y-75789763D01*
X139505222Y-75779225D01*
X139535565Y-75771625D01*
X139566507Y-75767035D01*
X139597750Y-75765500D01*
X140310250Y-75765500D01*
X140341493Y-75767035D01*
G37*
G36*
X140341493Y-77342035D02*
G01*
X140372435Y-77346625D01*
X140402778Y-77354225D01*
X140432230Y-77364763D01*
X140460508Y-77378138D01*
X140487338Y-77394219D01*
X140512463Y-77412853D01*
X140535640Y-77433860D01*
X140556647Y-77457037D01*
X140575281Y-77482162D01*
X140591362Y-77508992D01*
X140604737Y-77537270D01*
X140615275Y-77566722D01*
X140622875Y-77597065D01*
X140627465Y-77628007D01*
X140629000Y-77659250D01*
X140629000Y-78296750D01*
X140627465Y-78327993D01*
X140622875Y-78358935D01*
X140615275Y-78389278D01*
X140604737Y-78418730D01*
X140591362Y-78447008D01*
X140575281Y-78473838D01*
X140556647Y-78498963D01*
X140535640Y-78522140D01*
X140512463Y-78543147D01*
X140487338Y-78561781D01*
X140460508Y-78577862D01*
X140432230Y-78591237D01*
X140402778Y-78601775D01*
X140372435Y-78609375D01*
X140341493Y-78613965D01*
X140310250Y-78615500D01*
X139597750Y-78615500D01*
X139566507Y-78613965D01*
X139535565Y-78609375D01*
X139505222Y-78601775D01*
X139475770Y-78591237D01*
X139447492Y-78577862D01*
X139420662Y-78561781D01*
X139395537Y-78543147D01*
X139372360Y-78522140D01*
X139351353Y-78498963D01*
X139332719Y-78473838D01*
X139316638Y-78447008D01*
X139303263Y-78418730D01*
X139292725Y-78389278D01*
X139285125Y-78358935D01*
X139280535Y-78327993D01*
X139279000Y-78296750D01*
X139279000Y-77659250D01*
X139280535Y-77628007D01*
X139285125Y-77597065D01*
X139292725Y-77566722D01*
X139303263Y-77537270D01*
X139316638Y-77508992D01*
X139332719Y-77482162D01*
X139351353Y-77457037D01*
X139372360Y-77433860D01*
X139395537Y-77412853D01*
X139420662Y-77394219D01*
X139447492Y-77378138D01*
X139475770Y-77364763D01*
X139505222Y-77354225D01*
X139535565Y-77346625D01*
X139566507Y-77342035D01*
X139597750Y-77340500D01*
X140310250Y-77340500D01*
X140341493Y-77342035D01*
G37*
G36*
X132721493Y-84962035D02*
G01*
X132752435Y-84966625D01*
X132782778Y-84974225D01*
X132812230Y-84984763D01*
X132840508Y-84998138D01*
X132867338Y-85014219D01*
X132892463Y-85032853D01*
X132915640Y-85053860D01*
X132936647Y-85077037D01*
X132955281Y-85102162D01*
X132971362Y-85128992D01*
X132984737Y-85157270D01*
X132995275Y-85186722D01*
X133002875Y-85217065D01*
X133007465Y-85248007D01*
X133009000Y-85279250D01*
X133009000Y-85916750D01*
X133007465Y-85947993D01*
X133002875Y-85978935D01*
X132995275Y-86009278D01*
X132984737Y-86038730D01*
X132971362Y-86067008D01*
X132955281Y-86093838D01*
X132936647Y-86118963D01*
X132915640Y-86142140D01*
X132892463Y-86163147D01*
X132867338Y-86181781D01*
X132840508Y-86197862D01*
X132812230Y-86211237D01*
X132782778Y-86221775D01*
X132752435Y-86229375D01*
X132721493Y-86233965D01*
X132690250Y-86235500D01*
X131977750Y-86235500D01*
X131946507Y-86233965D01*
X131915565Y-86229375D01*
X131885222Y-86221775D01*
X131855770Y-86211237D01*
X131827492Y-86197862D01*
X131800662Y-86181781D01*
X131775537Y-86163147D01*
X131752360Y-86142140D01*
X131731353Y-86118963D01*
X131712719Y-86093838D01*
X131696638Y-86067008D01*
X131683263Y-86038730D01*
X131672725Y-86009278D01*
X131665125Y-85978935D01*
X131660535Y-85947993D01*
X131659000Y-85916750D01*
X131659000Y-85279250D01*
X131660535Y-85248007D01*
X131665125Y-85217065D01*
X131672725Y-85186722D01*
X131683263Y-85157270D01*
X131696638Y-85128992D01*
X131712719Y-85102162D01*
X131731353Y-85077037D01*
X131752360Y-85053860D01*
X131775537Y-85032853D01*
X131800662Y-85014219D01*
X131827492Y-84998138D01*
X131855770Y-84984763D01*
X131885222Y-84974225D01*
X131915565Y-84966625D01*
X131946507Y-84962035D01*
X131977750Y-84960500D01*
X132690250Y-84960500D01*
X132721493Y-84962035D01*
G37*
G36*
X132721493Y-83387035D02*
G01*
X132752435Y-83391625D01*
X132782778Y-83399225D01*
X132812230Y-83409763D01*
X132840508Y-83423138D01*
X132867338Y-83439219D01*
X132892463Y-83457853D01*
X132915640Y-83478860D01*
X132936647Y-83502037D01*
X132955281Y-83527162D01*
X132971362Y-83553992D01*
X132984737Y-83582270D01*
X132995275Y-83611722D01*
X133002875Y-83642065D01*
X133007465Y-83673007D01*
X133009000Y-83704250D01*
X133009000Y-84341750D01*
X133007465Y-84372993D01*
X133002875Y-84403935D01*
X132995275Y-84434278D01*
X132984737Y-84463730D01*
X132971362Y-84492008D01*
X132955281Y-84518838D01*
X132936647Y-84543963D01*
X132915640Y-84567140D01*
X132892463Y-84588147D01*
X132867338Y-84606781D01*
X132840508Y-84622862D01*
X132812230Y-84636237D01*
X132782778Y-84646775D01*
X132752435Y-84654375D01*
X132721493Y-84658965D01*
X132690250Y-84660500D01*
X131977750Y-84660500D01*
X131946507Y-84658965D01*
X131915565Y-84654375D01*
X131885222Y-84646775D01*
X131855770Y-84636237D01*
X131827492Y-84622862D01*
X131800662Y-84606781D01*
X131775537Y-84588147D01*
X131752360Y-84567140D01*
X131731353Y-84543963D01*
X131712719Y-84518838D01*
X131696638Y-84492008D01*
X131683263Y-84463730D01*
X131672725Y-84434278D01*
X131665125Y-84403935D01*
X131660535Y-84372993D01*
X131659000Y-84341750D01*
X131659000Y-83704250D01*
X131660535Y-83673007D01*
X131665125Y-83642065D01*
X131672725Y-83611722D01*
X131683263Y-83582270D01*
X131696638Y-83553992D01*
X131712719Y-83527162D01*
X131731353Y-83502037D01*
X131752360Y-83478860D01*
X131775537Y-83457853D01*
X131800662Y-83439219D01*
X131827492Y-83423138D01*
X131855770Y-83409763D01*
X131885222Y-83399225D01*
X131915565Y-83391625D01*
X131946507Y-83387035D01*
X131977750Y-83385500D01*
X132690250Y-83385500D01*
X132721493Y-83387035D01*
G37*
G36*
X136785493Y-77342035D02*
G01*
X136816435Y-77346625D01*
X136846778Y-77354225D01*
X136876230Y-77364763D01*
X136904508Y-77378138D01*
X136931338Y-77394219D01*
X136956463Y-77412853D01*
X136979640Y-77433860D01*
X137000647Y-77457037D01*
X137019281Y-77482162D01*
X137035362Y-77508992D01*
X137048737Y-77537270D01*
X137059275Y-77566722D01*
X137066875Y-77597065D01*
X137071465Y-77628007D01*
X137073000Y-77659250D01*
X137073000Y-78296750D01*
X137071465Y-78327993D01*
X137066875Y-78358935D01*
X137059275Y-78389278D01*
X137048737Y-78418730D01*
X137035362Y-78447008D01*
X137019281Y-78473838D01*
X137000647Y-78498963D01*
X136979640Y-78522140D01*
X136956463Y-78543147D01*
X136931338Y-78561781D01*
X136904508Y-78577862D01*
X136876230Y-78591237D01*
X136846778Y-78601775D01*
X136816435Y-78609375D01*
X136785493Y-78613965D01*
X136754250Y-78615500D01*
X136041750Y-78615500D01*
X136010507Y-78613965D01*
X135979565Y-78609375D01*
X135949222Y-78601775D01*
X135919770Y-78591237D01*
X135891492Y-78577862D01*
X135864662Y-78561781D01*
X135839537Y-78543147D01*
X135816360Y-78522140D01*
X135795353Y-78498963D01*
X135776719Y-78473838D01*
X135760638Y-78447008D01*
X135747263Y-78418730D01*
X135736725Y-78389278D01*
X135729125Y-78358935D01*
X135724535Y-78327993D01*
X135723000Y-78296750D01*
X135723000Y-77659250D01*
X135724535Y-77628007D01*
X135729125Y-77597065D01*
X135736725Y-77566722D01*
X135747263Y-77537270D01*
X135760638Y-77508992D01*
X135776719Y-77482162D01*
X135795353Y-77457037D01*
X135816360Y-77433860D01*
X135839537Y-77412853D01*
X135864662Y-77394219D01*
X135891492Y-77378138D01*
X135919770Y-77364763D01*
X135949222Y-77354225D01*
X135979565Y-77346625D01*
X136010507Y-77342035D01*
X136041750Y-77340500D01*
X136754250Y-77340500D01*
X136785493Y-77342035D01*
G37*
G36*
X136785493Y-75767035D02*
G01*
X136816435Y-75771625D01*
X136846778Y-75779225D01*
X136876230Y-75789763D01*
X136904508Y-75803138D01*
X136931338Y-75819219D01*
X136956463Y-75837853D01*
X136979640Y-75858860D01*
X137000647Y-75882037D01*
X137019281Y-75907162D01*
X137035362Y-75933992D01*
X137048737Y-75962270D01*
X137059275Y-75991722D01*
X137066875Y-76022065D01*
X137071465Y-76053007D01*
X137073000Y-76084250D01*
X137073000Y-76721750D01*
X137071465Y-76752993D01*
X137066875Y-76783935D01*
X137059275Y-76814278D01*
X137048737Y-76843730D01*
X137035362Y-76872008D01*
X137019281Y-76898838D01*
X137000647Y-76923963D01*
X136979640Y-76947140D01*
X136956463Y-76968147D01*
X136931338Y-76986781D01*
X136904508Y-77002862D01*
X136876230Y-77016237D01*
X136846778Y-77026775D01*
X136816435Y-77034375D01*
X136785493Y-77038965D01*
X136754250Y-77040500D01*
X136041750Y-77040500D01*
X136010507Y-77038965D01*
X135979565Y-77034375D01*
X135949222Y-77026775D01*
X135919770Y-77016237D01*
X135891492Y-77002862D01*
X135864662Y-76986781D01*
X135839537Y-76968147D01*
X135816360Y-76947140D01*
X135795353Y-76923963D01*
X135776719Y-76898838D01*
X135760638Y-76872008D01*
X135747263Y-76843730D01*
X135736725Y-76814278D01*
X135729125Y-76783935D01*
X135724535Y-76752993D01*
X135723000Y-76721750D01*
X135723000Y-76084250D01*
X135724535Y-76053007D01*
X135729125Y-76022065D01*
X135736725Y-75991722D01*
X135747263Y-75962270D01*
X135760638Y-75933992D01*
X135776719Y-75907162D01*
X135795353Y-75882037D01*
X135816360Y-75858860D01*
X135839537Y-75837853D01*
X135864662Y-75819219D01*
X135891492Y-75803138D01*
X135919770Y-75789763D01*
X135949222Y-75779225D01*
X135979565Y-75771625D01*
X136010507Y-75767035D01*
X136041750Y-75765500D01*
X136754250Y-75765500D01*
X136785493Y-75767035D01*
G37*
M02*
